<?xml version="1.0" encoding="utf-8"?>
<!-- Generator: Adobe Illustrator 26.4.0, SVG Export Plug-In . SVG Version: 6.00 Build 0)  -->
<svg version="1.1" id="Layer_1" xmlns="http://www.w3.org/2000/svg" xmlns:xlink="http://www.w3.org/1999/xlink" x="0px" y="0px"
	 viewBox="0 0 261 76.2" style="enable-background:new 0 0 261 76.2;" xml:space="preserve">
<style type="text/css">
	.st0{fill:#71CDDD;}
	.st1{fill:#2881C4;}
	.st2{fill:none;stroke:#000000;stroke-width:10;stroke-miterlimit:10;}
	.st3{fill:none;}
</style>
<g>
	<path class="st0" d="M243.7,71.1c-8.7,0-8.7-0.3-17.3-0.3c-8.7,0-8.7,0.2-17.3,0.2c-8.7,0-8.7-0.7-17.3-0.7
		c-8.7,0-8.7,0.8-17.3,0.8c-8.7,0-8.7-0.5-17.3-0.5c-8.7,0-8.7-0.2-17.3-0.2c-8.7,0-8.7,0.1-17.3,0.1c-8.7,0-8.7,0.2-17.3,0.2
		c-8.7,0-8.7-0.7-17.3-0.7c-8.7,0-8.7,0.2-17.3,0.2c-8.7,0-8.7,0.7-17.3,0.7c-8.7,0-8.7-0.4-17.3-0.4s-8.7-0.4-17.3-0.4
		c-7.1,0-12.8-5.3-12.8-12.4c0-9.8-0.4-9.8-0.4-19.7s0-9.8,0-19.7c0-7.1,6.1-13,13.2-13c8.7,0,8.7,0.1,17.3,0.1
		c8.7,0,8.7,0.2,17.3,0.2c8.7,0,8.7-0.4,17.3-0.4c8.7,0,8.7,0.3,17.3,0.3c8.7,0,8.7-0.3,17.3-0.3c8.7,0,8.7,0.6,17.3,0.6
		c8.7,0,8.7-0.7,17.3-0.7c8.7,0,8.7,0.2,17.3,0.2c8.7,0,8.7-0.2,17.3-0.2c8.7,0,8.7,1,17.3,1c8.7,0,8.7-0.1,17.3-0.1
		c8.7,0,8.7-0.8,17.3-0.8s8.7,0.4,17.3,0.4c7.1,0,13,5.7,13,12.7c0,9.8,0.2,9.8,0.2,19.7s-0.2,9.8-0.2,19.7
		C256.8,64.9,250.8,71.1,243.7,71.1z"/>
	<path d="M243.7,75.6c-6.4,0-12.7-0.3-19.1-0.3c-6.4,0-12.7,0.3-19.2,0c-6.2-0.4-12.5-1.1-18.7-0.7c-3.1,0.2-6.5,0.6-9.7,0.5
		c-6.4,0.1-12.9-0.6-19.2-0.6c-12.5-0.3-25.6-0.5-38.1-0.4c-9.7,0.1-19,0.1-28.7-0.8c-6.3-0.2-12.6,0-19,0c-3.2,0-6.2-0.1-9.3,0.2
		c-6.4,0.5-13,0.4-19.4,0c-6.2-0.3-12.8-0.2-19.1-0.6c-3.3-0.2-6.8,0.2-10.1-0.7c-6.6-1.6-11.5-8.1-11.3-15c0,0,0-2.4,0-2.4
		c-0.1-6.3-0.5-12.8-1.3-19.1C0.6,29.3,0,22.7,0.7,16.2C2.1,7.8,10.3,1.8,18.6,1.9c7,0,22-0.1,28.7,0C56.9,2.1,66.4,1,76,1.2
		c9.7,0.3,18.9-0.3,28.5-0.6c7.8-0.2,15.7,0.8,23.5,0.2c8-0.9,16.2-0.7,24.2-0.5C163.3,0.6,175-0.6,186,1c6.1,0.4,21.8,0.3,27.9,0.2
		c7.9-0.8,16.4-0.7,24.2-0.2c3.5,0.2,7.2-0.2,10.6,0.9c6.7,2,11.9,8.3,12.2,15.3c0.1,2.6,0,10.6,0,13.4c-0.1,8-1.4,16-1.2,23.9
		c0,1.7,0.2,3.4,0.1,5.1C259.5,68,252.5,75.6,243.7,75.6L243.7,75.6z M243.7,66.7c4.2,0.1,8.8-3.3,9.7-7.7c0.2-1.2,0.3-3,0.3-4.4
		c0.3-7.9-0.6-15.9-1-23.8c-0.2-3.1-0.2-6.4-0.3-9.6l0-2.4l0-0.3l0-0.2c-0.1-1.4-0.5-2.8-1.3-4c-1.8-2.8-5.1-4.2-8.4-4
		c-7.8,0.1-15.8-0.6-23.4,0.2c-3.1,0.4-6.8,0.6-9.9,0.6c-8,0-16.2,0.4-24.3-0.1c-7-1-16.1-0.7-23.3-0.6c-6.3,0.1-12.9-0.1-19.2-0.2
		c-8.1-0.3-15.8,1-23.9,0.5c-4.8-0.2-9.4-0.8-14.2-0.7c-6.3-0.1-12.8,0.2-19.1,0c-8-0.2-15.7-0.8-23.7-0.5c-8,0.2-16.1-0.2-24-0.3
		c0,0-19.1-0.2-19.1-0.2c-0.2,0-0.4,0-0.5,0c-2.2,0-4.3,1.1-5.7,2.6c-1.6,1.7-2.4,3.8-2.5,5.8c0,1.4,0.1,2.8,0.1,4.1
		c0.1,4.8-0.4,9.5-1.1,14.3c-1.1,6.4-0.7,12.6-0.6,19.1c0,0,0,2.4,0,2.4C8,63,12.7,67.6,18.4,67.5c5.2,0,10.4,0.3,15.5,0.3
		c6.3-0.1,12.8,0.3,19.1,0.3c6.3,0,12.8-1.1,19.1-1c6.4-0.1,12.7-0.5,19.2-0.4c6.4,0.3,12.5,0.7,18.9,0.5
		c12.5-0.3,25.7-0.6,38.3-0.5c3.2,0,6.3,0,9.5,0c6.4-0.1,12.6,0.5,19,0.2c3.2-0.1,6.1-0.5,9.4-0.7c6.5-0.5,13,0.1,19.4,0.4
		c6.2,0.1,12.6-0.1,18.9-0.2C231,66.3,237.4,66.7,243.7,66.7L243.7,66.7z"/>
</g>
<g>
	<path class="st1" d="M233.4,70c-9,0-9,0.8-18.1,0.8c-9,0-9-0.3-18.1-0.3c-9,0-9-0.2-18.1-0.2c-9,0-9,0.3-18.1,0.3
		c-9,0-9-0.3-18.1-0.3c-9,0-9,0.2-18.1,0.2c-9,0-9,0.3-18.1,0.3c-9,0-9-0.1-18.1-0.1c-9,0-9,0-18.1,0c-9,0-9-0.8-18.1-0.8
		c-9,0-9,0.8-18.1,0.8s-9,0.3-18.1,0.3c-6.1,0-11.5-5.4-11.5-11.6c0-7,0-7,0-13.9s1-7,1-13.9c0-6.1,4.4-11.2,10.5-11.2
		c9,0,9,0.3,18.1,0.3c9,0,9,0.1,18.1,0.1c9,0,9-0.3,18.1-0.3c9,0,9-0.3,18.1-0.3c9,0,9,0.6,18.1,0.6c9,0,9-0.9,18.1-0.9
		c9,0,9,0.9,18.1,0.9c9,0,9-0.1,18.1-0.1c9,0,9-0.2,18.1-0.2c9,0,9,0,18.1,0c9,0,9,0.4,18.1,0.4c9,0,9-0.2,18.1-0.2
		c6.1,0,10.6,4.8,10.6,10.9c0,7,0.7,7,0.7,13.9s0.2,7,0.2,13.9C245,65.6,239.6,70,233.4,70z"/>
</g>
<g>
	<path class="st2" d="M243.7,70.4c-8.7,0-8.7,0.2-17.3,0.2c-8.7,0-8.7-0.1-17.3-0.1c-8.7,0-8.7,0.6-17.3,0.6
		c-8.7,0-8.7-0.1-17.3-0.1c-8.7,0-8.7-0.5-17.3-0.5c-8.7,0-8.7-0.4-17.3-0.4c-8.7,0-8.7,1-17.3,1c-8.7,0-8.7-0.7-17.3-0.7
		c-8.7,0-8.7,0.1-17.3,0.1c-8.7,0-8.7-0.4-17.3-0.4c-8.7,0-8.7,0.8-17.3,0.8c-8.7,0-8.7-0.4-17.3-0.4s-8.7,0.2-17.3,0.2
		c-7.1,0-13.3-6-13.3-13.1c0-9.8,0.8-9.8,0.8-19.7S5,28.3,5,18.4c0-7.1,6.3-12.6,13.4-12.6c8.7,0,8.7,0,17.3,0c8.7,0,8.7,0,17.3,0
		c8.7,0,8.7,0,17.3,0c8.7,0,8.7-0.6,17.3-0.6c8.7,0,8.7,0.6,17.3,0.6c8.7,0,8.7,0,17.3,0c8.7,0,8.7-0.4,17.3-0.4
		c8.7,0,8.7-0.4,17.3-0.4c8.7,0,8.7,0.7,17.3,0.7c8.7,0,8.7,0.1,17.3,0.1c8.7,0,8.7,0,17.3,0c8.7,0,8.7,0,17.3,0s8.7,0,17.3,0
		c7.1,0,12.3,5.6,12.3,12.6c0,9.8,0,9.8,0,19.7s0,9.8,0,19.7C256,64.9,250.8,70.4,243.7,70.4z"/>
</g>
<g>
	<rect x="62.7" y="23.4" class="st3" width="156.9" height="44.2"/>
	<path d="M79.8,23.7h0.6c0.6,0,1,0.1,1.3,0.1c0.3,0.1,0.6,0.4,1,1.1c0.4,0.6,0.7,1.4,1,2.2c0.3,0.9,0.8,2.4,1.5,4.5
		c1.4,4.4,3,9.2,4.8,14.4c1.7,5,2.6,7.8,2.6,8.5v0.4c-0.1,0.7-0.4,1.3-0.9,1.8s-1,0.8-1.7,0.9h-0.4c-1.3,0-2.2-0.4-2.8-1.3
		c-0.2-0.4-0.7-1.6-1.4-3.6c-0.5-1.5-0.9-2.4-1-2.7c-0.2-0.3-0.5-0.5-0.9-0.7c-1.3-0.5-3-0.7-5.1-0.7h-0.8l-2.6,0.1l-1.2,2.7
		c-0.8,1.8-1.2,3.1-1.3,3.7c-0.1,1.4-0.6,2.5-1.6,3.1c-0.5,0.4-1.1,0.5-1.8,0.5c-1.2,0-2.1-0.5-2.8-1.5c-0.2-0.4-0.4-0.9-0.4-1.5
		c0-1.8,2-7.8,6-17.9c2.1-5.5,3.3-8.5,3.5-9c0.3-0.9,0.7-1.5,1-1.9c0.4-0.4,0.6-0.7,0.6-0.8c0-0.3,0.2-0.6,0.5-1.1
		c0.3-0.4,0.6-0.8,1-1C78.7,23.8,79.2,23.7,79.8,23.7z M81.1,41.1c0-0.3-0.2-1.1-0.6-2.3l-0.8-2.3l-0.9,2.7c-0.6,1.8-1,2.7-1,2.9
		c0,0.1,0.5,0.1,1.4,0.1c0.6,0,1.1,0,1.2-0.1c0.2-0.1,0.3-0.2,0.5-0.4C81,41.4,81.1,41.2,81.1,41.1z"/>
	<path d="M100.2,23.1c0.6-0.4,1.2-0.7,2-0.7c0.7,0,1.3,0.2,1.9,0.5s0.9,0.9,1.1,1.7c0.2,0.8,0.5,2.4,0.7,4.8c0.2,2,0.3,3.7,0.5,5.3
		l0.1,1l0.5-0.4c0.9-0.9,2.1-1.3,3.5-1.3c0.8,0,1.7,0.2,2.7,0.5c2.5,0.9,4.5,2.3,6.1,4.2c1.5,1.9,2.3,4,2.3,6.2v0.7
		c-0.1,1.7-0.7,3.1-1.7,4.3c-1,1.1-2.8,2.3-5.3,3.5c-2.2,1.1-3.5,1.6-3.8,1.7c-0.4,0-0.8,0.4-1.2,1c-0.7,1.1-1.7,1.6-3,1.6
		c-0.5,0-1.1-0.3-1.7-1c-1.6-1.6-2.9-5.6-4-12c-0.4-2.5-0.8-5.7-1.2-9.8c-0.4-4-0.6-7-0.6-8.8c0-0.6,0-1,0.1-1.2
		C99.3,24.1,99.7,23.5,100.2,23.1z M111.2,40.8c-0.2,0-0.4,1.3-0.5,4l-0.1,3.2l1.6-0.8c1.8-0.9,2.7-1.7,2.9-2.5l0.1-0.1v-0.1
		c0-1-1-2.1-2.9-3.2L111.2,40.8z"/>
	<path d="M135.4,35.6h1.7c2.4,0,4,0.2,4.8,0.6c1.6,0.7,3,1.8,4.1,3.1c2,2.5,3.1,5.3,3.1,8.5s-1,5.7-2.9,7.6
		c-1.9,1.9-4.7,2.8-8.2,2.9h-0.2c-3.2,0-5.6-0.8-7.3-2.3c-1.7-1.5-2.5-3.7-2.5-6.6c0-0.7,0.1-1.5,0.2-2.3c0.3-2.1,1-4.3,2-6.8
		c1.1-2.4,2-3.9,2.8-4.3C133.2,35.7,134.1,35.6,135.4,35.6z M139.3,42.2c-0.2-0.1-0.7-0.1-1.4-0.1h-1.5l-0.6,1.3
		c-0.8,1.9-1.3,3.6-1.3,4.9c0,1.4,0.4,2.4,1.3,3c0.6,0.4,1.2,0.7,2,0.7c1.2,0,2.2-0.5,3.2-1.4c1-0.9,1.5-1.9,1.5-3.1
		c0-1.4-0.7-2.8-2.1-4.3C139.9,42.6,139.5,42.3,139.3,42.2z"/>
	<path d="M170.7,32.4c0.9,0,1.6,0.2,2,0.5c0.6,0.4,1,1.2,1.2,2.3c0.2,1.1,0.5,4.2,0.9,9.3c0.4,4.9,0.6,8.1,0.6,9.8v0.4l-0.1,0.2
		c-0.1,0.5-0.4,1-1,1.4c-0.5,0.4-1.1,0.7-1.6,0.8h-0.4c-0.6,0-1.2-0.2-1.8-0.5s-1-0.7-1.2-1.2c-0.3-0.5-0.5-0.8-0.5-0.8
		c-0.2,0-0.7,0.2-1.6,0.5c-0.9,0.4-1.9,0.5-2.8,0.5c-1,0-1.9-0.2-2.6-0.5c-2.9-1.4-4.9-5.4-6.1-11.9c-0.3-1.7-0.4-3-0.4-4
		c0-1,0.2-1.7,0.6-2.2c0.7-0.9,1.6-1.3,2.6-1.3c0.5,0,1,0.1,1.5,0.4c0.6,0.3,1.1,0.8,1.4,1.3c0.3,0.5,0.5,1.5,0.7,2.8
		c0.7,5.1,1.7,8,2.9,8.8c0.1,0,0.2,0.1,0.3,0.1c0.5,0,0.9-0.5,1.3-1.5c0.4-1,0.6-1.8,0.6-2.3c0-0.4,0.1-0.9,0.4-1.4
		c0.2-0.4,0.3-1,0.3-1.7c0-1,0-2-0.1-2.9c-0.1-0.8-0.1-1.8-0.1-2.9c0-1.1,0.1-1.9,0.3-2.3c0.2-0.5,0.6-0.8,1.3-1.2
		C169.7,32.5,170.2,32.4,170.7,32.4z"/>
	<path d="M188.5,27.8c1.2,0,2.1,0.5,2.8,1.4c0.4,0.5,0.6,1.7,0.6,3.7l0.1,3l0.8,0.1c0.6,0.1,1.6,0.1,2.8,0.1c2,0,3.3,0.5,4,1.6
		c0.3,0.5,0.5,1.1,0.5,1.7c0,1.3-0.5,2.3-1.6,2.9c-0.4,0.2-1.2,0.4-2.3,0.4h-1.3l-2.8-0.1l0.2,2.2c0.2,2,0.5,4,0.9,6.1
		s0.8,3.2,1,3.2c0.4,0,0.8-0.6,1.1-1.7c0.2-0.6,0.2-1.4,0.2-2.4c0-1,0.2-1.8,0.5-2.3c0.7-1,1.6-1.6,2.8-1.6c1.2,0,2.1,0.5,2.8,1.6
		c0.3,0.4,0.5,1.3,0.5,2.7c0,4.5-1.5,7.7-4.6,9.7c-1.4,0.9-2.7,1.3-3.8,1.3c-1.4,0-2.6-0.6-3.5-1.7c-2.2-2.7-3.7-8-4.4-15.8
		l-0.2-1.7h-0.8c-0.5,0-1-0.2-1.5-0.5s-0.9-0.7-1.1-1.1c-0.2-0.4-0.3-0.9-0.3-1.4c0-1,0.2-1.8,0.7-2.3c0.7-0.8,1.5-1.2,2.2-1.2
		c0.2,0,0.3-0.1,0.4-0.4c0-0.3,0.1-1,0.1-2.3c0-1.6,0.1-2.6,0.3-3.2c0.2-0.6,0.6-1.1,1.3-1.5C187.2,27.9,187.8,27.8,188.5,27.8z"/>
</g>
</svg>
