<?xml version="1.0" encoding="utf-8"?>
<!-- Generator: Adobe Illustrator 26.4.0, SVG Export Plug-In . SVG Version: 6.00 Build 0)  -->
<svg version="1.1" id="Layer_1" xmlns="http://www.w3.org/2000/svg" xmlns:xlink="http://www.w3.org/1999/xlink" x="0px" y="0px"
	 viewBox="0 0 1616.8 232.7" style="enable-background:new 0 0 1616.8 232.7;" xml:space="preserve">
<style type="text/css">
	.st0{fill-rule:evenodd;clip-rule:evenodd;fill:#AB3023;}
	.st1{fill-rule:evenodd;clip-rule:evenodd;fill:#C76D7F;}
	.st2{fill-rule:evenodd;clip-rule:evenodd;fill:#757D9F;}
	.st3{fill-rule:evenodd;clip-rule:evenodd;fill:#065A93;}
	.st4{fill-rule:evenodd;clip-rule:evenodd;fill:#B39E3A;}
	.st5{fill-rule:evenodd;clip-rule:evenodd;fill:#047D6C;}
	.st6{fill-rule:evenodd;clip-rule:evenodd;fill:#0AFAF9;}
	.st7{fill-rule:evenodd;clip-rule:evenodd;fill:#FFFFA6;}
	.st8{fill-rule:evenodd;clip-rule:evenodd;fill:#EC815D;}
	.st9{fill-rule:evenodd;clip-rule:evenodd;fill:#F7F8FC;}
	.st10{fill-rule:evenodd;clip-rule:evenodd;fill:#FFFFFF;}
	.st11{fill-rule:evenodd;clip-rule:evenodd;fill:#05A38D;}
	.st12{fill-rule:evenodd;clip-rule:evenodd;fill:#FDE153;}
	.st13{fill-rule:evenodd;clip-rule:evenodd;fill:#0883D6;}
	.st14{fill-rule:evenodd;clip-rule:evenodd;fill:#A1ADDC;}
	.st15{fill-rule:evenodd;clip-rule:evenodd;fill:#FF8CA2;}
	.st16{fill-rule:evenodd;clip-rule:evenodd;fill:#FC4733;}
	.st17{fill-rule:evenodd;clip-rule:evenodd;}
</style>
<path class="st0" d="M590.7,74.7l-0.1,2.5l-0.2,1.8l-0.2,1.8l-0.4,6.9l-0.4,6.9l0,7.6l0,7.6l0.8,6.6l0.8,6.6l0.3,5.7l0.3,5.7
	l0.7,2.2l0.7,2.2l0.1,1.5l0.1,1.5l0.3,4.7l0.3,4.7l1.1,3.4l1.1,3.4l0.4,3.5l0.4,3.5l1,1.6l1,1.6v1v1l1.3,1.2l1.3,1.2l5.4,0.7
	l5.4,0.7l5.8,0l5.8,0l1.1-0.7l1.1-0.7l-1.4,0l-1.4,0l1.2-1.8l1.2-1.8v-0.3v-0.3l-9.3,0.1l-9.3,0.1l-1.2-1l-1.2-1v-1.4V164l-2.2-4.3
	l-2.2-4.3v-1.2v-1.2l-1.4-4.8l-1.4-4.8l-0.9-4.4l-0.9-4.4l-0.3-5.1l-0.3-5.1l-0.4-6.9l-0.4-6.9l0.1-10.9l0.1-10.9l0.2-4l0.2-4
	l0.4-4.5l0.4-4.5l-2.5,0.1l-2.5,0.1L590.7,74.7"/>
<path class="st1" d="M593.7,67.3l-2.5,1.2l-0.3,1.3l-0.3,1.3l0.7,0.7l0.7,0.7l1.8-0.5l1.8-0.5l0.3-2.8l0.3-2.8l0,0l0,0L593.7,67.3
	 M657.2,80l0.3,9.7l0.3,1.1l0.3,1.1l0.5,3.3l0.5,3.3l1.6,1.9l1.6,1.9l3.5,0.3l3.5,0.3l1.5,0.8l1.5,0.8l7.1,0.1l7.1,0.1l1.1,1.4
	l1.1,1.4l-0.1,5.4l-0.1,5.4l0.5,9.8l0.5,9.8l0.7,3.2l0.7,3.2l-0.4,1.2l-0.4,1.2l1.5,7.1l1.5,7.1l-0.1,0.5l-0.1,0.5l0.6,2.8l0.6,2.8
	l3.1,1.3l3.1,1.3l6.9-0.3l6.9-0.3l5.8,0.1l5.8,0.1l0.2-1.8l0.1-1.8l-0.6-0.3l-0.6-0.3l-10.1-0.4l-10.1-0.4l-2-0.8l-2-0.8l-1.8,0.3
	l-1.8,0.3l-0.4-3l-0.4-3l-0.6-9.1l-0.6-9.1l0-1.1l0-1.1l-0.3-6.3l-0.3-6.3l-0.4-1.3l-0.4-1.3l-0.7-6l-0.7-6l-0.7-2.7l-0.7-2.7
	l-2.7-1.5l-2.7-1.5l-3.3-0.5l-3.3-0.5l-2.5-0.3l-2.5-0.3l-3-0.5l-3-0.5l-1.3-2.6l-1.3-2.6l-1.1-2.9l-1.1-2.9l-0.8-8.7l-0.8-8.7
	l-2-0.2l-2-0.2L657.2,80 M624.6,170.6l-1.2,2l1.4,0.4l1.4,0.4l0.7-0.5l0.7-0.5l0.8-1.6l0.8-1.6l-1.7-0.3l-1.7-0.3L624.6,170.6"/>
<path class="st2" d="M92,77.6l-0.1,5.4l0,8.3l0,8.3l0,5.1l0,5.1l0,1.5l0,1.5l0.8,6.9l0.8,6.9l0.3,2.2l0.3,2.2l0.8,5.1l0.8,5.1
	L96,143l0.2,1.8l0.4,0.7l0.4,0.7l0.4,4.4l0.4,4.4l1.7,5.1l1.7,5.1l1.2,3l1.2,3l3.3,0.8l3.3,0.8h9.2l9.2,0l6.2-0.7l6.2-0.7l1.8-1.4
	l1.8-1.4l3.3-4.5l3.3-4.5l3.3-2.4l3.3-2.4l2.4,0.6l2.4,0.6l2.7,3.6l2.7,3.6h0.5h0.5l1.7,2.7l1.7,2.7l1.4,1.4l1.4,1.4l4.5,1.2
	l4.5,1.2l7.6-0.6l7.6-0.6l3.3-0.3l3.3-0.3l0.9-0.1l0.9-0.1l-0.4-1.2l-0.4-1.1l-8.1,0.1l-8.1,0.1l-4.7-1l-4.7-1l-2.4-1.3l-2.4-1.3
	l-0.4-1.1l-0.4-1.1h-1h-1l-3.1-3.9l-3.1-3.9l-2.8-2.3l-2.8-2.3h-3.2h-3.2l-4.5,4.2l-4.5,4.2l-0.4,0.4l-0.4,0.4l-2.9,2.3l-2.9,2.3
	l-5.4,1.2l-5.4,1.2l-6.6,0.6l-6.6,0.6l-4.2-0.6l-4.2-0.6l-0.2-0.2l-0.2-0.2l-1.9-3.8L103,159v-1.9v-1.9l-0.7-1.3l-0.7-1.3l-0.5-5
	l-0.5-5l0-1.1l0-1.1l-0.8-3.3l-0.8-3.3l-0.2-5.4l-0.2-5.4l-0.4-6.2l-0.4-6.2l-0.3-15.6l-0.3-15.6l0-3.4l0-3.4l-1.9,0.9l-1.9,0.9
	l-0.7-1l-0.7-1L92,77.6"/>
<path class="st3" d="M276.5,67.9l-3.9,1.8l-2.5,2.2l-2.5,2.2h-0.8h-0.8l-5.3,5.4l-5.3,5.4l-1.3,2.4l-1.3,2.4l-2.1,4.1l-2.1,4.1
	l-0.7,0.4l-0.7,0.4v2v2l-0.6,0.7l-0.6,0.7l-0.8,4.7l-0.8,4.7l0,3.3l0,3.3l0.4,5.7l0.4,5.7l1.4,3.7l1.4,3.7l-0.4,0.4l-0.4,0.4
	l2.1,4.2l2.1,4.2l4.9,5.8l4.9,5.8l2.5,2l2.5,2l2.6,1.7l2.6,1.7l2.8,0.9l2.8,0.9l0.7,0.3l0.7,0.3l1.1,0.7l1.1,0.7l5.9,0.9l5.9,0.9
	l4.9-0.5l4.9-0.5l3-0.9l3-0.9l-1.1-0.4l-1-0.4l-5.4,0.5l-5.4,0.5l-5.4-0.8l-5.4-0.8l-1.1-0.4l-1.1-0.4l-2.5-0.4l-2.5-0.4l-3.2-1.6
	l-3.2-1.6v-0.5V162l-1.7-0.4l-1.7-0.4l-3.2-3.1l-3.2-3.1l-1.4-1.2l-1.4-1.2l-1.3-1.7l-1.3-1.7l-2.9-4.7l-2.9-4.7l-0.7-4.2l-0.7-4.2
	l-0.7-1.8l-0.7-1.8l0.2-9l0.2-9l1.4-3.3l1.4-3.3l0.9-2.5l0.9-2.5l2.2-4.7l2.2-4.7l1.9-2.3l1.9-2.3l1.5-1.9l1.5-1.9l4.2-4.4l4.2-4.4
	v-0.5v-0.5l4.2-1.8l4.2-1.8l1.1-0.4l1.1-0.4l-1.1-0.1l-1.1-0.1L276.5,67.9 M294.6,96.9l-1.8,1l3.3,0l3.3,0l3.7,1.4l3.7,1.4l2.6,2.1
	l2.6,2.1l0.4,1.5l0.4,1.5l1.5,3.1l1.5,3.1l0.2,4.1l0.2,4.1l-2.9,4.3l-2.9,4.3l-1.5,0.7l-1.5,0.7l-2.5,1.8l-2.5,1.8l-1.9,0l-1.9,0
	l-1.1,0.7l-1.1,0.7l2.2-0.3l2.2-0.3l2.7-0.4l2.7-0.4l0.9-0.9l0.9-0.9l1.5-1.1l1.5-1.1l3.1-3.4l3.1-3.4l0.6-6.1l0.6-6.1l-2.1-3.8
	l-2.1-3.8l-3.5-3.2l-3.5-3.3l-4.8-1.5l-4.8-1.5l-0.6,0l-0.6,0L294.6,96.9"/>
<path class="st4" d="M361.8,69.8l0.4,1.6l0.3,9.1l0.3,9.1l0.5,3.3l0.5,3.3l1.3,2.5l1.3,2.5l1.7,0.9l1.7,0.9l2.4,0l2.4,0l1.6,0.8
	l1.6,0.8l6.8,0.2l6.8,0.2l1.4,1.2l1.4,1.2l0,7.8l0,7.8l0.4,7.3l0.4,7.3l0.7,3.9l0.7,3.9l-0.4,0.7l-0.4,0.7l1.2,6.4l1.2,6.4l0.3,2.8
	l0.3,2.8l0.9,1.9l0.9,1.9l2.5,0.8l2.5,0.8l10.5-0.2l10.5-0.2l4-0.1l4-0.1l0.8-1.3l0.8-1.3l-11-0.2l-11-0.2l-4.6-0.8l-4.6-0.8
	l-0.4-1.2l-0.4-1.2l-0.6-1.5l-0.6-1.5l-1.2-4.6l-1.2-4.6l0.4-0.4l0.4-0.4l-0.7-1.9l-0.7-1.9l-0.7-5.4l-0.7-5.4l-0.4-1.8l-0.4-1.8
	l-0.3-9.8l-0.3-9.8l-0.9-3.3l-0.9-3.3l-1.2-1.2l-1.2-1.2l-9.1-1.5l-9.1-1.5l-2.1-0.6l-2.1-0.6l-1.1-2.9l-1.1-2.9l-1.7-7.9l-1.7-7.9
	l-0.5-4.6l-0.5-4.6h-1.4h-1.4L361.8,69.8"/>
<path class="st5" d="M523.6,84.6l-2.3,1.1l-2.3,2.4l-2.3,2.4l-0.4,2.9l-0.4,2.9l0.8,1.6l0.8,1.6l1.2,0l1.2,0l-0.8-0.5l-0.8-0.5
	l-0.5-1.5l-0.5-1.5l0.8-2l0.8-2l1.6-1.6l1.6-1.6l1.5-0.8l1.5-0.8l4.6,0.1l4.6,0.1l3.1,3.6l3.1,3.6l2.5-0.4l2.5-0.4l1.6-0.3l1.6-0.3
	l5.3-1.9l5.3-1.9l0.9-0.8l0.9-0.8l-0.4-0.6l-0.4-0.6h-1.7h-1.7l-1.2,1.4l-1.2,1.4l-1.6,0.4l-1.6,0.4L548,90l-3.3,0.8l-1.2,0.4
	l-1.2,0.4l-3.6-3.2l-3.6-3.2l-3.7-0.8l-3.7-0.8l-0.9,0l-0.9,0L523.6,84.6 M491,89.7l-0.5,4l-0.3,5.5l-0.3,5.5l0.6,0.8l0.6,0.8
	l0.5,2.5l0.5,2.5l2.3,4.2l2.3,4.2l4.3,2.9l4.3,2.9l2.3,0.3l2.3,0.3l1.7,0.9l1.7,0.9l3.7,1l3.7,1l1.1,0l1.1,0l-1.4-0.8l-1.4-0.8
	l-2.2-0.6l-2.2-0.6l-2.8-1l-2.8-1l-3-1.7l-3-1.7l-4.7-4.8l-4.7-4.8l-1.7-4.3l-1.7-4.3l-0.1-1.5l-0.1-1.5l0.6-7.4l0.6-7.4h-0.4h-0.4
	L491,89.7 M491.8,150.2l1.8,4l2,3l2,3l5.4,4.5l5.4,4.5l1.9,0.5l1.9,0.5l2.3,1.3l2.3,1.3l6.7,0.7l6.7,0.7l4.4-0.6l4.4-0.6l3.6-0.9
	l3.6-0.9l3.8-1.9l3.8-1.9l1.1-2.1l1.1-2.1v-0.3v-0.3l-2.2,1.9l-2.2,1.9h-1h-1l-3.8,1.8l-3.8,1.8l-6.2,0.5l-6.2,0.5l-0.7,0l-0.7,0
	l-5.3-0.7l-5.3-0.7l-1.8-1.2l-1.8-1.2h-1.1h-1.1l-2.4-1.4L507,164l-1,0l-1,0l-4.7-4.9l-4.7-4.9v-1v-1l-1.2-1.8l-1.2-1.8h0.5h0.5
	l-0.8-1.4l-0.8-1.4l-1.4,0.1l-1.4,0.1L491.8,150.2"/>
<path class="st6" d="M519.7,60.9l-4.7,1.2l-3.5,1.7l-3.5,1.7l0.3,0.3l0.3,0.3l2.1-0.8l2.1-0.8l5.1-0.9l5.1-0.9l5.6,0.2l5.6,0.2
	l3.1,0.8l3.1,0.8l3.5,1.8l3.5,1.8l4.3,4.2l4.3,4.2l0.8,2.9l0.8,2.9l1,1.3l1,1.3l1.5-0.8l1.5-0.8l-1.4-2.3l-1.4-2.3l-1.1-2l-1.1-2
	l-3.9-3.6l-3.9-3.6l-1.5-1.5l-1.5-1.5H546h-0.7l-2.4-1.2l-2.4-1.2l-7.7-1.3l-7.7-1.3l-0.4,0l-0.4,0L519.7,60.9 M296.8,64.4v0.7
	l6,0.8l6,0.8l5.3,2.2l5.3,2.2l4.1,3.3l4.1,3.3l3.8,4.7l3.8,4.7v0.1v0.1l2.5,6.1l2.5,6.1v1.2v1.2l0.7,0.7l0.7,0.7l0.6,6.2l0.6,6.2
	l-0.6,4.3l-0.6,4.3l-0.1,2.5l-0.1,2.5l-2.5,7.3l-2.5,7.3l-3.2,4.4l-3.2,4.4v0.8v0.8l-2,1.2l-2,1.2l-0.9,1.1l-0.9,1.1v0.7v0.7
	l5.8-6.1l5.8-6.1v-1.2v-1.2l1.8-1.6l1.8-1.6l0.5-1.9l0.5-1.9l0.6-0.4l0.6-0.4l1.2-5.1l1.2-5.1l1-6.2l1-6.2l-0.5-2.2l-0.5-2.2
	l-0.2-2.9l-0.2-2.9l-1-4.4l-1-4.4l-1.2-2.2l-1.2-2.2l-1.6-3.2l-1.6-3.2l-4.8-5.5l-4.8-5.5l-1.9-1.6l-1.9-1.6H323h-0.8l-2.9-1.8
	l-2.9-1.8h-0.9h-0.9l-2.6-1.4l-2.6-1.4l-4.7-0.4l-4.7-0.4l-1.6-0.5l-1.6-0.5V64.4 M521.8,103v0.6l2,1.9l2,1.9l2.7,1.1l2.7,1.1
	l5.7,0.9l5.7,0.9l1.3,0.7l1.3,0.7h1.1h1.1l2.3,1.6l2.3,1.6l1.4,1.3l1.4,1.3h0.9h0.9l1.3,2l1.3,2l1.8,1.9l1.8,1.9l2,5.2l2,5.2l0,3.5
	l0,3.5l-1.1,2.1l-1.1,2.1v1.7v1.7l-0.6,0.4l-0.6,0.4l-0.5,2l-0.5,2l-1.8,2.1l-1.8,2.1v0.6v0.6l1.5-0.4l1.5-0.4l2.2-2.6l2.2-2.6v-1.2
	v-1.2l0.7-0.3l0.7-0.2l1-4.3l1-4.3l0-3.6l0-3.6l-1.8-4.9l-1.8-4.9l-2.3-3.1l-2.3-3.1l-2.2-2.4l-2.2-2.4l-1.8-0.9l-1.8-0.9l-1.8-1
	l-1.8-1l-2.1-1.8l-2.1-1.8l-2.7-0.6l-2.7-0.6l-4.4-0.3l-4.4-0.3l-4.9-1.8l-4.9-1.8V103 M278.5,105.8l-2.7,2.7l-1.6,3.5l-1.6,3.5
	l-0.1,4.1l-0.1,4.1l1.6,3l1.6,3l2.2,1.8l2.2,1.8l3.8,1.8l3.8,1.8l3.3,0.4l3.3,0.4l-1.5-0.7l-1.5-0.7l-1.9-0.1l-1.9-0.1l-3-2.4
	l-3-2.4l-2.5-3.6l-2.5-3.6l-0.5-2.9l-0.5-2.9l-0.2-0.2l-0.2-0.2l1.1-3.7l1.1-3.7l2-3.8l2-3.8h-0.1h-0.1L278.5,105.8 M502.7,139.1
	l-0.3,0.3l-2.1,0.2l-2.1,0.2l-1.6,0.1l-1.6,0.1l-1,0.9l-1,0.9l-1.3,0.5l-1.3,0.5v0.7v0.7l1.2,0.5l1.2,0.5l1.2-1l1.2-1l3.3-0.9
	l3.3-0.9l4.4,0l4.4,0l2.9,0.5l2.9,0.5l3,2l3,2l2,0.5l2,0.5l-0.5-0.8l-0.5-0.8h-1.2H523l-1.9-1.7l-1.9-1.7l-4-1.5l-4-1.5l-4.1-0.4
	l-4.1-0.4L502.7,139.1"/>
<path class="st7" d="M403.2,65.9l-0.3,0.3l-9.7,0.3l-9.7,0.3l-4.8,0.4l-4.8,0.4l-1.7,0.6l-1.7,0.6l-1.4-0.5l-1.4-0.5L366,68
	l-1.6,0.3l0.2,1.9l0.2,1.9l0.1,0.6l0.1,0.6l2.7-0.4l2.7-0.4l4.4-0.9l4.4-0.9l2.2-0.2l2.2-0.2l4-0.5l4-0.5l4.4-0.5l4.4-0.5l21.4-0.1
	l21.4-0.1l3.6,0.5l3.6,0.5l5.1,0.4l5.1,0.4L463,71l2.5,0.5l0.6,4.7l0.6,4.7l-0.5,7.1l-0.5,7.1l-1.4,3.2l-1.4,3.2l-0.7,0.4l-0.7,0.4
	v0.7v0.7l2.3-0.2l2.3-0.2l0.5-1.8l0.5-1.8l1.2-4l1.2-4l0.2-9.4l0.2-9.4l-0.9-2.3l-0.9-2.3l-10.1-1.2l-10.1-1.2l-1.5,0l-1.5,0
	l-20.9-0.3l-20.9-0.3L403.2,65.9 M437.4,111l-1.8,1.4l-0.5,8.9l-0.5,8.9l-0.4,5.4l-0.4,5.4l0.1,1.8l0.1,1.8l-0.1,1.1L434,147l-0.2,4
	l-0.2,4l-0.5,4.4l-0.5,4.4l-0.3,1.6l-0.3,1.6h2h2l0.9-4.2l0.9-4.2l0.4-6.2l0.4-6.2l0.2-16.3l0.2-16.3l0.8-2l0.8-2h-0.6h-0.6
	L437.4,111 M-248.5-921.6"/>
<path class="st8" d="M605,64.3l-5.1,0.8l-2,0.8l-2,0.8v2.6v2.6l2.7-1.1l2.7-1.1l6.6-0.7l6.6-0.7l5.7,0.7l5.7,0.7l2.3,1l2.3,1l0.4,2
	l0.4,2l-0.2,16.4l-0.2,16.4l-0.4,5.8l-0.4,5.8l-0.4,2.9l-0.4,2.9l-0.4,6.9l-0.4,6.9l-0.7,6.2l-0.7,6.2l-0.3,3.3l-0.3,3.3l-0.2,5.1
	l-0.2,5.1l1.6,0.2l1.6,0.2l0.8-1.4l0.8-1.4l0.7-3.2l0.7-3.2l0.3-4.8l0.3-4.8l0.7-1.3l0.7-1.3l0.5-6.5l0.5-6.5l0.3-5.1l0.3-5.1
	l0.4-10.9l0.4-10.9l0-14.9l0-14.9l-0.5-2.5l-0.5-2.5l-1.8-1.3l-1.8-1.3l-4.5-0.8l-4.5-0.8l-6.5-0.1l-6.5-0.1L605,64.3"/>
<path class="st9" d="M666.1,68l-2,0.3v0.8v0.8l-1.8-0.3l-1.8-0.3v0.7v0.7l3.8-0.5l3.8-0.5l2.7-0.4l2.7-0.4v-0.6v-0.6l-2.4,0.7
	l-2.4,0.7l-0.7,0l-0.7,0l1.1-0.7l1.1-0.7l-0.7,0.1l-0.7,0.1L666.1,68 M152.1,102l-2.7,1.8v0.7v0.7h1.8h1.8l1.1-1.1l1.1-1.1h1.2h1.2
	l1.6,0.8l1.6,0.8l-1.4-1.1l-1.4-1.1h-1.6h-1.6l-0.9,1.1l-0.9,1.1l-1.5,0l-1.5,0l1.5-1l1.5-1l1.5-1.1l1.5-1.1l-0.4,0l-0.4,0
	L152.1,102 M162.5,106.1l1.9,1.7l3.1,4.1l3.1,4.1l1.2,0.4l1.2,0.4l0.4-0.4l0.4-0.4l-0.9-1.2l-0.9-1.2l-1.6-3.1l-1.6-3.1l-0.3,0.3
	l-0.3,0.3l1.6,3l1.6,3l0.7,0.4l0.7,0.4v0.7v0.7l-1-0.4l-1-0.4l-3.4-4.7l-3.4-4.7l-1.6-0.8l-1.6-0.8L162.5,106.1 M131.5,110l-0.4,1.1
	l-0.6-1l-0.6-1l0,0.9l0,0.9l0.7,0.4l0.7,0.4v1.6v1.6l0.9,0.9l0.9,0.9h1h1l-0.5-0.7l-0.5-0.7l-0.6,0.4l-0.6,0.4v-2v-2l-0.8-0.3
	l-0.8-0.3l0.7-1.4l0.7-1.4h-0.4H132L131.5,110 M1032.8,66.7l1.7,1.5h1.3h1.3l2.4,2l2.4,2l-1.5-1.7l-1.5-1.7l1.3,0.5l1.3,0.5V69v-0.6
	l-1.7-0.8l-1.7-0.8l-1.5,0.4l-1.5,0.4l-2-1.2l-2-1.2L1032.8,66.7 M1513.4,65.9v0.8l2.3,1.2l2.3,1.2l2.6,2.7l2.6,2.7l-0.8-1.2
	l-0.8-1.2l0.4-0.4l0.4-0.4l-3.5-2.5l-3.5-2.5l-0.9-0.5l-0.9-0.5V65.9 M1305.2,66.7l4.8,0.6l1.5,0.8l1.5,0.8l0.3,2l0.3,2l0.1-1.9
	l0.1-1.9l-1.4-1.2l-1.4-1.2l-5.3-0.3l-5.3-0.3L1305.2,66.7 M892.4,106.6l-2,2.9l-0.6-0.4l-0.6-0.4l-0.5,0.8l-0.5,0.9l0.8-0.5
	l0.8-0.5l0,1l0,1l-1,1.8l-1,1.8l0,1.8l0,1.8l0.5-2.3l0.5-2.3l1.8-3.2l1.8-3.2l1.3-2l1.3-2h-0.3h-0.3L892.4,106.6 M1116.8,106.5
	l-1.2,1.4l0.5,1.3l0.5,1.3l-0.8-0.5l-0.8-0.5l0,1.3l0,1.3l-0.3,2.9l-0.3,2.9l0.4-1.8l0.4-1.8l1.4-3.5l1.4-3.5l-0.5,0l-0.5,0l1.1-0.7
	l1.1-0.7l-0.4-0.4l-0.4-0.4L1116.8,106.5 M1246.6,131.2l1.5,1.7l-0.2,0.5l-0.2,0.5l1.1,1.3l1.1,1.3l1.1-0.4l1.1-0.4l-0.2,1l-0.2,1
	l2.5,0.2l2.5,0.2l0.7-0.7l0.7-0.7l-3.2,0.3l-3.2,0.3l1.8-0.6l1.8-0.6l-2.5-0.6l-2.5-0.6l-0.5,0.1l-0.5,0.1l-0.4-1.3l-0.4-1.3
	l-1.6-1.4l-1.6-1.4L1246.6,131.2 M1000.6,132.9l-0.5,2.3v5.4v5.4l0.7-0.4l0.7-0.4l-0.4,2.1l-0.4,2.1l2.3,2.6l2.3,2.6l2,0.4l2,0.4
	l3.4,0.5l3.4,0.5v-0.9v-0.9l-1.3,0.4l-1.3,0.4l-3.8-0.9l-3.8-0.9l-1.1-1.6l-1.1-1.6l-0.8,0.5l-0.8,0.5l0.5-2l0.5-2l-0.7,0.4
	l-0.7,0.4l0.3-3.9l0.3-3.9l-0.8-0.5l-0.8-0.5l0.4-4.3l0.4-4.3h-0.3h-0.3L1000.6,132.9 M1061.8,148l-0.3,1.8l-0.8-0.2l-0.8-0.2l0.1,2
	l0.1,2l-0.8,0l-0.8,0l-0.5,0.5l-0.5,0.5h0.9h0.9l-0.5,0.7l-0.5,0.7l-0.5-0.3l-0.5-0.3l-0.9,1.4l-0.9,1.4l1.4-0.8l1.4-0.8l1.5-1.9
	l1.5-1.9v-1.2v-1.2l0.8-0.8l0.8-0.8l-0.3-1.3l-0.3-1.3L1061.8,148 M1172.4,149.5l-2.4,2.2v0.7v0.7l-1.5,0.8l-1.5,0.8l-0.4-0.4
	l-0.4-0.4l0.9-1.1l0.9-1.1h-0.4h-0.4l-1.9,2.5l-1.9,2.5l1.1-0.4l1.1-0.4v0.8v0.8l-1.6,1.1l-1.6,1.1h0.6h0.6l3.3-3.4l3.3-3.4l2.5-2.7
	l2.5-2.7l-0.3,0l-0.3,0L1172.4,149.5 M1159.2,161.5l-2.5,1.8h-0.6h-0.6l0.5-0.9l0.5-0.9l-2.8,2.1l-2.8,2.1l-0.7,0.6l-0.7,0.6
	l4.2-1.8l4.2-1.8l2.1-1.5l2.1-1.5v-0.3v-0.3l-0.2,0l-0.2,0L1159.2,161.5"/>
<path class="st10" d="M200.9,64.9l-0.3,0.3l-3.8,0.2l-3.8,0.2l0.7,0.7l0.7,0.7l6.4,0.7l6.4,0.7l2.9,0.2l2.9,0.2l2.1,1.1l2.1,1.1
	l0.2,4.3l0.2,4.3l0.8,8.1l0.8,8.1l-0.4,7.5l-0.4,7.5l-0.6,6.5l-0.6,6.5l0.3,0.6l0.3,0.6l-0.8,1l-0.8,1l-0.1,2.8l-0.1,2.8l-1,5.1
	l-1,5.1l-1.1,7.6l-1.1,7.6l-0.7,2.9l-0.7,2.9l0.1,0.2l0.1,0.2l-1.3,2.5l-1.3,2.5l0.5,0.5l0.5,0.5l1.7-0.8l1.7-0.8l1.4-4.6l1.4-4.6
	l-0.2-1.7l-0.2-1.7l0.9-1.1l0.9-1.1l0.2-2l0.2-2l0.5-3.3l0.5-3.3l0.1-0.5l0.1-0.5l0.2-0.5l0.2-0.5l0.1-0.7l0.1-0.7l0.5-3.6l0.5-3.6
	l0.4-3.6l0.4-3.6l0.3-3.6l0.3-3.6h0.1h0.1l0.3-2.5l0.3-2.5l0-1.1l0-1.1l0.1-3.6l0.1-3.6v-6.5v-6.5l-0.1-1.5l-0.1-1.5l0-1.5l0-1.5
	l-0.3-5.8l-0.3-5.8l-0.9-2.4l-0.9-2.4l-1.9-0.4l-1.9-0.4l-3.3-0.8l-3.3-0.8l-3.5-0.3l-3.5-0.3l-0.6-0.4l-0.6-0.4L200.9,64.9
	 M110.7,65.8l-0.2,0.2l-4.5,0.3l-4.5,0.3l-2.5,0.9l-2.5,0.9l0.4,1l0.4,1v0.6v0.6l3.4-1l3.4-1l6.2-0.6l6.2-0.6l1.2,0.3l1.2,0.3l2,4.8
	l2,4.8l1.3,5.1l1.3,5.1l1.2,4.7l1.2,4.7l0.7,2.2l0.7,2.2l0.5,3.4l0.5,3.4l0.9,1.2l0.9,1.2l-0.2-2.1l-0.2-2.1l-0.5-5.8l-0.5-5.8
	l-1.1-3.2l-1.1-3.2l-0.4-3.3l-0.4-3.3l-0.6-1.5l-0.6-1.5l-0.4-2.2l-0.4-2.2l-0.3-1.5l-0.3-1.5l-0.8-1.5l-0.8-1.5v-1.3v-1.3l-2.1-0.9
	l-2.1-0.9l-4.1,0.1l-4.1,0.1L110.7,65.8 M702.4,65.7l-0.3,0.3l-11.2,0.5L679.7,67l-1.8,0.6l-1.8,0.6l8.7-0.4l8.7-0.4l11.5,0.1
	l11.5,0.1l0.5,0.3l0.5,0.3l11.6,0.5l11.6,0.5l9,0.7l9,0.7l0.6,0.6l0.6,0.6l0.7,4l0.7,4l-0.3,7.3l-0.3,7.3l-1.1,2.5l-1.1,2.5l-0.5,2
	l-0.5,2h1.3h1.3l0.8-1.6l0.8-1.6l1.2-4.1l1.2-4.1l0.1-9.7l0.1-9.6l-0.8-1.9l-0.8-1.9l-5.3-0.5l-5.3-0.5l-2.5-0.4l-2.5-0.4l-4.9,0.1
	l-4.9,0.1L737,66l-0.4-0.7l-0.8,0.5l-0.8,0.5l-14.6-0.1l-14.6-0.1l-1.6-0.3l-1.6-0.3L702.4,65.7 M152.8,102.2l-2.8,2l1.3,0.2
	l1.3,0.2l1.3-1.2l1.3-1.2h1.3h1.3l3.2,1.9l3.2,1.9l3.4,4.6l3.4,4.6l1,0.4l1,0.4v-0.7v-0.7l-0.7-0.4l-0.7-0.4l-1.6-3.3l-1.6-3.3h-0.6
	h-0.6v-1.1v-1.1l-1.3-0.4l-1.3-0.4l-1.8-1.7l-1.8-1.7l-2.5-0.4l-2.5-0.4L152.8,102.2 M732.4,113.2l-1.1,0.7l-0.4,4.4l-0.4,4.4
	l0.5,5.3l0.5,5.3l0,5.5l0,5.5l-1.1,7.2l-1.1,7.2l-1.4,3.8l-1.4,3.8l1.4,0.5l1.4,0.5l0.2-0.2l0.2-0.2l0.9-3.3l0.9-3.3l0.3-7.3
	l0.3-7.3l0.6-2.7l0.6-2.7l-0.2-3.9l-0.2-3.9l0-1.8l0-1.8l0-2.9l0-2.9l-0.1-3.6l-0.1-3.6l0.4-1.6l0.4-1.6l-0.1,0l-0.1,0L732.4,113.2
	 M1136.3,63l0.4,0.6l2.7,0.5l2.7,0.5l2.9,1l2.9,1l6,3l6,3h0.4h0.4l2,2l2,2l2.3,2.2l2.3,2.2l3,3.9l3,3.9l1.6,2.6l1.6,2.6l1.6,4.8
	l1.6,4.8l0.7,6.9l0.7,6.9l-0.8,4.4l-0.8,4.4l-1.1,4l-1.1,4l-1.1,2.5l-1.1,2.5l-1.8,2.7l-1.8,2.7l-2,3.1l-2,3.1l-1.8,1.9l-1.8,1.9
	l-0.7,0.8l-0.7,0.8l-4.9,3.6l-4.9,3.6v0.3v0.3l1.6-0.9l1.6-0.9l3.8-2.4l3.8-2.4l0.5-1.4l0.5-1.4l1.4-0.4l1.4-0.4l0.8-1.5l0.8-1.5
	l2.1-1.8l2.1-1.8l-0.4-0.6l-0.4-0.6l2.2-2.7l2.2-2.7v-1.1v-1.1l1-1.1l1-1.1l1.3-4.7l1.3-4.7l0.7-4.4l0.7-4.4l-0.3-6.5l-0.3-6.5
	l-0.4-1.1l-0.4-1.1l-0.3-1.8l-0.3-1.8l-0.3-1.5l-0.3-1.5l-0.7-1.9l-0.7-1.9l-1.9-2.8l-1.9-2.8v-1.1v-1.1l-1.6-1.6l-1.6-1.6l-2.8-3.5
	l-2.8-3.5l-1.5-1.4l-1.5-1.4l-6.2-3l-6.2-3l-2.2-1l-2.2-1l-4.4-0.4l-4.4-0.4l-1.7-0.4l-1.7-0.4L1136.3,63 M1031.8,65.6l2.9,1.8
	l1.2,0l1.2,0l4.8,3.8l4.8,3.8l0,1l0,1l1.7,2.3l1.7,2.3l0.9,2.7l0.9,2.7l0.7,0.4l0.7,0.4l-0.5-2.8l-0.5-2.8l-1.8-3.4l-1.8-3.4
	l-2.2-2.2l-2.2-2.2h-1h-1v-0.6v-0.6l-1.6-0.8l-1.6-0.8l-3.8-2.2l-3.8-2.2l-1.2,0l-1.2,0L1031.8,65.6 M1226.4,64.3l-0.3,0.3l-2.1,0.3
	l-2.1,0.3l-0.5,0.1l-0.5,0.1l0,0.5l0,0.5l7.5,0.2l7.5,0.2l2.6,1.5l2.6,1.5v0.3v0.3l-1,5.2l-1,5.2l-0.9,8.5l-0.9,8.5l0.5,6.4l0.5,6.4
	l0.7,4.8l0.7,4.8l1.5,4.1l1.5,4.1l1.8,2.2l1.8,2.2h0.8h0.8l-1.1-1.3l-1.1-1.3l-2-3.5l-2-3.5l-0.7-3.4l-0.7-3.4l-0.4-1.8l-0.4-1.8
	l-0.1-8.6l-0.1-8.6l0.5-5.6l0.5-5.6l0.5-4.4l0.5-4.4l1-2.7l1-2.7V69v-1.3l-1.1-0.9l-1.1-0.9l-3.1-0.2l-3.1-0.2l-4.2-0.7l-4.2-0.7
	L1226.4,64.3 M1381.2,64.2l-0.2,0.2l-8.3,0.4l-8.3,0.4l-6.2,0.4l-6.2,0.4l-2.5,0.3l-2.5,0.3l-4.4,0.2l-4.4,0.2l-1.3,0.1l-1.3,0.1v1
	v1l0.7,0.4l0.7,0.4l7.1-1l7.1-1l7.3-0.4l7.3-0.4l12.3-0.5l12.3-0.5l7.6,0l7.6,0l14.2,0.6l14.2,0.6l1.8,0.2l1.8,0.2l0.6,0.1l0.6,0.1
	l1.1,2.6l1.1,2.6l0,9.7l0,9.7l-1.2,4.1l-1.2,4.1l0.3,0.3l0.3,0.3l0.8-1.6l0.8-1.6l1.2-4.1l1.2-4.1l0.1-9.7l0.1-9.6l-0.8-1.9
	l-0.8-1.9l-5.3-0.5L1431,66l-2.5-0.4l-2.5-0.4l-4.9,0.1l-4.9,0.1l-0.4-0.7l-0.4-0.7l-0.8,0.5l-0.8,0.5l-14.6-0.1l-14.6-0.1l-1.6-0.3
	l-1.6-0.3L1381.2,64.2 M1287.5,67l-5.6,0.8l-0.8,0.8l-0.8,0.8l1.1,0.9l1.1,0.9l1.9-0.9l1.9-0.9l5.3-0.4l5.3-0.4l6.9,0.5l6.9,0.5
	l0.9,3l0.9,3l0.7,7.3l0.7,7.3l0.1,8.7l0.1,8.7l-0.5,5.1l-0.5,5.1l-0.7,4.4l-0.7,4.4l-1.7,5.4l-1.7,5.4l-2.1,5.1l-2.1,5.1l-1.8,2.7
	l-1.8,2.7l-2.4,3.2l-2.4,3.2l2.2-2l2.2-2l0.5,0.5l0.5,0.5v-1v-1l2.2-2.4l2.2-2.4v-0.6v-0.6l1.3-1.7l1.3-1.7l1-2.7l1-2.7h0.7h0.7
	l-0.5-0.5l-0.5-0.5l1.1-2l1.1-2l0.8-3.8l0.8-3.8l0.7-0.9l0.7-0.9l-0.4-2.1l-0.4-2.1l0.6-0.4l0.6-0.4l0-14.4l0-14.4l-0.7-2.2
	l-0.7-2.2l0.1-4.3l0.1-4.3l-0.7-0.9l-0.7-0.9l0.1-1.8l0.1-1.8l-0.1-2l-0.1-2l-1.6-0.9l-1.6-0.9l-7.3-0.1l-7.3-0.1l-1.1-0.4l-1.1-0.4
	L1287.5,67 M925.1,69.1l0.5,1.6l1.4,2l1.4,2v0.5v0.5l2.1,4.6l2.1,4.6l1.1,3.8l1.1,3.8l0.7,0.8l0.7,0.8l1.5,4.7l1.5,4.7l1.9,5.4
	l1.9,5.4l1,3.3l1,3.3l1.2,5.8l1.2,5.8l0.7,2.9l0.7,2.9l0.3,1.8l0.3,1.8l1.2,8.7l1.2,8.7l-0.5,6l-0.5,6h0.6h0.6l0.9-1.1l0.9-1.1
	l-0.4-4.6L953,160l-0.5-5.4l-0.5-5.4l-1-4.2l-1-4.2l0.4-0.6l0.4-0.6l-1.1-3.9l-1.1-3.9l-0.3-1.6l-0.3-1.6l-0.4-2l-0.4-2l-0.7-5.1
	l-0.7-5.1l-0.9-1.5l-0.9-1.5l-0.6-2.9l-0.6-2.9l-0.1-0.7l-0.1-0.7l-0.6-2.8l-0.6-2.8l-0.7-1.2l-0.7-1.2l-2.2-5.6l-2.2-5.6v-1.4v-1.4
	l-1-0.4l-1-0.4l-0.9-3l-0.9-3l-2.2-3.4l-2.2-3.4l-1.5-0.5l-1.5-0.5L925.1,69.1 M1527.8,95.8l-0.1,2.2l0,0.9l0,0.9l-1.4,4l-1.4,4
	l-1.1,1.8l-1.1,1.8l-2.1,2.7l-2.1,2.7l0.4,0.4l0.4,0.4l2.5-2.9l2.5-2.9l2-5l2-5l0.4-4.1l0.4-4.1h-0.4h-0.4L1527.8,95.8 M893.1,102.6
	l-1.8,1.8v1v1l-1.9,2.8l-1.9,2.8l-1.3,4.9l-1.3,4.9h0.5h0.5l0.8-1.8l0.8-1.8v-1.4v-1.4l1.2-2.7l1.2-2.7l2.3-3.3l2.3-3.3l0.5-1.3
	l0.5-1.3h-0.4h-0.4L893.1,102.6 M1410.6,116.2l-0.5,0.9l-0.2,6.6l-0.2,6.6l-0.4,10.2l-0.4,10.2l-0.4,2.2l-0.4,2.2l-1.1,5.1l-1.1,5.1
	l0,1.3l0,1.3h1h1l1.3-4.5l1.3-4.5l0.3-7.3l0.3-7.3l0.6-2.7l0.6-2.7l-0.2-3.9l-0.2-3.9l0-1.8l0-1.8l0-2.9l0-2.9l-0.2-3.1l-0.2-3.1
	h-0.2h-0.2L1410.6,116.2 M1506.7,122.3l-3.4,1.8l-1.1,1.6l-1.1,1.6l-0.5,2l-0.5,2h0.8h0.8l0.8-2.9l0.8-2.9l1.3-0.7l1.3-0.7l0.4,0.4
	l0.4,0.4l0.8-1.5l0.8-1.5l1,0.4l1,0.4l0.9-1.1l0.9-1.1l-1,0l-1,0L1506.7,122.3 M1116,125.6l0.5,1.7l2.2,2.7l2.2,2.7l2.2,1.1l2.2,1.1
	l0.3-0.3l0.3-0.3l-2.5-1.7l-2.5-1.7l-1.3-2.2l-1.3-2.2l-1.4-1.4l-1.4-1.4L1116,125.6 M1059.3,129l1,2.7l0.8,5.4l0.8,5.4l-0.7,3.6
	l-0.7,3.6l0.3,0.3l0.3,0.3l0.3-1l0.3-1l0.7-2.2l0.7-2.2l-0.3-4.5l-0.3-4.5l-1.5-4l-1.5-4l-0.6-0.4l-0.6-0.4L1059.3,129
	 M1497.1,155.6l1.8,1.8v2.2v2.2l-0.7,2l-0.7,2l0.4,0.4l0.4,0.4l1.1-1.1l1.1-1.1l0.2-3.4l0.2-3.4l-2.3-1.8l-2.3-1.8h-0.4h-0.4
	L1497.1,155.6"/>
<path class="st11" d="M514.6,64.5l-4.7,1.3l-2.8,1.5l-2.8,1.5l-0.7-0.4l-0.7-0.4l0.5,0.8l0.5,0.8h-1.1h-1.1v1.1v1.1l-0.9,0l-0.9,0
	l-1.5,2.4l-1.5,2.4l-2.2,4.7l-2.2,4.7l-0.5,7.3l-0.5,7.3l0.1,1.5l0.1,1.5l1.7,4.3l1.7,4.3l4.7,4.8l4.7,4.8l3,1.7l3,1.7l2.8,1l2.8,1
	l2.2,0.6l2.2,0.6l3,1.1l3,1.1l3.3,0.4l3.3,0.4l1,0.4l1,0.4l1.6,2.6l1.6,2.6v2.4v2.4l-0.4,1.1l-0.4,1.1l-0.6-0.4l-0.6-0.4l-0.5,0.8
	l-0.5,0.9l0.8-0.5l0.8-0.5v0.7v0.7l-1.3,1.1l-1.3,1.1l-1.5,0.4l-1.5,0.4l-3.7-0.6l-3.7-0.6l-3.8-2.6l-3.8-2.6l-1.7,0.4l-1.7,0.4
	l-1-0.9l-1-0.9l-4.2,0.2l-4.2,0.2l-3.1,0.9l-3.1,0.9l-1.2,1l-1.2,1l-1.8-0.2l-1.8-0.2l0.5,0.8l0.5,0.8l1-0.4l1-0.4l0.8,1.5l0.8,1.5
	h-0.5h-0.5l1.2,1.8l1.2,1.8v1v1l4.7,4.9l4.7,4.9l1,0l1,0l2.4,1.4l2.4,1.4h1.1h1.1l1.8,1.2l1.8,1.2l5.3,0.7l5.3,0.7l0.7,0l0.7,0
	l6.2-0.5l6.2-0.5l3.8-1.8l3.8-1.8h1h1l2.2-1.9l2.2-1.9v0.7v0.7l-0.7,0.4l-0.7,0.4v0.7v0.7l1.6-0.9l1.6-0.9l2.1-2.1l2.1-2.1h-0.5
	h-0.5l-1.5,0.8L558,162l-0.4-0.4l-0.4-0.4l0.8-1l0.8-1l1.6-2.2l1.6-2.2l0.9-2.6l0.9-2.6l0.4-1.8l0.4-1.8l0.8-0.9l0.8-0.9l-0.1-4.8
	l-0.1-4.8l-1.8-4l-1.8-4v-0.7v-0.7l-1.6-1.3l-1.6-1.3l-1.3-2l-1.3-2l-1.7-0.6l-1.7-0.6l-1-1l-1-1l-2.2-1.6l-2.2-1.6l-5.7-0.9
	l-5.7-0.9l-4.4-1.2l-4.4-1.2l-3.4-3.6l-3.4-3.6v-0.9v-0.9l-1.4-0.4l-1.4-0.4l-0.5-1.9l-0.5-1.9l0.5-2.5l0.5-2.5l3.3-2.9l3.3-2.9
	l1.9-0.5l1.9-0.5l4,0.8l4,0.8l3.6,3.2l3.6,3.2l1.4-0.4l1.4-0.4l1.6-0.4l1.6-0.4l2.9-0.8l2.9-0.8l1.6-1.4l1.6-1.4l2.1,0.4l2.1,0.4
	l0.8-1l0.8-1l-2.4,0.4l-2.4,0.4l-1.3-2.2l-1.3-2.2v-1.6v-1.6l-4.7-4.6l-4.7-4.6l-3.2-1.6l-3.2-1.6l-3.6-1l-3.6-1l-6.9,0l-6.9,0
	L514.6,64.5"/>
<path class="st12" d="M400.3,68.7L400,69l-4.2,0.3l-4.2,0.3l-4,0.5l-4,0.5l-2.2,0.2l-2.2,0.2l-4.4,0.8l-4.4,0.8l-2.4,0.4l-2.4,0.4
	l-0.6-1l-0.6-1l0.4,2.9l0.4,2.9l1.7,8l1.7,8l1.1,2.9l1.1,2.9l2.1,0.6l2.1,0.6l9.1,1.5l9.1,1.5l1.2,1.2l1.2,1.2l0.9,3.3l0.9,3.3
	l0.3,9.8l0.3,9.8l0.4,1.8l0.4,1.8l0.7,5.4l0.7,5.4l0.7,1.9l0.7,1.9l-0.4,0.4l-0.4,0.4l1.2,4.6l1.2,4.6l0.6,1.5l0.6,1.5l0.4,1.2
	l0.4,1.2l4.6,0.8l4.6,0.8l8.1,0.4l8.1,0.4l1-1l1-1l0.6-5.3l0.6-5.3l0.3-4l0.3-4l0.1-1.1l0.1-1.1L434,143l-0.1-1.8l0.4-5.4l0.4-5.4
	l0.5-8.9l0.5-8.9l1.8-1.4l1.8-1.4h0.8h0.8l2-1.9l2-1.9l7.5-0.8l7.5-0.8l2.2,0l2.2,0l-1.3-0.3l-1.3-0.3V103v-0.6l0.7-0.4l0.7-0.4
	l1.4-3.2l1.4-3.2l0.5-7.1l0.5-7.1l-0.6-4.7l-0.6-4.7L463,71l-2.5-0.5l-5.8-0.4l-5.8-0.4l-0.7-0.4l-0.7-0.4l-23.5-0.2l-23.5-0.2
	L400.3,68.7"/>
<path class="st13" d="M288.4,64.7l-2.9,0.7l-3.6,1.1l-3.6,1.1l-2.9,1.4l-2.9,1.4l-1.5,1.9l-1.5,1.9l-2.9,3l-2.9,3l-1.5,2l-1.5,2
	l-1.9,2.3l-1.9,2.3l-2.2,4.7l-2.2,4.7l-0.9,2.5l-0.9,2.5l-1.4,3.3l-1.4,3.3l-0.2,9l-0.2,9l0.7,1.8l0.7,1.8l0.7,4.2l0.7,4.2l2.9,4.7
	l2.9,4.7l1.3,1.7l1.3,1.7l1.4,1.2l1.4,1.2l3.2,3.1l3.2,3.1l1.7,0.4l1.7,0.4v0.5v0.5l3.2,1.6l3.2,1.6l2.5,0.4l2.5,0.4l1.1,0.4
	l1.1,0.4l5.4,0.8l5.4,0.8l5.4-0.5l5.4-0.5l0.5,0.3l0.5,0.3l1.8-1.2l1.8-1.2l1.1,0.4l1.1,0.4l0.4-0.7l0.4-0.7l0.7,0.4l0.7,0.4
	l-0.2-0.7l-0.2-0.7l3.4-2.6l3.4-2.6h0.8h0.8l1.1-2.1l1.1-2.1l1.5-0.5l1.5-0.5l1.4-2.7l1.4-2.7l2.4-3.4l2.4-3.4l2.2-6.8l2.2-6.8
	l0.5-5.4l0.5-5.4l-0.1-5.8l-0.1-5.8l-1.2-4l-1.2-4l-1.5-4l-1.5-4l-2.3-4l-2.3-4l-3.3-3.3l-3.3-3.3l-3.2-2.6l-3.2-2.6l-3.4-1.2
	l-3.4-1.2l-1.3-0.7l-1.3-0.7l-8-1.4l-8-1.4l-1.1-0.3l-1.1-0.4L288.4,64.7 M293.3,97.3l-3.1,1.4l-2.6,0.3l-2.6,0.3l-1,0.8l-1,0.8
	l0.4,0.6l0.4,0.6l-1.3-0.5l-1.3-0.5l0.5,1.3l0.5,1.3l-0.7-0.4l-0.7-0.4l-2.5,2.3l-2.5,2.3l-1.6,3.4l-1.6,3.4l-0.6,3l-0.6,3l1,3.5
	l1,3.5l2.6,3.1l2.6,3.1h0.8h0.8l1.5,1.4l1.5,1.4l4.6,1.1l4.6,1.1l1.1-0.4l1.1-0.4l-0.7-0.4l-0.7-0.4l3.9-0.1l3.9-0.1l2.6-0.5
	l2.6-0.5l0.9-0.9l0.9-0.9l1.5-1.1l1.5-1.1l3.1-3.4l3.1-3.4l0.6-6.1l0.6-6.1l-2.1-3.8l-2.1-3.8l-3.5-3.2l-3.5-3.3l-4.8-1.5l-4.8-1.5
	l-0.6,0.1l-0.6,0.1L293.3,97.3"/>
<path class="st14" d="M190.6,66.6l-1.2,1.3l-1.4,6.1l-1.4,6.1l-1.5,9.4l-1.5,9.4l-0.3,2.9l-0.3,2.9l-0.8,5.3l-0.8,5.3l-0.9,1.4
	l-0.9,1.4l-1.8,0.5l-1.8,0.5l-1.1-1.3l-1.1-1.3l-0.9-0.1l-0.9-0.1l-0.6-0.1l-0.6-0.1l-3.1-4.2l-3.1-4.2l-0.8-0.9l-0.8-0.9l-2.5-1.5
	l-2.5-1.5l-1.3,0l-1.3,0l-1.1,1.1l-1.1,1.1l-2-0.2l-2-0.2l-1.1,1.1l-1.1,1.1l-1.3,2.5l-1.3,2.5l-2.5,3.1l-2.5,3.1h-1.1h-1l-1.6-0.8
	l-1.6-0.8l-1.1-0.5l-1.1-0.5l-0.3-1.7l-0.3-1.7l-0.6-0.8l-0.6-0.8l-1.1-5l-1.1-5l-0.6-3.3l-0.6-3.3l-1.8-6.2l-1.8-6.2l0-1.5l0-1.5
	l-1.4-2.4l-1.4-2.4v-1.3v-1.3l-1.4-1.3l-1.4-1.3l-4.6,0.4l-4.6,0.4l-4,0.8l-4,0.8L98.4,72l-1.3,0.7l0.4,19l0.4,19l0.4,6.2l0.4,6.2
	l0.2,5.4l0.2,5.4l0.8,3.3l0.8,3.3l0,1.1l0,1.1l0.5,5l0.5,5l0.7,1.3l0.7,1.3v1.9v1.9l1.9,3.8l1.9,3.8l0.2,0.2l0.2,0.2l4.2,0.6
	l4.2,0.6l6.6-0.6l6.6-0.6l5.4-1.2l5.4-1.2l2.9-2.3l2.9-2.3l0.4-0.4l0.4-0.4l4.5-4.2l4.5-4.2h3.2h3.2l2.8,2.3l2.8,2.3l3.1,3.9
	l3.1,3.9h1h1l0.4,1.1l0.4,1.1l2.4,1.3l2.4,1.3l4.7,1l4.7,1l8.2-0.1l8.2-0.1v0.8v0.8l1.6-0.1l1.6-0.1l-1.3-0.3l-1.3-0.3v-0.9v-0.9
	l1.3-2.5l1.3-2.5l1.2-8.3l1.2-8.3l0.8-3.3l0.8-3.3l0.7-5.8l0.7-5.8l0.6-2.5l0.6-2.5l0.5-6.9l0.5-6.9l0.2-12l0.2-12l-0.6-2.2
	l-0.6-2.2l-0.3-5l-0.3-5l-2.1-1.3l-2.1-1.3l-2.9,0l-2.9,0l-6.9-1.1l-6.9-1.1l-0.6,0l-0.6,0l0.4-0.7l0.4-0.7h-0.3h-0.3L190.6,66.6
	 M94.1,69.2l-1.3,0.9v1.9V74h1h1l1.2-0.9l1.2-0.9l-0.9-2l-0.9-2L94.1,69.2"/>
<path class="st15" d="M686.6,68.3l-4.7,0.6l-3.6-0.3l-3.6-0.3l-3,0.7l-3,0.7l-4,0.4l-4,0.4l0.6,6.7l0.6,6.7l0.7,3.6l0.7,3.6l1.9,4
	l1.9,4l2.5,0.6l2.5,0.6l4,0.4l4,0.4l2.2,0.3l2.2,0.3l2.7,1.7l2.7,1.7l0.7,2.5l0.7,2.5l1.2,8l1.2,8l0.3,5.8l0.3,5.8l0,1.1l0,1.1
	l0.7,9.4l0.7,9.4l0.4,2.3l0.4,2.3l3.1,0.5l3.1,0.5l4.4,0.3l4.4,0.3l6.2,0.4l6.2,0.4l0.9,0.3l0.9,0.3l0.8-2l0.8-2l1-2.3l1-2.3l0-2.8
	l0-2.8l0.7-2.5l0.7-2.5l0.1-6.9l0.1-6.9l-0.5-4.7l-0.5-4.7l0-2.8l0-2.8l0.5-2.5l0.5-2.5l1.6-0.7l1.6-0.7l1.4-2.1l1.4-2.1l1.9-1.1
	l1.9-1.1l5.8-0.4l5.8-0.4l2.2-0.2l2.2-0.2l1.7-5.1l1.7-5.1l0.2-4.7l0.2-4.7l0.2-0.7l0.2-0.7l-0.6-5.6l-0.6-5.6l-1.9-0.4l-1.9-0.4
	l-1-0.3l-1-0.3l-7.3-0.4l-7.3-0.4l-6.2-0.4l-6.2-0.4l-5.1-0.2l-5.1-0.2L704,68.1l-12.7-0.3L686.6,68.3"/>
<path class="st16" d="M606.9,69.1l-6,0.7l-2.5,1l-2.5,1l-0.4,2.7l-0.4,2.7l-0.1,1.5l-0.1,1.5l-0.3,4.4l-0.3,4.4l-0.1,10.9l-0.1,10.9
	l0.4,6.9l0.4,6.9l0.3,5.1l0.3,5.1l0.9,4.4l0.9,4.4l1.4,4.8l1.4,4.8v1.2v1.2l2.2,4.3l2.2,4.3v1.4v1.4l1,0.9l1,0.9l4.6,0.3l4.6,0.3
	l5-0.5l5-0.5l0.2-2.5l0.2-2.5l0.4-5.4l0.4-5.4l0.7-6.2l0.7-6.2l0.4-6.9l0.4-6.9l0.4-2.9l0.4-2.9l0.5-7.3l0.5-7.3l0-16.6l0-16.6
	l-1.4-1l-1.4-1l-3.7-0.7l-3.7-0.7l-4-0.3l-4-0.3L606.9,69.1"/>
<path class="st17" d="M520.7,51.9l-4.4,0.9l-2.5,0.9l-2.5,0.9l-1.5,0.6l-1.5,0.6l-2.5,1l-2.5,1l-2,1.9l-2,1.9l-0.3,0l-0.3,0h-0.7
	h-0.7l-4.2,5.3l-4.2,5.3l-3,5.1l-3,5.1l-0.9,4.2l-0.9,4.2l-0.2,6.3l-0.2,6.3l0.6,0.7l0.6,0.7l0.5,3.6l0.5,3.6l1,1.9l1,1.9l1.4,3.3
	l1.4,3.3l3.1,3.1l3.1,3.1l1.4,1l1.4,1l-4.4,1.6l-4.4,1.6v0.6v0.6l-1.9,0.8l-1.9,0.8l-1.4,3.1l-1.4,3.1l0,2l0,2l0.7,1.3l0.7,1.3
	l1.1,4.2l1.1,4.2l2.1,3.1l2.1,3.1l4.9,4.8l4.9,4.8l5.1,2.7l5.1,2.7l2.9,1.1l2.9,1.1l3.9,1l3.9,1l7-0.3l7-0.3l2.9-0.3l2.9-0.3
	l2.4-0.4l2.4-0.4l0.6,0l0.6,0l1.1-0.9l1.1-0.9l5.6-2.7l5.6-2.7l1.1-1.8l1.1-1.8l2.5-1.5l2.5-1.5v-1.1v-1.1l0.9-0.6l0.9-0.6l2.2-2.9
	l2.2-2.9l1.2-3.6l1.2-3.6l0.4-1.8l0.4-1.8l0.5-5.8l0.5-5.8l-1-2.6l-1-2.6l-0.6-3.2l-0.6-3.2l-1.2-0.9l-1.2-0.9v-0.7v-0.7l-2.3-3.2
	l-2.3-3.2l-0.7-0.8l-0.7-0.8l-1.4-1.9l-1.4-1.9h-0.7h-0.7l-0.9-1.5l-0.9-1.5h-0.9h-0.9l-1.6-1.3l-1.6-1.3l-1.8-1.5l-1.8-1.5l2.4-0.9
	l2.4-0.9l1.8-0.7l1.8-0.7l2.3-1.2l2.3-1.2l2.7-3.2l2.7-3.2l-0.3-5.3l-0.3-5.3l-2.3-2.8l-2.3-2.8v-0.8v-0.8l-3.5-3.6l-3.6-3.6
	l-2.8-2.5l-2.8-2.5l-6.8-2.7l-6.8-2.7h-1.6h-1.6l-2.1-0.7l-2.1-0.7l-3.6-0.3l-3.6-0.3L520.7,51.9 M611.1,53.8l-4,0.6l-4.4,0.7
	l-4.4,0.7l-2.9,0.6l-2.9,0.6l-1.5,0.8l-1.5,0.8l-2.1,1l-2.1,1l-1.4,1.9l-1.4,1.9l-0.3,1.8l-0.3,1.8l-0.4,1.1l-0.4,1.1l-0.4,6.2
	l-0.4,6.2l0,17.1l0,17.1l0.5,4.4l0.5,4.4l0.2,4l0.2,4h0.1h0.1l0.3,3.3l0.3,3.3l0.5,1.8l0.5,1.8l0.3,3.9l0.3,3.9l0.7,2.3l0.7,2.3
	l-0.3,1.5l-0.3,1.5l2,5.9l2,5.9l2,3.4l2,3.4l4.6,2.1l4.6,2.1l10.1,0.9l10.1,0.9l1.5-0.8l1.5-0.8h2.6h2.6l2.6-2.3l2.6-2.3l1-2l1-2
	l-0.4-0.4l-0.4-0.4l1.1-1.7l1.1-1.7l0.7-2.8l0.7-2.8l0.5-2.5l0.5-2.5l0.3-2.5l0.3-2.5l0.3-3.5l0.3-3.5l0.5-5.6l0.5-5.6l0.2-2.2
	l0.2-2.2l0.6-4.7l0.6-4.7l-0.1-5.4l-0.1-5.4l0-1.1l0-1.1l0.3-3.6l0.3-3.6l0.1-4l0.1-4l-0.4-12.1l-0.4-12.1l-0.8-1.5l-0.8-1.5v-1.5
	v-1.5l-1.9-2.1l-1.9-2.1l-4.8-1.5l-4.8-1.5l-2.5-0.4l-2.5-0.4l-4.5-0.2l-4.5-0.2l-0.5-0.3l-0.5-0.3L611.1,53.8 M291,54.5l-4,0.6
	l-2.6,0.3l-2.6,0.3l-4,1.8l-4,1.8l-3.6,1.6l-3.6,1.6l-1.8,1.7l-1.8,1.7l-2.2,1.1l-2.2,1.1l-1.8,1.8l-1.8,1.8l-3.8,3.9l-3.8,3.9
	l-2.9,5.6l-2.9,5.6v0.8v0.8l-1.5,2l-1.5,2l-0.7,2.8l-0.7,2.8l-0.7,4.4l-0.7,4.4l-0.3,2.2l-0.3,2.2l-0.1,4.7l-0.1,4.7l0.8,5.1
	l0.8,5.1l1.4,4.4l1.4,4.4l2.6,5l2.6,5l1.7,2.1l1.7,2.1l0.5,1.5l0.5,1.5h1h1l1.8,2.9l1.8,2.9l4.2,2.7l4.2,2.7l1.2,1.3l1.2,1.3h1.1
	h1.1l0.2,0.7l0.2,0.7l2.6,0.2l2.6,0.2l1.8,1.2l1.8,1.2l3.9,0.2l3.9,0.2l0.9,0.7l0.9,0.7l8-0.1l8-0.1l0.8-0.8l0.8-0.8h1.9h1.9l9-4.6
	l9-4.6l3.3-2.2l3.3-2.2l3.1-2.9l3.1-2.9v-0.7v-0.7l2.9-2.8l2.9-2.8v-0.9v-0.9l2.5-4.3l2.5-4.3l1-3.2l1-3.2l0.8-2.9l0.8-2.9l0.8-5.8
	l0.8-5.8l-0.4-6.7l-0.4-6.7l-0.7-1.4l-0.7-1.4V100v-1.7l-2.8-7l-2.8-7l-1-1.7l-1-1.7l-0.8-0.7l-0.8-0.7l-2.1-2.9l-2.1-2.9l-3.3-3.4
	l-3.3-3.4h-0.9H331l-0.6-1l-0.6-1l-4-2.5l-4-2.5l-2-1l-2-1l-0.5,0.5l-0.5,0.5l-2.6-1.1l-2.6-1.1l-2.9-0.7l-2.9-0.7l-3.3-0.3
	l-3.3-0.3l-2.2-0.3l-2.2-0.3L291,54.5 M113.6,55.7l-0.2,0.2l-5,0.4l-5,0.4l-2.2,0.2L99,57.1l-4,1.5l-4,1.5l-3.3,1.7l-3.3,1.7l-1,3.6
	l-1,3.6l-0.1,16.3l-0.1,16.3l0.1,1.8l0.1,1.8l-0.1,2.5l-0.1,2.5l0.4,4l0.4,4l0.5,4.7l0.5,4.7l0.6,2.2l0.6,2.2l0.3,5.1l0.3,5.1
	l1.5,6.5l1.5,6.5L92,166l2.9,8.9l0.9,0.9l0.9,0.9l3.2,2.1l3.2,2.1l4.4,0.3l4.4,0.3l7.6,0l7.6,0l2.5,0l2.5,0l3.6-0.7l3.6-0.7l1.8-0.3
	l1.8-0.3l3.4-1.5l3.4-1.5l1.1-2.2l1.1-2.2h0.6h0.6l2.5-3.2l2.5-3.2l2.6,2.7l2.6,2.7l0.5,1.6l0.5,1.6h0.6h0.6l2.7,2.6l2.7,2.6
	l4.2,1.4l4.2,1.4l10.4-0.4l10.4-0.4l3.6,0.1l3.6,0.1l3.5-1.8l3.5-1.8l1.2,0l1.2,0l2.4-2l2.4-2l0.7-3.6l0.7-3.6l1.5-6.9l1.5-6.9
	l0.7-2.9l0.7-2.9l0.3-1.1l0.3-1.1l0.8-5.1l0.8-5.1l0.9-6.5l0.9-6.5l0.2-5.8l0.2-5.8l0.2-9.8l0.2-9.8l-0.6-5.1l-0.6-5.1l0.2-1.8
	l0.2-1.8l0-1.5l0-1.5l-1.2-4l-1.2-4l-3.1-3.2L223,59l-3.2-0.4l-3.2-0.4l-5.1-1.1l-5.1-1.1l-3.9-0.4l-3.9-0.4l-4.1,0.9l-4.1,0.9
	l-1.9,0.9l-1.9,0.9l-2.7,2.7l-2.7,2.7v1.3v1.3l-0.7,1.7L180,70l-1.2,3.9l-1.2,3.9l-0.3,2.7l-0.3,2.7l-0.5,1.2l-0.5,1.2l-0.3,4.6
	l-0.3,4.6l-0.5,3.1l-0.5,3.1h-0.5h-0.5l-3.1-3.2l-3.1-3.2l-3.1-1.6l-3.1-1.6L158,91l-3.2-0.4l-3.6,1.7l-3.6,1.7l-3.7,3.1l-3.7,3.1
	l-0.4-1.1l-0.4-1.1v-2.8v-2.8l-0.6-0.4l-0.6-0.4l-0.6-3.1l-0.6-3.1l0.1-0.6l0.1-0.6l-1.2-4.5l-1.2-4.5l-0.2-0.7l-0.2-0.7l-1.6-5.4
	l-1.6-5.4l-3.6-3.5l-3.6-3.5l-1.2,0l-1.2,0l-3.8-0.2l-3.8-0.2L113.6,55.7 M390.8,56.5l-0.3,0.3l-5.6,0.3l-5.6,0.3l-3.3,0.4l-3.3,0.4
	l-3.1,0l-3.1,0v0.6v0.6l-3.5,0.5l-3.6,0.5l-1.9,1.5l-1.8,1.5l-1.2,2.3l-1.2,2.3l-0.3,6.7l-0.3,6.7l-0.4,0.6l-0.4,0.6l1,4.3l1,4.3
	l0,2.3l0,2.3l1,2.1l1,2.1l2,4.5l2,4.5l2,0.9l2,0.9v0.5v0.5l1.7,0.4l1.7,0.4l2.8,0.4l2.8,0.4l3.4,0.8l3.4,0.8l0.7-0.4l0.7-0.4
	l1.6,0.6l1.6,0.6l0.2,5l0.2,5l0.5,6.2l0.5,6.2l0.3,3.3l0.3,3.3l0.3,3.1l0.3,3.1l0.5,2.7l0.5,2.7l0.2,1.8l0.2,1.8l0.7,4.1l0.7,4.1
	l0.9,2.8l0.9,2.8l2.2,2l2.2,2l2.5,0.4l2.5,0.4l1.6,0.6l1.6,0.6l7.9,0.1l7.9,0.1l1.5,0.1l1.5,0.1l6.4-0.6l6.4-0.6l1.6-0.6l1.6-0.6
	l2.3-3.4l2.3-3.5v-2v-2l0.6-0.4l0.6-0.4l0.6-4.9l0.6-4.9l0.4-6.5l0.4-6.5l0.1-14.2l0.1-14.2l2.9-0.1l2.9-0.1l4.4-0.4l4.4-0.4l2-0.8
	l2-0.8h1.8h1.8l2.9-2.6l2.9-2.6v-1.6v-1.6l0.6-0.7l0.6-0.7l1.3-5.4l1.3-5.4l0.2-9.9l0.2-9.9l-1-1.3l-1-1.3l0.4-2.3l0.4-2.3l-1.8-2
	l-1.8-2l-2.4-0.7l-2.4-0.7l-3.3-0.2l-3.3-0.2l-8.7-0.9l-8.7-0.9l-27.5-0.1L391,56.2L390.8,56.5 M685.5,56.5l-0.3,0.3l-5.6,0.3
	l-5.6,0.3l-3.3,0.4l-3.3,0.4l-3.1,0l-3.1,0v0.6v0.6l-3.5,0.5l-3.6,0.5l-1.9,1.5l-1.8,1.5l-1.2,2.3l-1.2,2.3l-0.3,6.7l-0.3,6.7
	l-0.4,0.6l-0.4,0.6l1,4.3l1,4.3l0,2.3l0,2.3l1,2.1l1,2.1l2,4.5l2,4.5l2,0.9l2,0.9v0.5v0.5l1.7,0.4l1.7,0.4l2.8,0.4l2.8,0.4l3.4,0.8
	l3.4,0.8l0.7-0.4l0.7-0.4l1.6,0.6l1.6,0.6l0.2,5l0.2,5l0.5,6.2l0.5,6.2l0.3,3.3l0.3,3.3l0.3,3.1l0.3,3.1l0.5,2.7l0.5,2.7l0.2,1.8
	l0.2,1.8l0.7,4.1l0.7,4.1l0.9,2.8l0.9,2.8l2.2,2l2.2,2l2.5,0.4l2.5,0.4l1.6,0.6l1.6,0.6l7.9,0.1l7.9,0.1l1.5,0.1l1.5,0.1l6.4-0.6
	l6.4-0.6l1.6-0.6l1.6-0.6l2.3-3.4l2.3-3.5v-2v-2l0.6-0.4l0.6-0.4l0.6-4.9l0.6-4.9l0.4-6.5l0.4-6.5l0.1-14.2l0.1-14.2l2.9-0.1
	l2.9-0.1l4.4-0.4l4.4-0.4l2-0.8l2-0.8h1.8h1.8l2.9-2.6l2.9-2.6v-1.6v-1.6l0.6-0.7l0.6-0.7l1.3-5.4l1.3-5.4l0.2-9.9l0.2-9.9l-1-1.3
	l-1-1.3l0.4-2.3l0.4-2.3l-1.8-2l-1.8-2l-2.4-0.7l-2.4-0.7l-3.3-0.2l-3.3-0.2l-8.7-0.9l-8.7-0.9l-27.5-0.1l-27.5-0.1L685.5,56.5
	 M520,60.2l-5.1,1.2l-4.9,2.4l-4.9,2.4l-3.6,3.5l-3.6,3.5l-3.2,6l-3.2,6l-0.9,3.3l-0.9,3.3l-0.1,6.2l-0.1,6.2l0.9,2.9l0.9,2.9
	l2.2,4.7l2.2,4.7l5.1,3.4l5.1,3.4h1.6h1.6l3.4,1.5l3.4,1.5l4.4,0.7l4.4,0.7l1.2,0.6l1.2,0.6l3,0.8l3,0.8l1.9,1.5l1.9,1.5v3.2v3.2
	l-1.8,1.4l-1.8,1.4l-2.9,0.5l-2.9,0.5l-2.7-1.1l-2.7-1.1l-1.5-1.3l-1.5-1.3l-4.1-1.5l-4.1-1.5l-4.6-0.1l-4.6-0.1l-3.2,0.6l-3.2,0.6
	l-2.2,1.5l-2.2,1.5l-0.5,0.7l-0.5,0.7l0,1.5l0,1.5l2,4.4l2,4.4l1.7,2.5l1.7,2.5l3,2.3l3,2.3l1.5,1.4l1.5,1.4l2.3,1.2l2.3,1.2
	l0.2-0.1l0.2-0.1l3.2,1.7l3.2,1.7l7.6,0.3l7.6,0.3l4-0.8l4-0.8l2.2-0.5l2.2-0.5l2.9-1.4l2.9-1.4l1.4-0.9l1.4-0.9l1-0.9l1-0.9h0.6
	h0.6l3.7-3.7l3.7-3.7l2.1-4.1l2.1-4.1l0.8-3.6l0.8-3.6l-0.2-4l-0.2-4l-1.2-3.2l-1.2-3.2l-1.4-2.7l-1.4-2.7l-3.8-4.2l-3.8-4.2
	l-3.4-1.7l-3.4-1.7l-2.2-2l-2.2-2l-3.3-0.7l-3.3-0.7l-3.7-0.2l-3.7-0.2l-4.8-1.6l-4.8-1.6l-2.2-2.5l-2.2-2.5v-2.3v-2.3L521,90
	l2.8-2.7l3.3-0.5l3.3-0.5l2.5,1l2.5,1l1.9,2.3l1.9,2.3v0.7v0.7l3.4-0.5l3.4-0.5l6.5-2.1l6.5-2.1l2-1.9l2-1.9v-1v-1l-1.6-3.1
	l-1.6-3.1l-2.4-3.1l-2.4-3.1l-2.8-2.1l-2.8-2.1l-1.1-1l-1.1-1l-3.5-1.6l-3.5-1.6l-6.3-1.1l-6.3-1.1l-1.5-0.3l-1.5-0.3L520,60.2
	 M611.8,63.3l-6.9,0.6l-2.5,0.3l-2.5,0.3l-3.9,1.4l-3.9,1.4l-0.6,0.7l-0.6,0.6l-0.5,8.3l-0.5,8.3l-0.3,4.4l-0.3,4.4l0,7.9l0,7.9
	l0.8,6.6l0.8,6.6l0.3,5.7l0.3,5.7l0.7,2.2l0.7,2.2l0.1,1.5l0.1,1.5l0.3,4.7l0.3,4.7l1.1,3.4l1.1,3.4l0.4,3.5l0.4,3.5l1,1.6l1,1.6v1
	v1l1.3,1.2l1.3,1.2l5.4,0.7l5.4,0.7l5.1,0l5.1,0l2.7-0.4l2.7-0.4l1.8-3.7l1.8-3.7l0.8-3.8l0.8-3.8v-2.4v-2.4l1-4l1-4l0.8-11.9
	l0.8-11.9l0.4-17.4l0.4-17.4l0-3.3l0-3.3l-0.4-5.9l-0.4-5.9l-2-1.9l-2-1.9l-5.7-0.7l-5.8-0.7l-1.1-0.2l-1.1-0.2L611.8,63.3
	 M288.8,64.3l-4.7,0.8l-2.9,0.9l-2.9,0.9l-3.3,1.7l-3.3,1.7l-1,1.2l-1,1.2l-2.2,1.1l-2.2,1.1l-4.9,5l-4.9,5l-1.2,2.3l-1.2,2.3
	l-2.1,4.1l-2.1,4.1l-0.7,0.4l-0.7,0.4v2v2l-0.6,0.7l-0.6,0.7l-0.8,4.7l-0.8,4.7l0,3.3l0,3.3l0.4,5.7l0.4,5.7l1.4,3.7l1.4,3.7
	l-0.4,0.4l-0.4,0.4l2.1,4.2l2.1,4.2l4.9,5.8l4.9,5.8l2.5,2l2.5,2l2.6,1.7l2.6,1.7l2.8,0.9l2.8,0.9l1.1,0.6l1.1,0.6l0.7,0.3l0.7,0.3
	l6,0.9l6,0.9l4.2-0.5l4.2-0.5l3.6-0.8l3.6-0.8l4.7-2.2l4.7-2.2l3.6-2.3l3.6-2.3l5.6-5.8l5.6-5.8l0-1l0-1l1-1.1l1-1.1l1.9-3.6
	l1.9-3.6l1.1-4.4l1.1-4.4l1-6.5l1-6.5l-0.5-2.2l-0.5-2.2l-0.2-2.9l-0.2-2.9l-0.8-3.8l-0.8-3.8l-1.5-3.1l-1.5-3.1l-1.6-3l-1.6-3.1
	l-5.4-6.3l-5.4-6.3l-8.7-4.2l-8.7-4.2l-4.7-0.5l-4.7-0.5l-3.3-0.1l-3.3-0.1L288.8,64.3 M197.7,64.4l-2.9,0.2l-2.3,0.4l-2.3,0.4
	l-1.2,2.5l-1.2,2.5l-0.3,2.7l-0.3,2.7l-0.7,1.8l-0.7,1.8l-0.4,3.3L185,86l-1.1,7l-1.1,7l-0.5,3.8l-0.5,3.8l-0.2,1.8l-0.2,1.8
	l-0.5,2.3l-0.5,2.3l-1.4,1.2l-1.4,1.2l-1.3-0.2l-1.3-0.2l-1.3-2.2l-1.3-2.2l-1.6-2.9l-1.6-2.9l-3.9-3.8l-3.9-3.8l-2.6-0.5l-2.6-0.5
	l-3,1.6l-3,1.6l-2.1,1.9l-2.1,1.9l-1.5,2.9l-1.5,2.9l-2.1,2.7l-2.1,2.7h-1.3h-1.3l-1.7-1.8l-1.7-1.8l-0.6-5l-0.6-5l-0.8-6.1
	l-0.8-6.1l-0.5-0.8l-0.5-0.8l-1.2-6.2l-1.2-6.2l-1.2-4l-1.2-4l-0.4-1.9l-0.4-1.9l-2.7-0.9l-2.7-0.9l-6.5,0.5l-6.5,0.5l-1.1,0.1
	l-1.1,0.1l-2.5,0.8l-2.5,0.8l-3,1.3l-3,1.3l-0.3,3.1l-0.3,3.1l0.2,19.2l0.2,19.2l0.4,3.6l0.4,3.6l0.4,4.4l0.4,4.4l0.7,2.2l0.7,2.2
	l0.8,5.8l0.8,5.8l0.7,5.2l0.7,5.2l2.1,5.5l2.1,5.5l1,2.2l1,2.2l4,0.5l4,0.5l8.7,0l8.7,0l4.4-0.5l4.4-0.5l2.6-0.7l2.6-0.7l3-4l3-4
	l0.4-1l0.4-1l3-2.1l3-2.1l0.2-0.5l0.2-0.5l1.9,0l1.9,0l0.8,0.5l0.8,0.5l4.1,5.1l4.1,5.1l2.1,2.5l2.1,2.5l3.6,1.1l3.6,1.1l5.4-0.1
	l5.4-0.1l6.5-0.5l6.5-0.5l3.6-1.3l3.6-1.3l1.7-6.4l1.7-6.4l0.7-2.5l0.7-2.5l0.4-2.9l0.4-2.9l1.1-5.1l1.1-5.1l0.4-5l0.4-5l0.9-7.3
	l0.9-7.3l-0.2-15.6l-0.2-15.6l-0.3-4.5l-0.3-4.5l-1.2-1.9l-1.2-1.9l-2-0.4l-2-0.4l-3.9-1l-3.9-1l-0.6,0.4l-0.6,0.4l-0.9-0.6
	l-0.9-0.6l-2.2,0l-2.2,0L197.7,64.4 M406.8,65.1l-0.2,0.2l-12.1,0.4l-12.1,0.4l-5.1,0.6l-5.1,0.6l-0.4,0.4l-0.4,0.4l-1.6-0.6
	l-1.6-0.6l-3.2,0.7l-3.2,0.7l0.2,9.2l0.2,9.2l1,5.4l1,5.4l1.2,2.3l1.2,2.3l0.7,0.4l0.7,0.4l3.5,0.3l3.5,0.3l2.2,0.7l2.2,0.7l5.7,0.1
	l5.7,0.1l1.4,0.7l1.4,0.7l0,7.1l0,7.1l0.3,6.2l0.3,6.2l0.7,4.9l0.7,4.9v3.9v3.9l0.7,2.1l0.7,2.1l0.7,5.7l0.7,5.7l1,1.2l1,1.2
	l3.2,1.4l3.2,1.4l1.5-0.5l1.5-0.5l12.2-0.1l12.2-0.1l1.4-1.7l1.4-1.7v-2v-2l0.7-0.7l0.7-0.7l0.5-8.7l0.5-8.7l0.2-15.6l0.2-15.6
	l1.2-2.3l1.2-2.3l1.6-0.9l1.6-0.9l5.4-0.5l5.4-0.5l4.7-0.5l4.7-0.5l1.3-1.5l1.3-1.5l0-1.5l0-1.5l1.1-2.7l1.1-2.7l0.3-9.6l0.3-9.6
	l-0.8-2.5l-0.8-2.5l-0.1-0.2l-0.1-0.2l-9.2-1.4l-9.2-1.4l-3.4,0.1l-3.4,0.1l-18.4-0.3L407,64.9L406.8,65.1 M701.6,65.1l-0.2,0.2
	l-12.1,0.4l-12.1,0.4l-5.1,0.6l-5.1,0.6l-0.4,0.4l-0.4,0.4l-1.6-0.6l-1.6-0.6l-3.2,0.7l-3.2,0.7l0.2,9.2l0.2,9.2l1,5.4l1,5.4
	l1.2,2.3l1.2,2.3l0.7,0.4l0.7,0.4l3.1,0.2l3.1,0.2l3.3,0.8l3.3,0.8l1.5-0.1l1.5-0.1l3.7,0.1l3.7,0.1l1.2,0.9l1.2,0.9l0.4,13.4
	l0.4,13.4l0.7,4.4l0.7,4.4l0,4.1l0,4.1l0.7,2.1l0.7,2.1l0.7,5.7l0.7,5.7l1,1.2l1,1.2l3.2,1.4l3.2,1.4l0.8-0.5l0.8-0.5l13,0l13,0
	l1.4-1.7l1.4-1.7v-2v-2l0.7-0.7l0.7-0.7l0.5-8.7l0.5-8.7l0.2-15.6l0.2-15.6l1.2-2.3l1.2-2.3l2.2-1.1l2.2-1.1l4.9-0.2l4.9-0.2
	l4.7-0.5l4.7-0.5l1.3-1.5l1.3-1.5l0-1.5l0-1.5l1.1-3.3l1.1-3.3l0.2-9.1l0.2-9.1l-0.8-2.5l-0.8-2.5l-0.1-0.2l-0.1-0.2l-9.2-1.4
	l-9.2-1.4l-3.4,0.1l-3.4,0.1l-18.4-0.3l-18.4-0.3L701.6,65.1 M291.4,98.5l-1.4,0.4l-3.8,2.2l-3.8,2.2l-1.8,3.1l-1.8,3.1l-1.3,3.9
	l-1.3,3.9l0.5,3.3l0.5,3.3l2.7,3.9l2.7,3.9l2.2,1.6l2.2,1.6l4.8,1.1l4.8,1.1l1.3-0.7l1.3-0.7h1.8h1.8l2.5-1.8l2.5-1.8l1.5-0.7
	l1.5-0.7l2.9-4.3l2.9-4.3l-0.2-4.1l-0.2-4.1l-1.5-3.1l-1.5-3.1l-0.4-1.5l-0.4-1.5l-2.6-2.1l-2.6-2.1l-3.7-1.4l-3.7-1.4l-3.3,0.1
	l-3.3,0.1L291.4,98.5 M289.3,109.5l-2.6,2.3l-0.6,2.3l-0.6,2.3l0,0.9l0,0.9l-0.5,0.5l-0.5,0.5l1.1,2.3l1.1,2.3l1.9,2l1.9,2h4h4
	l3.7-2.5l3.7-2.5l0.4-2l0.4-2l-0.1-1.9l-0.1-1.9l-2.5-3.4l-2.5-3.4l-1.5,0l-1.5,0l-3.2-0.4l-3.2-0.4L289.3,109.5 M1010.9,51.1
	l-0.4,0.4l-8.6,1l-8.6,1l-5.2,1.5l-5.2,1.5l-4.7,2.8l-4.7,2.8l-1.5,2.2l-1.5,2.2l-0.5,2.2l-0.5,2.2l-0.3,2.9l-0.3,2.9l-0.6,5.8
	l-0.6,5.8l-0.5,1.2l-0.5,1.2l-0.3,4.7l-0.3,4.7l-0.4,10.2l-0.4,10.2l-0.1,0.9l-0.1,0.9l0.1,6l0.1,6l0.4,0.7l0.4,0.7l0.3,2.2l0.3,2.2
	l0.3,3.5l0.3,3.5l0.4,1.6l0.4,1.6l0.4,5l0.4,5l1,2.5l1,2.5l-0.4,0.7l-0.4,0.7l1.2,1.3l1.2,1.3l0.3,3.2l0.3,3.2l2.3,1.9l2.3,1.9
	l0.8,0.1l0.8,0.1l5.1,1.2l5.1,1.2l9.1,0.4l9.1,0.4l2.9,0.1l2.9,0.1l6-0.5l6-0.5l3.1-0.4l3.1-0.4l4.7-1.4l4.7-1.4l6.5-3.3l6.5-3.3
	l3.9-3.2l3.9-3.2h0.5h0.5l1-2l1-2l1.8-2.5l1.8-2.5l1.2-2.2l1.2-2.2l0.8-4.3l0.8-4.3l0-2.2l0-2.2l-2.9-9l-2.9-9l-1.8-2.4l-1.8-2.4
	l-0.9-1l-0.9-1l-1.3-2l-1.3-2v-1.2v-1.2l1-1.1l1-1.1l0.4-2.9l0.4-2.9l0.8-3.6l0.8-3.6l-0.5-4.4l-0.5-4.4l-1.1-3.8l-1.1-3.8l-1.4-1.8
	l-1.4-1.8v-0.8v-0.8l-3.4-3.3l-3.4-3.3h-0.7h-0.7l-1.2-1.3l-1.2-1.3l-3.1-1.3l-3.1-1.3v-0.6v-0.6l-0.9,0l-0.9,0l-2-1l-2-1l-2.8-0.2
	l-2.8-0.2l-0.8-0.6l-0.8-0.6l-3-0.3l-3-0.3l-0.9-0.6l-0.9-0.6l-3.7-0.1l-3.7-0.1l-0.7-0.4l-0.7-0.4L1010.9,51.1 M1130.1,53l-4,0.6
	l-2.6,0.3l-2.6,0.3l-4,1.8l-4,1.8l-3.6,1.6l-3.6,1.6l-1.8,1.7l-1.8,1.7l-2.2,1.1l-2.2,1.1l-1.8,1.8l-1.8,1.8l-3.8,3.9l-3.8,3.9
	l-2.9,5.6l-2.9,5.6v0.8v0.8l-1.5,2l-1.5,2l-0.7,2.8l-0.7,2.8l-0.7,4.4l-0.7,4.4l-0.3,2.2l-0.3,2.2l-0.1,4.7l-0.1,4.7l0.8,5.1
	l0.8,5.1l1.4,4.4l1.4,4.4l2.6,5l2.6,5l1.7,2.1l1.7,2.1l0.5,1.5l0.5,1.5h1h1l1.8,2.9l1.8,2.9l4.2,2.7l4.2,2.7l1.2,1.3l1.2,1.3h1.1
	h1.1l0.2,0.7l0.2,0.7l2.6,0.2l2.6,0.2l1.8,1.2l1.8,1.2l3.9,0.2l3.9,0.2l0.9,0.7l0.9,0.7l8-0.1l8-0.1l0.9-0.7l0.9-0.7l2.9-0.4
	l2.9-0.4l3.2-1.6l3.2-1.6l1.1-0.6l1.1-0.6l2.9-1.4l2.9-1.4l1.8-1l1.8-1l1.2-1.1l1.2-1.1l4.1-3.6l4.1-3.6l0-0.8l0-0.8l2.9-2.8
	l2.9-2.8v-0.9v-0.9l2.5-4.3l2.5-4.3l1-3.2l1-3.2l0.8-2.9l0.8-2.9l0.8-5.8l0.8-5.8l-0.4-6.7l-0.4-6.7l-0.7-1.4l-0.7-1.4v-1.7v-1.7
	l-2.8-7l-2.8-7l-1-1.7l-1-1.7l-0.8-0.7l-0.8-0.7l-2.1-2.9l-2.1-2.9l-3.3-3.4l-3.3-3.4h-0.9h-0.9l-0.6-1l-0.6-1l-4-2.5l-4-2.5l-2-1
	l-2-1l-0.5,0.5l-0.5,0.5l-2.6-1.1l-2.6-1.1l-2.9-0.7l-2.9-0.7l-3.3-0.3l-3.3-0.3l-2.2-0.3l-2.2-0.3L1130.1,53 M1487.3,54.2l-2.6,1
	l-3.6,0.7l-3.6,0.7l-2.3,1.1l-2.3,1.1h-0.5h-0.5l-4.2,3.6l-4.2,3.6h-0.7h-0.7l-1.6,1.7l-1.6,1.7v0.7v0.7l-2.6,4l-2.6,4l0.5,3.6
	l0.5,3.6l0.3,0.5l0.3,0.5l0.3,1.6l0.3,1.6l1.9,1.5l1.9,1.5l1.8,1.6l1.8,1.6h0.9h0.9l0.4,1.1l0.4,1.1h1.9h1.9l2,1l2,1l2.9,0.5
	l2.9,0.5l0.6,0.3l0.6,0.3l-2.4,2.3l-2.4,2.3l-1.3,6.2l-1.3,6.2l-0.1,7.9l-0.1,7.9l1.5,1.3l1.5,1.3v1v1l2.9,1.5l2.9,1.5l6-0.4l6-0.4
	l4.7-0.7l4.7-0.7l0.8,0l0.8,0l2.5-2.4l2.5-2.4l0.9-2l0.9-2h1h1l0.8-1l0.8-1l2.2-0.4l2.2-0.4l1.8-1.6l1.8-1.6l2.2-1.8l2.2-1.8
	l1.8-1.7l1.8-1.7v-1v-1l0.9-0.6l0.9-0.6l1.2-2.5l1.2-2.5l1.3-5.3l1.3-5.3l-0.4-8.2l-0.4-8.2l-1.6-4.7l-1.6-4.7l-0.8-1.4l-0.8-1.4
	l-4.4-5.3l-4.4-5.3l-2.6-1.2l-2.6-1.2l-1.5-1.3L1516,56l-1.8-0.4l-1.8-0.4l-1.8-0.5l-1.8-0.5l-2.6-0.2l-2.6-0.2l-0.8-0.5l-0.8-0.5
	v0.8v0.8l-1.3-0.6l-1.3-0.6l-4.7-0.1l-4.7-0.1L1487.3,54.2 M1225.8,54.8l-0.3,0.3l-6.5,0.7l-6.5,0.7l-3.2,1.1l-3.2,1.1l-2.8,4.4
	l-2.8,4.4v5.7V79l-0.7,0.4l-0.7,0.4v2.8v2.8l-0.5,0.3l-0.5,0.3l0.1,16.6l0.1,16.6l0.9,6.9l0.9,6.9l0.1,2.2l0.1,2.2l1.6,3.5l1.6,3.5
	v1.1v1.1l1.6,2.6l1.6,2.6l0.4,0.4l0.4,0.4l0.8,1.8l0.8,1.8l4.4,5.2l4.4,5.2l1.6,0.5l1.6,0.5l1.2,1.3l1.2,1.3h0.6h0.6l1.7,1.6
	l1.7,1.6l1.6,0.2l1.6,0.2l2.8,1.5l2.8,1.5l0.4-0.4l0.4-0.4l1.5,1l1.5,1l2.9,0.5l2.9,0.5l2.2,0.3l2.2,0.3l3.3,0.4l3.3,0.4l4,0.1
	l4,0.1l4.4-0.4l4.4-0.4l1.6-0.4l1.6-0.4l2.1-1.1l2.1-1.1l2.5-0.5l2.5-0.5l1-0.8l1-0.8l3.1-1.1l3.1-1.1l3.5-2.9l3.5-2.9l2.8-2.5
	l2.8-2.5l3.5-4.4l3.5-4.4l3.1-6l3.1-6l1.1-4.8l1.1-4.8l1.2-4.7l1.2-4.7l0-14.5l0-14.5l-0.5-6.2l-0.5-6.2l-0.7-2.5l-0.7-2.5v-3.8
	v-3.8l-1.5-2.9l-1.5-2.9l-3.8-1.8l-3.8-1.8l-12.3-0.4l-12.3-0.4l-4.4,1.1l-4.4,1.1l-1.8,1.1l-1.8,1.1l-2.1,3.3l-2.1,3.3l0.7,3
	l0.7,2.9l0,3.6l0,3.6l0.1,1.8l0.1,1.8l-0.1,5.1l-0.1,5.1l0,1.1l0,1.1l-0.8,4l-0.8,4l-0.2,2.9l-0.2,2.9l-2,4.3l-2,4.3v0.5v0.5
	l-2.2,2.5l-2.2,2.5l0,0.5l0,0.5l-2.7,0l-2.7,0l-1.9-1.7l-1.9-1.7l-1.3-2.5l-1.3-2.5l-0.3-3.5l-0.3-3.5l-0.7-0.8l-0.7-0.8l0-10.1
	l0-10.1l0.7-2.6l0.7-2.6l0-1.6l0-1.6l1-4.9l1-4.9l-0.2-3.6l-0.2-3.6l-0.4-1.6l-0.4-1.6l-3.5-2.3l-3.5-2.3l-6.4-0.7l-6.4-0.7
	l-2.3-0.3l-2.3-0.3L1225.8,54.8 M1364.2,55l-0.3,0.3l-5.6,0.3l-5.6,0.3l-3.3,0.4l-3.3,0.4l-3.1,0l-3.1,0v0.6v0.6l-3.5,0.5l-3.6,0.5
	l-1.9,1.5l-1.8,1.5l-1.2,2.3l-1.2,2.3l-0.3,6.7l-0.3,6.7l-0.4,0.6l-0.4,0.6l1,4.3l1,4.3l0,2.3l0,2.3l1,2.1l1,2.1l2,4.5l2,4.5l2,0.9
	l2,0.9v0.5v0.5l1.7,0.4l1.7,0.4l2.8,0.4l2.8,0.4l3.4,0.8l3.4,0.8l0.7-0.4l0.7-0.4l1.6,0.6l1.6,0.6l0.2,5l0.2,5l0.5,6.2l0.5,6.2
	l0.3,3.3l0.3,3.3l0.3,3.1l0.3,3.1l0.5,2.7l0.5,2.7l0.2,1.8l0.2,1.8l0.7,4.1l0.7,4.1l0.9,2.8l0.9,2.8l2.2,2l2.2,2l2.5,0.4l2.5,0.4
	l1.6,0.6l1.6,0.6l7.9,0.1l7.9,0.1l1.5,0.1l1.5,0.1l6.4-0.6l6.4-0.6l1.6-0.6l1.6-0.6l2.3-3.4l2.3-3.5v-2v-2l0.6-0.4l0.6-0.4l0.6-4.9
	l0.6-4.9l0.4-6.5l0.4-6.5l0.1-14.2l0.1-14.2l2.9-0.1l2.9-0.1l4.4-0.4l4.4-0.4l2-0.8l2-0.8h1.8h1.8l2.9-2.6l2.9-2.6v-1.6v-1.6
	l0.6-0.7l0.6-0.7l1.3-5.4l1.3-5.4l0.2-9.9l0.2-9.9l-1-1.3l-1-1.3l0.4-2.3l0.4-2.3l-1.8-2l-1.8-2l-2.4-0.7l-2.4-0.7l-3.3-0.2
	l-3.3-0.2l-8.7-0.9l-8.7-0.9l-27.5-0.1l-27.5-0.1L1364.2,55 M892.4,56l-3.6,0.7l-3.3,0.8l-3.3,0.8l-0.7,0.2l-0.7,0.2l-2,0.8l-2,0.8
	V61v0.8l-2.4,3l-2.4,3l-0.6,0.2l-0.5,0.2v1.3v1.3l-2.5,5.2l-2.5,5.2v0.9v0.9l-0.7,0.7l-0.7,0.7l-1.4,4.9l-1.4,4.9l-0.8,0.9l-0.8,0.9
	l-0.4,3.7l-0.4,3.7h-0.6h-0.6v1.6v1.6l-1.5,4l-1.5,4l-0.1,2.5l-0.1,2.5l-1,3.8l-1,3.8l-0.4,0.6l-0.4,0.6l-0.4,4.2l-0.4,4.2l-0.6,1.2
	l-0.6,1.2l-0.8,9l-0.8,9l-0.4,1.8l-0.4,1.8l0.1,0.5l0.1,0.5l0.1,5l0.1,5l0.9,2.3l0.9,2.3l4.1,2l4.1,2l4.1,0.3l4.1,0.3l6.8,0.1
	l6.8,0.1l0.3-0.5l0.3-0.5l1.6,0l1.6,0l3.1-4.3l3.1-4.3l0.1-0.5l0.1-0.5l0.9-1.1l0.9-1.1l2-3.9l2-3.9V160v-0.9l1.1-0.9l1.1-0.9h7.2
	h7.2l1.1,0.9l1.1,0.9v0.9v0.9l2,3.9l2,3.9l1.1,1.3l1.1,1.3l-0.3,0.1l-0.3,0.1l3.2,4.5l3.2,4.5l1.6,0l1.6,0l0.3,0.5l0.3,0.5l6.8-0.1
	l6.8-0.1l4.1-0.3l4.1-0.3l4.1-2l4.1-2l0.9-2.3l0.9-2.3l0.1-5l0.1-5l0.1-0.5l0.1-0.5l-0.4-1.8l-0.4-1.8l-0.8-9l-0.8-9l-0.6-1.2
	l-0.6-1.2l-0.4-4.2l-0.4-4.2l-0.4-0.6l-0.4-0.6l-1-3.8l-1-3.8l-0.1-2.5l-0.1-2.5l-1.5-4l-1.5-4v-1.6v-1.6h-0.6H951l-0.4-3.7
	l-0.4-3.7l-0.8-0.9l-0.8-0.9l-1.4-4.9l-1.4-4.9l-0.7-0.7l-0.7-0.7v-0.9v-0.9l-2.5-5.2l-2.5-5.2v-1.3v-1.3l-0.5-0.2l-0.6-0.2l-2.4-3
	l-2.4-3V61v-0.8l-2-0.8l-2-0.8l-0.7-0.2l-0.7-0.2l-3.3-0.8l-3.3-0.8l-4.4-0.8l-4.4-0.8l-8.3,0.1l-8.3,0.1L892.4,56 M1009.6,59.9v0.6
	l3.8,0.9l3.8,0.9h2.3h2.3V63v0.6l4,1l4,1l2.3,1.7l2.3,1.7h1.3h1.3l1.7,1.7l1.7,1.7l2.6,1.6l2.6,1.6v1.2v1.2l1.9,2.7l1.9,2.7l0.2,1
	l0.2,1l0.8,1.5l0.8,1.5l-0.3,3.6l-0.3,3.6l-0.1,3.1l-0.1,3.1l0.4,0.4l0.4,0.4l0.3-1l0.3-1l1.1-3.6l1.1-3.6l-0.2-4.1l-0.2-4.1
	l-0.9-2.8l-0.9-2.8l-2.5-3.8l-2.5-3.8l-3.4-2.1l-3.4-2.1l-4-2.2l-4-2.2l-2.9-0.8l-2.9-0.8l-6.2-0.7l-6.2-0.7l-2.4-0.4l-2.4-0.4V59.9
	 M1494,61.4l-0.9,0.4v0.6V63l5.3-0.1l5.3-0.1l1.7,0.8l1.7,0.8l5,2.5l5,2.5l2.6,2.7l2.6,2.7l1.2,3.3l1.2,3.3l-0.5,0l-0.5,0l0.7,0.5
	l0.7,0.5l0.9,2.6l0.9,2.6l-0.4,6.5l-0.4,6.5l-1.1,3.5l-1.1,3.5l-3.6,4.9l-3.6,4.9l-2,1.3l-2,1.3l-2,0l-2,0l-3.6,1.9l-3.6,1.9
	l-1.1,2.8l-1.1,2.8v1.8v1.8h1h1l1.6-3.3l1.6-3.3l1.2-0.4l1.2-0.4l1.1-0.9l1.1-0.9l3.3-1.3l3.3-1.3l3.8-3.2l3.8-3.2l2.9-5.7l2.9-5.7
	l0.4-5.6l0.4-5.6l-1-5.6l-1-5.6l-1.5-3.4L1525,74l-3.6-3.5l-3.6-3.5l-4.2-2.2l-4.2-2.2l-3.8-0.8l-3.8-0.8l-3.4,0.1l-3.4,0.1
	L1494,61.4 M1134.5,62.7v1.1l1.4,0.8l1.4,0.8l2,0l2,0l2.9,1l2.9,1l5.7,3l5.7,3h0.9h0.9l1.6,2.2l1.6,2.2l0.9,0.1l0.9,0.1l2.8,3.4
	l2.8,3.4l2.6,3.3l2.6,3.3l1.4,3.3l1.4,3.3l0.7,3.3l0.7,3.3l0.9,6.2l0.9,6.2l-0.9,3.5l-0.9,3.5l0.3,1.3l0.3,1.3l-1.1,2.1l-1.1,2.1
	l-0.5,2.7l-0.5,2.7l-2.8,4.4l-2.8,4.4v0.3v0.3l-1.7,2.4l-1.7,2.4l-3.6,3.7l-3.6,3.7l-6.3,4.5l-6.3,4.5l-0.4,1l-0.4,1l4.1-1.8
	l4.1-1.8l3.1-2.1l3.1-2.1h0.7h0.7l5.7-6.1l5.7-6.1l0.9-2.1l0.9-2.1l0.8-0.5l0.8-0.5l1.8-3.9l1.8-3.9l1.1-4.6l1.1-4.6l0.8-6.1
	l0.8-6.1l-0.5-2.6l-0.5-2.6l0.2-1.2l0.2-1.2l-1.5-5.9l-1.5-5.9l-2.6-4.9l-2.6-4.9l-3.5-4.4l-3.5-4.4l-2.4-2.5l-2.4-2.5l-8-3.8
	l-8-3.8l-6.5-0.8l-6.5-0.8l-0.9,0l-0.9,0V62.7 M1225.6,63.5l-0.7,0.3l-5.7,0.7l-5.7,0.7l-0.4,0.4l-0.4,0.4l0.5,0.5l0.5,0.5l7.1,0.2
	l7.1,0.2l4.4,0.4l4.4,0.4l1.7,1.3l1.7,1.3l-1.1,6.8l-1.1,6.8l-0.4,5.1l-0.4,5.1l0.1,6.5l0.1,6.5l0.7,6.5l0.7,6.5l0.7,0.7l0.7,0.7
	v1.2v1.2l1.8,3.2l1.8,3.2l3.1,3l3.1,3l2.8,0.8l2.8,0.8l1.8-0.7l1.8-0.7l-0.4-0.6l-0.4-0.6l-3.2-0.5l-3.2-0.5l-2.5-2.7l-2.5-2.7
	l-2-3.5l-2-3.5l-1.1-5.6l-1.1-5.6l0.1-10.2l0.1-10.2l0.8-6.2l0.8-6.2l1.5-5.4l1.5-5.4l-1.8-1.6l-1.8-1.6l-5.4-0.5l-5.4-0.5l-2.2-0.4
	l-2.2-0.4L1225.6,63.5 M1376,63.6l-0.3,0.3l-10.1,0.3l-10.1,0.3l-4,0.4l-4,0.4l-5.1,0.3l-5.1,0.3l-1.6,0.4l-1.6,0.4l0.5,2l0.5,2
	l3.2,0l3.2,0l3.6-0.6l3.6-0.6l1.8-0.2l1.8-0.2l11.3-0.4l11.3-0.4l8-0.5l8-0.5l6.2,0l6.2,0l13.1,0.6l13.1,0.6l2.2,0.2l2.2,0.2
	l2.2,0.1l2.2,0.1l0.8,3.1l0.8,3.1l-0.2,10.2l-0.2,10.2l-1.1,2.9l-1.1,2.9l0.4,1l0.4,1l0.8-0.3l0.8-0.3l0.8-1.8l0.8-1.8l1.3-4.4
	l1.3-4.4l0.2-9.3l0.2-9.3l-0.9-2.7l-0.9-2.7l-9-1.3l-9-1.3l-24.1-0.3l-24.1-0.3L1376,63.6 M923,65.7l-0.4,0.4l0.6,1.2l0.6,1.2
	l3.7,7.7l3.7,7.7v1.2v1.2l0.7,0.4l0.7,0.4v1.5V90l1.9,3.2l1.9,3.2l-0.2,1.3L936,99l0.5,0.8l0.5,0.8l2.2,5.7l2.2,5.7v1.5v1.5l1.5,2.8
	l1.5,2.8l0.1,2.2l0.1,2.2l1,4.4l1,4.4l0.8,2.5l0.8,2.5l0.2,3.3l0.2,3.3l0.5,2.2l0.5,2.2l0.5,3.6l0.5,3.6l-0.1,4.7l-0.1,4.7l-0.5,2.7
	l-0.5,2.7h1.8h1.8l0.9-1.1l0.9-1.1l-0.6-8.5l-0.6-8.5l-0.2-1.8l-0.2-1.8l-1.2-7.2l-1.2-7.2l-1-3.7l-1-3.7l-0.8-5.3l-0.8-5.3
	l-1.2-3.1l-1.2-3.1l-1.3-5.8l-1.3-5.8l-2.6-7.3l-2.6-7.3l-1.4-2.9l-1.4-2.9l-1.9-4.2l-1.9-4.2l-2.6-2.5l-2.6-2.5h-0.9h-0.9L923,65.7
	 M1287.5,65.7l-0.2,0.2l-2.9,0.4l-2.9,0.4l-1,1l-1,1l0.5,1.5l0.5,1.5l1.1,0.4l1.1,0.4l3.4-1.2l3.4-1.2l7.6,0.1l7.6,0.1l2.6,0.1
	l2.6,0.1l1,4.1l1,4.1l-0.1,2.2l-0.1,2.2l0.6,4l0.6,4l0,4.7l0,4.7l0.1,1.8l0.1,1.8l0,1.8l0,1.8l-0.8,7.2l-0.8,7.2l-0.7,1.4l-0.7,1.4
	l0.4,0.4l0.4,0.4l-0.7,1.3l-0.7,1.3l-0.4,2.5l-0.4,2.5l-1.2,3.3l-1.2,3.3l-0.5,0.4l-0.5,0.4l-0.9,3.3l-0.9,3.3l-1.7,1.9l-1.7,1.9
	v0.6v0.6l-2.2,2.1l-2.2,2.1v0.8v0.8l-2.7,2.4l-2.7,2.4l-1.6,0.4l-1.6,0.4l0.4,0.6l0.4,0.6h-1.1h-1.1v0.7v0.7h0.7h0.7l3-1.7l3-1.7
	l4.7-3.9l4.7-3.9v-0.4v-0.4l2.1-2.3l2.1-2.3l3.3-6.8l3.3-6.8l1.2-4.4l1.2-4.4l0.7-4l0.7-4l0.2-10.5l0.2-10.5l-0.6-6.2l-0.6-6.2
	l-0.2-2.2l-0.2-2.2l-0.6-6.3l-0.6-6.3l-1.7-1.6l-1.7-1.6l-11.6-0.1l-11.6-0.1L1287.5,65.7 M997.9,87.2l-0.3,0.9l-0.2,8.1l-0.2,8.1
	l1,1l1,1l1.2,1.7l1.2,1.7l2.8,1.6l2.8,1.6l2.9-0.2l2.9-0.2l1.1-0.3l1.1-0.3l1.3-0.6l1.3-0.6v-0.6v-0.6l-2.9,0.7l-2.9,0.7l-3.2-0.5
	l-3.2-0.5l-2.8-2.9l-2.8-2.9l-0.2-3.8l-0.2-3.8l-0.3-4.9l-0.3-4.9l-0.4-0.4l-0.4-0.4L997.9,87.2 M1013.8,86.8l-0.4,0.4h-2.5h-2.5
	l-0.2,4.6l-0.2,4.6l0.7,3l0.7,3l1.2,0.7l1.2,0.7l2.1-1.1l2.1-1.1l0.7,0l0.7,0l3.2-2.9l3.2-2.9l-0.4-1.1l-0.4-1.1v-0.9v-0.9l-1.7-1.7
	l-1.7-1.7l-1.6-0.9l-1.6-0.9h-1h-1L1013.8,86.8 M893.8,100.9l-2.2,1.6l-0.9,1.8l-0.9,1.8v0.6v0.6l-1.9,2.9l-1.9,2.9l-0.2,1.8
	l-0.2,1.8l-0.9,2.6l-0.9,2.6l0.5,2.6l0.5,2.6l2.6,3.1l2.6,3.1l3.3,0.8l3.3,0.8l2.3,0.4l2.3,0.4l1.3-0.8l1.3-0.8l-1.5-0.1l-1.5-0.1
	l-1.8-0.3l-1.8-0.3l-3.6-1.2l-3.6-1.2l-1.2-1.1l-1.2-1.1l-0.5-3l-0.5-3l1.4-4.3l1.4-4.3l1-2.2l1-2.2l2.3-3.6l2.3-3.6l1.1-1.3
	l1.1-1.3v-0.4v-0.4h-1.3H896L893.8,100.9 M1117.2,105.1l-1,0.6l-1,1.9l-1,1.9l-0.5,5l-0.5,5l1,3.9l1,3.9l2.4,3l2.4,3l2.5,1.5
	l2.5,1.5l3.3,0.4l3.3,0.4l2-0.8l2-0.8l-4.7-1.1l-4.7-1.1l-1.7-1.1l-1.7-1.1l-3.2-4.2l-3.2-4.2l-0.5-4.3l-0.5-4.3l1.9-4.2l1.9-4.2
	v-0.6v-0.6l-0.5,0l-0.5,0L1117.2,105.1 M1128.5,108l-2.6,2.3l-0.6,2.3l-0.6,2.3l0,0.9l0,0.9l-0.5,0.5l-0.5,0.5l1.1,2.3l1.1,2.3
	l1.9,2l1.9,2h4h4l3.7-2.5l3.7-2.5l0.4-2l0.4-2l-0.1-1.9l-0.1-1.9l-2.5-3.4l-2.5-3.4l-1.5,0l-1.5,0l-3.2-0.4l-3.2-0.4L1128.5,108
	 M901.3,109l-1.9,2.4l0,0.6l0,0.6l-1.5,1.8l-1.5,1.8v2.4v2.4l-0.7,0.4l-0.7,0.4v0.6v0.6l2,0.8l2,0.8l2.9,0.5l2.9,0.5l4.5,0.1
	l4.5,0.1l0.5-0.5l0.5-0.5l-3.1-6.4l-3.1-6.4l-1.5-2.2l-1.5-2.2l-0.7-0.5l-0.7-0.5l-0.4,0l-0.4,0L901.3,109 M1412.6,110.2l-1,0.6
	l-1.4,3.9l-1.4,3.9l-0.3,14.9l-0.3,14.9l-0.8,4l-0.8,4l-1,5.3l-1,5.3l0.9,0.8l0.9,0.8l1.1-0.4l1.1-0.4l0.6-1.7l0.6-1.7l0.8-2.5
	l0.8-2.5l0.8-12.3l0.8-12.3l-0.3-9l-0.3-9l0.4-3.5l0.5-3.5l-0.1,0l-0.1,0L1412.6,110.2 M1052.5,115.1v0.7l1.5,3l1.5,3v0.8v0.8h0.6
	h0.6l1.5,4.5l1.5,4.5l0.5,5.2l0.5,5.2l-0.9,4.2l-0.9,4.2l-2.4,4l-2.4,4l-3.2,2l-3.2,2l-0.4,1.4l-0.4,1.4h0.5h0.5l3.6-2.7l3.6-2.7
	l3-3.3l3-3.3l1.1-2.9l1.1-2.9l0.5-2.2l0.5-2.2l-0.1-3.9l-0.1-3.9l-0.9-2.7l-0.9-2.7l-2.6-5.1l-2.6-5.1l-0.5-0.4l-0.5-0.4l-1.9-2.8
	l-1.9-2.8V115.1 M1001.3,128.9l-1.3,2.7l-0.3,5.5l-0.3,5.5l0,1.1l0,1.1l0.7,2.8l0.7,2.8l2.4,2.4l2.4,2.4l3.4,0.6l3.4,0.6l3.5-0.3
	l3.5-0.3l1-1l1-1l-0.4-0.4l-0.4-0.4l-3.8,0.8l-3.8,0.8l-3.8-1.2l-3.8-1.2l-0.8-1.6l-0.8-1.6l-0.6-2.5l-0.6-2.5l0.1-8.9l0.1-8.9
	l-0.1,0l-0.1,0L1001.3,128.9 M1013.5,129l-1.6,0.3l-0.9,1l-0.9,1v4.3v4.3l0.5,3l0.5,3l2.3,0l2.3,0l3.1-0.6l3.1-0.6l2.1-2l2.1-2
	l-0.3-1.9l-0.3-1.9l-0.1-0.5l-0.1-0.5l-3.1-2.9l-3.1-2.9h-1.5h-1.5l-0.7-0.6l-0.7-0.6L1013.5,129 M1490.9,144.7l-4,0.9l-2.7,1.1
	l-2.7,1.1l-0.8,1.4l-0.8,1.4l-1.2,3.5l-1.2,3.5l-0.2,3.2l-0.2,3.2l2.5,3.8l2.5,3.8v0.6v0.6l3.8,1.9l3.8,1.9l1.7-0.6l1.7-0.6l0.7,0.4
	l0.7,0.4l1.7,0.3l1.7,0.3l1.8-1.4l1.8-1.4l0.6,0l0.6,0l1.5-1.2l1.5-1.2l2-3.6l2-3.6l0.3-2.5l0.3-2.5l-1.1-3.3l-1.1-3.3l-2.5-3
	l-2.5-3l-2.3-1.1l-2.3-1.1l-1.8-0.4l-1.8-0.4L1490.9,144.7 M1493.8,153.1v0.7l2.2,2.2l2.2,2.2l0,1.6l0,1.6l-1,2.7l-1,2.7l0.6,0.4
	l0.6,0.4l1.4-0.8l1.5-0.8l0.8-1.5l0.8-1.5l0-3l0-3l-2.8-2.3l-2.8-2.3l-1.3,0l-1.3,0V153.1"/>
</svg>
