<?xml version="1.0" encoding="utf-8"?>
<!-- Generator: Adobe Illustrator 26.4.0, SVG Export Plug-In . SVG Version: 6.00 Build 0)  -->
<svg version="1.1" id="Layer_1" xmlns="http://www.w3.org/2000/svg" xmlns:xlink="http://www.w3.org/1999/xlink" x="0px" y="0px"
	 viewBox="0 0 1784.4 18.3" style="enable-background:new 0 0 1784.4 18.3;" xml:space="preserve">
<style type="text/css">
	.st0{fill:none;stroke:#000000;stroke-width:10;stroke-linecap:round;stroke-linejoin:round;stroke-miterlimit:10;}
</style>
<g>
	<path class="st0" d="M5,10.3c35.5,0,35.5-0.2,71-0.2c35.5,0,35.5-2.4,71-2.4c35.5,0,35.5-1.1,71-1.1c35.5,0,35.5,0.6,71,0.6
		c35.5,0,35.5,0,71,0c35.5,0,35.5-1.4,71-1.4c35.5,0,35.5-0.8,71-0.8c35.5,0,35.5,5.8,71,5.8c35.5,0,35.5-4.5,71-4.5
		c35.5,0,35.5,1.7,71,1.7c35.5,0,35.5,1,71,1c35.5,0,35.5,1,71,1c35.5,0,35.5,1.1,71,1.1c35.5,0,35.5,1.6,71,1.6
		c35.5,0,35.5-1.9,71-1.9c35.5,0,35.5,2.6,71,2.6c35.5,0,35.5-5.6,71-5.6c35.5,0,35.5,2,71,2c35.5,0,35.5,1.4,71,1.4
		c35.5,0,35.5-2.1,71-2.1c35.5,0,35.5,2.1,71,2.1c35.5,0,35.5-1.8,71-1.8c35.5,0,35.5-2.4,71-2.4c35.5,0,35.5,0.7,71,0.7
		s35.5-0.3,71-0.3"/>
</g>
</svg>
