<?xml version="1.0" encoding="utf-8"?>
<!-- Generator: Adobe Illustrator 26.4.0, SVG Export Plug-In . SVG Version: 6.00 Build 0)  -->
<svg version="1.1" id="Layer_1" xmlns="http://www.w3.org/2000/svg" xmlns:xlink="http://www.w3.org/1999/xlink" x="0px" y="0px"
	 viewBox="0 0 1616.8 265.5" style="enable-background:new 0 0 1616.8 265.5;" xml:space="preserve">
<style type="text/css">
	.st0{fill-rule:evenodd;clip-rule:evenodd;fill:#AB3023;}
	.st1{fill-rule:evenodd;clip-rule:evenodd;fill:#C76D7F;}
	.st2{fill-rule:evenodd;clip-rule:evenodd;fill:#757D9F;}
	.st3{fill-rule:evenodd;clip-rule:evenodd;fill:#065A93;}
	.st4{fill-rule:evenodd;clip-rule:evenodd;fill:#B39E3A;}
	.st5{fill-rule:evenodd;clip-rule:evenodd;fill:#047D6C;}
	.st6{fill-rule:evenodd;clip-rule:evenodd;fill:#0AFAF9;}
	.st7{fill-rule:evenodd;clip-rule:evenodd;fill:#FFFFA6;}
	.st8{fill-rule:evenodd;clip-rule:evenodd;fill:#EC815D;}
	.st9{fill-rule:evenodd;clip-rule:evenodd;fill:#F7F8FC;}
	.st10{fill-rule:evenodd;clip-rule:evenodd;fill:#FFFFFF;}
	.st11{fill-rule:evenodd;clip-rule:evenodd;fill:#05A38D;}
	.st12{fill-rule:evenodd;clip-rule:evenodd;fill:#FDE153;}
	.st13{fill-rule:evenodd;clip-rule:evenodd;fill:#0883D6;}
	.st14{fill-rule:evenodd;clip-rule:evenodd;fill:#A1ADDC;}
	.st15{fill-rule:evenodd;clip-rule:evenodd;fill:#FF8CA2;}
	.st16{fill-rule:evenodd;clip-rule:evenodd;fill:#FC4733;}
	.st17{fill-rule:evenodd;clip-rule:evenodd;}
</style>
<path class="st0" d="M744,80.7l-1.8,0.3l-0.1,6.4l-0.1,6.4l0.1,1.2l0.1,1.2l1.1,5.9l1.1,5.9l1.3,2.5l1.3,2.5l0.8,0.5l0.8,0.5l3.3,0
	l3.3,0l1.5,0.8l1.5,0.8l7.9,0.3l7.9,0.3l1,0.9l1,0.9l0.4,12.2l0.4,12.2l0.4,4.7l0.4,4.7l0.7,7.5l0.7,7.5l1.3,7.8l1.3,7.8l0.9,1.1
	l0.9,1.1l3.4,1.5l3.4,1.5l0.9-0.6l0.9-0.6l14-0.1l14-0.1l1-1l1-1l-1.4,0.5l-1.4,0.5v-1.6v-1.6l-2.6,0.6l-2.6,0.6l-2.8,0l-2.8,0
	l-7.1-0.5l-7.1-0.5l-0.4-0.1l-0.4-0.1l-0.7,0.1l-0.7,0.1l-3.3-1l-3.3-1l-0.8-3.2l-0.8-3.2l-0.4-2.4l-0.4-2.4l-0.8-5.9l-0.8-5.9
	l-0.7-5.1l-0.7-5.1l-0.3-4.7l-0.3-4.7l-0.7-9.5l-0.7-9.5l-1-1.7l-1-1.7l-2.7-0.9l-2.7-0.9l-3.1,0.1l-3.1,0.1l-3.2-0.4l-3.2-0.4
	l-4.6-1l-4.6-1l-0.6-1.7l-0.6-1.7l-1-7.8l-1-7.8l0-6.1l0-6.1l-0.1,0.1l-0.1,0.1L744,80.7"/>
<path class="st1" d="M742.5,76.8l-0.4,0.4v1.9V81l1.8-0.3l1.8-0.3l0.2-2.1l0.2-2.1l-1.7,0.1l-1.7,0.1L742.5,76.8 M498.4,90.7l-3,2.6
	V94v0.8l-2.4,2.1l-2.4,2.1v1.1v1.1l-1.6,1.4l-1.6,1.4v1v1l-2,3.5l-2,3.5v1.2v1.2l-0.7,1.4l-0.7,1.4l-1.2,7.2l-1.2,7.2l0.5,5.4
	l0.5,5.4l0.1,2.4l0.1,2.4l1.3,3.1l1.3,3.1v1.8v1.8l2.9,5l2.9,5l2,2l2,2l5,5.2l5,5.2l1.7,0.5l1.7,0.5l1.6,1.4l1.6,1.4l4.7,1.7
	l4.7,1.7l3.1,0.5l3.1,0.5l0.6,0.4l0.6,0.4l6.2,0l6.2,0l5.8-1.5l5.8-1.5l4.3-2l4.3-2l-0.6,0l-0.6,0l-4.9,1.6l-4.9,1.6l-7.7,1l-7.7,1
	l-0.9-0.6l-0.9-0.6l-3.5,0.4l-3.5,0.4l-1.9-1.2l-1.9-1.2h-1.5h-1.5l-1.2-1.2l-1.2-1.2h-1.5h-1.5l-4.8-3.5l-4.8-3.5l-3.2-3.3
	l-3.2-3.3l-2-3.6l-2-3.6l-1.5-1.7l-1.5-1.7l-2.7-7.9l-2.7-7.9l-1-8l-1-8l0.6-1l0.6-1l0-2.4l0-2.4l2-6.1l2-6.1l2.1-3.3l2.1-3.3
	l1.1-1.2l1.1-1.2l3.6-3.7l3.6-3.7l0.7-2.4l0.7-2.4l-0.1,0l-0.1,0L498.4,90.7 M534.7,109l-0.5,0.5l-3.8,0.4l-3.8,0.4l-2.2,1.5
	l-2.2,1.5v1.2v1.2l0.6-0.3l0.6-0.3l3.9-1.9l3.9-1.9l3.9,0l3.9,0l3.8,1.4l3.8,1.4l3.8,3.2l3.8,3.2l-0.1,0.5l-0.1,0.5l1.7,4.6l1.7,4.6
	l0,3.7l0,3.7l-1.7,2.8l-1.7,2.8l-1.7,1.9l-1.7,1.9l1.9-1l1.9-1l1.4-1.7l1.4-1.7l1.1-3.2l1.1-3.2l-0.2-4.3l-0.2-4.3l-1.5-3.8
	l-1.5-3.8l-2.6-2.7l-2.6-2.7h-1.1h-1.1v-0.6v-0.6l-1.6-1l-1.6-1l-4.1-0.8l-4.1-0.8l-1.2-0.4l-1.2-0.4L534.7,109"/>
<path class="st2" d="M616.4,85.9l0.5,1.4l-0.8,1.5l-0.8,1.5l-0.4,5.3l-0.4,5.3l-0.4,5.5l-0.4,5.5l-0.7,2.4l-0.7,2.4l0.2,1.6l0.2,1.6
	l0.1,1.6l0.1,1.6l-0.5,8.3l-0.5,8.3l0.1,2l0.1,2l0,1.6l0,1.6l0,1.6l0,1.6l0,8.8l0,8.8l0.8,0.5l0.8,0.5v4.1v4.1l1,2.8l1,2.8l0.8,1.4
	l0.8,1.4l1.9,0.4l1.9,0.4l2,0.5l2,0.5l8.4,0.4l8.4,0.4l2.7-0.7l2.7-0.7l0.6-2.7l0.6-2.7l0.7-6.1l0.7-6.1l-0.6-1.6l-0.6-1.6l2.1-4.5
	l2.2-4.5l2.8-0.2l2.8-0.2l5.1,6.1l5.1,6.1l4.7,4.5l4.7,4.5l2.1,1.9l2.1,1.9l3.8,2.4l3.8,2.4l3.2,0.8l3.2,0.8l4.3,0.1l4.3,0.1l2-0.1
	l2-0.1l2.6-0.1l2.6-0.1l-1.3-0.8l-1.3-0.8l-7.2,0.1l-7.2,0.1l-3-0.7l-3-0.7l-2.1-1.5l-2.1-1.5l-1.3-0.8l-1.3-0.8l-2.1-1.4l-2.1-1.4
	l-6.8-7.8l-6.8-7.8v-0.5v-0.5l-3-2.8l-3-2.8l-1.6-1.1l-1.6-1.1l-2.6-0.5l-2.6-0.5l-1.9,2.1l-1.9,2.1l-0.5,2.9l-0.5,2.9l-0.7,3.1
	l-0.7,3.1l0.4,0.7l0.4,0.7l-1.4,5.7l-1.4,5.7l-0.7,1.3l-0.7,1.3l-2.7,0.7l-2.7,0.7l-3.7-0.7l-3.7-0.7l-0.6,0.4l-0.6,0.4l-4.4-1.7
	l-4.4-1.7l-1.3-1.4l-1.3-1.4l-0.3-8.6l-0.3-8.6l-0.5-6.7l-0.5-6.7l0-14.6l0-14.6l0.9-9.9l0.9-9.9l0.4-5.5l0.4-5.5l-1.3-1.6l-1.3-1.6
	L616.4,85.9 M681.3,87.6l-0.4,0.4l0.4,7.4l0.4,7.4l-1.2,2.4l-1.2,2.4l-2.5,0.1l-2.5,0.1l1.3,0.3l1.3,0.3l-0.4,1.7l-0.4,1.7l2.2-0.6
	l2.2-0.6l1-1.3l1-1.3l1.3-6.3l1.3-6.3l0-4.1l0-4.1h-1.4h-1.4L681.3,87.6"/>
<path class="st3" d="M1094.3,83.2l0.2,9.9l1,5.9l1,5.9l1.3,2.5l1.3,2.5l0.8,0.5l0.8,0.5l3.3,0l3.3,0l1.5,0.8l1.5,0.8l7.9,0.4
	l7.9,0.4l1.2,0.9l1.2,0.9l-2-2.1l-2-2.1l-8-0.7l-8-0.7l-1-0.6l-1-0.6l-2.1-0.2l-2.1-0.2l-1-0.1l-1-0.1l-1.7-5.3l-1.7-5.3l0.1-7.5
	l0.1-7.5l0-3.1l0-3.1l-0.8-0.3l-0.8-0.3l-1-1l-1-1L1094.3,83.2 M384.9,103.5l-1.8,3l-0.5,1.2l-0.5,1.2l-0.7,1.2l-0.7,1.2l-1.2,2.4
	l-1.2,2.4l-0.6,3.9l-0.6,3.9l-0.6,0.8l-0.6,0.8l-0.4,8.3l-0.4,8.3l1.6,7.9l1.6,7.9l2.7,3.9l2.7,3.9l2.5,3.6l2.5,3.6l2.7,1.9l2.7,1.9
	l1.9,1.8l1.9,1.8h1.3h1.3l2.7,2l2.7,2h1.6h1.6l1.8,1.2l1.8,1.2l0.6-0.4l0.6-0.4l5.9,1.5l5.9,1.5l2.7,0l2.7,0l8.4-1.2l8.4-1.2
	l2.8-1.1l2.8-1.1l1.6-0.3l1.6-0.3L455,183l-1.5-0.6l-5.2,1.6l-5.2,1.6l-7.9,0l-7.9,0l-6.3-1.6l-6.3-1.6l-3.5-1.3l-3.5-1.3l-3.3-1.8
	l-3.3-1.8h-1.1h-1.1l-3.1-2.8l-3.1-2.8l-4.5-4.4l-4.5-4.4l-1.6-3.6l-1.6-3.6l-1.6-6.3l-1.6-6.3l0.5-7.9l0.5-7.9l1.1-2.7l1.1-2.7
	v-2.2v-2.2l0.7-0.4l0.7-0.4l2.1-6.5l2.1-6.5l0.8-1l0.8-1h-0.5h-0.5L384.9,103.5 M443.5,107.4l-2.8,0.3l-5.9,1.7l-5.9,1.7l-2.1,1.4
	l-2.1,1.4h-0.9h-0.9l-5,5l-5,5l-0.6,2.3l-0.6,2.3l-0.6,5.5l-0.6,5.5l1,2.5l1,2.5l0.9,0.6l0.9,0.6l0.4-0.4l0.4-0.4l-1.3-2.5l-1.3-2.5
	l0.4-4.8l0.4-4.8l0.9-2l0.9-2l1.6-2.7l1.6-2.7l1.3-1.3l1.3-1.3l4-2.6l4-2.6h0.9h0.9l2.4-1.2l2.4-1.2l6.8-0.5l6.8-0.5l0.4-0.7
	l0.4-0.7l1.7-0.1l1.7-0.1l-2.4-0.6l-2.4-0.6l-1.2,0l-1.2,0L443.5,107.4 M1196.6,110.9l-5.5,0.6l-2.8,0.4l-2.8,0.4l-2,0.8l-2,0.8
	l-1.3,1.5l-1.3,1.5l-0.5,1.4l-0.5,1.4l0.7,0.4l0.7,0.4l0.5-1.6l0.5-1.6l2.5-1.8l2.5-1.8l5.6-0.2l5.6-0.2l5.1-0.7l5.1-0.7l-1.4-0.1
	l-1.4-0.1v-0.8V110l-1,0.1l-1,0.1L1196.6,110.9 M1128.8,127.4l0.4,12.2l0.3,3.2l0.3,3.2l0.6,7.9l0.6,7.9l0.7,2.9l0.7,2.9l0.8,6.1
	l0.8,6.1l1,1.2l1,1.2l3.3,1.4l3.3,1.4l2.5-0.7l2.5-0.7l8.4,0.4l8.4,0.4l3-0.5l3-0.5v-0.7v-0.7l-8.1-0.1l-8.1-0.1l-4.4-0.3l-4.4-0.3
	l-3.3-1l-3.3-1l-0.7-2.8l-0.7-2.8l-0.8-4.3l-0.8-4.3l-1-5.9l-1-5.9l0.2-0.7l0.2-0.7l-0.8-2l-0.8-2l-0.6-7.1l-0.6-7.1l0-3.5l0-3.5
	l0.1-2.1l0.1-2.1l-1.6-3.4l-1.6-3.4L1128.8,127.4"/>
<path class="st4" d="M892.7,82.3L891,86l-1.8,3.9l-1.8,3.9l-3.2,8.6l-3.2,8.6l-0.5,3.3l-0.5,3.3l-1.8,5.5l-1.8,5.5l-0.8,5.5
	l-0.8,5.5l-1.5,6.7l-1.5,6.7l-0.9,5.1l-0.9,5.1l-0.2,3.9l-0.2,3.9l-0.6,5.1l-0.6,5.1l0.1,2.3l0.1,2.3l0.4,1l0.4,1l3.4,0.6l3.4,0.6
	l7.3,0l7.3,0l1.9-1l1.9-1l2.1-5l2.1-5h0.6h0.6l0.6-2.6l0.6-2.6l1.9-2.5l1.9-2.5l2.7-1.6l2.7-1.6h11.1h11.1l2.7,1.6l2.7,1.6l1.9,2.5
	l1.9,2.5l0.6,2.6l0.6,2.6h0.6h0.6l2.1,5l2.1,5l1.9,1l1.9,1l7.3,0l7.3,0l3.9-0.8l3.9-0.8l-2.8-0.2l-2.8-0.2l-0.7,0.1l-0.7,0.1
	l-4.4,0.1l-4.4,0.1l-4.1-1.8l-4.1-1.8l-0.5-2.1l-0.5-2.1l-2.2-3.3l-2.2-3.3v-0.7v-0.7l-2.4-2.3l-2.4-2.3l0-0.8l0-0.8l-2.6-1.7
	l-2.6-1.7l-6.2-0.8l-6.2-0.8h-3.5h-3.5l-4.2,1.1l-4.2,1.1l-1.3,0.5l-1.3,0.5l-1.9,2.9l-1.9,2.9l-2.8,4.7l-2.8,4.7l-3.6,3.7l-3.6,3.7
	v0.9v0.9l-0.6,0l-0.6,0l-5.5-1.1l-5.5-1.1l-2.4-0.7l-2.4-0.7l0.1-1.4l0.1-1.4l0.5-6.4l0.5-6.4l0.3-5.1l0.3-5.1l0.8-3.6l0.8-3.6
	l0.9-4.7l0.9-4.7l1.3-5.5l1.3-5.5l0.1-2l0.1-2l1-2.4l1-2.4l1.5-5.9l1.5-5.9l1.7-3.9l1.7-3.9l1-2l1-2l0.5-2.2l0.5-2.2l1.3-2l1.3-2
	l1.4-4l1.4-4v-1.4v-1.4l-0.7-0.4l-0.7-0.4L892.7,82.3 M919,105.7l-2.2,0.9l-1.1,1.3l-1.1,1.3h0.3h0.3l2.5-0.7l2.5-0.7l2.9,0.8
	l2.9,0.8l3.8,4l3.8,4v1v1l2.4,3.8l2.4,3.8v0.8v0.8l2,4.2l2,4.2l-0.5,1.9l-0.5,1.9h0.4h0.4l1.5-2.4l1.5-2.4l-1.7-5l-1.7-5l-1.7-2.2
	l-1.7-2.2v-1.5v-1.5l-1.8-2.5l-1.8-2.5l-2-2.3l-2-2.3l-2.8-1.8l-2.8-1.8l-2.1-0.4l-2.1-0.4L919,105.7"/>
<path class="st5" d="M1059,103.7l-4.4,0.6l-5.4,2.5l-5.4,2.5l-0.9,0.6l-0.9,0.6l-3.1,2.1l-3.1,2.1l-1.4,1.6l-1.4,1.6l-1.9,3l-1.9,3
	l-0.6,4.5l-0.6,4.5l0.8,1l0.8,1l0.5,2.9l0.5,2.9l1.2,1l1.2,1l0.4-0.4l0.4-0.4l-1.3-2.7l-1.3-2.7l0.1-4.1l0.1-4.1l1-3l1-3l1.7-2.8
	l1.7-2.8l1.9-1.6l1.9-1.6l3.2-2.1l3.2-2.1h0.8h0.8l3.6-1.6l3.6-1.6l3,0l3,0l4.3-0.8l4.3-0.8l-1.1-0.7l-1.1-0.7l-2.4,0.1l-2.4,0.1
	L1059,103.7 M995.6,120.5L995,123l-0.4,7.1l-0.4,7.1l0,1.6l0,1.6l1.2,5.5l1.2,5.5l0.6,1.6l0.6,1.6l2.4,3.5l2.4,3.5l0.4,0.4l0.4,0.4
	l2.3,3.5l2.3,3.5l2.8,1.8l2.8,1.8l1,1.2l1,1.2l2.7,0.5l2.7,0.5v0.7v0.7l2.4,1.3l2.4,1.3l0.4-0.4l0.4-0.4l2.1,1l2.1,1l3.2,0.6
	l3.2,0.6l0.2,0l0.2,0l3.9,1l3.9,1l4.6-0.3l4.6-0.3l5.1-0.9l5.1-0.9l4.9-1.6l4.9-1.6v-0.7v-0.7h-0.8h-0.8l-1.6,0.8l-1.6,0.8l-3.9,0.3
	l-3.9,0.3l-1.5,0.8l-1.5,0.8l-9.6-0.4l-9.6-0.4l-6.9-2.2l-6.9-2.2l-1.9-1l-1.9-1l-4.1-3.2l-4.1-3.2l-2-1.4l-2-1.4l-3.5-4.6l-3.5-4.6
	l-2.3-4.3l-2.3-4.3l-1-3.9l-1-3.9l-0.1-6.3l-0.1-6.3l0.7-4.5l0.7-4.5h-0.8h-0.8L995.6,120.5"/>
<path class="st6" d="M1136.3,70.7l-3.5,0.6l-7.9,0l-7.9,0l-5,0.4l-5,0.4l-0.8,0.5l-0.8,0.5l-3-0.1l-3-0.1v0.9v0.9l7.3-0.5l7.3-0.5
	l8.7-0.5l8.7-0.5l24-0.1l24-0.1l9.5,0.6l9.5,0.6l4.6,0.9l4.6,0.9l1.2,1.2l1.2,1.2l-0.4,10.3l-0.4,10.3l-0.8,2.4l-0.8,2.4l-0.9,3
	l-0.9,3l0.4,0.4l0.4,0.4l1.2-0.5l1.2-0.5v-2v-2l1.2-2.9l1.2-2.9l0.2-10.6l0.2-10.6l-1-2.4l-1-2.4l-8.1-1.1l-8.1-1.1l-5.1-0.1
	l-5.1-0.1l-1.3-0.6l-1.3-0.6l-0.9,0.5l-0.9,0.5l-9.2-0.1l-9.2-0.1l-1,0.1l-1,0.1l-1,0l-1,0l-8.3-0.3l-8.3-0.3L1136.3,70.7
	 M1045.2,76.2l-2.4,0.6l-2.9,0.1l-2.9,0.1l-3.5,2l-3.5,2h-1.1h-1.1l-4.8,2.4l-4.8,2.4l-1.5,1.9l-1.5,1.9h-0.9h-0.9l-3.4,3.5
	l-3.4,3.5l-2.5,3.6l-2.5,3.6l0.4,0.4l0.4,0.4l8.1-8.2l8.1-8.2l5.4-3l5.4-3l3.3-1.1l3.3-1.1l7.4-1.3l7.4-1.3l5.7-0.2l5.7-0.2l2.4,3.9
	l2.4,3.9v1.9v1.9l1.2,1l1.2,1l-0.2,2.9l-0.2,2.9l0.2,3.7l0.2,3.7h1.1h1.1l0.5-2.6l0.5-2.6l-1.3-5.9l-1.3-5.9l0-1.3l0-1.3l-1.5-1.4
	l-1.5-1.4v-0.9v-0.9l-2-1.9l-2-1.9l-7.6-0.1l-7.6-0.1L1045.2,76.2 M426.6,80.1l-2.3,0.7l-3.4,0.2l-3.4,0.2l-0.5,0.8l-0.5,0.8
	l1.9-0.4l1.9-0.4l5.3-0.5l5.3-0.5V80v-0.7l-1,0.1l-1,0.1L426.6,80.1 M432,80.1l0.5,0.8l4.9-0.1l4.9-0.1l1.6,0.9l1.6,0.9l2.4,5l2.4,5
	l1,7.3l1,7.3l0.7-1.3l0.7-1.3l-1-6l-1-6l-0.7-0.9l-0.7-0.9l0.4-1.1l0.4-1.1l-1.6-1.5l-1.6-1.5v-0.9v-0.9l-2-1.9l-2-1.9v0.7v0.7
	l-0.9-0.9l-0.9-0.9H437h-5.4L432,80.1 M1176.8,122l-0.6,0.9l-0.3,11.9l-0.3,11.9l-0.2,4.3l-0.2,4.3l-0.9,8.3l-0.9,8.3l-1.1,4.3
	l-1.1,4.3l0.3,0.3l0.3,0.3l1.7-0.9l1.7-0.9l-0.2-0.9l-0.2-0.9l0.9-2.1l0.9-2.1l0.5-9.7l0.5-9.7l0.1-16.4l0.1-16.4h-0.2h-0.2
	L1176.8,122 M1045.1,150.1l3,1.5l5.6,0.5l5.6,0.5l4.6-1.1l4.6-1.1l3.3,3.3l3.3,3.3l1,5.5l1,5.5l-0.7,4.5l-0.7,4.5h1.1h1.1l-0.5-1.2
	l-0.5-1.2l1.1-2.1l1.1-2.1l-0.3-5.5l-0.3-5.5l-1.6-3.5l-1.6-3.5l-2-1.8l-2-1.8l-7.1,0.6l-7.1,0.6l-5.5,0l-5.5,0l-2-0.6l-2-0.6
	L1045.1,150.1 M439.5,153.6l-3.5,0.6l-5.1-0.3l-5.1-0.3l2.4,1l2.4,1l11.4-0.2l11.4-0.2l2.2,3.2l2.2,3.2l0.1,7.5l0.1,7.5l-0.6,3
	l-0.6,3h0.8h0.8l0.5-1.3l0.5-1.3l-0.4-0.7l-0.4-0.7l1.1-2.2l1.1-2.2l-0.3-5.5l-0.3-5.5l-1.6-3.5l-1.6-3.5l-2-1.8l-2-1.8l-4.8,0.2
	l-4.8,0.2L439.5,153.6"/>
<path class="st7" d="M903.5,73l-3,0.6l-0.7,1.1l-0.7,1.1l-0.8,0.1l-0.8,0.1l-0.9,0.1l-0.9,0.1l0.8,0.8l0.8,0.8l2.7-0.8l2.7-0.8
	l7.7-1.2l7.7-1.2l6.1,0.4l6.1,0.4l2.7,0.5l2.7,0.5l3.2,0.8l3.2,0.8l0.7-0.7l0.7-0.7l-0.7-1.1l-0.7-1.1l-3.5-0.7l-3.5-0.7l-14.1,0.1
	l-14.1,0.1L903.5,73 M943.9,75.9v0.5l2,4.4l2,4.4l1.1,2l1.1,2l1.7,4.3l1.7,4.3l0.2,1.2l0.2,1.2l0.6,2.4l0.6,2.4l0.6,0.8l0.6,0.8
	l1.8,5.9l1.8,5.9l1.4,3.9l1.4,3.9l0.9,5.5l0.9,5.5l0.8,1.6l0.8,1.6l0.8,5.2l0.8,5.2l0.3,3.2l0.3,3.2l0.3,2.4l0.3,2.4l0.8,8.7
	l0.8,8.7l-0.5,3l-0.5,3l1,1.2l1,1.2h1.2h1.2l-0.6-8.9l-0.6-8.9l-0.2-2.8l-0.2-2.8l-1.2-7.1l-1.2-7.1l-1.1-4.3l-1.1-4.3l-0.5-4.3
	l-0.5-4.3l-2.2-7.5l-2.2-7.5l-0.8-3.9l-0.8-3.9l-2.9-7.9l-2.9-7.9l-1.9-3.5l-1.9-3.5l-0.6-2l-0.6-2l-2.1-3.3l-2.1-3.3l-1-0.4l-1-0.4
	V75.9 M907.3,114.1l-2.4,1.6l-3.7,7.6l-3.7,7.6l0,4.6l0,4.6l4.5,4.5l4.5,4.5l5.4,1.7l5.4,1.7h7.4h7.4l3.3-1.7l3.3-1.7l0.8-1.3
	l0.8-1.3l0.5-2.6l0.5-2.6l-1.1,0.9l-1.1,0.9v1v1l-1.4,1.2l-1.4,1.2l-3.9,1.1l-3.9,1.1l-0.6-0.2l-0.6-0.2l-7.3-0.5l-7.3-0.5l-0.7-0.7
	l-0.7-0.7h-1.8h-1.8l-0.5-0.8l-0.5-0.8h-1.5h-1.5l-1.1-1.8l-1.1-1.8l-0.6-3l-0.6-3l1-3.3l1-3.3l1.6-3.9l1.6-3.9l1.9-2.5l1.9-2.5
	l0.8-2l0.8-2l-0.6,0l-0.6,0L907.3,114.1"/>
<path class="st8" d="M783,73.5l-0.3,0.3l-10.6,0.5l-10.6,0.5l-3.2,0.3l-3.2,0.3l-4.3,0.2l-4.3,0.2l-0.3,2.3l-0.3,2.3l3.4-0.5
	l3.4-0.5l1.6-0.1l1.6-0.1l6.7-0.8l6.7-0.8l9.5-0.4l9.5-0.4l16.9,0l16.9,0l12.6,0.4l12.6,0.4l3.9,0.4l3.9,0.4l0.6,1l0.6,1l0.5,6.5
	l0.5,6.5l-0.5,2.6l-0.5,2.6l-0.8,5.1l-0.8,5.1l-1.1,2.7l-1.1,2.7v0.3v0.3h1.2h1.2l0.7-1.8l0.7-1.8l1.2-4.3l1.2-4.3l0.6-5.9l0.6-5.9
	l-0.2-0.7l-0.2-0.7l0-3.7l0-3.7l-0.8-2.8l-0.8-2.8l-10.4-1.3l-10.4-1.3l-26.9-0.3l-26.9-0.3L783,73.5 M825.2,123.6L823,127
	l-0.1,18.5l-0.1,18.5l-0.5,5.5l-0.5,5.5l-1.1,3.7l-1.1,3.7h1.3h1.3l0.9-3.3l0.9-3.3l0.5-8.7l0.5-8.7l0.3-1.2l0.3-1.2l0-4.7l0-4.7
	l-0.1-10.6l-0.1-10.6l1.3-2.6l1.3-2.6h-0.4h-0.4L825.2,123.6"/>
<path class="st9" d="M642.5,81.7l-0.5,0.8l1.3,0.5l1.3,0.5l2.4-0.5l2.4-0.5l-0.5,0.8l-0.5,0.8h1.1h1.1l2.9,3.9l2.9,3.9l1.8,0.9
	l1.8,0.9l-3.7-3.8l-3.7-3.8v-0.7v-0.7h0.7h0.7l3.8,4.5l3.8,4.5l0.7,0.8l0.7,0.8l-0.7-1.2l-0.7-1.2l-2.8-3.6l-2.8-3.6l-2.1-1.2
	l-2.1-1.2l-0.5,0.5l-0.5,0.5v-0.8v-0.8l-2-0.9l-2-0.9l-0.6,0l-0.6,0l1.2,0.8l1.2,0.8h-2.8h-2.8l1.2-0.8l1.2-0.8l-0.9,0l-0.9,0
	L642.5,81.7 M705.5,83.3l4.7,0.6l2.2,0.6l2.2,0.6l0.1,2.1l0.1,2.1l0.7,1.6l0.7,1.6l-0.5-3.5l-0.5-3.5l-0.3-0.3l-0.3-0.3l-2.9-1
	l-2.9-1l-3.9,0.1l-3.9,0.1L705.5,83.3 M569.9,90.8l5.2,4.4l0.5,1.4l0.5,1.4l1.3,1.1l1.3,1.1l-1.4-2.4l-1.4-2.4l-4.8-4.5l-4.8-4.5
	h-0.7h-0.7L569.9,90.8 M670.5,105.9l3.2,2.9l-0.9,0.3l-0.9,0.3l-2.9-2.6l-2.9-2.6l1.6,2l1.6,2l1.2,1l1.2,1l1.9,0l1.9,0l-3.5-3.5
	l-3.5-3.5h-0.6h-0.6L670.5,105.9 M513.2,125.3l-0.4,1.1l-0.1,5l-0.1,5l0.4,2.5l0.4,2.5l3.1,4.5l3.1,4.5l1.2,0.4l1.2,0.4l1.2,1l1.2,1
	l3.2,1.3l3.2,1.3l-1.4-1.1l-1.4-1.1l1-0.4l1-0.4l-1.9-0.1l-1.9-0.1l-2.6-2l-2.6-2l-0.9,0.5l-0.9,0.5l0.4-1.1l0.4-1.1l-0.7-1.4
	l-0.7-1.4l-0.7,0.4l-0.7,0.4l-1.1-1.3l-1.1-1.3l1.5,0.6l1.5,0.6l-1-1.2l-1-1.2l-0.5,0.3l-0.5,0.3l-0.2-2.8l-0.2-2.8l-0.9-0.5
	l-0.9-0.5l0.6-0.9l0.6-0.9l0.2-4.7l0.2-4.7h-0.3h-0.3L513.2,125.3 M717.1,144.1l-0.9,3v1.5v1.5l1.2,2.7l1.2,2.7l0-1.3l0-1.3l0.5-1.4
	l0.5-1.4l-0.8,1.1L718,152l-0.5-2.7l-0.5-2.7l0.6-1.5l0.6-1.5l0.4,3.2l0.4,3.2l0.4-4.4l0.4-4.4l-0.8,0l-0.8,0L717.1,144.1
	 M713,179.3l-0.9,3.9l0.5,1.7l0.5,1.7l0.9-0.3l0.9-0.3l1-1.9l1-1.9l-0.1-2.4l-0.1-2.4l-0.7,3.5l-0.7,3.5l-0.8,0.8l-0.8,0.8l-0.5-1.3
	l-0.5-1.3l0.9-3.6l0.9-3.6l-0.3-0.3l-0.3-0.3L713,179.3"/>
<path class="st10" d="M533.3,75.4V76l6.5,0.6l6.5,0.6l5.1,1.6l5.1,1.6l2.8,1.7l2.8,1.7l1.1,1.3l1.1,1.3h0.9h0.9l4.8,4.5l4.8,4.5
	l2.5,3.8l2.5,3.8v0.4v0.4l1.1,2.5l1.1,2.5l1.3,3.5l1.3,3.5l0.4,3.5l0.4,3.5l0.3,2.9l0.3,2.9l-0.7,6.9l-0.7,6.9l-1.6,5.2l-1.6,5.2
	l-4.5,8.7l-4.5,8.7l-3.4,3.7l-3.4,3.7l0,1l0,1l1.5-2l1.5-2l0.7-0.7l0.7-0.7l1.7-1.7l1.7-1.7l2.1-2.1l2.1-2.1l0.2-1.2l0.2-1.2l2-2.4
	l2-2.4v-1.3v-1.3l1.1-1.2l1.1-1.2l1.4-5.1l1.4-5.1l0.7-4.7l0.7-4.7l-0.4-7.1l-0.4-7.1l-0.4-1.2l-0.4-1.2l-0.4-2l-0.4-2l-0.4-1.6
	l-0.4-1.6l-0.8-2l-0.8-2l-2-3l-2-3V100v-1.2l-1.8-1.7l-1.8-1.7l-3.1-3.8l-3.1-3.8l-1.6-1.5l-1.6-1.5l-6.7-3.2l-6.7-3.2l-2.4-1.1
	l-2.4-1.1l-5.1-0.5l-5.1-0.5l-3-0.2l-3-0.2V75.4 M631.1,80.9l-2.7,0.6l-1.4-0.3l-1.4-0.3l-4.5,1.4l-4.5,1.4l0.9,0.6l0.9,0.6l4.1-1.4
	l4.1-1.4l9.1,0l9.1,0l2.4,0.6l2.4,0.6l-1.5-0.9l-1.5-0.9l-3.6-0.3l-3.6-0.3l-2.8-0.3l-2.8-0.3L631.1,80.9 M693.7,80.9l-1.6,0.7
	l-2.4,0.1l-2.4,0.1l-1.7,1.5l-1.7,1.5l0.4,0.4l0.4,0.4l4.4-1.5l4.4-1.5l7.6,0l7.6,0l2.9,1l2.9,1l0.3,0.3l0.3,0.3l1.4,11l1.4,11
	l0.1,16.6l0.1,16.6h0.7h0.7l-0.1-4.7l-0.1-4.7l0.1-3.9l0.1-3.9l0-4.3l0-4.3l-0.5-6.3l-0.5-6.3l-0.4-8.6l-0.4-8.6l-0.8-1l-0.8-1
	l-2.9-0.5l-2.9-0.5l-2-0.2l-2-0.2l-0.7-0.4l-0.7-0.4l-4.7,0l-4.7,0L693.7,80.9 M652.2,85.5l1.8,2.6l2.5,2.5l2.5,2.5l3.8,5.5l3.8,5.5
	l2.4,2.6l2.4,2.6l1.2,0l1.2,0l-3.3-3.1l-3.3-3.1h0.4h0.4l-1.4-1.5l-1.4-1.5l-1.2-1.4l-1.2-1.4l-0.9-1.8l-0.9-1.8l-2.9-3.6l-2.9-3.6
	l-2.4-1.7l-2.4-1.7L652.2,85.5 M716.8,156.9l-0.5,4.7l-0.9,7.1l-0.9,7.1l-0.8,3.8l-0.8,3.8l0.5,1.3l0.5,1.3l0.9-0.9l0.9-0.9l0.7-7.3
	l0.7-7.3l0-2l0-2l0.9-4.1l0.9-4.1l-0.8-2.6l-0.8-2.6L716.8,156.9"/>
<path class="st11" d="M1061.2,77.4l-0.5,0.5l-5.4,0.2l-5.4,0.2l-7.9,1.3l-7.9,1.3l-7.1,3.5L1020,88l-5.9,5.2l-5.9,5.2l-0.5,1.3
	l-0.5,1.3l-2.5,2.1l-2.5,2.1h-1.1h-1.1l0,1l0,1l-1.3,2.4l-1.3,2.4l-0.4,7.5l-0.4,7.5l0,6.3l0,6.3l1,3.9l1,3.9l2.3,4.3l2.3,4.3
	l3.5,4.6l3.5,4.6l2,1.4l2,1.4l4.1,3.2l4.1,3.2l1.9,1l1.9,1l6.9,2.2l6.9,2.2l9.6,0.4l9.6,0.4l1.7-0.9l1.7-0.9l2.3,0.1l2.3,0.1
	l3.6-1.2l3.6-1.2l0.3,0.9l0.3,0.9h1.1h1.1v-0.7V178l-0.7-0.3l-0.7-0.3l0.6-6.1l0.6-6.1l-0.6-1l-0.6-1l0-2.3l0-2.3l-1.7-2.5l-1.7-2.5
	l-2.1-1.3l-2.1-1.2l-3.8,0.8l-3.8,0.8l-5.1-0.1l-5.1-0.1l-3.2-1.2l-3.2-1.2l-2.4-0.7l-2.4-0.7l-4.1-4.3l-4.1-4.3l-0.5-2.6l-0.5-2.6
	l-0.8-1l-0.8-1l0.6-4.5l0.6-4.5l2-3.2l2-3.2l2.6-2.4l2.6-2.4l2.2-1.6l2.2-1.6l4.3-1.8l4.3-1.8l0.9-0.7l0.9-0.7l6.8-0.8l6.8-0.8
	l1,0.4l1,0.4l-0.2-6.1l-0.2-6.1l-0.9-1.6l-0.9-1.6v-0.8v-0.8l-2.6-4.7l-2.6-4.7L1061.2,77.4"/>
<path class="st12" d="M911.2,74.6l-3.9,0.7l-4.3,0.9l-4.3,0.9l-1.6,0.2l-1.6,0.2l0.2,2.2l0.2,2.2l-1.4,4l-1.4,4l-1.4,2l-1.4,2
	l-0.6,2.3l-0.6,2.3l-1,2l-1,2l-1.7,3.9l-1.7,3.9l-1.5,5.9l-1.5,5.9l-1,2.4l-1,2.4l-0.1,2l-0.1,2l-1.3,5.5l-1.3,5.5l-0.9,4.7
	l-0.9,4.7l-0.8,3.6l-0.8,3.6l-0.3,5.1l-0.3,5.1l-0.5,6.4l-0.5,6.4l-0.1,1.4l-0.1,1.4l2.4,0.7l2.4,0.7l5.5,1.1l5.5,1.1l0.6,0l0.6,0
	v-0.9v-0.9l3.6-3.7l3.6-3.7l2.8-4.7l2.8-4.7l1.9-2.9l1.9-2.9l1.3-0.5l1.3-0.5l4.2-1.1l4.2-1.1h3.5h3.5l6.2,0.8l6.2,0.8l2.6,1.7
	l2.6,1.7l0,0.8l0,0.8l2.4,2.3l2.4,2.3v0.7v0.7l2.2,3.3l2.2,3.3l0.5,2.1l0.5,2.1l3.9,1.7l3.9,1.7l2.6,0.1l2.6,0.1l4.1-0.2l4.1-0.2
	l-0.9-1.1l-0.9-1.1l0.5-3l0.5-3l-0.8-8.7l-0.8-8.7l-0.3-2.4l-0.3-2.4l-0.3-3.2l-0.3-3.2l-0.8-5.2l-0.8-5.2l-0.8-1.6l-0.8-1.6
	l-0.9-5.5l-0.9-5.5l-1.4-3.9l-1.4-3.9l-1.8-5.9l-1.8-5.9l-0.6-0.8l-0.6-0.8l-0.6-2.4l-0.6-2.4l0.1-0.5l0.1-0.5l-2.3-5.4l-2.3-5.4
	l-1.1-2.3l-1.1-2.3l-2.6-5.2l-2.6-5.2l0.4,1.4l0.4,1.4l-0.7,0.5l-0.7,0.5l-3.1-0.8l-3.1-0.8l-2.7-0.5l-2.7-0.5l-7.5-0.2l-7.5-0.2
	L911.2,74.6 M918.9,105.8l-2.4,1l-1.3,1.9l-1.3,1.9l-3.3,1.7l-3.3,1.7l-1.2,0.9l-1.2,0.9l-3.6,7.1l-3.6,7.1v5v5l4.5,4.5l4.5,4.5
	l5.4,1.7l5.4,1.7h7.4h7.4l3.5-1.7l3.5-1.7l0.9-1.6l0.9-1.6l0.2-2.6l0.2-2.6h0.6h0.6l1.5-2.4l1.5-2.4l-1.7-5l-1.7-5l-1.7-2.2
	l-1.7-2.2v-1.5v-1.5l-1.8-2.5l-1.8-2.5l-2-2.3l-2-2.3l-2.8-1.8l-2.8-1.8l-2.1-0.4l-2.1-0.4L918.9,105.8"/>
<path class="st13" d="M1152.8,72.5l-0.4,0.4l-15.3,0.5l-15.3,0.5l-5.5,0.3l-5.5,0.3l-6.8,0.2l-6.8,0.2l0.6,2l0.6,2l-0.3,2l-0.3,2
	l-0.1,7.1l-0.1,7.1l1.7,5.3l1.7,5.3l1,0.1l1,0.1l2.1,0.2l2.1,0.2l1,0.6l1,0.6l7.9,0.7l7.9,0.7l1.6,1.4l1.6,1.4l1.9,4.2l1.9,4.2
	l-0.1,2.1l-0.1,2.1l0,3.5l0,3.5l0.6,7.1l0.6,7.1l0.8,2l0.8,2l-0.2,0.7l-0.2,0.7l1,5.9l1,5.9l0.8,4.3l0.8,4.3l0.7,2.8l0.7,2.8l3.2,1
	l3.2,1l4.4,0.3l4.4,0.3l4.7,0.2l4.7,0.2l3.4-0.1l3.4-0.1l0.3-1l0.3-1l1.3-5.9l1.3-5.9l0.5-4.7l0.5-4.7l0.4-5.9l0.4-5.9l0.3-12.2
	l0.3-12.2l1.4-1.2l1.4-1.2l0.3-1.6l0.3-1.6l1.3-1.5l1.3-1.5l2-0.8l2-0.8l2.4-0.3l2.4-0.3l6.7-0.7l6.7-0.7l0.5,0.3l0.5,0.3l0.4-1.8
	l0.4-1.8l1.6-6l1.6-6l0-1.9l0-1.9l0.3-4.7l0.3-4.7l-0.4-2.7l-0.4-2.7l-4.3-1l-4.3-1l-11.8-0.9l-11.8-0.9l-9.7,0l-9.7,0l-1.8-0.4
	l-1.8-0.4L1152.8,72.5 M423.4,82.1l-5.5,1l-5.5,1.7l-5.5,1.7l-4.9,3.2l-4.9,3.2l-5.5,4.7l-5.5,4.7l-2.1,6.5l-2.1,6.5l-0.7,0.4
	l-0.7,0.4v2.2v2.2l-1.1,2.7l-1.1,2.7l-0.5,7.9l-0.5,7.9l1.6,6.3l1.6,6.3l1.6,3.6l1.6,3.6l4.5,4.4l4.5,4.4l3.1,2.8l3.1,2.8h1.1h1.1
	l3.3,1.8l3.3,1.8l3.5,1.3l3.5,1.3l6.3,1.6l6.3,1.6l9.5-0.3l9.5-0.3l3.1-1.3l3.1-1.3l2.1,0.4l2.1,0.4l-0.4-1.8l-0.4-1.8l0.9-1.6
	l0.9-1.6l0-4.2l0-4.2l-0.3-2.8l-0.3-2.8l-1.2-2.4l-1.2-2.4l-1.3-1.1l-1.3-1.1l-2.9,0.2l-2.9,0.2l-8.3,0l-8.3,0l-4.3-1.6l-4.3-1.6
	l-4.5-4.6l-4.5-4.6l-0.7-1.9l-0.7-1.9l0.6-5.5l0.6-5.5l0.6-2.3l0.6-2.3l5-5l5-5h0.9h0.9l2.1-1.4l2.1-1.4l6.1-1.8l6.1-1.8l5.4-0.1
	l5.4-0.1l-0.2-1.2l-0.2-1.2L451,101l-0.4-3.9l-0.8-3.4l-0.8-3.4l-2-3.9l-2-3.9l-1.5-0.8l-1.5-0.8l-6.6,0.1l-6.6,0.1L423.4,82.1"/>
<path class="st14" d="M629.1,83l-6.3,0.9l-2.3,0.9l-2.3,0.9l-1-1.4l-1-1.4v0.6v0.6l1.2,1.9l1.2,1.9l-0.4,5.4l-0.4,5.4l-0.9,9.9
	l-0.9,9.9l0,14.6l0,14.6l0.5,6.7l0.5,6.7l0.3,8.6l0.3,8.6l1.3,1.4l1.3,1.4l4.4,1.7l4.4,1.7l0.6-0.4l0.6-0.4l3.7,0.7l3.7,0.7l2.7-0.7
	l2.7-0.7l0.7-1.3l0.7-1.3l1.4-5.7l1.4-5.7l-0.4-0.7l-0.4-0.7l0.7-3.1l0.7-3.1l0.5-2.9l0.5-2.9l1.9-2.1l1.9-2.1l2.6,0.5l2.6,0.5
	l1.6,1.1l1.6,1.1l3,2.8l3,2.8v0.5v0.5l6.8,7.8l6.8,7.8l2.1,1.4l2.1,1.4l1.3,0.8l1.3,0.8l2.1,1.5l2.1,1.5l3,0.7l3,0.7l7.2-0.1
	l7.2-0.1l0.9,0.6l0.9,0.6l-0.5-1.9l-0.5-1.9l0.9-3l0.9-3l0.4-5.9l0.4-5.9l0.8-2l0.8-2l0.3-8.3l0.3-8.3l0.3-17.6l0.3-17.6l-0.9-7.2
	l-0.9-7.2l0-1.6l0-1.6l-0.5-3.2l-0.5-3.2l-3.4-1l-3.4-1l-7.4,0l-7.4,0l-4.3,1.6l-4.3,1.6l-0.6-1l-0.6-1l-0.1-0.8l-0.1-0.8l-0.7,1.6
	l-0.7,1.6l-0.1,0.6l-0.1,0.6h1.6h1.6l0,4.1l0,4.1l-1.3,6.3l-1.3,6.3l-1,1.3l-1,1.3l-2.2,0.6l-2.2,0.6l0.4-1.6l0.4-1.6l-1.5-0.4
	l-1.5-0.4l0.9,1.1l0.9,1.1l-1.9,0l-1.9,0l-1.2-1l-1.2-1l-3.3-4.3l-3.3-4.3l-1.6-1.8l-1.6-1.8v-1v-1l-1.9-1.2l-1.9-1.2l-2.6-3.6
	l-2.6-3.6l-2.4-0.4l-2.4-0.4l-5.1-0.6l-5.1-0.6L629.1,83"/>
<path class="st15" d="M528.6,75.4l-2,0.6l-3.9,0.9l-3.9,0.9l-4.3,2l-4.3,2l-2.4,2.2l-2.4,2.2l-1.7,0.5l-1.7,0.5l-0.7,2.7l-0.7,2.7
	l-3.4,3.5l-3.4,3.5l-1.2,1.3l-1.2,1.3l-1.8,2.8l-1.8,2.8l-0.7,1.6l-0.7,1.6l-1.5,5.1l-1.6,5.1l-0.5,4.8L482,131l0.9,6.7l0.9,6.7
	l2.7,7.9l2.7,7.9l1.4,1.6l1.4,1.6l2,3.6l2.1,3.6l3.4,3.4l3.4,3.4l3.9,3l3.9,3l2.3,0.4l2.3,0.4l1.3,1.2l1.3,1.2h1.3h1.3l1.8,1.2
	l1.8,1.2l3.9-0.2l3.9-0.2l0.8,0.3l0.8,0.3l5.5-0.6l5.5-0.6l7.5-2.1l7.5-2.1l2.5-1.6l2.5-1.6l0.9-2l0.9-2l3.2-3l3.2-3l3.5-7.2
	l3.5-7.2l1.9-4.8l1.9-4.8l0.8-4.3l0.8-4.3l0.4-6.7l0.4-6.7l-0.9-5.1l-0.9-5.1l-0.7-0.7l-0.7-0.7l0-1.2l0-1.2l-1.2-2.3l-1.2-2.3v-0.9
	v-0.9l-3.5-5.2l-3.5-5.2l-4.2-3.4l-4.2-3.4L561,84l-4.2-3.1l-2.1-0.4l-2.1-0.4l-2.8-1.1l-2.8-1.1l-6.3-0.6l-6.3-0.6l-0.6-0.1
	l-0.6-0.1l-1-1l-1-1l-0.4,0.1l-0.4,0.1L528.6,75.4 M534.7,108.9l-0.5,0.5l-3.5,0.2l-3.5,0.2l-2.1,1.4l-2.1,1.4l-1.2,2.2l-1.2,2.2h-1
	h-1l-1.2,1.4l-1.2,1.4l-1.7,3l-1.7,3l-0.1,5.2l-0.1,5.2l0.4,2.5l0.4,2.5l3.1,4.5l3.1,4.5l2,1.1l2,1.1l4,1.9l4,1.9l3.7-0.6l3.7-0.6
	l1.4-1.2l1.4-1.2l2-0.5l2-0.5l2.3-2l2.3-2l2.9-1.5l2.9-1.5l1.9-4.2l1.9-4.2l-0.2-4.3l-0.2-4.3l-1.4-4.1l-1.4-4.1l-2.7-2.8l-2.7-2.8
	h-0.8h-0.8l-1.7-1.5l-1.7-1.5l-4.4-0.9l-4.4-0.9l-1.2-0.3l-1.2-0.3L534.7,108.9"/>
<path class="st16" d="M791.6,76.7l-0.2,0.2L780,77.3l-11.4,0.4l-5.9,0.8l-5.9,0.8l-2,0l-2,0l-3.3,0.5l-3.3,0.5l-0.1,0.9l-0.1,0.9
	l0,5.1l0,5.1l0.9,7.8l0.9,7.8l0.6,1.7l0.6,1.7l4.6,1l4.6,1l3.2,0.4l3.2,0.4l3.1-0.1l3.1-0.1l2.7,0.9l2.7,0.9l1,1.7l1,1.7l0.7,9.5
	l0.7,9.5l0.3,4.7l0.3,4.7l0.7,5.1l0.7,5.1l0.8,5.9l0.8,5.9l0.4,2.4l0.4,2.4l0.8,3.2l0.8,3.2l3.3,1l3.3,1l0.7-0.1l0.7-0.1l0.4,0.1
	l0.4,0.1l7.1,0.5l7.1,0.5l4-0.1l4-0.1l1.6-0.8l1.6-0.8l0.9-3.9l0.9-3.9l0.5-5l0.5-5l0.1-18.5L823,127l1.7-2.8l1.7-2.8l2.9-2.3
	l2.9-2.3l5-0.2l5-0.2l2.3-0.5l2.3-0.5l2.5-0.1l2.5-0.1l1.4-3.2l1.4-3.2l0.8-5.1l0.8-5.1l0.5-2.6l0.5-2.6l-0.5-6.5l-0.5-6.5l-0.6-1
	l-0.6-1l-3.9-0.4l-3.9-0.4l-12.6-0.4l-12.6-0.4L807,76.7l-15.2-0.2L791.6,76.7"/>
<path class="st17" d="M1125.6,60.3l-0.3,0.3l-6.1,0.3l-6.1,0.3l-3.5,0.4l-3.5,0.4l-3.3,0l-3.3,0v0.6v0.6l-3.9,0.5l-3.9,0.5l-2,1.6
	l-2,1.6l-1.3,2.5l-1.3,2.5l-0.3,7.3l-0.3,7.3l-0.4,0.6l-0.4,0.6l1.1,4.7l1.1,4.7l0,2.5l0,2.5l1.1,2.2l1.1,2.2l2.2,4.9l2.2,4.9l2.2,1
	l2.2,1v0.5v0.5l1.9,0.5l1.9,0.5l3.1,0.4l3.1,0.4l3.7,0.8l3.7,0.8l0.8-0.5l0.8-0.5l1.8,0.7l1.8,0.7l0.2,5.5l0.2,5.5l0.5,6.7l0.5,6.7
	l0.3,3.5l0.3,3.5l0.3,3.4l0.3,3.4l0.6,2.9l0.6,2.9l0.3,2l0.3,2l0.7,4.5l0.7,4.5l1,3l1,3l2.4,2.2l2.4,2.2l2.8,0.5l2.8,0.5l1.7,0.7
	l1.7,0.7l8.5,0.1l8.5,0.1l1.6,0.1l1.6,0.1l7-0.6l7-0.6l1.8-0.7l1.8-0.7l2.5-3.7l2.5-3.7v-2.2v-2.2l0.7-0.4l0.7-0.4l0.6-5.3l0.6-5.3
	l0.4-7.1l0.4-7.1l0.1-15.4l0.1-15.4l3.2-0.1l3.2-0.1l4.7-0.4l4.7-0.4l2.2-0.9l2.2-0.9h1.9h1.9l3.2-2.8l3.2-2.9v-1.7v-1.7l0.7-0.7
	l0.7-0.7l1.4-5.9l1.4-5.9l0.3-10.7l0.3-10.7l-1.1-1.5l-1.1-1.5l0.4-2.5l0.4-2.5l-2-2.1l-2-2.1l-2.6-0.8l-2.6-0.8l-3.5-0.3l-3.5-0.3
	l-9.5-1l-9.5-1l-29.8-0.1l-29.8-0.1L1125.6,60.3 M907.3,62.9l-3.9,0.7l-3.5,0.8l-3.5,0.8l-0.8,0.2l-0.8,0.2l-2.2,0.9l-2.2,0.9v0.9
	v0.9l-2.6,3.3l-2.6,3.3l-0.6,0.3l-0.6,0.3v1.4V79l-2.8,5.7l-2.8,5.7v1v1l-0.8,0.8l-0.8,0.8l-1.5,5.3l-1.5,5.3l-0.8,1l-0.8,1l-0.5,4
	l-0.5,4h-0.7h-0.7v1.8v1.8l-1.6,4.3l-1.6,4.3l-0.1,2.8l-0.1,2.8l-1,4.1l-1,4.1l-0.4,0.7l-0.4,0.7l-0.4,4.6l-0.4,4.6l-0.7,1.3
	l-0.7,1.3l-0.9,9.8l-0.9,9.8l-0.5,2l-0.5,2l0.1,0.5l0.1,0.5l0.1,5.4l0.1,5.4l1,2.5l1,2.5l4.4,2.2l4.4,2.2l4.5,0.4l4.5,0.4l7.4,0.1
	l7.4,0.1l0.4-0.6l0.4-0.6l1.7,0l1.7,0l3.3-4.7l3.3-4.7l0.1-0.6l0.1-0.6l1-1.2l1-1.2l2.1-4.2l2.1-4.2v-1v-1l1.2-1l1.2-1h7.9h7.9
	l1.2,1l1.2,1v1v1l2.1,4.2l2.1,4.2l1.2,1.5l1.2,1.5l-0.3,0.1l-0.3,0.1l3.5,4.9l3.5,4.9l1.7,0l1.7,0l0.4,0.6l0.4,0.6l7.4-0.1l7.4-0.1
	l4.5-0.4l4.5-0.4l4.4-2.2l4.4-2.2l1-2.5l1-2.5l0.1-5.4l0.1-5.4l0.1-0.5l0.1-0.5l-0.5-2l-0.5-2l-0.9-9.8l-0.9-9.8l-0.7-1.3l-0.7-1.3
	l-0.4-4.6l-0.4-4.6l-0.4-0.7l-0.4-0.7l-1-4.1l-1-4.1l-0.1-2.8l-0.1-2.8l-1.6-4.3l-1.6-4.3v-1.8v-1.8h-0.7H971l-0.5-4l-0.5-4l-0.8-1
	l-0.8-1l-1.5-5.3l-1.5-5.3l-0.8-0.8l-0.8-0.8v-1v-1l-2.8-5.7l-2.8-5.7v-1.4v-1.4l-0.6-0.3l-0.6-0.3l-2.6-3.3l-2.6-3.3v-0.9v-0.9
	l-2.2-0.9l-2.2-0.9l-0.8-0.2l-0.8-0.2l-3.5-0.8l-3.5-0.8l-4.8-0.8l-4.8-0.8l-9,0.1l-9,0.1L907.3,62.9 M773.3,63.5l-0.3,0.3l-6.1,0.3
	l-6.1,0.3l-3.5,0.4l-3.5,0.4l-3.3,0l-3.3,0v0.6v0.6l-3.9,0.5l-3.9,0.5l-2,1.6l-2,1.6l-1.3,2.5l-1.3,2.5l-0.3,7.3l-0.3,7.3l-0.4,0.6
	l-0.4,0.6l1.1,4.7l1.1,4.7l0,2.5l0,2.5l1.1,2.2l1.1,2.2l2.2,4.9l2.2,4.9l2.2,1l2.2,1v0.5v0.5l1.9,0.5l1.9,0.5l3.1,0.4l3.1,0.4
	l3.7,0.8l3.7,0.8l0.8-0.5l0.8-0.5l1.8,0.7l1.8,0.7l0.2,5.5l0.2,5.5l0.5,6.7l0.5,6.7l0.3,3.5l0.3,3.5l0.3,3.4l0.3,3.4l0.6,2.9
	l0.6,2.9l0.3,2l0.3,2l0.7,4.5l0.7,4.5l1,3l1,3l2.4,2.2l2.4,2.2l2.8,0.5l2.8,0.5l1.7,0.7l1.7,0.7l8.5,0.1l8.5,0.1l1.6,0.1l1.6,0.1
	l6.7-0.6l6.7-0.6l1.7-0.4l1.7-0.4l1-1.9l1-1.9h0.6h0.6l1.2-2.3l1.2-2.3v-2v-2l0.7-0.4l0.7-0.4l0.6-5.3l0.6-5.3l0.3-4.7l0.3-4.7
	l0.4-17.3l0.4-17.3l-1-0.6l-1-0.6l0.5-0.5l0.5-0.5l1.2,1l1.2,1l2.6-0.5l2.6-0.5l4.3-0.3l4.3-0.3l2.2-0.9l2.2-0.9h1.9h1.9l3.2-2.8
	l3.2-2.9V116v-1.7l0.7-0.7l0.7-0.7l1.4-5.9l1.4-5.9l0.3-10.7l0.3-10.7l-1.1-1.5l-1.1-1.5l0.4-2.5l0.4-2.5l-2-2.1l-2-2.1l-2.6-0.8
	l-2.6-0.8l-3.5-0.3l-3.5-0.3l-9.5-1l-9.5-1l-29.8-0.1l-29.8-0.1L773.3,63.5 M530.2,64.4l-4.3,0.6l-2.8,0.4l-2.8,0.4l-4.3,1.9
	l-4.3,1.9l-3.9,1.7l-3.9,1.7l-2,1.8l-2,1.8l-2.4,1.2l-2.4,1.2l-2,2l-2,2l-4.1,4.2l-4.1,4.2l-3.2,6.1l-3.2,6.1v0.8v0.8l-1.6,2.2
	l-1.6,2.2l-0.8,3.1l-0.8,3.1l-0.7,4.7l-0.7,4.7l-0.3,2.4l-0.3,2.4l-0.1,5.1l-0.1,5.1l0.9,5.5l0.9,5.5l1.5,4.8l1.5,4.8l2.9,5.4
	l2.9,5.4l1.9,2.2l1.9,2.2l0.5,1.6l0.5,1.6h1.1h1.1l2,3.2l2,3.2l4.5,3l4.5,3l1.3,1.4l1.3,1.4h1.2h1.2l0.3,0.8l0.3,0.8l2.9,0.2
	l2.9,0.2l2,1.3l2,1.3l4.2,0.2l4.2,0.2l1,0.8l1,0.8l8.7-0.1l8.7-0.1l0.9-0.7l0.9-0.7l3.2-0.4l3.2-0.4l3.5-1.7l3.5-1.7l1.2-0.7
	l1.2-0.7l3.2-1.5l3.2-1.5l1.9-1.1l1.9-1.1l1.3-1.2l1.3-1.2l4.5-3.9l4.5-3.9l0-0.8l0-0.8l3.2-3.1l3.2-3.1v-1v-1l2.7-4.7l2.7-4.7
	l1.1-3.5l1.1-3.5l0.8-3.2l0.8-3.2l0.9-6.3l0.9-6.3l-0.4-7.3l-0.4-7.3l-0.8-1.5l-0.8-1.5v-1.9v-1.9l-3.1-7.6l-3.1-7.6l-1.1-1.9
	l-1.1-1.9l-0.8-0.8l-0.8-0.8l-2.2-3.2l-2.2-3.2l-3.6-3.7l-3.6-3.7h-1h-1l-0.6-1.1l-0.6-1.1l-4.3-2.7l-4.3-2.7l-2.2-1.1l-2.2-1.1
	l-0.5,0.5l-0.5,0.5l-2.8-1.2l-2.8-1.2l-3.2-0.8l-3.2-0.8l-3.5-0.3l-3.5-0.3l-2.4-0.3l-2.4-0.3L530.2,64.4 M1040.6,66.1l-4.1,1.3
	l-3.2,0.5l-3.2,0.5l-3.2,1.2l-3.2,1.2l-2.1,1.1l-2.1,1.1h-1.3h-1.3l-0.4,1.1l-0.4,1.1l-2.5,1l-2.5,1l-2.4,2.4l-2.4,2.4l-1.6,1.2
	l-1.6,1.2l-3.5,4.2l-3.5,4.2l-1.7,1.6l-1.7,1.6l-1.8,4.4l-1.8,4.4l-0.7,0.7l-0.7,0.7v1.4v1.4l-0.7,1.4l-0.7,1.4l-1.3,5.9l-1.3,5.9
	l0.1,8.9l0.1,8.9l0.4,1.8l0.4,1.8l0.4,2l0.4,2l0.8,3.3l0.8,3.3l1.7,3l1.7,3l1.5,2.4l1.5,2.4l0.5,1.2l0.5,1.2l4.4,4.3l4.4,4.3l3.4,3
	l3.4,3l1.9,0.5l1.9,0.5v0.7v0.7h1.6h1.6v0.7v0.7l2.2,0.5l2.2,0.5l0.4,0.7l0.4,0.7l4.3,0.8l4.3,0.8l5.9,1.3l5.9,1.3l7.5-0.4l7.5-0.4
	l5.7-0.8l5.7-0.8l1.8-1.1l1.8-1.1l3.3-0.5l3.3-0.5l2.7-1.6l2.7-1.6l1.2-2.6l1.2-2.6l1.2-5.4l1.2-5.4l-0.3-2.1l-0.3-2.1l-0.6-5.7
	l-0.6-5.7l-0.9-1l-0.9-1l-2.2-4.4l-2.2-4.4l-5.3-2.4l-5.3-2.4l-7.9,0.9l-7.9,0.9l-2.8,0l-2.8,0l-1.3-0.3l-1.3-0.3l-2.7-1.5l-2.7-1.5
	l-0.4-3.6l-0.4-3.6l0.8-1.5l0.8-1.5l2.9-3.2l2.9-3.2l3.6-1.6l3.6-1.6l2.4-0.3l2.4-0.3l6.7-0.6l6.7-0.6l2-1.4l2-1.4l1.6-1.8l1.6-1.8
	l0.6-1l0.6-1l0.5-2.2l0.5-2.2l0-2l0-2l-0.5-4.3l-0.5-4.3l-0.8-2.1l-0.8-2.1l0.5-0.5l0.5-0.5l-1.1-2.2l-1.1-2.2l-2-2.5l-2-2.5
	l-2.7-3.3l-2.7-3.3l-3.6-1.1l-3.6-1.1l-3.8-0.5l-3.8-0.5l-5.1-0.1l-5.1-0.1L1040.6,66.1 M421.9,70l-4.1,1.3l-3.2,0.5l-3.2,0.5
	l-3.2,1.2l-3.2,1.2l-2.1,1.1l-2.1,1.1h-1.3h-1.3l-0.4,1.1l-0.4,1.1l-2.5,1l-2.5,1l-2.4,2.4l-2.4,2.4l-1.6,1.2l-1.6,1.2l-3.5,4.2
	l-3.5,4.2l-1.7,1.6l-1.7,1.6l-1.8,4.4l-1.8,4.4l-0.7,0.7l-0.7,0.7v1.4v1.4l-0.7,1.4l-0.7,1.4l-1.3,5.9l-1.3,5.9l0.1,8.9l0.1,8.9
	l0.4,1.8l0.4,1.8l0.4,2l0.4,2l0.8,3.3l0.8,3.3l1.7,3l1.7,3l1.5,2.4l1.5,2.4l0.5,1.2l0.5,1.2l4.4,4.3l4.4,4.3l3.4,3l3.4,3l1.9,0.5
	l1.9,0.5v0.7v0.7h1.6h1.6v0.7v0.7l2.2,0.5l2.2,0.5l0.4,0.7l0.4,0.7l4.3,0.8l4.3,0.8l5.9,1.3l5.9,1.3l7.5-0.4l7.5-0.4l5.7-0.8
	l5.7-0.8l1.8-1.1l1.8-1.1l3.3-0.5l3.3-0.5l2.7-1.6l2.7-1.6l1.2-2.6l1.2-2.6l1.2-5.4l1.2-5.4l-0.3-2.1l-0.3-2.1l-0.6-5.7l-0.6-5.7
	l-0.9-1l-0.9-1l-2.2-4.4l-2.2-4.4l-5.3-2.4l-5.3-2.4l-7.9,0.9l-7.9,0.9l-2.8,0l-2.8,0l-1.3-0.3l-1.3-0.3l-2.7-1.5l-2.7-1.5l-0.4-3.6
	l-0.4-3.6l0.8-1.5l0.8-1.5l2.9-3.2l2.9-3.2l3.6-1.6l3.6-1.6l2.4-0.3l2.4-0.3l6.7-0.6l6.7-0.6l2-1.4l2-1.4l1.6-1.8l1.6-1.8l0.6-1
	l0.6-1l0.5-2.2l0.5-2.2l0-2l0-2l-0.5-4.3l-0.5-4.3l-0.8-2.1l-0.8-2.1l0.5-0.5l0.5-0.5l-1.1-2.2l-1.1-2.2l-2-2.5l-2-2.5l-2.7-3.3
	l-2.7-3.3l-3.6-1.1l-3.6-1.1l-3.8-0.5l-3.8-0.5l-5.1-0.1l-5.1-0.1L421.9,70 M697.3,69.3l-2.8,0.7l-1.6,0.2l-1.6,0.2l-3.2,0.6
	l-3.2,0.6l-1.6,0.6l-1.6,0.6l-4.4,2.1l-4.4,2.1l-0.9,1.9l-0.9,1.9l0,3.3l0,3.3l-5.4-5.6l-5.4-5.6l-3.3-1.7l-3.3-1.7l-4.5-1.1
	l-4.5-1.1l-5-0.4l-5-0.4l-0.7-0.4l-0.7-0.4l-0.5,0.8l-0.5,0.8l-2.1-0.1l-2.1-0.1l-4.7,0.9l-4.7,0.9l-3.1,1.1l-3.1,1.1l-1.8,2.1
	l-1.8,2.1v1.5v1.5l-0.7,0.5l-0.7,0.5l-1.2,4.2l-1.2,4.2l0.1,2.3l0.1,2.3l-0.5,5.2l-0.5,5.2l-0.8,2l-0.8,2l0,1.4l0,1.4l-0.5,22.1
	l-0.5,22.1l1.2,11.8l1.2,11.8l1.2,3.1l1.2,3.1l-0.4,0.4l-0.4,0.4l1.3,2.2l1.3,2.2l1.9,0.9l1.9,0.9h1.4h1.4l4.7,1.7l4.7,1.7l8.7-0.1
	l8.7-0.1l2-0.1l2-0.1l0.8-0.6l0.8-0.6l2.4-0.5l2.4-0.5l2.2-3.1l2.2-3.1l0.4-1.8l0.4-1.8l0.4-4.7l0.4-4.7l0.1-1.7l0.1-1.7l3.7,3.7
	l3.7,3.7l3.4,3.3l3.4,3.3l5.8,4.3l5.8,4.3l4.1,1.5l4.1,1.5l3.9,0.2l3.9,0.2l4.3-0.1l4.3-0.1l2.4-0.2l2.4-0.2l0.4-0.2l0.4-0.2
	l2.2-0.3l2.2-0.3l2.2-1.5l2.2-1.5l1.5-1.6l1.5-1.6l0.2-7.3l0.2-7.3l1.2-7.7l1.2-7.7l-0.3-1.6l-0.3-1.6l0.7-8l0.7-8l0.2-10.2
	l0.2-10.2l-0.6-9.9l-0.6-9.9l-0.8-10.9l-0.8-10.9l-0.8-1.5l-0.8-1.5l-2.1-1.1l-2.1-1.1l-5.8-1.7l-5.8-1.7l-4.9-0.6l-4.9-0.6
	L697.3,69.3 M1143,69.6l-0.2,0.2l-13.2,0.4l-13.2,0.4l-5.7,0.8l-5.7,0.8l-1.2,0.1l-1.2,0.1l-0.8-0.3l-0.8-0.3l-3.5,0.6l-3.5,0.6
	l0.2,10l0.2,10l1,5.9l1,5.9l1.3,2.5l1.3,2.5l0.8,0.5l0.8,0.5l3.3,0l3.3,0l1.5,0.8l1.5,0.8l7.9,0.3l7.9,0.3l1,0.9l1,0.9l0.4,12.2
	l0.4,12.2l0.3,3.2l0.3,3.2l0.6,7.9l0.6,7.9l0.7,2.9l0.7,2.9l0.8,6.1l0.8,6.1l1,1.2l1,1.2l3.4,1.5l3.4,1.5l0.9-0.6l0.9-0.6l14.1-0.1
	l14.1-0.1l1.5-1.9l1.5-1.9l0-1.8l0-1.8l0.7-1.4l0.7-1.4l0.5-9.8l0.5-9.8l0.2-16.2l0.2-16.2l1.3-2.4l1.3-2.4l2.2-1.5l2.2-1.5l5.5-0.2
	l5.5-0.2l5.4-0.6l5.4-0.6l0.8-1.2l0.8-1.2l0.5-2l0.5-2l1.2-3.7l1.2-3.7l0.2-9.7l0.2-9.7l-0.8-3l-0.8-3l-2.8-0.4l-2.8-0.4l-4.7-0.8
	l-4.7-0.8l-7.5-0.3l-7.5-0.3l-18.8-0.2l-18.8-0.2L1143,69.6 M905.1,72.2l-4.6,0.6l-1.4,1.3l-1.4,1.3l-0.7,0l-0.7,0l-2.5,4.1
	l-2.5,4.1l-0.6,2l-0.6,2l-1.1,1.7L888,91l-4,10.8l-4,10.8l-0.7,4.5l-0.7,4.5l-1.2,2.9l-1.2,2.9l-0.8,5l-0.8,5l-0.7,3.5l-0.7,3.5
	l-1.3,5l-1.3,5l0.4,0.6l0.4,0.6l-1.1,4.6l-1.1,4.6l-0.8,9.1l-0.8,9.1v1.7v1.7l1.2,1.2l1.2,1.2l0.7-0.4l0.7-0.4l4.2,1.1l4.2,1.1
	l5.7-0.4l5.7-0.4l2.1-2.1l2.1-2.1l1.1-2.3l1.1-2.3l1.9-3.7l1.9-3.7V172v-1.3h0.7h0.7l0.4-1.4l0.4-1.4l3.4-2l3.4-2l11,0.1l11,0.1
	l3,1.9l3,1.9l0.5,1.4l0.5,1.4h0.7h0.7v1.3v1.3l1.9,3.7l1.9,3.7l1.1,2.3l1.1,2.3l2.1,2.1l2.1,2.1l5.7,0.4l5.7,0.4l4.1-1l4.1-1
	l1.1,0.4l1.1,0.4l1-1.2l1-1.2l-0.5-7.7l-0.5-7.7l-1.5-10.6l-1.5-10.6l-0.9-2.8l-0.9-2.8l-1-6.7l-1-6.7l-1.3-4.3l-1.3-4.3l-1.5-6.5
	l-1.5-6.5l-0.8-1.4l-0.8-1.4l-2.3-6.8l-2.3-6.8l-3.6-7.4l-3.6-7.4l-1-1.2l-1-1.2l-1.6-1l-1.6-1l-2-0.9l-2-0.9l-14.6-0.3l-14.6-0.3
	L905.1,72.2 M790.7,72.8l-0.2,0.2l-12.2,0.4l-12.2,0.4l-5.5,0.5l-5.5,0.5l-1.8,0.7l-1.8,0.7l-1.3-0.7l-1.3-0.7l-3.5,0.8l-3.5,0.8
	l0.2,9.9l0.2,9.9l1,5.9l1,5.9l1.3,2.5l1.3,2.5l0.8,0.5l0.8,0.5l3.3,0l3.3,0l1.5,0.8l1.5,0.8l7.9,0.3l7.9,0.3l1,0.9l1,0.9l0.4,12.2
	l0.4,12.2l0.4,4.7l0.4,4.7l0.7,7.5l0.7,7.5l1.3,7.8l1.3,7.8l0.9,1.1l0.9,1.1l3.4,1.5l3.4,1.5l0.9-0.6l0.9-0.6l14.1-0.1l14.1-0.1
	l1.5-1.9l1.5-1.9l0-2l0-2l0.7-0.7l0.7-0.7l0.6-10.2l0.6-10.2l0.1-16.2l0.1-16.2l1.3-2.5l1.3-2.5l2.5-1.3l2.5-1.3l5.1-0.2l5.1-0.2
	l5.1-0.5l5.1-0.5l1.4-1.7l1.4-1.7l0-1.6l0-1.6l1.2-3.5l1.2-3.5l0.2-9.9l0.2-9.9l-0.8-3l-0.8-3l-2.8-0.4l-2.8-0.4l-4.7-0.9l-4.7-0.9
	l-6.7-0.3l-6.7-0.3l-19.6-0.2l-19.6-0.2L790.7,72.8 M527.8,75l-5.1,1l-3.9,1.3l-3.9,1.3l-2.9,1.8l-2.9,1.8l-4.3,3l-4.3,3l-4.4,5
	l-4.4,5l-1.5,2.7l-1.5,2.7l-1.9,4.1l-1.9,4.1l-0.8,0.5l-0.8,0.5v2.2v2.2l-0.7,0.7l-0.7,0.7l-1,5.1l-1,5.1l-0.1,3.2l-0.1,3.2l0.6,7
	l0.6,7l1.4,3.2l1.4,3.2l-0.4,0.9l-0.4,0.9l3.1,5.5l3.1,5.5l2.2,2.3l2.2,2.3l4.3,4.6l4.3,4.6l2.9,1.5l2.9,1.5l0.5,0.8l0.5,0.8l4,1.2
	l4,1.2l0.9,0.7l0.9,0.7l6.9,1l6.9,1l4.9-0.5l4.9-0.5l3.2-0.9l3.2-0.9l0.8-0.1l0.8-0.1l5.9-2.9l5.9-2.9l2.8-1.8l2.8-1.8l6.1-6.3
	l6-6.3l0-1.3l0-1.3l1.2-1l1.2-1l2.2-4.8l2.2-4.8l0.9-3.9l0.9-3.9l1.1-7.1l1.1-7.1l-0.5-2.4l-0.5-2.4l-0.2-3.2l-0.2-3.2l-0.9-4.2
	l-0.9-4.2l-1.6-3.3l-1.6-3.3l-1.7-3.3l-1.7-3.3l-6.1-7l-6.1-7l-5.7-2.8l-5.7-2.8l-3.5-1.6l-3.5-1.6l-4.7-0.6l-4.7-0.6l-3.9-0.2
	l-3.9-0.2L527.8,75 M1043.7,75.5l-3.9,0.7l-3.2,1.1l-3.2,1.1l-2.8,1l-2.8,1l-4.3,2l-4.3,2l-2.8,2.6l-2.8,2.6l-1.8,0.5l-1.8,0.5v0.6
	v0.6l-1.8,1.9l-1.8,1.9l-2.3,3.2l-2.3,3.2l-1,1.6l-1,1.6l-0.4,1.2l-0.4,1.2l-1.2,2.4l-1.1,2.4l-0.5,3.9l-0.5,3.9l-0.6,0.8l-0.6,0.8
	l-0.4,8.7l-0.4,8.7l1.5,7.5l1.5,7.5l1.5,2.4l1.5,2.4l2.2,2.8l2.2,2.8l1,1.5l1,1.5l0.6,0.8l0.6,0.8l3.2,2.3l3.2,2.3l1.4,1.4l1.4,1.4
	h1.4h1.4l2.7,2l2.7,2h1.6h1.6l1.6,1.1l1.6,1.1l1.5-0.1l1.5-0.1l5,1.3l5,1.3h3.1h3.1l8.4-1.3l8.4-1.3l2-1l2-1l3.3-0.6l3.3-0.6
	l0.1-1.3l0.1-1.3l0.2-1.6l0.2-1.6l0.7-1.8l0.7-1.8l-0.6-5.6l-0.6-5.6l-1.2-3.3l-1.2-3.3l-2.4-2l-2.4-2l-6.8,0.6l-6.8,0.6l-6.3,0
	l-6.3,0l-2.1-1.2l-2.1-1.2l-3.1-1.7l-3.1-1.7l-1.8-3.9l-1.8-3.9l0.4-3.9l0.4-3.9l0.5-2.5l0.5-2.5l1.1-0.9l1.1-0.9V120v-0.9l2.2-2.4
	l2.2-2.4l3.9-2.6l3.9-2.6h0.9h0.9l2.4-1.2l2.4-1.2l6.5-0.5l6.5-0.5l2.6-1.1l2.6-1.1l0.5-2.3l0.5-2.3l-1.3-7l-1.3-7l-1.5-2.1
	l-1.5-2.1v-0.7v-0.7l-2.4-2.3l-2.4-2.3l-7.7-0.2l-7.7-0.2L1043.7,75.5 M424.9,79.5l-3.9,0.7l-3.2,1.1l-3.2,1.1l-2.8,1l-2.8,1
	l-4.8,2.3l-4.8,2.3l-2.2,2.3l-2.2,2.3h-1h-1l-3.8,4.3l-3.8,4.3l-2.2,3.8l-2.2,3.8l-0.5,1.2l-0.5,1.2l-1,2l-1,2l-0.6,3.9l-0.6,3.9
	l-0.6,0.8l-0.6,0.8l-0.4,8.3l-0.4,8.3l1.6,7.9l1.6,7.9l2.7,3.9l2.7,3.9l2.5,3.6l2.5,3.6l2.7,1.9l2.7,1.9l1.9,1.8l1.9,1.8h1.3h1.3
	l2.7,2l2.7,2h1.6h1.6l1.8,1.2l1.8,1.2l0.6-0.4l0.6-0.4l5.9,1.5l5.9,1.5l2.6,0l2.6,0l8.8-1.3l8.8-1.3l2-1l2-1l3.3-0.6l3.3-0.6
	l0.1-1.3l0.1-1.3l0.2-1.6l0.2-1.6l0.7-1.8l0.7-1.8l-0.7-5.6l-0.7-5.6l-0.8-2.4l-0.8-2.4l-2.7-3l-2.7-3l-6.9,0.7l-6.9,0.7l-6.3-0.1
	l-6.3-0.1l-2-1l-2-1l-3.2-1.8l-3.2-1.8l-1.8-3.5l-1.8-3.5l0.3-5.1l0.3-5.1l0.9-2l0.9-2l1.6-2.7l1.6-2.7l1.3-1.3l1.3-1.3l4-2.6l4-2.6
	h0.9h0.9l2.4-1.2l2.4-1.2l6.2-0.5l6.2-0.5l1.6-0.7l1.6-0.7l1.3-0.4l1.3-0.4l0.5-2.6l0.5-2.6l-1.1-5.5l-1.1-5.5l-0.4-1.9l-0.4-1.9
	l-1-1.2l-1-1.2l-0.8-1.6l-0.8-1.6l-2.2-1.7l-2.2-1.7l-7.2-0.1l-7.2-0.1L424.9,79.5 M700,79.1l-3.2,0.2l-5,0.8l-5,0.8l-1.3,0.7
	l-1.3,0.7l-1.3,0.4l-1.3,0.4l-0.5,3.4l-0.5,3.4l0.4,6.1l0.4,6.1l-1.3,2.7l-1.3,2.7h-2.5H674l-3.5-3.5l-3.5-3.5l-2-3.3l-2-3.3
	l-4.1-4.9l-4.1-4.9l-4.6-2.2l-4.6-2.2l-10.2,0l-10.2,0l-4.3,1.5l-4.3,1.5l-0.7,3.5l-0.7,3.5l-0.3,3.9l-0.3,3.9l-0.5,4.7l-0.5,4.7
	l-0.7,5.9l-0.7,5.9l-0.1,7.5l-0.1,7.5l0,16.7l0,16.7l0.5,0.8l0.5,0.8l0.3,4.5l0.3,4.5l0.8,0.8l0.8,0.8l0,1.6l0,1.6l0.7,1l0.7,1
	l3.1,0.7l3.1,0.7l8.5,0.7l8.5,0.7l3.5-0.7l3.5-0.7l0.4-0.4l0.4-0.4l0.8-4.6l0.8-4.6l0.1-6.7l0.1-6.7l1.4-3.3l1.4-3.3l1.3-0.5
	l1.3-0.5h1.4h1.4l1.3,1.4l1.3,1.4l2.6,2.6l2.6,2.6l2,3l2,3l4.7,4.1l4.7,4.1l2,1.7l2,1.7l3.2,2.1l3.2,2.1l3.2,0.8l3.2,0.8l5.9,0.1
	l5.9,0.1l3.2-0.1l3.2-0.1l1.5-1.1l1.5-1.1l0.7-6.6l0.7-6.6l0.2-2.8l0.2-2.8l0.5-4.7l0.5-4.7l0.4-7.5l0.4-7.5l0.1-13.8l0.1-13.8
	l-0.6-11l-0.6-11l-0.5-4.5l-0.5-4.5l-0.9-0.7l-0.9-0.7l-4.7-1l-4.7-1l-2-0.5l-2-0.5L700,79.1 M914.6,110.4l-2.9,2l-1.1,2.2l-1.1,2.2
	l-2.8,4.6l-2.8,4.6l-0.9,3.7l-0.9,3.7l-0.4,2.8l-0.4,2.8l1.2,2.9l1.2,2.9h1.6h1.6l0.4,0.7l0.4,0.7l2.6,0.6l2.6,0.6l7.9,0.9l7.9,0.9
	l4.6-1.5l4.6-1.5l0.7-1.8l0.7-1.8l0.9-0.5l0.9-0.5l0.7-1.9l0.7-1.9l-2.4-5.3l-2.4-5.3l-0.8-1.5l-0.8-1.5l-1.9-3.5l-1.9-3.5l-2.1-2.7
	l-2.1-2.7l-2.5-1.5l-2.5-1.5l-2.8,0l-2.8,0L914.6,110.4 M530.2,112.4l-2,0.6l-3.4,1.8l-3.4,1.8l-1.6,2.3l-1.6,2.3l-2,4.9l-2,4.9
	l0.3,4.3l0.3,4.3l2.9,4.3l2.9,4.3l2.4,1.8l2.4,1.8l3.9,0.9l3.9,0.9l4.1-0.6l4.2-0.6l1.7-0.6l1.7-0.6l3.5-2.6l3.5-2.6l2.6-3.7
	l2.6-3.7l0-3.8l0-3.8l-0.9-3.3l-0.9-3.3l-0.8-0.5l-0.8-0.5v-1.5v-1.5l-1.8-1.7l-1.8-1.7l-2.9-1.9l-2.9-1.9h-1.5h-1.5l-0.5-0.8
	l-0.5-0.8l-4.1,0.1l-4.1,0.1L530.2,112.4 M916.9,120.5l-2.1,2.6l0,0.7l0,0.7l-1.6,2l-1.6,2v2.6v2.6l-0.8,0.5l-0.8,0.5v0.6v0.6
	l2.2,0.8l2.2,0.8l3.2,0.5l3.2,0.5l4.9,0.1l4.9,0.1l0.5-0.5l0.5-0.5l-3.4-6.9l-3.4-6.9l-1.6-2.4l-1.6-2.4l-0.8-0.6l-0.8-0.6l-0.4,0
	l-0.4,0L916.9,120.5 M528.4,124.2l-2.8,2.5l-0.6,2.5l-0.6,2.5l0,0.8l0,0.8l-0.6,1l-0.6,1l1.4,2.2l1.4,2.2l2,2.2l2,2.2h4.4h4.4
	l4.1-2.7l4.1-2.7l0.4-2.2l0.4-2.2l-0.1-2l-0.1-2l-2.8-3.7l-2.8-3.7l-1.7,0l-1.7,0l-3.5-0.5l-3.5-0.5L528.4,124.2"/>
</svg>
