<?xml version="1.0" encoding="utf-8"?>
<!-- Generator: Adobe Illustrator 26.4.0, SVG Export Plug-In . SVG Version: 6.00 Build 0)  -->
<svg version="1.1" id="Layer_1" xmlns="http://www.w3.org/2000/svg" xmlns:xlink="http://www.w3.org/1999/xlink" x="0px" y="0px"
	 viewBox="0 0 261.3 76" style="enable-background:new 0 0 261.3 76;" xml:space="preserve">
<style type="text/css">
	.st0{fill:#6FCCDD;}
	.st1{fill:#17A48D;}
	.st2{fill:none;stroke:#000000;stroke-width:10;stroke-miterlimit:10;}
	.st3{fill:none;}
</style>
<g>
	<path class="st0" d="M243.1,70.9c-8.7,0-8.7-0.3-17.3-0.3c-8.7,0-8.7,0.2-17.3,0.2c-8.7,0-8.7-0.7-17.3-0.7
		c-8.7,0-8.7,0.8-17.3,0.8c-8.7,0-8.7-0.5-17.3-0.5c-8.7,0-8.7-0.2-17.3-0.2c-8.7,0-8.7,0.1-17.3,0.1c-8.7,0-8.7,0.2-17.3,0.2
		c-8.7,0-8.7-0.7-17.3-0.7c-8.7,0-8.7,0.2-17.3,0.2c-8.7,0-8.7,0.7-17.3,0.7c-8.7,0-8.7-0.4-17.3-0.4S26.4,70,17.7,70
		c-7.1,0-12.8-5.3-12.8-12.4c0-9.8-0.4-9.8-0.4-19.7s0-9.8,0-19.7c0-7.1,6.1-13,13.2-13c8.7,0,8.7,0.1,17.3,0.1
		c8.7,0,8.7,0.2,17.3,0.2c8.7,0,8.7-0.4,17.3-0.4c8.7,0,8.7,0.3,17.3,0.3c8.7,0,8.7-0.3,17.3-0.3c8.7,0,8.7,0.6,17.3,0.6
		c8.7,0,8.7-0.7,17.3-0.7c8.7,0,8.7,0.2,17.3,0.2c8.7,0,8.7-0.2,17.3-0.2c8.7,0,8.7,1,17.3,1c8.7,0,8.7-0.1,17.3-0.1
		c8.7,0,8.7-0.8,17.3-0.8c8.7,0,8.7,0.4,17.3,0.4c7.1,0,13,5.7,13,12.7c0,9.8,0.2,9.8,0.2,19.7s-0.2,9.8-0.2,19.7
		C256.1,64.6,250.2,70.9,243.1,70.9z"/>
	<path d="M243.1,75.4c-6.4,0-12.7-0.3-19.1-0.3c-6.4,0-12.7,0.3-19.2,0c-6.2-0.4-12.5-1.1-18.7-0.7c-3.1,0.2-6.5,0.6-9.7,0.5
		c-6.4,0.1-12.9-0.6-19.2-0.6c-12.5-0.3-25.6-0.5-38.1-0.4c-9.7,0.1-19,0.1-28.7-0.8c-6.3-0.2-12.6,0-19,0c-3.2,0-6.2-0.1-9.3,0.2
		c-6.4,0.5-13,0.4-19.4,0c-6.2-0.3-12.8-0.2-19.1-0.6c-3.3-0.2-6.8,0.2-10.1-0.7c-6.6-1.6-11.5-8.1-11.3-15c0,0,0-2.4,0-2.4
		c-0.1-6.3-0.5-12.8-1.3-19.1C0,29.1-0.7,22.5,0.1,15.9C1.5,7.6,9.7,1.6,18,1.7c7,0,22-0.1,28.7,0c9.6,0.1,19.1-0.9,28.7-0.7
		c9.7,0.3,18.9-0.3,28.5-0.6c7.8-0.2,15.7,0.8,23.5,0.2c8-0.9,16.2-0.7,24.2-0.5c11,0.3,22.7-0.9,33.7,0.7
		c6.1,0.4,21.8,0.3,27.9,0.2c7.9-0.8,16.4-0.7,24.2-0.2c3.5,0.2,7.2-0.2,10.6,0.9c6.7,2,11.9,8.3,12.2,15.3c0.1,2.6,0,10.6,0,13.4
		c-0.1,8-1.4,16-1.2,23.9c0,1.7,0.2,3.4,0.1,5.1C258.8,67.8,251.8,75.4,243.1,75.4L243.1,75.4z M243.1,66.4c4.2,0.1,8.8-3.3,9.7-7.7
		c0.2-1.2,0.3-3,0.3-4.4c0.3-7.9-0.6-15.9-1-23.8c-0.2-3.1-0.2-6.4-0.3-9.6l0-2.4c0,0,0-0.3,0-0.3s0-0.2,0-0.2
		c-0.1-1.4-0.5-2.8-1.3-4c-1.8-2.8-5.1-4.2-8.4-4c-7.8,0.1-15.8-0.6-23.4,0.2c-3.1,0.4-6.8,0.6-9.9,0.6c-8,0-16.2,0.4-24.3-0.1
		c-7-1-16.1-0.7-23.3-0.6c-6.3,0.1-12.9-0.1-19.2-0.2c-8.1-0.3-15.8,1-23.9,0.5c-4.8-0.2-9.4-0.8-14.2-0.7c-6.3-0.1-12.8,0.2-19.1,0
		c-8-0.2-15.7-0.8-23.7-0.5C53.1,9.4,45,9,37,8.9C37,8.9,18,8.7,18,8.7c-0.2,0-0.4,0-0.5,0c-2.2,0-4.3,1.1-5.7,2.6
		c-1.6,1.7-2.4,3.8-2.5,5.8c0,1.4,0.1,2.8,0.1,4.1c0.1,4.8-0.4,9.5-1.1,14.3c-1.1,6.4-0.7,12.6-0.6,19.1c0,0,0,2.4,0,2.4
		c-0.3,5.7,4.4,10.3,10.1,10.2c5.2,0,10.4,0.3,15.5,0.3c6.3-0.1,12.8,0.3,19.1,0.3c6.3,0,12.8-1.1,19.1-1c6.4-0.1,12.7-0.5,19.2-0.4
		c6.4,0.3,12.5,0.7,18.9,0.5c12.5-0.3,25.7-0.6,38.3-0.5c3.2,0,6.3,0,9.5,0c6.4-0.1,12.6,0.5,19,0.2c3.2-0.1,6.1-0.5,9.4-0.7
		c6.5-0.5,13,0.1,19.4,0.4c6.2,0.1,12.6-0.1,18.9-0.2C230.3,66.1,236.8,66.5,243.1,66.4L243.1,66.4z"/>
</g>
<g>
	<path class="st1" d="M232.8,69.8c-9,0-9,0.8-18.1,0.8c-9,0-9-0.3-18.1-0.3c-9,0-9-0.2-18.1-0.2c-9,0-9,0.3-18.1,0.3
		c-9,0-9-0.3-18.1-0.3c-9,0-9,0.2-18.1,0.2c-9,0-9,0.3-18.1,0.3c-9,0-9-0.1-18.1-0.1c-9,0-9,0-18.1,0c-9,0-9-0.8-18.1-0.8
		c-9,0-9,0.8-18.1,0.8s-9,0.3-18.1,0.3c-6.1,0-11.5-5.4-11.5-11.6c0-7,0-7,0-13.9c0-7,1-7,1-13.9c0-6.1,4.4-11.2,10.5-11.2
		c9,0,9,0.3,18.1,0.3c9,0,9,0.1,18.1,0.1c9,0,9-0.3,18.1-0.3c9,0,9-0.3,18.1-0.3c9,0,9,0.6,18.1,0.6c9,0,9-0.9,18.1-0.9
		c9,0,9,0.9,18.1,0.9c9,0,9-0.1,18.1-0.1c9,0,9-0.2,18.1-0.2c9,0,9,0,18.1,0c9,0,9,0.4,18.1,0.4s9-0.2,18.1-0.2
		c6.1,0,10.6,4.8,10.6,10.9c0,7,0.7,7,0.7,13.9s0.2,7,0.2,13.9C244.4,65.4,238.9,69.8,232.8,69.8z"/>
</g>
<g>
	<path class="st2" d="M243.1,70.4c-8.7,0-8.7,0.2-17.3,0.2c-8.7,0-8.7,0.2-17.3,0.2c-8.7,0-8.7-0.8-17.3-0.8
		c-8.7,0-8.7,0.9-17.3,0.9c-8.7,0-8.7-0.8-17.3-0.8c-8.7,0-8.7,0-17.3,0c-8.7,0-8.7,0-17.3,0c-8.7,0-8.7,0-17.3,0
		c-8.7,0-8.7,0.6-17.3,0.6c-8.7,0-8.7-0.6-17.3-0.6c-8.7,0-8.7,0-17.3,0c-8.7,0-8.7,0.4-17.3,0.4S26.4,71,17.7,71
		C10.7,71,5,64.6,5,57.6c0-9.8,0.1-9.8,0.1-19.7c0-9.8,0-9.8,0-19.7c0-7.1,5.5-12.6,12.6-12.6c8.7,0,8.7,0,17.3,0
		c8.7,0,8.7,0.4,17.3,0.4c8.7,0,8.7,0,17.3,0c8.7,0,8.7,0,17.3,0c8.7,0,8.7-0.7,17.3-0.7c8.7,0,8.7,0.4,17.3,0.4c8.7,0,8.7,0,17.3,0
		c8.7,0,8.7,0.3,17.3,0.3c8.7,0,8.7-0.5,17.3-0.5c8.7,0,8.7-0.4,17.3-0.4c8.7,0,8.7,0.6,17.3,0.6c8.7,0,8.7-0.4,17.3-0.4
		c8.7,0,8.7-0.2,17.3-0.2c7.1,0,12.5,6.1,12.5,13.1c0,9.8,0.7,9.8,0.7,19.7s-0.1,9.8-0.1,19.7C256.2,64.6,250.2,70.4,243.1,70.4z"/>
</g>
<g>
	<rect x="33.9" y="23.2" class="st3" width="197" height="44.2"/>
	<path d="M51,26.1c1.4,0,2.6,0.1,3.5,0.4c1.1,0.2,2.2,0.7,3.3,1.3c1.2,0.6,2,1.2,2.3,1.9c0.3,0.7,0.5,1.3,0.5,1.7
		c0,0.4-0.1,0.8-0.4,1.3c-0.5,1.1-1.4,1.6-2.7,1.6c-0.8,0-1.7-0.2-2.7-0.7c-1-0.5-2.1-0.7-3.2-0.7s-2.1,0.2-2.9,0.7
		c-2.4,1.4-4.1,4.1-5,8.1c-0.1,0.6-0.2,1.3-0.2,2.1c0,1.8,0.2,3.2,0.7,4.2c0.3,0.8,0.6,1.3,0.9,1.7c0.3,0.4,0.8,0.7,1.4,1.1
		c1.4,0.9,3,1.4,4.9,1.4c1,0,2-0.1,3.1-0.4l1.7-0.4l0.1-1.4c0-0.6,0.2-1.3,0.5-2c0.6-1,1.5-1.6,2.7-1.6c1.4,0,2.5,0.6,3.1,1.8
		c0.2,0.4,0.3,0.9,0.3,1.5v1c-0.2,3.3-1.4,5.4-3.4,6.4c-2.2,1-5.2,1.6-9,1.6c-0.9,0-1.6-0.1-2.3-0.2c-0.2,0-1-0.2-2.4-0.4
		c-0.6-0.1-1.5-0.4-2.6-1.1c-1.1-0.6-2-1.3-2.6-2.1c-2.5-2.7-3.7-6.2-3.7-10.4c0-2.4,0.4-4.9,1.3-7.4c1-2.8,2.5-5.2,4.6-7.3
		c1.8-1.8,3.5-2.9,5.2-3.4C48.9,26.2,49.9,26.1,51,26.1z"/>
	<path d="M77,35.3h1.7c2.4,0,4,0.2,4.8,0.6c1.6,0.7,3,1.8,4.1,3.1c2,2.5,3.1,5.3,3.1,8.5s-1,5.7-2.9,7.6C85.8,57,83.1,58,79.5,58
		h-0.2c-3.2,0-5.6-0.8-7.3-2.3c-1.7-1.5-2.5-3.7-2.5-6.6c0-0.7,0.1-1.5,0.2-2.3c0.3-2.1,1-4.3,2-6.8c1.1-2.4,2-3.9,2.8-4.3
		C74.9,35.5,75.7,35.3,77,35.3z M81,42c-0.2-0.1-0.7-0.1-1.4-0.1h-1.5l-0.6,1.3c-0.8,1.9-1.3,3.6-1.3,4.9c0,1.4,0.4,2.4,1.3,3
		c0.6,0.4,1.2,0.7,2,0.7c1.2,0,2.2-0.5,3.2-1.4c1-0.9,1.5-1.9,1.5-3.1c0-1.4-0.7-2.8-2.1-4.3C81.5,42.4,81.2,42.1,81,42z"/>
	<path d="M100.2,31.6c1.3,0,2.3,0.5,2.8,1.6c0.3,0.5,0.5,1.7,0.6,3.5l0.1,2.7l0.7-1.3c1-1.7,2-2.8,3.1-3.4c0.6-0.3,1.2-0.4,1.7-0.4
		c0.1,0,0.2,0,0.4,0c0.2,0,0.3,0,0.4,0c1.7,0.1,3.2,0.8,4.5,2.1s2.4,3,3,5.2c0.7,2.1,1.1,5.6,1.2,10.4c0,1.1,0.1,2.3,0.1,3.6
		c0,1.2-0.1,2-0.4,2.6c-0.6,1.2-1.6,1.9-3,1.9c-1,0-2-0.5-2.8-1.6c-0.3-0.3-0.4-1-0.4-2v-1.1V55c0-4.7-0.3-8.1-0.8-10.3
		c-0.2-0.8-0.4-1.5-0.7-2.2c-0.3-0.7-0.6-1.1-0.7-1.1c-0.6,0-1.2,2.2-1.9,6.5c-0.6,3.3-1.1,5.5-1.6,6.8c-0.5,1.2-1.2,2.1-2.2,2.7
		c-0.6,0.3-1.1,0.5-1.7,0.5c-0.8,0-1.5-0.2-2-0.7c-1.2-1.1-2.1-3.4-2.7-6.8c-0.6-3.4-1-7.6-1-12.7c0-2,0.1-3.3,0.3-3.9
		c0.2-0.6,0.6-1.2,1.3-1.6C99,31.8,99.6,31.6,100.2,31.6z"/>
	<path d="M131.9,27.5c1.2,0,2.1,0.5,2.8,1.4c0.4,0.5,0.6,1.7,0.6,3.7l0.1,3l0.8,0.1c0.6,0.1,1.6,0.1,2.8,0.1c2,0,3.3,0.5,4,1.6
		c0.3,0.5,0.5,1.1,0.5,1.7c0,1.3-0.5,2.3-1.6,2.9c-0.4,0.2-1.2,0.4-2.3,0.4h-1.3l-2.8-0.1l0.2,2.2c0.2,2,0.5,4,0.9,6.1
		s0.8,3.2,1,3.2c0.4,0,0.8-0.6,1.1-1.7c0.2-0.6,0.2-1.4,0.2-2.4c0-1,0.2-1.8,0.5-2.3c0.7-1,1.6-1.6,2.8-1.6c1.2,0,2.1,0.5,2.8,1.6
		c0.3,0.4,0.5,1.3,0.5,2.7c0,4.5-1.5,7.7-4.6,9.7c-1.4,0.9-2.7,1.3-3.8,1.3c-1.4,0-2.6-0.6-3.5-1.7c-2.2-2.7-3.7-8-4.4-15.8
		l-0.2-1.7h-0.8c-0.5,0-1-0.2-1.5-0.5s-0.9-0.7-1.1-1.1c-0.2-0.4-0.3-0.9-0.3-1.4c0-1,0.2-1.8,0.7-2.3c0.7-0.8,1.5-1.2,2.2-1.2
		c0.2,0,0.3-0.1,0.4-0.4c0-0.3,0.1-1,0.1-2.3c0-1.6,0.1-2.6,0.3-3.2c0.2-0.6,0.6-1.1,1.3-1.5C130.6,27.7,131.2,27.5,131.9,27.5z"/>
	<path d="M171.5,33.9L171.5,33.9c0.3,0,0.6,0.2,1,0.6c0.4,0.4,0.7,0.8,0.9,1.1c0.2,0.5,0.4,1.8,0.4,4.1c0,1.5-0.1,2.7-0.2,3.6
		c-0.1,0.9-0.5,2.6-1.1,5.2c-0.8,3.4-1.3,5.6-1.4,6.5c-0.1,0.8-0.5,1.4-1,1.8c-0.6,0.4-1.2,0.7-2,0.7c-1,0-1.9-0.4-2.6-1.1
		c-0.5-0.6-0.7-1.2-0.7-2v-1.2l-1,0.5c-0.8,0.4-1.8,0.5-3.1,0.5c-1.4,0-2.4-0.2-3.1-0.5c-1.6-0.7-2.9-1.9-3.9-3.7
		c-1-1.7-1.6-3.7-1.7-5.8v-1c0-3.8,1.5-6.5,4.6-7.9c0.8-0.4,2.2-0.5,4.4-0.5c2.1,0,3.8,0.2,4.9,0.5l1.9,0.6l1-0.8
		C169.9,34.3,170.8,33.9,171.5,33.9z M161.4,41.2c-1.8,0-2.9,0.7-3.3,2.2c-0.1,0.3-0.1,0.6-0.1,0.7c0,0.8,0.3,1.4,0.8,2
		c0.5,0.6,1.1,1,1.7,1.1h0.3c1,0,2.1-0.6,3.4-1.9c0.5-0.5,0.8-0.9,0.9-1.1c0.1-0.2,0.2-0.6,0.2-1.1v-1.1l-1.1-0.4
		C163.1,41.3,162.2,41.2,161.4,41.2z"/>
	<path d="M188.9,31.3h1c1.9,0,3.8,0.8,5.5,2.3c1.4,1.2,2.2,2.3,2.3,3.4v0.4c0,0.9-0.3,1.7-0.8,2.3c-0.6,0.6-1.3,0.9-2.2,0.9
		c-0.5,0-1.1-0.1-1.6-0.3c-0.6-0.2-0.9-0.5-1-0.7c-0.1-0.3-0.4-0.5-0.9-0.8c-0.5-0.3-1-0.4-1.4-0.4c-0.8,0-1.5,0.6-2.2,1.8
		c-0.7,1.2-1.1,2.5-1.2,4c0,0.1,0,0.3,0,0.4s0,0.3,0,0.4c0,1.6,0.4,2.8,1.1,3.9c0.7,1,1.7,1.6,2.8,1.8h0.2c0.2,0,0.4-0.1,0.5-0.3
		s0.4-0.7,0.8-1.4c0.6-1.2,1.3-2,1.9-2.3c0.5-0.3,1.1-0.4,1.6-0.4c0.8,0,1.6,0.3,2.2,1c0.6,0.6,0.9,1.4,0.9,2.4c0,1-0.5,2.3-1.6,4
		c-1,1.7-2,2.7-2.9,3.2c-0.4,0.2-1.3,0.4-2.5,0.5c-0.8,0.1-1.4,0.1-1.8,0.1c-2.3,0-4.2-0.6-5.7-1.9s-2.6-3-3.3-5.4
		c-0.3-1.1-0.4-2.5-0.4-4.1c0-1.6,0.1-3,0.4-4.4c1.2-5,3.2-8.2,6.2-9.7C187.5,31.5,188.2,31.3,188.9,31.3z"/>
	<path d="M211.3,27.5c1.2,0,2.1,0.5,2.8,1.4c0.4,0.5,0.6,1.7,0.6,3.7l0.1,3l0.8,0.1c0.6,0.1,1.6,0.1,2.8,0.1c2,0,3.3,0.5,4,1.6
		c0.3,0.5,0.5,1.1,0.5,1.7c0,1.3-0.5,2.3-1.6,2.9c-0.4,0.2-1.2,0.4-2.3,0.4h-1.3l-2.8-0.1l0.2,2.2c0.2,2,0.5,4,0.9,6.1
		s0.8,3.2,1,3.2c0.4,0,0.8-0.6,1.1-1.7c0.2-0.6,0.2-1.4,0.2-2.4c0-1,0.2-1.8,0.5-2.3c0.7-1,1.6-1.6,2.8-1.6c1.2,0,2.1,0.5,2.8,1.6
		c0.3,0.4,0.5,1.3,0.5,2.7c0,4.5-1.5,7.7-4.6,9.7c-1.4,0.9-2.7,1.3-3.8,1.3c-1.4,0-2.6-0.6-3.5-1.7c-2.2-2.7-3.7-8-4.4-15.8
		l-0.2-1.7h-0.8c-0.5,0-1-0.2-1.5-0.5s-0.9-0.7-1.1-1.1c-0.2-0.4-0.3-0.9-0.3-1.4c0-1,0.2-1.8,0.7-2.3c0.7-0.8,1.5-1.2,2.2-1.2
		c0.2,0,0.3-0.1,0.4-0.4c0-0.3,0.1-1,0.1-2.3c0-1.6,0.1-2.6,0.3-3.2c0.2-0.6,0.6-1.1,1.3-1.5C210,27.7,210.6,27.5,211.3,27.5z"/>
</g>
</svg>
