<?xml version="1.0" encoding="utf-8"?>
<!-- Generator: Adobe Illustrator 26.4.0, SVG Export Plug-In . SVG Version: 6.00 Build 0)  -->
<svg version="1.1" id="Layer_1" xmlns="http://www.w3.org/2000/svg" xmlns:xlink="http://www.w3.org/1999/xlink" x="0px" y="0px"
	 viewBox="0 0 430 66.5" style="enable-background:new 0 0 430 66.5;" xml:space="preserve">
<style type="text/css">
	.st0{fill:none;}
</style>
<g>
	<rect y="9.5" class="st0" width="430" height="92"/>
	<path d="M17,11.4c0.6,0,1.2,0.2,1.8,0.5c0.7,0.3,1.1,0.8,1.5,1.4c0.3,0.6,0.9,1,1.8,1.2c5.9,1.1,10.3,3.2,13.2,6.3
		c2.1,2.2,3.2,4.7,3.4,7.5c0,0.1,0,0.2,0,0.5c0,0.2,0,0.4,0,0.5c0,2.7-0.8,5.5-2.4,8.5c-1.6,3-3.5,5.1-5.6,6.4
		c-2,1.1-4.3,1.7-6.8,1.7c-0.9,0-1.7-0.1-2.5-0.2l-1.7-0.3l-0.4,0.7c-0.6,1-1.5,1.4-2.9,1.4c-0.4,0-1-0.2-1.6-0.5s-1.1-0.6-1.2-0.9
		c-0.5-0.9-0.7-5-0.7-12.4c0-5.1,0.1-9.4,0.3-13c0.2-3.4,0.3-5.5,0.5-6.3c0.2-0.8,0.5-1.5,1-2C15.4,11.7,16.1,11.4,17,11.4z
		 M22.4,21.8c-0.4-0.1-0.6-0.2-0.8-0.2s-0.3-0.1-0.5-0.1c-0.3,0-0.5,0.1-0.6,0.3c-0.1,0.2-0.1,0.6-0.2,1.3c0,0.1,0,0.2,0,0.2
		s0,0.1,0,0.2v0.2c-0.2,3.4-0.3,6-0.3,7.8c-0.1,3.9-0.2,6-0.2,6.3l-0.1,0.7h2.9c1.4,0,2.3,0,2.6-0.1c0.4-0.1,0.8-0.2,1.3-0.6
		c1.5-0.9,2.6-2,3.5-3.4c1-1.6,1.4-3.1,1.4-4.6c0-1.8-0.7-3.4-2.1-4.8c-1.4-1.4-3.4-2.4-6-3.1C23.1,22,22.8,21.9,22.4,21.8z"/>
	<path d="M56,20.6c1.5,0,2.8,0.2,4,0.6c0.8,0.3,1.8,0.9,2.8,1.7c1.1,0.8,1.9,1.6,2.6,2.3c1.6,1.9,2.4,3.7,2.4,5.4
		c0,0.9-0.2,1.7-0.7,2.4c-1.5,2.3-5.1,3.9-10.8,4.8c-1.6,0.3-2.5,0.5-2.5,0.7c0,0.1,0,0.2,0.1,0.3c0.2,0.5,0.8,1,2,1.4
		c1.1,0.4,2.2,0.6,3.3,0.6c0.9,0,1.5-0.2,1.9-0.5c0.2-0.1,0.3-0.5,0.3-1c0-0.4,0.2-0.9,0.7-1.5c0.5-0.6,1-1,1.6-1.2
		c0.3-0.1,0.6-0.2,1-0.2c0.7,0,1.4,0.2,2.1,0.6c0.6,0.4,1.1,1,1.3,1.6c0.1,0.4,0.2,0.8,0.2,1.3c0,1-0.2,2-0.7,3
		c-0.5,1-1.1,1.9-1.8,2.5c-1,0.8-1.9,1.4-2.8,1.7s-2.3,0.4-4.1,0.4c-1.8,0-3.2-0.1-4.3-0.4c-1.1-0.3-2.2-0.8-3.5-1.6
		c-1-0.6-1.7-1.1-2.2-1.6S48,43,47.6,42c-1.4-2.7-2.1-5.5-2.1-8.3c0-4.1,1.3-7.4,3.9-10c1.2-1.2,2.7-2.2,4.7-2.9
		C54.5,20.7,55.1,20.6,56,20.6z M56.3,28c-1.7,0-2.8,0.8-3.2,2.5c-0.1,0.3-0.1,0.5,0,0.6s0.4,0.1,0.9,0.1c2,0,3.8-0.3,5.3-0.8
		l0.9-0.3l-0.5-0.6c-0.4-0.4-1-0.8-1.6-1C57.6,28.2,56.9,28,56.3,28z"/>
	<path d="M84.4,19.9c1.7,0,3.1,0.2,4.2,0.6c1.1,0.4,2.1,0.9,3,1.5c0.9,0.6,1.5,1.1,1.7,1.6c0.2,0.4,0.3,1,0.3,1.7
		c0,1.1-0.3,1.9-0.8,2.4c-0.7,0.7-1.6,1.1-2.7,1.1c-0.9,0-1.7-0.2-2.3-0.7c-0.9-0.7-1.9-1.1-2.9-1.1c-0.5,0-0.9,0.1-1.4,0.3
		s-0.7,0.4-0.8,0.6c0,0,0.1,0.2,0.4,0.5c0.3,0.3,0.6,0.6,1,0.9c1,0.7,2.1,1.7,3.5,3.1c1.4,1.4,2.4,2.5,3,3.3c1.9,2.6,2.9,4.9,2.9,7
		c0,1.9-0.7,3.5-2.2,5c-2,1.9-4.4,2.8-7.2,2.8c-0.9,0-1.5,0-2-0.1c-2.3-0.3-4-1-5.2-2.2c-1.2-1.1-1.9-2.6-1.9-4.3
		c0-0.5,0.1-1.1,0.2-1.6c0.6-2.8,1.9-4.2,3.9-4.2c1,0,1.8,0.3,2.5,1c0.7,0.7,1,1.5,1,2.6v1.2l1,0.2c0.1,0,0.3,0.1,0.6,0.1
		c1.1,0,1.7-0.5,1.7-1.4c0-0.3-0.1-0.7-0.3-1c-0.3-0.6-0.9-1.3-1.7-2.1c-0.8-0.9-1.7-1.6-2.5-2.1c-3.1-2.1-5.1-4.3-5.9-6.8
		c-0.2-0.7-0.3-1.4-0.3-2c0-1.6,0.6-3.1,1.7-4.5s2.6-2.4,4.6-3C82.3,20,83.2,19.9,84.4,19.9z"/>
	<path d="M104.8,24.2c1.3,0,2.3,0.5,2.9,1.6c0.3,0.5,0.5,1.2,0.5,2c0,0.5-0.2,3.7-0.5,9.6c-0.3,4.4-0.5,7.1-0.7,7.9
		c-0.2,0.9-0.6,1.6-1.3,2.1c-0.4,0.3-1,0.5-2,0.5c-1.3,0-2.4-0.6-3.1-1.8c-0.3-0.4-0.4-1-0.4-1.8c0-0.7,0.1-2.1,0.2-4.4
		c0-0.6,0.1-2.2,0.3-4.6c0.1-2.4,0.2-4,0.3-4.9c0.2-2.3,0.4-3.7,0.6-4.3s0.7-1.1,1.6-1.5C103.7,24.3,104.2,24.2,104.8,24.2z
		 M104.9,13.5c0.2,0,0.3,0,0.4,0c1.1,0,2,0.4,2.6,1.1c0.7,0.7,1,1.6,1,2.8c0,0.3-0.1,0.9-0.3,1.7c-0.3,0.9-0.7,1.5-1.3,2
		c-0.6,0.5-1.3,0.7-2.1,0.7c-1.1,0-2.1-0.5-2.9-1.4c-0.5-0.6-0.8-1.3-0.8-2.3c0-1.1,0.3-2.1,0.9-3c0.6-0.9,1.3-1.4,2.1-1.5
		C104.6,13.5,104.7,13.5,104.9,13.5z"/>
	<path d="M135.9,20c0.5,0,1,0.2,1.3,0.5c0.4,0.3,0.8,0.8,1.1,1.4c0.3,0.5,0.4,1,0.5,1.6s0.1,2.1,0.1,4.6c0,4.9-0.5,9.5-1.2,14
		s-1.8,7.6-2.9,9.5c-0.7,1.1-1.7,2-3,2.7s-2.7,1-4.1,1c-1.6,0-3.1-0.5-4.4-1.4c-0.7-0.6-1.4-1.5-1.9-2.7c-0.6-1.2-0.8-2.3-0.8-3.3
		c0,0,0-0.1,0-0.3c0-0.1,0-0.2,0-0.3c0.2-0.8,0.6-1.5,1.3-2s1.4-0.8,2.3-0.8c0.8,0,1.6,0.3,2.3,1c0.7,0.6,1.1,1.3,1.1,2.1
		c0,0.3,0,0.5,0.1,0.5c0.1,0,0.2,0,0.4-0.1c0.7-0.2,1.3-1.2,1.8-3c0.8-2.9,1.2-5.3,1.2-7c0-0.2-0.2-0.2-0.5,0
		c-0.3,0.2-0.7,0.4-1.2,0.8c-0.5,0.4-0.8,0.6-0.9,0.7c-1.6,0.9-3.1,1.4-4.7,1.4c-2.2,0-4-0.9-5.4-2.7c-1.5-1.8-2.3-4.3-2.4-7.4v-1.5
		c0-0.9,0.1-1.6,0.4-2.3c1.1-3.1,3.9-4.6,8.4-4.6c1.3,0,2.9,0.2,4.7,0.5l2.5,0.5l0.8-1C133.6,20.7,134.8,20,135.9,20z M125.6,29.2
		c-1,0-1.7,0.2-2.4,0.6s-0.9,0.8-0.9,1.4c0,0.5,0.2,1,0.7,1.5c0.5,0.5,1,0.7,1.5,0.6c1-0.2,1.9-1.1,2.7-2.6l0.6-1.1l-0.8-0.2
		C126.7,29.3,126.2,29.2,125.6,29.2z"/>
	<path d="M149.1,18.6c1.4,0,2.4,0.6,3.1,1.8c0.3,0.6,0.5,1.8,0.6,3.8l0.1,2.9l0.8-1.4c1-1.8,2.2-3,3.4-3.6c0.7-0.3,1.3-0.5,1.8-0.5
		c0.1,0,0.2,0,0.4,0c0.2,0,0.3,0,0.5,0c1.8,0.1,3.5,0.9,4.9,2.3s2.5,3.3,3.3,5.7c0.7,2.3,1.2,6.1,1.3,11.3c0,1.2,0.1,2.5,0.1,3.9
		c0,1.3-0.2,2.2-0.5,2.9c-0.6,1.3-1.7,2-3.2,2c-1.1,0-2.1-0.6-3-1.7c-0.3-0.3-0.5-1.1-0.5-2.1v-1.2v-0.7c0-5.1-0.3-8.8-0.8-11.1
		c-0.2-0.8-0.4-1.6-0.8-2.4s-0.6-1.2-0.8-1.2c-0.6,0-1.3,2.4-2.1,7.1c-0.6,3.6-1.2,6-1.7,7.3s-1.4,2.3-2.4,2.9
		c-0.6,0.3-1.2,0.5-1.9,0.5c-0.9,0-1.6-0.3-2.1-0.8c-1.3-1.2-2.2-3.7-2.9-7.4c-0.7-3.7-1-8.3-1-13.7c0-2.1,0.1-3.5,0.3-4.2
		c0.2-0.7,0.7-1.3,1.4-1.8C147.8,18.8,148.4,18.6,149.1,18.6z"/>
	<path d="M186.6,20.6c1.5,0,2.8,0.2,4,0.6c0.8,0.3,1.8,0.9,2.8,1.7c1.1,0.8,1.9,1.6,2.6,2.3c1.6,1.9,2.4,3.7,2.4,5.4
		c0,0.9-0.2,1.7-0.7,2.4c-1.5,2.3-5.1,3.9-10.8,4.8c-1.6,0.3-2.5,0.5-2.5,0.7c0,0.1,0,0.2,0.1,0.3c0.2,0.5,0.8,1,2,1.4
		c1.1,0.4,2.2,0.6,3.3,0.6c0.9,0,1.5-0.2,1.9-0.5c0.2-0.1,0.3-0.5,0.3-1c0-0.4,0.2-0.9,0.7-1.5c0.5-0.6,1-1,1.6-1.2
		c0.3-0.1,0.6-0.2,1-0.2c0.7,0,1.4,0.2,2.1,0.6c0.6,0.4,1.1,1,1.3,1.6c0.1,0.4,0.2,0.8,0.2,1.3c0,1-0.2,2-0.7,3
		c-0.5,1-1.1,1.9-1.8,2.5c-1,0.8-1.9,1.4-2.8,1.7s-2.3,0.4-4.1,0.4c-1.8,0-3.2-0.1-4.3-0.4c-1.1-0.3-2.2-0.8-3.5-1.6
		c-1-0.6-1.7-1.1-2.2-1.6s-0.9-1.2-1.4-2.1c-1.4-2.7-2.1-5.5-2.1-8.3c0-4.1,1.3-7.4,3.9-10c1.2-1.2,2.7-2.2,4.7-2.9
		C185,20.7,185.7,20.6,186.6,20.6z M186.9,28c-1.7,0-2.8,0.8-3.2,2.5c-0.1,0.3-0.1,0.5,0,0.6s0.4,0.1,0.9,0.1c2,0,3.8-0.3,5.3-0.8
		l0.9-0.3l-0.5-0.6c-0.4-0.4-1-0.8-1.6-1C188.1,28.2,187.5,28,186.9,28z"/>
	<path d="M223.2,9.5c0.7,0,1.3,0.2,1.9,0.5c0.6,0.4,1.1,1,1.2,1.6c0.3,1,0.6,5.8,0.9,14.6c0.3,8.1,0.5,13.2,0.5,15.3
		c0,1.7-0.2,2.8-0.5,3.2c-0.7,1.1-1.7,1.6-3,1.6c-1.4,0-2.4-0.6-3.1-1.9c-0.3-0.5-0.4-1.1-0.4-1.8c0-0.8-0.3-0.9-0.9-0.5
		c-0.6,0.4-1.4,0.8-2.6,1.3s-2.2,0.8-3,0.9c-0.7,0.1-1.2,0.1-1.4,0.1c-2.3,0-4-1-5.3-2.9c-1.1-1.7-1.7-3.8-1.7-6.3
		c0-2.3,0.5-4.4,1.4-6.2c2-4,5.4-6,10.3-6l2.5-0.1l-0.1-5.7c0-1-0.1-2.2-0.1-3.6c0-1.4,0.2-2.4,0.5-2.9c0.3-0.5,0.8-0.9,1.2-1.1
		C222,9.6,222.5,9.5,223.2,9.5z M216.8,30.1c-2.5,0-3.7,1.4-3.7,4.3v0.9c0.1,1.3,0.2,2,0.3,2.1c0,0,0.1,0.1,0.1,0.1
		c0.3,0,1.1-0.4,2.3-1.2c1.2-0.8,2.1-1.5,2.8-2.2c0.7-0.7,1.2-1.2,1.4-1.5s0.3-0.7,0.3-1.1v-0.9l-1.5-0.3
		C218,30.1,217.4,30.1,216.8,30.1z"/>
	<path d="M250.7,9.1c0.6-0.5,1.3-0.7,2.1-0.7c0.8,0,1.5,0.2,2,0.5s1,1,1.2,1.9c0.3,0.9,0.5,2.6,0.7,5.2c0.2,2.1,0.3,4,0.5,5.7l0.1,1
		l0.5-0.5c1-1,2.3-1.4,3.8-1.4c0.8,0,1.8,0.2,2.9,0.5c2.7,1,4.9,2.5,6.6,4.6c1.7,2.1,2.5,4.3,2.5,6.7v0.7c-0.1,1.9-0.7,3.4-1.9,4.6
		c-1.1,1.2-3,2.5-5.8,3.8c-2.4,1.2-3.8,1.8-4.2,1.8c-0.4,0-0.9,0.4-1.3,1c-0.7,1.2-1.8,1.8-3.2,1.8c-0.6,0-1.2-0.3-1.9-1
		c-1.7-1.7-3.1-6-4.4-13c-0.4-2.7-0.9-6.2-1.3-10.6c-0.4-4.4-0.6-7.6-0.6-9.6c0-0.7,0-1.1,0.1-1.3C249.7,10.1,250.1,9.5,250.7,9.1z
		 M262.6,28.2c-0.2,0-0.4,1.4-0.5,4.3l-0.1,3.4l1.7-0.8c1.9-1,2.9-1.9,3.1-2.7l0.1-0.1v-0.1c0-1.1-1.1-2.2-3.2-3.4L262.6,28.2z"/>
	<path d="M298.2,22.3c0.9,0,1.5,0.2,2,0.6c0.9,0.7,1.5,1.9,1.8,3.5c0,0.2,0.1,0.7,0.1,1.6c0,5.6-0.3,10.4-0.9,14.3
		c-0.5,3.4-1.3,6.3-2.4,8.5c-1.1,2.2-2.4,3.7-3.9,4.4c-0.8,0.3-1.7,0.5-2.7,0.5c-2.2,0-4.1-0.6-5.7-1.8c-0.9-0.7-1.7-1.7-2.3-3.2
		c-0.6-1.5-0.9-3-0.9-4.5c0-1.9,0.8-3.1,2.5-3.6h0.1l0.7-0.3c0,0-0.1-0.1-0.3-0.2c-1.1-0.6-2.1-1.9-3.2-4c-0.6-1.2-1.1-2.8-1.6-5
		c-0.5-2.2-0.7-4.1-0.7-5.7c0-1.6,0.6-2.8,1.9-3.4c0.6-0.3,1.1-0.5,1.6-0.5c0.4,0,1,0.2,1.6,0.5c0.7,0.3,1.2,0.8,1.5,1.5
		c0.3,0.6,0.5,1.7,0.7,3.3c0.3,3.2,0.8,5.2,1.4,6.1c0.4,0.6,0.8,0.9,1.3,0.9c0.4,0,0.8-0.2,1.2-0.7c0.7-0.8,1.3-2.1,1.9-3.9
		c0.6-1.8,0.9-3.3,0.9-4.5c0-1.7,0.7-3,2-3.9C296.9,22.4,297.5,22.3,298.2,22.3z M294.2,42.5c0-0.3-0.1-0.4-0.3-0.4s-0.6,0.1-1,0.3
		c-0.9,0.4-1.8,0.6-2.7,0.6h-1.4l0.6,0.6c0.4,0.4,0.7,1,0.8,1.6c0.2,1.2,0.4,1.9,0.5,2.2s0.3,0.5,0.6,0.6h0.2c1.1,0,2-1.4,2.5-4.1
		C294.1,43,294.2,42.6,294.2,42.5z"/>
	<path d="M341.3,22.3c0.9,0,1.5,0.2,2,0.6c0.9,0.7,1.5,1.9,1.8,3.5c0,0.2,0.1,0.7,0.1,1.6c0,5.6-0.3,10.4-0.9,14.3
		c-0.5,3.4-1.3,6.3-2.4,8.5c-1.1,2.2-2.4,3.7-3.9,4.4c-0.8,0.3-1.7,0.5-2.7,0.5c-2.2,0-4.1-0.6-5.7-1.8c-0.9-0.7-1.7-1.7-2.3-3.2
		c-0.6-1.5-0.9-3-0.9-4.5c0-1.9,0.8-3.1,2.5-3.6h0.1l0.7-0.3c0,0-0.1-0.1-0.3-0.2c-1.1-0.6-2.1-1.9-3.2-4c-0.6-1.2-1.1-2.8-1.6-5
		c-0.5-2.2-0.7-4.1-0.7-5.7c0-1.6,0.6-2.8,1.9-3.4c0.6-0.3,1.1-0.5,1.6-0.5c0.4,0,1,0.2,1.6,0.5c0.7,0.3,1.2,0.8,1.5,1.5
		c0.3,0.6,0.5,1.7,0.7,3.3c0.3,3.2,0.8,5.2,1.4,6.1c0.4,0.6,0.8,0.9,1.3,0.9c0.4,0,0.8-0.2,1.2-0.7c0.7-0.8,1.3-2.1,1.9-3.9
		c0.6-1.8,0.9-3.3,0.9-4.5c0-1.7,0.7-3,2-3.9C340,22.4,340.6,22.3,341.3,22.3z M337.3,42.5c0-0.3-0.1-0.4-0.3-0.4s-0.6,0.1-1,0.3
		c-0.9,0.4-1.8,0.6-2.7,0.6h-1.4l0.6,0.6c0.4,0.4,0.7,1,0.8,1.6c0.2,1.2,0.4,1.9,0.5,2.2s0.3,0.5,0.6,0.6h0.2c1.1,0,2-1.4,2.5-4.1
		C337.2,43,337.3,42.6,337.3,42.5z"/>
	<path d="M360,22.6h1.8c2.6,0,4.3,0.3,5.2,0.6c1.8,0.8,3.3,1.9,4.5,3.4c2.2,2.7,3.3,5.7,3.3,9.2s-1.1,6.2-3.2,8.3
		c-2.1,2-5,3.1-8.9,3.1h-0.2c-3.5,0-6.1-0.8-8-2.5c-1.8-1.6-2.8-4-2.8-7.1c0-0.8,0.1-1.6,0.2-2.5c0.3-2.3,1-4.7,2.2-7.3
		c1.1-2.6,2.2-4.2,3-4.7C357.7,22.7,358.6,22.6,360,22.6z M364.3,29.8c-0.2-0.1-0.7-0.2-1.5-0.2h-1.6l-0.6,1.4
		c-0.9,2.1-1.4,3.9-1.4,5.3c0,1.5,0.5,2.6,1.4,3.3c0.6,0.5,1.3,0.7,2.1,0.7c1.3,0,2.4-0.5,3.5-1.5c1.1-1,1.6-2.1,1.6-3.4
		c0-1.5-0.8-3-2.3-4.7C364.9,30.2,364.5,29.9,364.3,29.8z"/>
	<path d="M398.3,19.1c1,0,1.7,0.2,2.2,0.6c0.7,0.5,1.1,1.3,1.3,2.5s0.5,4.6,1,10.1c0.4,5.3,0.6,8.8,0.6,10.6v0.4l-0.1,0.2
		c-0.1,0.6-0.5,1.1-1,1.6s-1.1,0.8-1.8,0.8h-0.5c-0.7,0-1.4-0.2-2-0.5c-0.6-0.3-1.1-0.8-1.3-1.3c-0.3-0.6-0.5-0.8-0.6-0.8
		c-0.2,0-0.7,0.2-1.7,0.6c-1,0.4-2,0.6-3.1,0.6c-1.1,0-2-0.2-2.8-0.6c-3.2-1.5-5.4-5.8-6.6-12.9c-0.3-1.8-0.5-3.3-0.5-4.4
		c0-1,0.2-1.8,0.6-2.3c0.8-1,1.7-1.4,2.8-1.4c0.6,0,1.1,0.1,1.6,0.4c0.7,0.3,1.2,0.8,1.5,1.4c0.3,0.6,0.5,1.6,0.7,3
		c0.8,5.5,1.8,8.7,3.1,9.5c0.1,0,0.2,0.1,0.3,0.1c0.5,0,1-0.6,1.4-1.7c0.4-1.1,0.6-1.9,0.6-2.5c0-0.4,0.2-1,0.5-1.6
		c0.2-0.4,0.3-1.1,0.3-1.9c0-1.1,0-2.1-0.1-3.1c-0.1-0.9-0.1-1.9-0.1-3.2c0-1.2,0.1-2,0.4-2.5c0.2-0.5,0.7-0.9,1.4-1.3
		C397.2,19.2,397.7,19.1,398.3,19.1z"/>
	<path d="M412,40.6c0.7,0,1.5,0.3,2.4,0.8c1.7,1,2.6,1.9,2.6,2.8c0,1.2-1.3,1.9-4,2.1c-0.3,0-0.6,0.1-0.9,0.1
		c-0.4,0-0.9-0.2-1.4-0.6c-0.5-0.5-0.7-1.1-0.7-2C410.1,41.6,410.7,40.6,412,40.6z M414.4,13.3c0.5,0,0.9,0.2,1.3,0.6
		c0.4,0.4,0.6,1,0.6,1.9c0,1.1-0.2,4.8-0.7,11s-0.7,9.6-0.9,10.1c-0.2,1-0.9,1.5-2,1.5c-0.9,0-1.6-0.4-2-1.1
		c-0.1-0.3-0.1-0.6-0.1-1.1c0-0.6,0.1-1.8,0.2-3.4c0.3-3.6,0.6-7.2,0.8-11.1c0.3-4.5,0.6-7,0.8-7.4C413,13.6,413.6,13.3,414.4,13.3z
		"/>
</g>
</svg>
