<?xml version="1.0" encoding="utf-8"?>
<!-- Generator: Adobe Illustrator 26.4.0, SVG Export Plug-In . SVG Version: 6.00 Build 0)  -->
<svg version="1.1" id="Layer_1" xmlns="http://www.w3.org/2000/svg" xmlns:xlink="http://www.w3.org/1999/xlink" x="0px" y="0px"
	 viewBox="0 0 1616.8 228.1" style="enable-background:new 0 0 1616.8 228.1;" xml:space="preserve">
<style type="text/css">
	.st0{fill-rule:evenodd;clip-rule:evenodd;fill:#AB3023;}
	.st1{fill-rule:evenodd;clip-rule:evenodd;fill:#C76D7F;}
	.st2{fill-rule:evenodd;clip-rule:evenodd;fill:#757D9F;}
	.st3{fill-rule:evenodd;clip-rule:evenodd;fill:#065A93;}
	.st4{fill-rule:evenodd;clip-rule:evenodd;fill:#B39E3A;}
	.st5{fill-rule:evenodd;clip-rule:evenodd;fill:#047D6C;}
	.st6{fill-rule:evenodd;clip-rule:evenodd;fill:#0AFAF9;}
	.st7{fill-rule:evenodd;clip-rule:evenodd;fill:#FFFFA6;}
	.st8{fill-rule:evenodd;clip-rule:evenodd;fill:#EC815D;}
	.st9{fill-rule:evenodd;clip-rule:evenodd;fill:#F7F8FC;}
	.st10{fill-rule:evenodd;clip-rule:evenodd;fill:#FFFFFF;}
	.st11{fill-rule:evenodd;clip-rule:evenodd;fill:#05A38D;}
	.st12{fill-rule:evenodd;clip-rule:evenodd;fill:#FDE153;}
	.st13{fill-rule:evenodd;clip-rule:evenodd;fill:#0883D6;}
	.st14{fill-rule:evenodd;clip-rule:evenodd;fill:#A1ADDC;}
	.st15{fill-rule:evenodd;clip-rule:evenodd;fill:#FF8CA2;}
	.st16{fill-rule:evenodd;clip-rule:evenodd;fill:#FC4733;}
	.st17{fill-rule:evenodd;clip-rule:evenodd;}
</style>
<path class="st0" d="M1056.3,69.4l0.2,10.2l1,5.9l1,5.9l1.3,2.5l1.3,2.5l0.8,0.5l0.8,0.5l3.3,0l3.3,0l1.5,0.8l1.5,0.8l7.7,0.3
	l7.7,0.3v-0.7v-0.7l-3.7-1.7l-3.7-1.7l-2,0.1l-2,0.1l-4.7-0.6l-4.7-0.6l-1.8-0.4l-1.8-0.4v-1.6v-1.6l-1.2-1.8l-1.2-1.8l-0.4-5.5
	l-0.4-5.5l-0.5-6.2l-0.5-6.2l-1.4-0.4l-1.4-0.4l-0.2-1.7l-0.2-1.7L1056.3,69.4 M1090.8,106.8l-0.6,0.9l0.5,9.6l0.5,9.6l0.3,3.9
	l0.3,3.9l0.8,7.9l0.8,7.9l1.3,7.8l1.3,7.8l0.9,1.1l0.9,1.1l3.3,1.4l3.3,1.4l2.5-0.7l2.5-0.7l10,0.3l10,0.3l-3.2-1.5l-3.2-1.5l-7,0
	l-7,0l-3.7-1l-3.7-1l-2.1-9.5l-2.1-9.5l0-2.3l0-2.3l-0.9-5.2l-0.9-5.2l-0.7-1.6l-0.7-1.6l-0.7-10.5l-0.7-10.5l-0.8-0.8l-0.8-0.8
	L1090.8,106.8"/>
<path class="st1" d="M983.4,65.3l0,3.3l-0.9,11.8l-0.9,11.8l0.4,9.1l0.4,9.1l0.4,2.4l0.4,2.4l0.7,9.1l0.7,9.1l0.8,4.7l0.8,4.7
	l0.4,5.4l0.4,5.4l0.4,0.7l0.4,0.7l1.1,4.1l1.1,4.1l-0.3,0.5l-0.3,0.5l1.6,3.6l1.6,3.6l1.7,1.1l1.7,1.1l5,0.6l5,0.6l5.5,0.1l5.5,0.1
	l0.9-0.6l0.9-0.6l-0.8-0.8l-0.8-0.8l-7.4,0l-7.4,0l-3.2-0.8l-3.2-0.8l-1.4-1.2l-1.4-1.2l-0.8-2.8l-0.8-2.8l-0.4-3.5l-0.4-3.5
	l-1.1-2.1l-1.1-2.1l-0.5-4.2l-0.5-4.2l-0.3-0.5l-0.3-0.5l-0.5-5.8l-0.5-5.8l0.1-27.2l0.1-27.2l0.3-5.1l0.3-5.1l-0.7-1.3l-0.7-1.3
	l-1.1-0.4l-1.1-0.4V65.3"/>
<path class="st2" d="M818.7,64.5l0.5,1.2l-1.2,4.5l-1.2,4.5l0.3,0.9l0.3,0.9l-0.7,3.9l-0.7,3.9l-0.5,21.3l-0.4,21.3l0,1.2l0,1.2
	l0.3,12.2l0.3,12.2l1.2,5.1l1.2,5.1l0.7,3.1l0.7,3.1l2.7,0.6l2.7,0.6l7.5-0.4l7.5-0.4l3.7-1.3l3.7-1.3v-1.7v-1.7l1.2-3.4l1.2-3.4v-3
	v-3l0.8-3.4l0.8-3.4l0.8-4.4l0.8-4.4l3.2-1.4l3.2-1.4l1.7,1.3l1.7,1.3l2.8,3.3l2.8,3.3l0.5-0.3l0.5-0.3l4.6,5.1l4.6,5.1h1h1l0.8,1.6
	l0.8,1.6h1.2h1.2l5.2-5.4l5.2-5.4l2.4-2.8l2.4-2.8l1.6-2.2l1.6-2.2l2-1.9l2-1.9l2.5-0.5l2.5-0.5l0.9,0.6l0.9,0.6l1.5,3.5l1.5,3.5
	l-0.5,1.5l-0.5,1.5l0.8,2.1l0.8,2.1l0.4,4.9l0.4,4.9l2,7.6l2,7.6l1.3,0.3l1.3,0.3l2.6-0.5l2.6-0.5l3.2,0.7l3.2,0.7l0.9-0.6l0.9-0.6
	l4.3-0.2l4.3-0.2l0.3-0.8l0.3-0.8h1.1h1.1v-0.8v-0.8h-1.4h-1.4l-0.8,0.8l-0.8,0.8l-5.5,0.3l-5.5,0.3l-5.5-0.9l-5.5-0.9l-0.7-2.4
	l-0.7-2.4l0.4-1.7l0.4-1.7l-1.2-10l-1.2-10l-1.1-2.2l-1.1-2.2l-3.5-2.9l-3.5-2.9h-2.4h-2.4l-3.4,3.1l-3.4,3.1l-8.1,7.9l-8.1,7.9H883
	h-0.7l-8.5-8.5l-8.5-8.5l-3.7-1.3l-3.7-1.3l-1.6,0.3l-1.6,0.3l-2,2.2l-2,2.2l-0.9,3.2l-0.9,3.2l-1.1,3.2l-1.1,3.2l-0.5,5.5L846,160
	l-0.4,2.4l-0.4,2.4l-2.3,1l-2.3,1l-6.2,1.1l-6.2,1.1l-0.8-0.5l-0.8-0.5l-2.5,0.2l-2.5,0.2l-0.8-2.6l-0.8-2.6l-0.9-6.3l-0.9-6.3
	l-0.5-13l-0.5-13l0.1-10.6l0.1-10.6l0.5-5.1l0.5-5.1l0.8-8.7l0.8-8.7l0.3-3.5l0.3-3.5l0.9-0.3l0.9-0.3v-1v-1l-2.1-1.4l-2.1-1.4
	L818.7,64.5 M918.9,66.7l-0.8,0.7l-4.5,3.9l-4.5,3.9l-2,2.9l-2,2.9l-2.3,2.5l-2.3,2.5l0,0.6l0,0.6l-7.1,7.2l-7.1,7.2l0.3,0.3
	l0.3,0.3l2.1-0.9l2.1-0.9l4.9-6l4.9-6l3.9-4.3l3.9-4.3l3.9-4l3.9-4l2.7-3l2.7-3l-1.1,0l-1.1,0L918.9,66.7"/>
<path class="st3" d="M697.9,68.9l-0.9,6.8l-0.7,7.5l-0.7,7.5l-0.5,7.1l-0.5,7.1l0,15.8l0,15.8l0.9,6.8l0.9,6.8l2.1,8.5l2.1,8.5
	l1.9,3.8l1.9,3.8l2.1,0.1l2.1,0.1l0.7-0.1l0.7-0.1l2.5,0.8l2.5,0.8l12.6,0.1l12.6,0.1l4.5-0.5l4.5-0.5l4.1-0.9l4.1-0.9l2.4-0.3
	l2.4-0.3l6.2-3l6.2-3l2.3-1.9l2.3-1.9L777,164l-2.3,0.5l-0.8,0.6l-0.8,0.6l-4.7,1.7l-4.7,1.7l-1.7,0.2l-1.7,0.2l-1.7,0.9l-1.7,0.9
	l-8.1,0.8l-8.1,0.8l-7.9,0.3l-7.9,0.3l-9-1l-9-1l-1.4-2.4l-1.4-2.4l-0.8-1.8l-0.8-1.8v-1.6v-1.6l-0.9-1.6l-0.9-1.6l-0.3-2.9
	l-0.3-2.9l-0.6-5.9l-0.6-5.9l-0.2-4.3l-0.2-4.3l-0.4-10.7l-0.4-10.7l1.1-12.2l1.1-12.2l0-3l0-3l0.7-0.9l0.7-0.9l0.4-6.7l0.4-6.7
	l-1.8-0.8l-1.8-0.8L697.9,68.9 M729.7,71.3l-2.5,0.6l-2.9,1.8l-2.9,1.8l-0.8,1.5l-0.8,1.5v0.8V80l1.5-1.4l1.5-1.4l1.9-1.5l1.9-1.5
	l2.7-1.2L732,72l4.8,0l4.8,0l2.3,0.9l2.3,0.9l4.1,3.5l4.1,3.5l1.3,4.1l1.3,4.1l-0.8,3.9l-0.8,3.9l1.5-1.8l1.5-1.8l-0.3-4.9l-0.3-4.9
	l-1.8-3.2l-1.8-3.2l-3-2.6l-3-2.6l-3-0.7l-3-0.7l-5.1,0.1l-5.1,0.1L729.7,71.3 M732.8,116.8l-1.7,0.3l-1.5,1.7l-1.5,1.7l1.5-0.5
	l1.5-0.5l2.1-0.5l2.1-0.5l2.1-0.8l2.1-0.8l4.3,1.3l4.3,1.3l4.1,3.7l4.1,3.7l2.1,3.9l2.1,3.9l-0.3,4.8l-0.3,4.8l-0.4,0.8l-0.4,0.8
	l0.8,0.3l0.8,0.3l1.5-2.6l1.5-2.6l-0.5-3.8l-0.5-3.8l-1.9-2.8l-1.9-2.8v-0.7v-0.7l-4-3.9l-4-3.9l-3.6-1.2l-3.6-1.2l-4.4,0.1
	l-4.4,0.1L732.8,116.8"/>
<path class="st4" d="M561,64.1l-0.8,0.5l-1.4,3.9l-1.4,3.9l-0.6,0.8l-0.6,0.8l0.2,2.8l0.2,2.8l-0.7,0.9l-0.7,0.9l-0.7,8.6l-0.7,8.6
	l0.3,14.4l0.3,14.4l0.8,1.5l0.8,1.5l-0.2,1l-0.2,1l0.9,4.2l0.9,4.2l-0.5,0.8l-0.5,0.8l1.1,1.3l1.1,1.3l1.3,2.7l1.3,2.7v0.7v0.7
	l1.8,2.5l1.8,2.5l1.6,1.7l1.6,1.7l4.3,4.5l4.3,4.5h1.2h1.2l1.3,1.1l1.3,1.1l5.9,2.5l5.9,2.5l4.3,0.7l4.3,0.7l5.9,0.6l5.9,0.6
	l1.2-0.1l1.2-0.1l5.5-0.8l5.5-0.8l5.5-2.1l5.5-2.1l1.6-0.9l1.6-0.9l3.7-1.9l3.7-1.9v-0.2v-0.2l-5.7,1.9l-5.7,1.9l-5.9,2.1l-5.9,2.1
	l-6.3,0.3l-6.3,0.3l-0.8,0l-0.8,0l-5.5-0.4l-5.5-0.4l-2.6-0.8l-2.6-0.8l-0.2,0l-0.2,0l-2.4-0.6l-2.4-0.6l-3.9-2l-3.9-2l-2.3-1.7
	l-2.3-1.7l-4.7-5.5l-4.7-5.5l-2.7-5.7l-2.7-5.7l-0.5-3.8l-0.5-3.8l-1-1.7l-1-1.7l0-1.5l0-1.5l-0.9-3.5l-0.9-3.5l0.4-15.8l0.4-15.8
	l1.2-5.5l1.2-5.5l1.3-6.1l1.3-6.1l-1.1-1.6l-1.1-1.6L561,64.1 M633,66.3l-0.5,0.5l0.7,1.3l0.7,1.3l0.5,4.7l0.5,4.7l-0.1,8.3
	l-0.1,8.3l-0.3,3.9l-0.3,3.9l-0.8,6.3l-0.8,6.3l-0.9,2.8l-0.9,2.8l-2.4,4.9l-2.4,4.9l-2.2,2.4l-2.2,2.4L619,138l-2.6,1.9h1.2h1.2
	l3.8-3.2l3.8-3.2l3-4.5l3-4.5l0.4-2l0.4-2l1.3-3.1l1.3-3.1l0.1-2.4l0.1-2.4l1-5.9l1-5.9L637.6,85l-0.5-12.8l-1.8-3.2l-1.8-3.2
	L633,66.3"/>
<path class="st5" d="M449,81.6l-2.6,5.5l-0.8,6.7l-0.8,6.7l0.2,2.5l0.2,2.5l0.6,0.8l0.6,0.8l0.6,2.7l0.6,2.7l2.5,4.6l2.5,4.6
	l4.7,3.1l4.7,3.1l2.4,0.4l2.4,0.4l2.3,1.2l2.3,1.2l6.2,1.3l6.2,1.3l1.4,0.8l1.4,0.8h0.6h0.6l-1.7-1.2l-1.7-1.2l-6.6-1.7l-6.6-1.7
	l-5-2.3l-5-2.3l-2.5-2.3l-2.5-2.3l-1.6-1.4l-1.6-1.4l-2.2-4.7l-2.2-4.7l-0.4-5.7l-0.4-5.7l0.9-6.1l0.9-6.1l1.2-2.6l1.2-2.6l-0.2-1.6
	l-0.2-1.6L449,81.6 M481.9,84.7l-2,0.5l-1.3,0.8l-1.3,0.8l-1.3,3.1l-1.3,3.1l2.6-2.9l2.6-2.8l1.6-0.8l1.6-0.8l5,0.1l5,0.1l3.3,3.8
	l3.3,3.8l0.9,0l0.9,0l-0.4-1.5l-0.4-1.5l-2.1-1.9l-2.1-1.9l-3.6-1.3l-3.6-1.3l-2.7,0.1l-2.7,0.1L481.9,84.7 M445.7,150.2l0,2
	l1.9,4.1l1.9,4.1l1.8,2.7l1.8,2.7l5.8,4.9l5.8,4.9l2.1,0.5l2.1,0.5l2.5,1.4l2.5,1.4l7.7,0.8l7.7,0.8l0.7-0.7l0.7-0.7l-5-0.5l-5-0.5
	l-3.2-0.9l-3.2-0.9l-0.7-0.7l-0.7-0.7h-1.3h-1.3l-0.9-1.1l-0.9-1.1l-2.7-0.9l-2.7-0.9l-5.9-5.8l-5.9-5.8l-2.7-5.8l-2.7-5.8
	L445.7,150.2"/>
<path class="st6" d="M726.6,54.1l-2.4,0.7l-3.5,0.3l-3.5,0.3l-4.9,1.3l-4.9,1.3l-3.6,1.6l-3.6,1.6l1,0.6l1,0.6l1.3-0.4l1.3-0.4
	l1.2-0.9l1.2-0.9l9-1.4l9-1.4l6.4-0.2l6.4-0.2l5.9,0.6l5.9,0.6l5.5,1.7l5.5,1.7l3,1.5l3,1.5l4.1,4.4l4.1,4.4l1.4,3l1.4,3l0.7,5.3
	l0.7,5.3l-0.7,1.7l-0.7,1.7l-1.3,4.3l-1.3,4.3l-0.4,4l-0.4,4l4,7.1l4,7.1l1.7,4.3l1.7,4.3l0.7,0.8l0.7,0.8l0.5,7.5l0.5,7.5l-2.5,4.6
	l-2.5,4.6l0.3,0.3l0.3,0.3l2-2.2l2-2.2l1.3-3.5l1.3-3.5l0.3-5.1l0.3-5.1l-0.9-3.6l-0.9-3.6l-2.7-4.4l-2.7-4.4v-0.7v-0.7l-1.9-2
	l-1.9-2l-2.1-3.9l-2.1-3.9v-4v-4l1.2-1.5l1.2-1.5l0-1.7l0-1.7l1.2-2.4l1.2-2.4l-0.7-5.4l-0.7-5.4l-1.1-2.4l-1.1-2.4l-2.4-3.7
	l-2.4-3.7l-1.6-0.5l-1.6-0.5l-2.4-1.9l-2.4-1.9h-0.8h-0.8l-1.9-1.5l-1.9-1.5l-6.1-1.7l-6.1-1.7l-2.9,0l-2.9,0l-3.4-0.8l-3.4-0.8
	l-1.5,0.8l-1.5,0.8l-0.5-0.8l-0.5-0.8l-0.5,0.1l-0.5,0.1L726.6,54.1 M477.1,57.9l-5.2,1.3l-4.7,2.3l-4.7,2.3l-3,3l-3,3H456h-0.7
	l-0.5,1.2l-0.5,1.2h0.3h0.3l3.6-3.1l3.6-3.1l6.5-3.2l6.5-3.2l5.9-0.5l5.9-0.5l4.7,1l4.7,1l4.6,2.2l4.6,2.2l2.8,2.1l2.8,2.1l2.7,3
	l2.7,3l2.2,3l2.2,3l0.5,1.7l0.5,1.7h0.7h0.7v-1.3v-1.3l-2.4-3.8l-2.4-3.8v-0.6v-0.6l-4.5-4.1l-4.5-4.1l-1.7-1.6l-1.7-1.6h-0.8H505
	l-2.6-1.3l-2.6-1.3l-8.4-1.5l-8.4-1.5l-0.4,0l-0.4,0L477.1,57.9 M717.9,82.9l-1.4,1.4l0.4,7.4l0.4,7.4l2.1,3.1l2.1,3.1l2.5,1.9
	l2.5,1.9l2.2,0.6l2.2,0.6l-0.5-0.8l-0.5-0.8h-1.2h-1.2l-1-0.8l-1-0.8l-2.3-2.1l-2.3-2.1l-0.3-4l-0.3-4l-0.4-6.3l-0.4-6.3l-0.3-0.3
	l-0.3-0.3L717.9,82.9 M477.3,101.3l0.3,1.2l3.7,2.5l3.7,2.5l2.5,0.4l2.5,0.4l6.2,0.9l6.2,0.9l1.3,0.7l1.3,0.7l3.4,1.7l3.4,1.7
	l0.4-0.4l0.4-0.4l-1.5-0.6l-1.5-0.6l-2.3-2l-2.3-2l-2.9-0.6l-2.9-0.6l-4.7-0.4l-4.7-0.4l-5.5-2l-5.5-2l-1.1-1.4l-1.1-1.4
	L477.3,101.3 M749.7,103.2l-2.9,2.5l-4.6,1.8l-4.6,1.8l-2.3,0l-2.3,0l1.3,0.7l1.3,0.7l5.8-2l5.8-2l3.2-2.7l3.2-2.7l-0.4-0.4
	l-0.4-0.4L749.7,103.2 M517.5,119.2l2.8,3l2.5,3.5l2.5,3.5v0.8v0.8l1.7,3.1l1.7,3.1l-0.3,6.8l-0.3,6.8l-1.9,3.8l-1.9,3.8l-0.8,2
	l-0.8,2l-5.8,5.8l-5.8,5.8l-1.9,0.7l-1.9,0.7v0.8v0.8h0.5h0.5l2.9-1.7l2.9-1.7l0.6-1l0.6-1h0.8h0.8l2.4-2l2.4-2l3.1-3.7l3.1-3.7
	v-1.3v-1.3l0.8-0.3l0.8-0.3l1.1-4.7l1.1-4.7l0-3.9l0-3.9l-1.9-5.3l-1.9-5.3l-2.5-3.4l-2.4-3.4l-2.8-3l-2.8-3h-1.2h-1.2L517.5,119.2
	 M722.1,133l-0.2,2.6l0.3,4.2l0.3,4.2l0.9-0.3l0.9-0.3l-0.2-0.8l-0.2-0.8l-0.2-5.6l-0.2-5.6H723h-0.6L722.1,133 M458.9,142.7
	l-0.3,0.3l-3.5,0.4l-3.5,0.4l-1.3,0.4l-1.3,0.4l-0.5,1.2l-0.5,1.2l2-0.5l2-0.5l5.9-0.7l5.9-0.7l4,0.8l4,0.8l5.3,3.2l5.3,3.2h3.5h3.5
	l1.5-1.1l1.5-1.1l-3.8,0.8l-3.8,0.8L484,151l-0.9-0.9H482h-1.2l-2-1.8l-2-1.8l-4.3-1.6l-4.3-1.6l-4.5-0.4l-4.5-0.4L458.9,142.7
	 M723.5,147.2l0.5,2.6l1.3,2.7l1.4,2.7l2.7,1.5l2.7,1.5l4.7,0l4.7,0l3.2-1.2l3.2-1.2l2.2-0.7l2.2-0.7l3.2-2.5l3.2-2.5l-0.4-0.4
	l-0.4-0.4l-3,2.4l-3,2.4l-1.5,0.5l-1.5,0.5l-5.6,1.2l-5.6,1.2l-2.6,0l-2.6,0v-0.9v-0.9l-1,0.4l-1,0.4l-1.7-0.6l-1.7-0.6l-1.7-4.8
	l-1.7-4.8h-0.4h-0.4L723.5,147.2"/>
<path class="st7" d="M572.1,62.5l-2.4,0.3l-0.8,0.6l-0.8,0.6l-2.6-0.2l-2.6-0.2l0,0.5l0,0.5l0.7,1.1l0.7,1.1l9.3-0.3l9.3-0.3l2.8,1
	l2.8,1l0.5,1.4l0.5,1.4l-0.7,3.2l-0.7,3.2l-1.2,8.3l-1.2,8.3l-0.2,5.9l-0.2,5.9l1,8.3l1,8.3l1.3,3.5l1.3,3.5l0.4,1.8l0.4,1.8
	l4.3,3.9l4.3,3.9l1.7,0l1.7,0l-2-1.5l-2-1.5l-0.6,0l-0.6,0v-1.2v-1.2h-0.6h-0.6l-1.3-2.6l-1.3-2.6l-1.4-2.4l-1.4-2.4l-0.6-4.3
	l-0.6-4.3l-0.4-2.4l-0.4-2.4l0.1-9.5l0.1-9.5l0.8-7.5l0.8-7.5l1.6-5.9l1.6-5.9l-1.8-1.4l-1.8-1.4l-1.4,0.3l-1.4,0.3l-3-0.6l-3-0.6
	l-3.5-0.3l-3.5-0.3L572.1,62.5 M639.7,65.2l-1.4,0.5l-2.1,0.1l-2.1,0.1l0.8,1.8l0.8,1.8l12.3,0.2l12.3,0.2l2,0.4l2,0.4l1,5.5l1,5.5
	l0.3,7.5l0.3,7.5l0.4,0.6l0.4,0.6L667,112l-0.8,14.2l-1.1,2.1l-1.1,2.1v2.7v2.7l-1.6,3.2l-1.6,3.2l-0.7,3.3l-0.7,3.3l-1.3,1.9
	l-1.3,1.9v1v1l-3.4,5.2L650,165l1.5-0.9l1.5-0.9v-0.6V162l1,0l1,0l1.7-2.6l1.7-2.6l2.4-3.4l2.4-3.4v-0.4v-0.4l2.8-6.1l2.8-6.1
	l0.4-3.1l0.4-3.1l0.7-0.8l0.7-0.8l0.6-7.1l0.6-7.1L672,106l-0.1-9.1l-0.5-5.1l-0.5-5.1l-0.2-2.4l-0.2-2.4l-0.7-5.9l-0.7-5.9l0.2-1.3
	l0.2-1.3l-2.2-1.4l-2.2-1.4l-12.1-0.1l-12.1-0.1L639.7,65.2"/>
<path class="st8" d="M1097.2,56.8l-0.3,0.3l-10.6,0.5l-10.6,0.5l-2.8,0.3l-2.8,0.3l-6.2,0.3l-6.2,0.3l-0.3,0.3l-0.3,0.3l1,1.3l1,1.3
	l10.2-1.1l10.2-1.1l16.9-0.5l16.9-0.5l1-0.3l1-0.3l10.8,0.8l10.8,0.8l8.3,0.4l8.3,0.4l2.8,0.8l2.8,0.8h3.4h3.4l1.4,0.8l1.4,0.8
	l0.5,7.7l0.5,7.7l-0.9,5.5l-0.9,5.5l-0.4,3.7l-0.4,3.7h0.9h0.9l0.7-1.8l0.7-1.8l1.2-4.3l1.2-4.3l0.6-5.9l0.6-5.9l-0.2-0.7l-0.2-0.7
	l0-3.7l0-3.7l-0.8-2.8l-0.8-2.8l-10.4-1.3l-10.4-1.3l-26.9-0.3l-26.9-0.3L1097.2,56.8 M1137.8,111l-0.8,1l-0.5,1.7l-0.5,1.7
	l-0.3,19.9l-0.3,19.9l-0.5,2.9l-0.5,2.9l-1.9,3.3l-1.9,3.3v1.3v1.3l2.1-0.2l2.1-0.2l0.9-2l0.9-2l0.8-2.8l0.8-2.8l0.5-9.5l0.5-9.5
	l0.3-0.4l0.3-0.4l0-5.1l0-5.1l-0.2-10l-0.2-10h-0.5h-0.5L1137.8,111"/>
<path class="st9" d="M821.6,63.8v1.2l6.5-0.1l6.5-0.1l-3.9-0.6l-3.9-0.6l-2.6-0.6l-2.6-0.6V63.8 M835.8,63.4l5.2,0.5l1.4,1.4
	l1.4,1.4l1.3-0.1l1.3-0.1l-1.4-0.4l-1.4-0.4v-1v-1l-1-0.2l-1-0.2l-5.5-0.3l-5.5-0.3L835.8,63.4 M853.4,67.4l3.7,2.3v0.9v0.9
	l-1.4-1.2l-1.4-1.2l-1.2-0.6l-1.2-0.6l3.2,2.6l3.2,2.6l5.3,5.4l5.3,5.4l2.4,4.3l2.4,4.3v1.1v1.1l1.8,1.7l1.8,1.7h0.6h0.6l-1.9-1.8
	l-1.9-1.8l-0.5-2.4l-0.5-2.4l1.7,2l1.7,2l-0.6-1.2l-0.6-1.2l-1.5-2.2l-1.5-2.2l-0.9,0.5l-0.9,0.5l0.5-1.3l0.5-1.3l-1.5-1.1l-1.5-1.1
	l0.5-0.5l0.5-0.5l-6.2-6.4l-6.2-6.4l-3.1-2.3l-3.1-2.3h-0.8h-0.8L853.4,67.4 M951.5,120.8l-0.3,5.3l0.5,3.9l0.5,3.9l0.1-9.3l0.1-9.3
	h-0.3h-0.3L951.5,120.8"/>
<path class="st10" d="M1013.6,55.3l-0.4,0.4l-6.6,0.3l-6.6,0.3l-3.8,0.3l-3.8,0.3l-0.5,0.8l-0.5,0.8l-2.8,0.6l-2.8,0.6l-0.5,0
	l-0.5,0l-0.5,0.5l-0.5,0.5l1.8,1.2l1.8,1.2l4.3-1.1l4.3-1.1h1.9h1.8l1.7-0.9l1.7-0.9l8.9,0.1l8.9,0.1l3.1,1.6l3.1,1.6l0.4,0.6
	l0.4,0.6l0.5,13.4l0.5,13.4l0,18.1l0,18.1l-0.5,7.5l-0.5,7.5l-1.1,5.9l-1.1,5.9l-0.8,3.7l-0.8,3.7l-2,5.8l-2,5.8v0.5v0.5h1.1h1.1
	l2-4.1l2-4.1l0.4-2.4l0.4-2.4l0.4-4.2l0.4-4.2l0.4-2.5l0.4-2.5l0.8-1.5l0.8-1.5l0-2.6l0-2.6l0.4-7.5l0.4-7.5l0.3-6.3l0.3-6.3
	l0.3-21.5l0.3-21.5l-0.4-4.2l-0.4-4.2l-2-1.3l-2-1.3l-1.3-0.2l-1.3-0.2v-0.1v-0.1l-2.8-0.2l-2.8-0.2l-2.9-0.8L1014,55L1013.6,55.3
	 M932.7,62.7l-3.5,0.6l5.5,0.1l5.5,0.1l3.5,1l3.5,1l1,3.5l1,3.5l1.4,11l1.4,11l0,28.8l0,28.8l-0.4,6.6l-0.4,6.6l0.9,0.3l0.9,0.3
	l0.5-1.5l0.5-1.5l0.4-9.7l0.4-9.7l-0.1-5.9l-0.1-5.9l-0.4-5.9l-0.4-5.9l-0.4-11.8l-0.4-11.8l-0.1-4.3l-0.1-4.3l-0.5-0.8l-0.5-0.8
	l-0.2-6l-0.2-6l-0.7-2.4l-0.7-2.4l0.3-2.3l0.3-2.3l-2.9-0.9l-2.9-0.9l-4.3-0.3l-4.3-0.3L932.7,62.7 M828.9,63.6l-1.4,0.5l3.2,0.1
	l3.2,0.1l4.3,0.4l4.3,0.4l-0.6-0.6l-0.6-0.6l-5.5-0.4l-5.5-0.4L828.9,63.6 M843.7,64.8v0.7l4.7,1.3l4.7,1.3l3,2.5l3,2.5l1.6,1.2
	l1.6,1.2l-3.2-3.3l-3.2-3.3l-3.2-1.9l-3.2-1.9l-3-0.5l-3-0.5V64.8 M872.3,88.8l2.1,3.7v1.1v1.1l2.4,2.2l2.4,2.2l0.3-0.3l0.3-0.3
	l-4.3-6.2l-4.3-6.2l-0.6-0.5l-0.6-0.5L872.3,88.8"/>
<path class="st11" d="M479.2,59.6l-3.9,0.7l-4,1.7l-4,1.7l-4.3,2.8l-4.3,2.8l-1.5,1.5l-1.5,1.5h-1.5h-1.5l-0.5,1.8l-0.5,1.8l0,2l0,2
	l-1.1,2.1l-1.1,2.1l-1,6.7l-1,6.7l0.4,5.4l0.4,5.4l2.2,4.7l2.2,4.7l1.6,1.4l1.6,1.4l2.5,2.3l2.5,2.3l5,2.3l5,2.3l5.5,1.3l5.5,1.3
	l4,1.9l4,1.9h0.6h0.6l2.7,2l2.7,2l0,3.9l0,3.9H496h-0.7l-1.7,2l-1.7,1.9l-2.4,0.7l-2.4,0.7l-3-0.2l-3-0.2l-1.4-1.2l-1.4-1.2
	l-3.9-2.1l-3.9-2.1l-5.2-0.5l-5.2-0.5l-4.7,0.9l-4.7,0.9l-2.6-0.1l-2.6-0.1v0.3v0.3l2.7,6l2.8,6l5.9,5.8l5.9,5.8l2.7,0.9l2.7,0.9
	l0.9,1.1l0.9,1.1h1.4h1.4l0.4,0.7l0.4,0.7l4.2,0.9l4.2,0.9l4.9,0.8l4.9,0.8l4.2-1.1l4.2-1.1l2.9,0l2.9,0l0.5-1.6l0.5-1.6h0.8h0.8
	l4.1-3.3l4.1-3.3l2.9-3.7l2.9-3.7l0.9-2.6l0.9-2.6l1-1.6l1-1.6l0.8-6.2l0.8-6.2l-0.5-2.1l-0.5-2.1l-1-1.6l-1-1.6l-0.6-2l-0.6-2l-3-4
	l-3-4l-2.6-2.5l-2.6-2.5l-3.2-1.6l-3.2-1.6l-2-0.8l-2-0.8l-2.8-0.9l-2.8-0.9l-5.5-0.5l-5.5-0.5l-2.4-1.2l-2.4-1.2L479,104l-2.5-1.8
	l-0.5-2.6l-0.5-2.6l-0.2-2.4l-0.2-2.4l1.1-2.7l1.1-2.7l1.3-1l1.3-1l4.3-0.5l4.3-0.5l4,1.4l4,1.4l1.9,1.7l1.9,1.7l0.7,1.9l0.7,1.9
	l2.2-0.6l2.2-0.6l1.3-0.3l1.3-0.3l6.1-2.2l6.1-2.2l0.4-1.1l0.4-1.1h1.1h1.1l-1.6-1.6l-1.6-1.6v-1.2V80h-0.8h-0.8l-0.5-1.4l-0.5-1.4
	l-3.4-4l-3.4-4l-4.2-2.9l-4.2-2.9h-0.8H501l-2.3-1.2l-2.3-1.2l-1.3,0l-1.3,0l-0.5-0.7l-0.5-0.7l-1.4,0.1l-1.4,0.1l-3.5-0.4l-3.5-0.4
	L479.2,59.6"/>
<path class="st12" d="M570.8,66.4l-6.9,0.2l-0.5,2.9l-0.5,2.9l-0.7,2.8l-0.7,2.8l-1.2,5.9l-1.2,5.9l-0.4,15.8l-0.4,15.8l0.9,3.5
	l0.9,3.5l0,1.5l0,1.5l1,1.7l1,1.7l0.5,3.8l0.5,3.8l2.7,5.7l2.7,5.7l4.7,5.5l4.7,5.5l2.3,1.7l2.3,1.7l3.9,2l3.9,2l2.2,0.5l2.2,0.5
	l0.4,0l0.4,0l2.6,0.8l2.6,0.8l5.5,0.4l5.5,0.4l0.8,0l0.8,0l6.3-0.3l6.3-0.3l5.9-2.1l5.9-2.1l6-2l6-2l1.5-1.8l1.5-1.8l-1.4,1l-1.3,1
	l3.5-5.4l3.5-5.4v-1v-1l1.3-1.9l1.3-1.9l0.7-3.3l0.7-3.3l1.6-3.2l1.6-3.2V133v-2.7l1.1-2.1l1.1-2.1L667,112l0.8-14.2l-0.4-0.6
	l-0.4-0.6l-0.3-7.5l-0.3-7.5l-1-5.5l-1-5.5l-2.4-0.4l-2.4-0.4l-10.4-0.4l-10.4-0.4l-1.7,0.4l-1.7,0.4l0.8,0.9l0.8,0.9l0.5,13l0.5,13
	l-1,5.9l-1,5.9L636,112l-0.1,2.4l-1.3,3.1l-1.3,3.1l-0.4,2l-0.4,2l-3,4.5l-3,4.5l-3.6,3l-3.6,3l-4.3,1l-4.3,1l-4.5-1.1l-4.5-1.1
	l0.4,0.7l0.4,0.7H601h-1.6l-4.3-3.9l-4.3-3.9l-0.4-1.8l-0.4-1.8l-1.3-3.5l-1.3-3.5l-1-8.3l-1-8.3l0.2-5.9l0.2-5.9l1.2-8.3l1.2-8.3
	l0.7-3.2l0.7-3.2l-0.6-1.6l-0.6-1.6l-2.6-0.6l-2.6-0.6l-2.8-0.1l-2.8-0.1L570.8,66.4"/>
<path class="st13" d="M715.6,59.1l-8.7,1.6l-1.7,1l-1.7,1l-1.8,0.1l-1.8,0.1l1.3,0.4l1.3,0.3l-0.4,6.8l-0.4,6.8l-0.7,0.9l-0.7,0.9
	l0,3l0,3l-1.1,12.2l-1.1,12.2l0.4,10.7l0.4,10.7l0.2,4.3l0.2,4.3l0.6,5.9l0.6,5.9l0.3,2.9l0.3,2.9l0.9,1.6l0.9,1.6v1.6v1.6l0.8,1.8
	l0.8,1.8l1.4,2.4l1.4,2.4l9,1l9,1l7.9-0.3l7.9-0.3l8.1-0.8l8.1-0.8l1.7-0.9l1.7-0.9l1.7-0.2l1.7-0.2l4.7-1.7l4.7-1.7l0.8-0.6
	l0.8-0.6l2.6-0.5l2.6-0.5V162v-1.4l1.2-1l1.2-1l2.4-4.7l2.4-4.7l-0.3-7.2l-0.3-7.2l-2.6-5.5l-2.6-5.5l-1.1-2l-1.1-2l-1.4-2.8
	l-1.4-2.8l-1.2-1.4l-1.2-1.4l0-4.1l0-4.1l1.4-4.7l1.4-4.7l0.8-2.6l0.8-2.6l-0.5-4.6l-0.5-4.6l-1.7-3.1l-1.7-3.1l-4-4.2l-4-4.2
	l-1.7-1l-1.7-1l-6.1-1.9l-6.1-1.9l-3.9-0.6l-3.9-0.6l-9.1-0.2l-9.1-0.2L715.6,59.1 M729.6,71.3L727,72l-3.1,2.1l-3.1,2.1l-0.5,2.2
	l-0.5,2.2l-1.5,1.2l-1.5,1.2l-0.4,4.7l-0.4,4.7l0.9,4.4l0.9,4.4l3.8,4l3.8,4l1.8,0.4l1.8,0.4l3.5,0.7l3.5,0.7l6-2l6-2l3.2-3.1
	l3.2-3.1l0.6-1.9l0.6-1.9l1.4-1.8l1.4-1.8l-0.3-4.9l-0.3-4.9l-1.8-3.2l-1.8-3.2l-3-2.6l-3-2.6l-3-0.7l-3-0.7l-5.1,0.1l-5.1,0.1
	L729.6,71.3 M732.7,116.8l-1.8,0.3l-1.4,1.9l-1.4,1.9l-2.2,2.5l-2.2,2.5v1.4v1.4l-1,0.3l-1,0.3l-0.3,5.9l-0.3,5.9l1.7,6.3l1.7,6.3
	l0.9,1.1l0.9,1.1l2,1l2,1l4.5,0.6l4.5,0.6l3-0.9l3-0.9l2.5-1.1l2.5-1.1h0.8h0.8l2.7-1.8l2.7-1.8l1.3-2.4l1.3-2.4l1.6-2.7l1.6-2.7
	l-0.5-3.8l-0.5-3.8l-1.9-2.8l-1.9-2.8v-0.7v-0.7l-4-3.9l-4-3.9l-3.6-1.2l-3.6-1.2l-4.4,0.1l-4.4,0.1L732.7,116.8"/>
<path class="st14" d="M820.6,64.8l1.8,1.2v1v1l-0.9,0.3l-0.9,0.3l-0.3,3.5l-0.3,3.5l-0.8,8.7l-0.8,8.7l-0.5,5.1l-0.5,5.1l-0.1,10.6
	l-0.1,10.6l0.5,13l0.5,13l0.9,6.3l0.9,6.3l0.8,2.6l0.8,2.6l2.5-0.2l2.5-0.2l0.8,0.5l0.8,0.5l6.2-1.1l6.2-1.1l2.3-1l2.3-1l0.4-2.4
	l0.4-2.4l0.5-5.5l0.5-5.5l1.1-3.2l1.1-3.2l0.9-3.2l0.9-3.2l2-2.2l2-2.2l1.6-0.3l1.6-0.3l3.7,1.3l3.7,1.3l8.5,8.5l8.5,8.5h0.7h0.7
	l8.1-7.9l8.1-7.9l3.4-3.1l3.4-3.1h2.4h2.4l3.5,2.9l3.5,2.9l1.1,2.2l1.1,2.2l1.2,10l1.2,10l-0.4,1.7l-0.4,1.7l0.7,2.4l0.7,2.4
	l5.5,0.9l5.5,0.9l5.5-0.3l5.5-0.3l0.8-0.8l0.8-0.8h1.4h1.4l0.3,0.8l0.3,0.8l1.9-0.7l1.9-0.7l-1.6-0.4l-1.6-0.4l0.3-20.8l0.3-20.8
	l0.2-7.5l0.2-7.5l-0.6-9.1l-0.6-9.1l-1.2-9.9l-1.2-9.9l-0.5-2.7l-0.5-2.7l-3.1-1.1l-3.1-1.1l-6.1,0l-6.1,0l-3.2,0.9l-3.2,0.9
	l-0.9-0.6l-0.9-0.6l0.5,0.8l0.5,0.8l-6.5,6.8l-6.5,6.8l-3.9,4.2l-3.9,4.2l-5,6l-5,6l-2.3,1l-2.3,1l-2.2-0.6l-2.2-0.6l-1-0.2l-1-0.2
	l-3.2-3l-3.2-3v-1v-1l-2.6-4.5l-2.6-4.5l-6.8-6.7l-6.8-6.7l-1.9-0.9l-1.9-0.9l-4.3-1.4l-4.3-1.4l-10.2-0.4L822,64.9l-0.3-0.7
	l-0.3-0.7l-1.3,0l-1.3,0L820.6,64.8"/>
<path class="st15" d="M996.1,61.8l-9.5,1.9l0,4.8l0,4.8l-0.2,29.6l-0.2,29.6l0.9,5.9l0.9,5.9l0.5,3.2l0.5,3.2l1.1,2.7l1.1,2.7
	l0.8,5.2l0.8,5.2l1.2,1.8l1.2,1.8l2.1,0.8l2.1,0.8l8.5,0.3l8.5,0.3l1.4,0.4l1.4,0.4l0.9-1.8l0.9-1.8l1.7-5.1l1.7-5.1l0.3-2l0.3-2
	l1.3-5.9l1.3-5.9l0.5-10.3l0.5-10.3l-0.1-15.4l-0.1-15.4l-0.4-13.8l-0.4-13.8l0-0.5l0-0.5l-2.8-1.7l-2.8-1.7l-8-0.2l-8-0.2
	L996.1,61.8"/>
<path class="st16" d="M1114.8,59l-0.4,0.3l-16.9,0.5l-16.9,0.5l-8.3,0.8l-8.3,0.8l-2.4,0.4l-2.4,0.4l0.6,4.9l0.6,4.9l0.5,7.1
	l0.5,7.1l1.2,1.8l1.2,1.8v1.6v1.6l1.8,0.4l1.8,0.4l4.7,0.6l4.7,0.6l2.2-0.1l2.2-0.1l3.3,1.7l3.3,1.7l1.8,1.9l1.8,1.9v1.8v1.8
	l0.9,0.9l0.9,0.9l0.7,10.5l0.7,10.5l0.7,1.6l0.7,1.6l0.9,5.2l0.9,5.2l0,2.3l0,2.3l2.1,9.5l2.1,9.5l3.7,1l3.7,1l7,0l7,0l2.6,1.1
	l2.6,1.1h1.2h1.2v-1.2v-1.2l1.9-3.3l1.9-3.3l0.5-2.9l0.5-2.9l0.3-20.1l0.3-20.1l0.8-2.1l0.8-2.1l1.1-0.4l1.1-0.4l0.5-2.2l0.5-2.2
	l2.7-2.6l2.7-2.6l5-0.2l5-0.2l2.7-0.5l2.7-0.5l2.4-0.3l2.4-0.3l0.5-0.1l0.5-0.1l0.4-3.7l0.4-3.7l0.9-5.5l0.9-5.5l-0.5-7.7l-0.5-7.7
	l-1.4-0.8l-1.4-0.8h-3.4h-3.4l-2.8-0.8l-2.8-0.8l-8.2-0.3l-8.2-0.3l-6.4-0.5l-6.4-0.5l-4.8-0.4l-4.8-0.4L1114.8,59"/>
<path class="st17" d="M733.9,43.4l-0.4,0.4l-9.4,1.1l-9.4,1.1l-5.7,1.6l-5.7,1.6l-5.1,3l-5.1,3l-1.6,2.4l-1.6,2.4l-0.5,2.4l-0.5,2.4
	l-0.3,3.2l-0.3,3.2l-0.7,6.3l-0.7,6.3l-0.5,1.3l-0.5,1.3l-0.3,5.1l-0.3,5.1l-0.4,11l-0.4,11l-0.1,1l-0.1,1l0.1,6.5l0.1,6.5l0.5,0.7
	l0.5,0.7l0.3,2.4l0.3,2.4l0.3,3.8l0.3,3.8l0.4,1.7l0.4,1.7l0.5,5.5l0.5,5.5l1.1,2.7l1.1,2.7l-0.5,0.8l-0.5,0.8l1.3,1.4l1.3,1.4
	l0.3,3.5l0.3,3.5l2.5,2.1l2.5,2.1l0.9,0.1l0.9,0.1l5.5,1.3l5.5,1.3l9.9,0.4l9.9,0.4l3.2,0.1l3.2,0.1l6.5-0.6l6.5-0.6l3.4-0.5
	l3.4-0.5l5.1-1.6l5.1-1.6l7.1-3.6l7.1-3.6l4.2-3.4l4.2-3.4h0.6h0.6l1.1-2.2l1.1-2.2l2-2.8l2-2.8l1.3-2.4l1.3-2.4l0.9-4.7l0.9-4.7
	l0-2.4l0-2.4l-3.1-9.8l-3.1-9.8l-2-2.6l-2-2.6l-1-1.1l-1-1.1l-1.4-2.1l-1.4-2.1v-1.3v-1.3l1.1-1.2l1.1-1.2l0.4-3.2l0.4-3.2l0.8-3.9
	l0.8-3.9l-0.5-4.7l-0.5-4.7l-1.1-4.1l-1.1-4.1l-1.5-2l-1.5-2v-0.8v-0.8l-3.7-3.6l-3.7-3.6h-0.7h-0.7l-1.3-1.4l-1.3-1.4l-3.3-1.5
	l-3.3-1.5v-0.6v-0.6l-1,0l-1,0l-2.1-1.1l-2.1-1.1l-3-0.2l-3-0.2l-0.9-0.7l-0.9-0.7l-3.3-0.3l-3.3-0.3l-1-0.6l-1-0.6l-4.1-0.1
	l-4.1-0.1l-0.7-0.4l-0.7-0.4L733.9,43.4 M1005.2,44.7l-4.3,0.6l-4.7,0.7l-4.7,0.7l-3.2,0.7l-3.2,0.7l-1.6,0.8l-1.6,0.8l-2.2,1
	l-2.2,1l-1.5,2.1l-1.5,2.1l-0.4,1.9l-0.4,1.9l-0.5,1.2l-0.5,1.2l-0.4,6.7l-0.4,6.7l0,18.5l0,18.5l0.6,4.7l0.6,4.7l0.2,4.3l0.2,4.3
	h0.1h0.1l0.3,3.5l0.3,3.5l0.5,2l0.5,2l0.3,4.2l0.3,4.2l0.8,2.5l0.8,2.5l-0.3,1.6l-0.3,1.6l2.1,6.4l2.1,6.4l2.2,3.7l2.2,3.7l5,2.3
	l5,2.3l11,0.9l11,0.9l1.6-0.9l1.6-0.9h2.8h2.8l2.8-2.5l2.8-2.5l1.1-2.1l1.1-2.1l-0.5-0.5l-0.5-0.5l1.2-1.9l1.2-1.9l0.8-3.1l0.8-3.1
	l0.5-2.8l0.5-2.8l0.3-2.8l0.3-2.8l0.3-3.8l0.3-3.8l0.6-6.1l0.6-6.1l0.2-2.4l0.2-2.4l0.6-5.1l0.6-5.1l-0.2-5.9l-0.2-5.9l0-1.2l0-1.2
	l0.4-3.9l0.4-3.9l0.1-4.3l0.1-4.3l-0.4-13.1l-0.4-13.1l-0.9-1.6l-0.9-1.6v-1.6V54l-2.1-2.3l-2.1-2.3l-5.3-1.6l-5.3-1.6l-2.7-0.5
	l-2.7-0.5l-4.9-0.3l-4.9-0.3l-0.6-0.3l-0.6-0.3L1005.2,44.7 M1087.5,46.8l-0.3,0.3l-6.1,0.3l-6.1,0.3l-3.5,0.4l-3.5,0.4l-3.3,0
	l-3.3,0v0.6v0.6l-3.9,0.5l-3.9,0.5l-2,1.6l-2,1.6l-1.3,2.5l-1.3,2.5l-0.3,7.3l-0.3,7.3l-0.4,0.6l-0.4,0.6l1.1,4.7l1.1,4.7l0,2.5
	l0,2.5l1.1,2.2l1.1,2.2l2.2,4.9l2.2,4.9l2.2,1l2.2,1v0.5v0.5l1.9,0.5l1.9,0.5l3.1,0.4l3.1,0.4l3.7,0.8l3.7,0.8l0.8-0.5l0.8-0.5
	l1.8,0.7l1.8,0.7l0.2,5.5l0.2,5.5l0.5,6.7l0.5,6.7l0.3,3.5l0.3,3.5l0.3,3.4l0.3,3.4l0.6,2.9l0.6,2.9l0.3,2l0.3,2l0.7,4.5l0.7,4.5
	l1,3l1,3l2.4,2.2l2.4,2.2l2.8,0.5l2.8,0.5l1.7,0.7l1.7,0.7l8.5,0.1l8.5,0.1l1.6,0.1l1.6,0.1l7-0.6l7-0.6l1.8-0.7l1.8-0.7l2.5-3.7
	l2.5-3.7v-2.2V166l0.7-0.4l0.7-0.4l0.6-5.3l0.6-5.3l0.4-7.1l0.4-7.1l0.1-15.4l0.1-15.4l3.2-0.1l3.2-0.1l4.7-0.4l4.7-0.4l2.2-0.9
	l2.2-0.9h1.9h1.9l3.2-2.8l3.2-2.9v-1.7v-1.7l0.7-0.7l0.7-0.7l1.4-5.9l1.4-5.9l0.3-10.7l0.3-10.7l-1.1-1.5l-1.1-1.5l0.4-2.5l0.4-2.5
	l-2-2.1l-2-2.1l-2.6-0.8l-2.6-0.8l-3.5-0.3l-3.5-0.3l-9.5-1l-9.5-1l-29.8-0.1l-29.8-0.1L1087.5,46.8 M478.3,48.2l-4.7,0.9l-2.8,1
	l-2.8,1l-2.5,1.1l-2.5,1.1h-0.6H462l-5.3,3.5l-5.3,3.5l-3.9,5l-3.9,5l-3.3,5.5l-3.3,5.5l-0.9,4.6l-0.9,4.6l-0.2,6.9l-0.2,6.9
	l0.6,0.8l0.6,0.8l0.5,3.9l0.5,3.9l1.1,2l1.1,2l1.5,3.5l1.6,3.5l3.4,3.4l3.4,3.4l1.5,1l1.5,1l-4.8,1.8l-4.8,1.8v0.6v0.6l-2,0.9
	l-2,0.9l-1.5,3.3l-1.5,3.3l0,2.2l0,2.2l0.8,1.4l0.8,1.4l1.2,4.5l1.2,4.5l2.3,3.4l2.3,3.4l5.4,5.2l5.4,5.2l5.5,2.9l5.5,2.9l3.2,1.2
	l3.2,1.2l4.3,1.1l4.3,1.1l7.5-0.3l7.5-0.3l3.2-0.4l3.2-0.4l2.6-0.5l2.6-0.5l0.6,0l0.6,0l1.2-1l1.2-1l6.1-2.9l6.1-2.9l1.2-1.9
	l1.2-1.9l2.7-1.6l2.7-1.6v-1.2v-1.2l1-0.6l1-0.6l2.4-3.2l2.4-3.2l1.3-3.9l1.3-3.9l0.4-2l0.4-2l0.5-6.3l0.5-6.3l-1.1-2.8l-1.1-2.8
	l-0.6-3.5l-0.6-3.5l-1.3-0.9l-1.3-0.9v-0.7v-0.7l-2.5-3.5l-2.5-3.5l-0.8-0.9l-0.8-0.9l-1.6-2.1l-1.6-2.1h-0.8h-0.8l-1-1.6l-1-1.6h-1
	h-1l-1.8-1.4l-1.8-1.4l-2-1.7l-2-1.7l2.6-1l2.6-1l2-0.8l2-0.8l2.5-1.3l2.5-1.3l2.9-3.5l2.9-3.5l-0.3-5.7l-0.3-5.7l-2.5-3l-2.5-3
	v-0.8v-0.8l-3.9-3.9l-3.9-3.9l-3-2.7l-3-2.7l-7.4-3l-7.4-3h-1.8h-1.8l-2.3-0.7l-2.3-0.7l-3.9-0.3l-3.9-0.3L478.3,48.2 M573.9,52.1
	l-0.3,0.3l-7,0.8l-7,0.8l-3.4,1.2l-3.4,1.2l-3.1,4.8l-3.1,4.8v6.1v6.1l-0.8,0.5l-0.8,0.5v3.1v3.1l-0.6,0.4l-0.6,0.4l0.1,18l0.1,18
	l1,7.5l1,7.5l0.2,2.4l0.2,2.4l1.7,3.8l1.7,3.8v1.2v1.2l1.7,2.9l1.7,2.9l0.5,0.4l0.5,0.4l0.9,2l0.9,2l4.8,5.7l4.8,5.7l1.8,0.6
	l1.8,0.6l1.3,1.5l1.3,1.5h0.6h0.6l1.8,1.7l1.8,1.7l1.8,0.3l1.8,0.3l3.1,1.6l3.1,1.6l0.4-0.4l0.4-0.4l1.6,1.1l1.6,1.1l3.2,0.6
	l3.2,0.6l2.4,0.3l2.4,0.3l3.5,0.4l3.5,0.4l4.3,0.1l4.3,0.1l4.7-0.5l4.7-0.5l1.7-0.4l1.7-0.4l2.2-1.1l2.2-1.1l2.8-0.6l2.8-0.6
	l1.1-0.9l1.1-0.9l3.3-1.2l3.3-1.2l3.8-3.2l3.8-3.2l3.1-2.7l3.1-2.7l3.8-4.8l3.8-4.8l3.4-6.6l3.4-6.6l1.2-5.3l1.2-5.3l1.3-5.1
	l1.3-5.1l0-15.8l0-15.8l-0.6-6.7l-0.6-6.7l-0.8-2.8l-0.8-2.8V70v-4.1l-1.6-3.1l-1.6-3.1l-4.1-1.9l-4.1-1.9l-13.4-0.4L640.7,55
	l-4.7,1.2l-4.7,1.2l-2,1.2l-2,1.2l-2.2,3.6l-2.2,3.6l0.8,3.2l0.8,3.2l0,3.9l0,3.9l0.1,2l0.1,2l-0.1,5.5l-0.1,5.5l0,1.2l0,1.2
	l-0.8,4.3l-0.8,4.3l-0.2,3.2l-0.2,3.2l-2.1,4.6l-2.1,4.6v0.6v0.6l-2.4,2.7l-2.4,2.7l0,0.6l0,0.6l-3,0l-3,0l-2-1.8l-2-1.8l-1.4-2.7
	l-1.4-2.7l-0.3-3.9l-0.3-3.9l-0.7-0.9l-0.7-0.9l0-11l0-11l0.7-2.8l0.7-2.8l-0.1-1.8l-0.1-1.8l1-5.3l1-5.3l-0.2-3.9l-0.2-3.9
	l-0.4-1.7l-0.4-1.7l-3.8-2.5l-3.8-2.5l-7-0.8l-7-0.8l-2.5-0.3l-2.5-0.3L573.9,52.1 M933.1,52.5l-0.5,0.8L931,53l-1.6-0.4l-5.6,1.2
	l-5.6,1.2l-1.1,0.2l-1.1,0.2l-0.3,0.9l-0.3,0.9l-0.9,0l-0.9,0l-1.9,2.3l-1.9,2.3h-1.4h-1.4v0.7v0.7l-5.1,5.4l-5.1,5.4v0.6v0.6
	l-3.2,3.8l-3.2,3.8l-2,2l-2,2v1v1h-0.4h-0.4l-1.9-2.2l-1.9-2.2l0-0.9l0-0.9l-1-0.6l-1-0.6l-2.5-3.7l-2.5-3.7h-0.8h-0.8l0.4-0.7
	l0.4-0.7l-3.4-3.1l-3.4-3.1l-1.9-2.6l-1.9-2.6l-4.2-2l-4.2-2l-5-1.6l-5-1.6l-11.7-0.2l-11.7-0.2l-2.3,0.9l-2.3,0.9l-2.1,0.5
	l-2.1,0.5l-1.9,2.6l-1.9,2.6l-0.5,5.8l-0.5,5.8l-0.7,2l-0.7,2l-0.5,14l-0.5,14L805,125l0.1,20.1l0.3,3.9l0.3,3.9l0.8,3.5l0.8,3.5
	l0,4.1l0,4.1l0.7,0.4l0.7,0.4l0.5,3.1l0.5,3.1l2.1,1.4l2.1,1.4l3.1,1.1l3.1,1.1l10.7,0l10.7,0l1.5-0.8l1.5-0.8l3.7-0.6l3.7-0.6
	l1.6-1.9l1.6-1.9h0.8h0.8v-1.6v-1.6l0.7-1.3l0.7-1.3l0.5-3.2l0.5-3.2l0-1.2l0-1.2l0.9-2.8l0.9-2.8l-0.1-1.8l-0.1-1.8h0.8h0.8l3.8,4
	l3.8,4l5.5,4.2l5.5,4.2l1.6,0.2l1.6,0.2l3-0.6l3-0.6l5.4-5.5l5.4-5.5v-1.1v-1.1l1.6-1l1.6-1l1.7-2.7l1.7-2.7l0.6,1.5l0.6,1.5
	l0.1,3.9l0.1,3.9l1.1,5.2l1.1,5.2l0.9,1.6l0.9,1.6l-0.5,0.5l-0.5,0.5l2,3.1l2,3.1l3.8,1.9l3.8,1.9l9.1,0.1l9.1,0.1l0.8-0.6l0.8-0.6
	l3.9-0.5l3.9-0.5l2.4-0.8l2.4-0.8l3.4-1.6l3.4-1.6l1.1-2.1l1.1-2.1l0-2.7l0-2.7l0-5.5l0-5.5l0.2-3.9l0.2-3.9l0-2.4l0-2.4l-0.7-20.9
	L964,98.6l-0.2-4.3l-0.2-4.3l-1.3-12.6L961,64.7l-0.7-0.7l-0.7-0.7v-2.1V59l-2.2-2.1l-2.2-2.1l-2.9-1.2l-2.9-1.2l-4.6,0l-4.6,0
	l-3.3-0.4l-3.3-0.4L933.1,52.5 M726.6,53.3l-2.4,0.7l-3.5,0.4l-3.5,0.4L712,56l-5.1,1.3l-3.5,1.6l-3.5,1.6l-0.3,0.3l-0.3,0.3
	l-1.1,7.3l-1.1,7.3l-0.7,7.5l-0.7,7.5l-0.5,7.1l-0.5,7.1l0,15.8l0,15.8l0.9,6.8l0.9,6.8l2.1,8.5l2.1,8.5l1.9,3.8l1.9,3.8l2.1,0.1
	l2.1,0.1l0.7-0.1l0.7-0.1l2.5,0.8l2.5,0.8l12.6,0.1l12.6,0.1l4.5-0.5l4.5-0.5l4.1-0.9l4.1-0.9l2.4-0.3l2.4-0.3l6.2-3l6.2-3l3.4-2.6
	l3.4-2.6l3.1-3.2l3.1-3.2l1.6-3.7l1.6-3.7l0.5-4.8l0.5-4.8l-1-4.2l-1-4.2l-2.7-4.6l-2.7-4.6l0-0.5l0-0.5l-2.3-2.7l-2.3-2.7v-1v-1
	h-0.7h-0.7l-0.9-2.5l-0.9-2.5v-3.3v-3.3l1.2-1.5l1.2-1.5l0-1.7l0-1.7l1.2-2.8l1.2-2.8l-0.7-5.6l-0.7-5.6l-2-4.1l-2-4.1l-1.5-1.7
	l-1.5-1.7l-2.4-1.4l-2.4-1.4l-4.8-2.9l-4.8-2.9l-4.9-1.3l-4.9-1.3l-1.2-0.2l-1.2-0.2l-7.5-0.5l-7.5-0.5l-1.2-0.3l-1.2-0.3
	L726.6,53.3 M1005.6,55l-7.9,0.7l-2,0.3l-2,0.3l-5.2,1.7l-5.2,1.7l-0.6,9.6l-0.6,9.6l-0.2,2.8l-0.2,2.8l-0.1,10.4l-0.1,10.4l0.9,7.4
	l0.9,7.4l0.3,6.2l0.3,6.2l0.5,1.7l0.5,1.7l0.3,2.8l0.3,2.8l0.3,4.5l0.3,4.5l1,3.4l1,3.4l0.2,1.2l0.2,1.2l0.7,3.5l0.7,3.5l1.2,2.8
	l1.2,2.8l1.1,0.9l1.1,0.9l5.5,0.8l5.5,0.8l5.9,0l5.9,0l3-0.5l3-0.5l1.8-3.6l1.8-3.6l0.9-4.7l0.9-4.7l0.4-4.6l0.4-4.6l0.7-1.3
	l0.7-1.3l0.9-14.2l0.9-14.2l0.4-18.1l0.4-18.1l-0.1-5.1l-0.1-5.1l-0.4-5.1l-0.4-5.1l-2.2-2.2l-2.2-2.2l-5.5-0.7l-5.5-0.7l-2-0.3
	l-2-0.3L1005.6,55 M477.5,57.1l-5.6,1.4l-5.2,2.6l-5.2,2.6l-3.9,3.6l-3.9,3.6l-3.5,6.7l-3.5,6.7l-1,3.5l-1,3.5l-0.1,6.7l-0.1,6.7
	l1,3.2l1,3.2l2.3,5.1l2.3,5.1l5.6,3.7l5.6,3.7h1.7h1.7l3.7,1.6l3.7,1.6l4.9,0.8l4.9,0.8l0.8,0.6l0.8,0.6l2.7,0.5l2.7,0.5l3,2l3,2
	v3.5v3.5l-1.9,1.5l-1.9,1.5l-3.2,0.5l-3.2,0.5l-2.9-1.2l-2.9-1.2l-1.6-1.4l-1.6-1.4l-4.5-1.6l-4.5-1.6l-5-0.2l-5-0.2l-3.5,0.6
	l-3.5,0.6l-2.5,1.9l-2.5,1.9l-0.5,2l-0.5,2l2.2,4.9l2.2,4.9l2,2.8l2,2.8l3.2,2.4l3.2,2.4l1.7,1.5l1.7,1.5l2.5,1.3l2.5,1.3l0.2-0.1
	l0.2-0.1l3.5,1.9l3.5,1.9l11,0l11,0l3.5-1l3.5-1l2.8-0.8l2.8-0.8l4.7-3.2l4.7-3.2l3.4-3.5l3.4-3.5l2.2-4.4l2.2-4.4l0.9-3.9l0.9-3.9
	l-0.2-4.3l-0.2-4.3l-1.3-3.4l-1.3-3.4l-1.5-2.9l-1.5-2.9l-4.1-4.6l-4.1-4.6l-3.6-1.9l-3.7-1.9l-2.4-2.2l-2.4-2.2l-3.6-0.7l-3.6-0.7
	l-4-0.3l-4-0.3l-5.3-1.7l-5.3-1.7l-2.3-3.2l-2.3-3.2v-2v-2l3.1-2.9l3.1-2.9l3.6-0.5l3.6-0.5l2.7,1.1l2.7,1.1l2,2.4l2,2.4l0.3,1
	l0.3,1l5.8-1.3l5.8-1.3l4.7-1.7l4.7-1.7l2.2-2.1l2.2-2.1v-1.1v-1.1l-1.7-3.3l-1.7-3.3l-2.6-3.4l-2.6-3.4l-3-2.3l-3-2.3l-1.2-1.1
	l-1.2-1.1l-3.8-1.7l-3.8-1.7l-6.8-1.1l-6.8-1.1l-1.6-0.3l-1.6-0.3L477.5,57.1 M1105,56.2l-0.2,0.2l-13.2,0.4l-13.2,0.4l-5.7,0.8
	l-5.7,0.8l-1.2,0.1l-1.2,0.1l-0.8-0.3l-0.8-0.3l-3.5,0.6l-3.5,0.6l0.2,10l0.2,10l1,5.9l1,5.9l1.3,2.5l1.3,2.5l0.8,0.5l0.8,0.5l3.3,0
	l3.3,0l1.5,0.8l1.5,0.8l7.9,0.3l7.9,0.3l1,0.9l1,0.9l0.4,12.2l0.4,12.2l0.4,4.3l0.4,4.3l0.8,7.9l0.8,7.9l1.3,7.8l1.3,7.8l0.9,1.1
	l0.9,1.1l3.4,1.5l3.4,1.5l0.9-0.6l0.9-0.6l14.1,0l14.1,0l1.5-1.9l1.5-1.9v-1.9v-1.9l0.7-1.4l0.7-1.4l0.5-9.8l0.5-9.8l0.2-16.2
	l0.2-16.2l1.3-2.5l1.3-2.5l2.5-1.3l2.5-1.3l5.1-0.2l5.1-0.2l5.4-0.5l5.4-0.5l1.1-2.5l1.1-2.5l1.3-4.5l1.3-4.5l0.2-9.7l0.2-9.7
	l-0.8-3l-0.8-3l-2.8-0.4l-2.8-0.4l-4.7-0.9l-4.7-0.9l-7.5-0.3l-7.5-0.3l-18.8-0.2l-18.8-0.2L1105,56.2 M571.7,61.9l-2.8,0.7
	l-3.9,0.4l-3.9,0.4l-0.6,0.6l-0.6,0.6l-1.7,4.3l-1.7,4.3l-1.1,6.7l-1.1,6.7l-0.4,7.1l-0.4,7.1l0,8.3l0,8.3l0.8,7.5l0.8,7.5l0.9,4.7
	l0.9,4.7l1.9,4.1l1.9,4.1v0.4v0.4l1.8,2.6l1.8,2.6l1.6,1.9l1.6,1.9l4.5,4.6l4.5,4.6h1h1l1.6,1.4l1.6,1.4l6.4,2.5l6.4,2.5l2.7,0.4
	l2.7,0.4l4.3,0.5l4.3,0.5l4.7,0l4.7,0l3.5-0.4l3.5-0.4l3.5-0.9l3.5-0.9l3.5-1.6l3.5-1.6l1.2-0.7l1.2-0.7l2.4-1.1l2.4-1.1l4.6-3.6
	l4.6-3.6l4-5.5l4-5.5l2.8-6.2l2.8-6.2l1.1-4.7l1.1-4.7l0.8-4.3l0.8-4.3l0-14.1l0-14.1l-0.9-4.2l-0.9-4.2l0.4-0.6l0.4-0.6l-0.7-4.3
	l-0.7-4.3l-0.4-3.5l-0.4-3.5l-1.8-1.3l-1.8-1.3l-3.6-0.4l-3.6-0.4l-9.1,0.2l-9.1,0.2l-3.2,0.6l-3.2,0.6l-1,0.8l-1,0.8l0.5,1.7
	l0.5,1.7l0.3,2.4l0.3,2.4l0.3,13.6l0.3,13.6l-0.6,0.4l-0.6,0.4l-0.6,6.5l-0.6,6.5l-1.2,3.2l-1.2,3.2l-1.7,3.5l-1.7,3.5l-2.7,3.4
	l-2.7,3.4l-3.2,2.3l-3.2,2.3h-3.3h-3.3l-4-1.2l-4-1.2l-2.3-3l-2.3-3l-1.9-3.5l-1.9-3.5l-1.3-7.7l-1.3-7.7l0.7-12.8l0.7-12.8l0.8-5.1
	l0.8-5.1l1.3-3.9l1.3-3.9l-1.7-1.4l-1.7-1.4l-1.3-0.1l-1.3-0.1l-0.8-0.1l-0.8-0.1l-4.3-0.6l-4.3-0.6l-2-0.3l-2-0.3L571.7,61.9
	 M930.4,61.8l-5.1,0.6l-1.6,0.7l-1.6,0.7l-2.8,2.3l-2.8,2.3l-3.5,2.9l-3.5,2.9l-0.7,0.8l-0.7,0.8L905,80l-3.3,4.3l-1,0.6l-1,0.6v1v1
	l-2.4,2.1l-2.4,2.1v0.7v0.7l-3.5,2.5l-3.5,2.5v0.9v0.9l-0.9,0.9L886,102l-2.1-1.1l-2.1-1.1l-4.4-6.5l-4.4-6.5l-2.4-3.5l-2.4-3.5
	l-6.1-6.2l-6.1-6.2l-3.2-1.6l-3.2-1.6l-9.1-1l-9.1-1l-3.9,0.4l-3.9,0.4l-2.4,0.4l-2.4,0.4l-0.9,5.3l-0.9,5.3l-0.6,5.5l-0.5,5.5
	l-0.2,3.5l-0.2,3.5l0,23.6l0,23.6l0,2.2l0,2.2l-0.1,1.4l-0.1,1.4l0.5,4.3l0.5,4.3l0.7,2.8l0.7,2.8l0.5,3.9l0.5,3.9l1.1,1.1l1.1,1.1
	l1.8,0.2l1.8,0.2l2.4,0.1l2.4,0.1l4.7-0.4l4.7-0.4l4.5-0.9l4.5-0.9l0.3-1.7l0.3-1.7l0.9-4.3l0.9-4.3l0.3-3.2l0.3-3.2l1.1-6.6
	l1.1-6.6l1.9-1.5l1.9-1.5l1.8,0l1.8,0l4.8,4.8l4.8,4.8l0.9,0.6l0.9,0.6l2.6,3l2.6,3l3.5,2.7l3.5,2.7l1.8-1.4l1.8-1.4l4.3-4.7
	l4.3-4.7l2.2-2.2l2.2-2.2v-0.4V139l3.2-3.9l3.2-3.9h3.1h3.1l1.4,2.1l1.4,2.1l0.5,4l0.5,4l1.3,8.3l1.3,8.3l0.1,1.2l0.1,1.2l0.6,0.8
	l0.6,0.8l0.6,3l0.6,3l1.3,0.6l1.3,0.6l9.9-0.2l9.9-0.2l2.3-0.9l2.3-0.9l2-0.3l2-0.3l0.9-1.2l0.9-1.2l0.4-7.3l0.4-7.3l0-2l0-2l0-11.7
	l0-11.7l-0.4-5.3l-0.5-5.3l-0.2-9.1l-0.2-9.1l-0.5-1.2l-0.5-1.2l0.7-2l0.7-2l-0.7-1.3l-0.7-1.3l-0.3-4.2l-0.3-4.2l-0.6-7.2l-0.6-7.2
	l-2.5-0.9l-2.5-0.9l-5.5-0.3l-5.5-0.3L930.4,61.8 M733.1,72.2l-3.8,0.6l-2.1,1.4l-2.1,1.4l-1.1,0.9l-1.1,0.9l-1.3,1.2l-1.3,1.2
	l0.6,7.9l0.6,7.9l0,2.9l0,2.9l2.9,2.8l2.9,2.8l1.9,0.7l1.9,0.7h3.1h3.1l4-1.5l4-1.5l4.3-3.3l4.3-3.3v-1v-1l1.1-0.4l1.1-0.4l0.5-3.7
	l0.5-3.7l-1.3-3.9l-1.3-3.9l-4.6-3.8l-4.6-3.8l-3-0.5l-3-0.5l-1.2-0.2l-1.2-0.2L733.1,72.2 M737,82.1l-0.5,0.5h-2.8H731l-0.2,4.8
	l-0.2,4.8l0.7,3.2l0.7,3.2l0.6,0.6l0.6,0.6l3.8-0.9l3.8-0.9l2.8-2.5l2.8-2.5l0.6-0.9l0.6-0.9l-0.7-2.4l-0.7-2.4l-1.5-1.5l-1.5-1.5
	l-1.7-1l-1.7-1h-1.1h-1.1L737,82.1 M736.9,117.8l-1.6,0.7l-3.3,0.9l-3.3,0.9v1.1v1.1l-1.7,1.1l-1.7,1.1l-0.5,3.4l-0.5,3.4l0.4,7.9
	l0.4,7.9l1.6,3.1l1.6,3.1l3.8,1.2l3.8,1.2l6.8-1.4l6.8-1.4l3.7-2.4l3.7-2.4l1.6-2.6l1.6-2.6v-4.4v-4.4l-2-3.8l-2-3.8l-4.1-3.7
	l-4.1-3.7l-4.1-1.2l-4.1-1.2l-0.7,0.1l-0.7,0.1L736.9,117.8 M736.7,127.9l-1.7,0.3l-0.9,1.1l-0.9,1.1v4.7v4.7l0.5,3.2l0.5,3.2l2.5,0
	l2.5,0l3.4-0.7l3.4-0.7l2.3-2.2l2.3-2.2l-0.3-2l-0.3-2l-0.1-0.6l-0.1-0.6l-3.3-3.2l-3.3-3.2h-1.6h-1.6l-0.7-0.6l-0.7-0.6
	L736.7,127.9"/>
</svg>
