<?xml version="1.0" encoding="utf-8"?>
<!-- Generator: Adobe Illustrator 26.4.0, SVG Export Plug-In . SVG Version: 6.00 Build 0)  -->
<svg version="1.1" id="Layer_1" xmlns="http://www.w3.org/2000/svg" xmlns:xlink="http://www.w3.org/1999/xlink" x="0px" y="0px"
	 viewBox="0 0 485.5 77.3" style="enable-background:new 0 0 485.5 77.3;" xml:space="preserve">
<style type="text/css">
	.st0{fill:#F9F4AA;}
	.st1{fill:#FAE351;}
	.st2{fill:none;stroke:#000000;stroke-width:10;stroke-miterlimit:10;}
	.st3{fill:none;}
</style>
<g>
	<path class="st0" d="M466.9,72.1c-9,0-9-0.5-17.9-0.5c-9,0-9,0.3-17.9,0.3c-9,0-9-1.4-17.9-1.4c-9,0-9,1.5-17.9,1.5
		c-9,0-9-0.9-17.9-0.9c-9,0-9-0.4-17.9-0.4c-9,0-9,0.2-17.9,0.2c-9,0-9,0.3-17.9,0.3c-9,0-9-1.3-17.9-1.3c-9,0-9,0.5-17.9,0.5
		c-9,0-9,1.4-17.9,1.4c-9,0-9-0.7-17.9-0.7c-9,0-9-0.7-17.9-0.7c-9,0-9,0.7-17.9,0.7c-9,0-9,0.7-17.9,0.7c-9,0-9,0-17.9,0
		c-9,0-9-0.4-17.9-0.4c-9,0-9-0.1-17.9-0.1c-9,0-9-0.3-17.9-0.3c-9,0-9,0.7-17.9,0.7c-9,0-9-0.5-17.9-0.5c-9,0-9,0.6-17.9,0.6
		c-9,0-9-1.2-17.9-1.2c-9,0-9,1.4-17.9,1.4s-9-0.5-17.9-0.5c-7.1,0-13.6-6.2-13.6-13.3c0-9.8,1.9-9.8,1.9-19.7S6.8,28.8,6.8,19
		c0-7.1,4.7-13.4,11.8-13.4c9,0,9,0.7,17.9,0.7c9,0,9-0.5,17.9-0.5c9,0,9-0.4,17.9-0.4c9,0,9,0.3,17.9,0.3c9,0,9-0.1,17.9-0.1
		c9,0,9,1,17.9,1c9,0,9,0.5,17.9,0.5c9,0,9-1.5,17.9-1.5c9,0,9,0.6,17.9,0.6c9,0,9,0.9,17.9,0.9c9,0,9,0.2,17.9,0.2
		c9,0,9-0.2,17.9-0.2c9,0,9-1.1,17.9-1.1c9,0,9,0.3,17.9,0.3c9,0,9,0.4,17.9,0.4c9,0,9,0.2,17.9,0.2c9,0,9-0.3,17.9-0.3
		c9,0,9-0.3,17.9-0.3c9,0,9,0.1,17.9,0.1c9,0,9-1.2,17.9-1.2c9,0,9,0.1,17.9,0.1c9,0,9,0.9,17.9,0.9c9,0,9,0.8,17.9,0.8
		c9,0,9-2,17.9-2s9,1.2,17.9,1.2c7.1,0,12.8,5.6,12.8,12.7c0,9.8-0.7,9.8-0.7,19.7s1.4,9.8,1.4,19.7C480.4,65.4,474,72.1,466.9,72.1
		z"/>
	<path d="M466.9,76.6c-5.5,0.1-11.1-0.5-16.6-0.5c-8.5-0.2-16.6,0.7-25.2,0c-5.3-0.7-10.4-1.5-15.7-1c-2.7,0.1-5.2,0.7-8,1
		c-3.1,0.3-6,0.3-8.8,0.2c-2.9,0-6-0.4-8.5-0.6c-5.3-0.5-11-0.2-16.3-0.5c-13.7-0.5-27.4-0.1-41.2,0.1c-2.8,0-5.6,0-8.6-0.2
		c-2.8-0.2-5.4-0.8-8.1-1c-6.8-0.5-13.5,0.2-20.4,0.2c-2.6,0-5.3,0-7.8,0.3c-4.1,0.6-8.8,1.2-12.8,1c-2.8,0-5.8-0.2-8.5-0.4
		c-5.5-0.6-10.9-0.2-16.5-0.7c-5.4-0.5-10.7-0.6-16.1-0.4c-5.2,0.5-11.4,0.5-16.6,0.6c-2.7,0.1-5.5,0.4-8.3,0.5
		c-7.8,0.2-17.2-0.1-25-0.1c-5.6-0.1-11-0.5-16.5-0.5c-7.7-0.2-17.3-0.1-24.9-0.4c-8.3-0.5-16.3-0.1-24.6,0.3
		c-11.1,0.2-21.9-1.2-33-0.1c-4.3,0.2-8.5,0.3-12.8-0.1c-4.1-0.5-7.9-1-12.1-0.9c-4.1-0.1-8,0.8-12.1,1.2c-4.3,0.3-8.5,0.2-12.8,0.1
		c-2.8-0.1-5.4-0.3-8.2-0.2c0,0-2,0-2,0c-0.8,0-1.7,0-2.5-0.1c-5.1-0.6-9.7-3.6-12.6-7.8c-1.6-2.4-2.7-5.4-2.8-8.3c0,0,0-0.5,0-0.5
		l-0.1-1.1C0.4,52.4,1.3,48,1.9,43.9c0.3-2.4,0.3-9.2,0.4-11.8c0.1-2.7,0.1-5.5,0.3-8.3c0.1-2.8,0.1-6.4,0.9-9.1
		C4.6,9.6,8.3,4.8,13.5,3c4.5-1.5,9.2-0.8,13.8-0.6c8.3,0.8,16.2,0,24.5-0.2c8.4,0,16.5-0.6,24.9-0.5c10.9,0.4,22.1,0,33.1-0.1
		c2.8,0,5.9,0.2,8.6,0.5c5.4,0.6,10.9,0.1,16.3,0.4c5.2,0.2,10.7,0.4,15.7-0.3c2.7-0.5,6-1,8.6-1.1c8.5-0.3,16.7,0.5,25.2,0.4
		c5.6,0.3,10.6,0.9,16.4,0.7c12.3,0.3,24.6,0,36.9-0.3c2.7-0.1,5.2-0.6,8.1-0.8c4.4-0.3,8.6-0.2,13-0.1c8.3,0.3,16.5,0.2,24.8,0.6
		c5.3,0,11.3,0.1,16.5,0.2c13.7,0.2,27.5-0.4,41.3-0.5c8-0.1,16.4,0.6,24.3,0c5.4-0.8,11.6-0.9,17-0.8c7.9,0.2,17.2,0,25.1,1
		c3,0.2,5.2,0.2,8.1,0.2c4.3,0.1,8.3,0.7,12.4,0.8c3.9,0.1,7.5,0.1,11.3-0.8c4.3-1,9.1-1.1,13.5-0.9c4.1,0.2,8.2,1.1,12.2,1.2
		c3.3,0,6.9,0.4,9.8,2.2c4.7,2.6,8,7.6,8.3,13c0.1,4.5-0.4,8.6-0.7,13c-0.4,5.2-0.5,10.7,0.3,15.9c0.5,2.5,1.1,5.6,1.3,8.5
		c0.2,1.3,0.2,2.5,0.3,3.8C484.5,67.9,476.6,76.4,466.9,76.6L466.9,76.6z M466.9,67.7c4.8-0.1,9.2-4.5,9.7-9.3
		c0.2-3.9,0.1-7.3-0.4-11.4c-0.8-8.4,0.3-16.9,0.3-25.3c0.3-5.7-2.2-10.3-8.1-11.1c-2.7-0.2-5.3,0-8-0.3C455.1,9.6,450,9,444.8,9.6
		c-2.7,0.3-5.2,1.1-8.1,1.5c-3,0.4-6,0.4-8.9,0.3c-4.1,0-8.4-0.7-12.4-0.7c-2.8,0-5.8,0-8.5-0.2c-5.4-0.5-10.9-0.7-16.3-0.6
		c-4.9,0-11.7-0.1-16.3,0c-5.4,0.4-11.4,1.4-16.7,1.2c-4.7,0-11.7-0.1-16.5-0.1c-11.1,0.2-22,0.4-33,0.7c-5.5,0.1-11.2-0.1-16.6-0.2
		c-3.9,0-8.7,0-12.6-0.2c-8.1-0.3-16.6-0.3-24.6-0.6c-5.5-0.3-10.7,0.6-16.2,1c-4.2,0.2-8.3,0.1-12.5,0.2c-8.3,0.2-16.7,0-25-0.2
		c-4,0-8.7-0.1-12.8-0.6c-6.8-0.6-13.7-0.3-20.4-1c-3.9-0.2-7.8-0.3-11.6,0.2c-4,0.7-9.1,1.1-13,1c-2.8,0-5.7-0.2-8.5-0.4
		c-5.6-0.4-11.1-0.1-16.7-0.8c-5.4-0.7-10.6-0.7-16-0.7c-4.5,0-12.1,0-16.7-0.1c-5.6-0.3-10.9-0.5-16.4-0.4
		c-5.3,0.1-11.2,0.4-16.6,0.3c-5.4,0.1-11.1,0.6-16.6,0.4c-5.6,0-11-0.8-16.5-0.8c-5.5-0.1-8.5,5.6-7.9,10.5c0,0,0.2,4.1,0.2,4.1
		s0.4,8.3,0.4,8.3c0.1,4.2,0.3,8.7-0.2,13c-0.6,4.5-1.9,8.4-2.1,12.8c-0.7,4.9,3.1,9.8,8,10.8c0.6,0.1,1,0.2,1.6,0.2
		c3.5,0.1,7.1,0.2,10.5,0.4c5.4,0.2,10.6,0.4,16-0.5c5.7-0.9,11.5-0.9,17.2-0.3c8.3,1.3,16.1,0.5,24.4,0.2
		c8.3-0.3,16.6,0.7,24.8,0.3c5.3-0.2,11.2-0.9,16.6-0.7c13.6,0.4,27.8,0.1,41.5,0.3c10.6,0.3,22.3,0.1,32.8-0.1
		c8.3-0.8,16.4-0.5,24.7-1.3c5.7-0.3,11.5-0.3,17,0.2c2.7,0.2,5.3,0.2,8,0.2c5.5-0.1,11,0.7,16.5,0.6c6.3,0.2,12.2-1.6,18.5-1.5
		c6.2,0,12.4-0.6,18.6-0.6c4.2-0.1,8.6,0.6,12.7,1.1c2.5,0.2,5.1,0.2,7.9,0.1c13.8-0.3,27.7-0.9,41.6-0.6c5.7,0.3,11-0.1,16.7,0.4
		c2.9,0.3,5.3,0.5,8,0.5c5.7,0.3,10.5-0.9,16.1-1.4c5.8-0.5,11.6,0.2,17.2,1c7.9,0.6,16.4-0.2,24.4-0.1
		C456,67.2,461.4,67.7,466.9,67.7L466.9,67.7z"/>
</g>
<g>
	<path class="st1" d="M456.6,70c-9.2,0-9.2,1.5-18.3,1.5c-9.2,0-9.2-0.5-18.3-0.5c-9.2,0-9.2-0.4-18.3-0.4c-9.2,0-9.2,0.5-18.3,0.5
		c-9.2,0-9.2-0.6-18.3-0.6c-9.2,0-9.2,0.5-18.3,0.5c-9.2,0-9.2,0.6-18.3,0.6c-9.2,0-9.2-0.2-18.3-0.2c-9.2,0-9.2,0.1-18.3,0.1
		c-9.2,0-9.2-1.5-18.3-1.5c-9.2,0-9.2,1.5-18.3,1.5c-9.2,0-9.2,0.5-18.3,0.5c-9.2,0-9.2-0.1-18.3-0.1c-9.2,0-9.2,0-18.3,0
		c-9.2,0-9.2-1.9-18.3-1.9c-9.2,0-9.2,1.3-18.3,1.3c-9.2,0-9.2-0.6-18.3-0.6c-9.2,0-9.2-0.3-18.3-0.3c-9.2,0-9.2,0.6-18.3,0.6
		c-9.2,0-9.2,0.5-18.3,0.5c-9.2,0-9.2-1.2-18.3-1.2c-9.2,0-9.2,1.7-18.3,1.7c-9.2,0-9.2-1.7-18.3-1.7s-9.2,0.3-18.3,0.3
		c-6.1,0-11.1-4.5-11.1-10.7c0-7,0-7,0-13.9c0-7,0.7-7,0.7-13.9c0-6.1,4.2-10.7,10.3-10.7c9.2,0,9.2,0.5,18.3,0.5
		c9.2,0,9.2-1.3,18.3-1.3c9.2,0,9.2-0.5,18.3-0.5C81,20.3,81,22,90.1,22c9.2,0,9.2-1.6,18.3-1.6c9.2,0,9.2-0.3,18.3-0.3
		c9.2,0,9.2,1,18.3,1c9.2,0,9.2,0.9,18.3,0.9c9.2,0,9.2-0.4,18.3-0.4c9.2,0,9.2-1.2,18.3-1.2c9.2,0,9.2,0.3,18.3,0.3
		c9.2,0,9.2,1.1,18.3,1.1c9.2,0,9.2-1.7,18.3-1.7c9.2,0,9.2,0.5,18.3,0.5c9.2,0,9.2-0.1,18.3-0.1c9.2,0,9.2,1.9,18.3,1.9
		c9.2,0,9.2-1.1,18.3-1.1c9.2,0,9.2,0.9,18.3,0.9c9.2,0,9.2-0.4,18.3-0.4c9.2,0,9.2-1.2,18.3-1.2c9.2,0,9.2-0.3,18.3-0.3
		c9.2,0,9.2-0.1,18.3-0.1c9.2,0,9.2,1.9,18.3,1.9c9.2,0,9.2-0.9,18.3-0.9c6.1,0,12.1,5,12.1,11.1c0,7,0.1,7,0.1,13.9
		s-1.7,7-1.7,13.9C467.1,66.2,462.8,70,456.6,70z"/>
</g>
<g>
	<path class="st2" d="M466.9,71.2c-9,0-9,0.4-17.9,0.4c-9,0-9,0.4-17.9,0.4c-9,0-9-1.5-17.9-1.5c-9,0-9,1.7-17.9,1.7
		c-9,0-9-1.5-17.9-1.5c-9,0-9-0.1-17.9-0.1c-9,0-9,0-17.9,0c-9,0-9,0-17.9,0c-9,0-9,1.2-17.9,1.2c-9,0-9-1.2-17.9-1.2
		c-9,0-9,0.1-17.9,0.1c-9,0-9,0.8-17.9,0.8c-9,0-9,0.8-17.9,0.8c-9,0-9-1.3-17.9-1.3c-9,0-9-0.2-17.9-0.2c-9,0-9,0-17.9,0
		c-9,0-9,0-17.9,0c-9,0-9,0.1-17.9,0.1c-9,0-9-0.7-17.9-0.7c-9,0-9,0-17.9,0c-9,0-9,0-17.9,0c-9,0-9,1.3-17.9,1.3
		c-9,0-9-0.7-17.9-0.7c-9,0-9,0-17.9,0s-9-0.6-17.9-0.6c-7.1,0-12.8-4.7-12.8-11.8c0-9.8-0.8-9.8-0.8-19.7S6.1,28.8,6.1,19
		c0-7.1,5.3-13.2,12.4-13.2c9,0,9-0.3,17.9-0.3c9,0,9,1.3,17.9,1.3c9,0,9-1.3,17.9-1.3c9,0,9,0.1,17.9,0.1c9,0,9,1,17.9,1
		c9,0,9,0.5,17.9,0.5c9,0,9-1.4,17.9-1.4c9,0,9-0.5,17.9-0.5c9,0,9,1.9,17.9,1.9c9,0,9-1.2,17.9-1.2c9,0,9,1.1,17.9,1.1
		c9,0,9-1,17.9-1c9,0,9,0.9,17.9,0.9c9,0,9-1.8,17.9-1.8c9,0,9,0.3,17.9,0.3c9,0,9,0.4,17.9,0.4c9,0,9,0.9,17.9,0.9
		c9,0,9-0.1,17.9-0.1c9,0,9-0.7,17.9-0.7c9,0,9,0.2,17.9,0.2c9,0,9,0.2,17.9,0.2c9,0,9-0.7,17.9-0.7c9,0,9,1,17.9,1
		c9,0,9,0.5,17.9,0.5s9,0,17.9,0c7.1,0,13,4.8,13,11.8c0,9.8-0.8,9.8-0.8,19.7s1.4,9.8,1.4,19.7C480.5,65.4,474,71.2,466.9,71.2z"/>
</g>
<g>
	<rect x="157.7" y="24" class="st3" width="172" height="44.2"/>
	<path d="M171.4,26.9c2.2,0,4.2,0.2,5.9,0.7c1.6,0.5,2.5,0.8,2.6,0.8c0.3,0.2,0.5,0.3,0.7,0.3c0.2,0,0.4,0.3,0.7,0.8
		c0.3,0.6,0.4,1.1,0.4,1.6c0,1.5-0.6,2.5-1.7,3.1c-0.5,0.3-1,0.4-1.5,0.4c-0.6,0-1.5-0.2-2.7-0.6c-1.9-0.6-3.3-0.8-4.1-0.8
		s-1.3,0.3-1.3,0.8c0,0.9,2,3.6,6,8.2c1.7,2,2.9,3.3,3.4,4.1s0.8,1.6,0.9,2.5c0,0.2,0.1,0.5,0.1,1c0,1.5-0.3,2.7-0.8,3.7
		c-0.6,1.1-1.6,2-3.1,2.7s-3.1,1-4.9,1c-0.4,0-0.9,0-1.7-0.1c-2.7-0.4-4.9-1.2-6.7-2.5c-1.8-1.3-2.6-2.8-2.6-4.4
		c0-1.2,0.5-2.3,1.5-3.3c1-0.9,2.1-1.4,3.2-1.4c0.5,0,1,0.1,1.5,0.4c1.1,0.6,1.6,1.5,1.7,2.8v1.2l1.2,0.6c0.7,0.4,1.3,0.6,1.7,0.6
		c0.4,0,0.8-0.1,1.2-0.4s0.7-0.5,0.8-0.7c0.1-0.2,0.1-0.4,0.1-0.5c0-0.4-0.5-1.1-1.4-1.9c-2.2-2-4-4-5.5-6.2c-2-2.9-2.9-5.6-2.9-8.1
		c0-1.1,0.2-2.1,0.7-2.9c0.8-1.5,2.1-2.5,3.9-3C169.4,27,170.3,26.9,171.4,26.9z"/>
	<path d="M203.5,32.9c0.9,0,1.6,0.2,2,0.5c0.6,0.4,1,1.2,1.2,2.3c0.2,1.1,0.5,4.2,0.9,9.3c0.4,4.9,0.6,8.1,0.6,9.8v0.4l-0.1,0.2
		c-0.1,0.5-0.4,1-1,1.4c-0.5,0.4-1.1,0.7-1.6,0.8h-0.4c-0.6,0-1.2-0.2-1.8-0.5s-1-0.7-1.2-1.2c-0.3-0.5-0.5-0.8-0.5-0.8
		c-0.2,0-0.7,0.2-1.6,0.5c-0.9,0.4-1.9,0.5-2.8,0.5c-1,0-1.9-0.2-2.6-0.5c-2.9-1.4-4.9-5.4-6.1-11.9c-0.3-1.7-0.4-3-0.4-4
		c0-1,0.2-1.7,0.6-2.2c0.7-0.9,1.6-1.3,2.6-1.3c0.5,0,1,0.1,1.5,0.4c0.6,0.3,1.1,0.8,1.4,1.3c0.3,0.5,0.5,1.5,0.7,2.8
		c0.7,5.1,1.7,8,2.9,8.8c0.1,0,0.2,0.1,0.3,0.1c0.5,0,0.9-0.5,1.3-1.5c0.4-1,0.6-1.8,0.6-2.3c0-0.4,0.1-0.9,0.4-1.4
		c0.2-0.4,0.3-1,0.3-1.7c0-1,0-2-0.1-2.9c-0.1-0.8-0.1-1.8-0.1-2.9c0-1.1,0.1-1.9,0.3-2.3c0.2-0.5,0.6-0.8,1.3-1.2
		C202.5,33,203,32.9,203.5,32.9z"/>
	<path d="M215.8,23.6c0.6-0.4,1.2-0.7,2-0.7c0.7,0,1.3,0.2,1.9,0.5c0.5,0.3,0.9,0.9,1.1,1.7c0.2,0.8,0.5,2.4,0.7,4.8
		c0.2,2,0.3,3.7,0.5,5.3l0.1,1l0.5-0.4c0.9-0.9,2.1-1.3,3.5-1.3c0.8,0,1.7,0.2,2.7,0.5c2.5,0.9,4.5,2.3,6.1,4.2
		c1.5,1.9,2.3,4,2.3,6.2V46c-0.1,1.7-0.7,3.2-1.7,4.3s-2.8,2.3-5.3,3.5c-2.2,1.1-3.5,1.6-3.8,1.7c-0.4,0-0.8,0.4-1.2,1
		c-0.7,1.1-1.7,1.6-3,1.6c-0.5,0-1.1-0.3-1.7-1c-1.6-1.6-2.9-5.6-4-12c-0.4-2.5-0.8-5.7-1.2-9.7c-0.4-4-0.6-7-0.6-8.8
		c0-0.6,0-1,0.1-1.2C214.8,24.6,215.2,24.1,215.8,23.6z M226.7,41.3c-0.2,0-0.4,1.3-0.5,4l-0.1,3.2l1.6-0.8c1.8-0.9,2.7-1.7,2.9-2.5
		l0.1-0.1V45c0-1-1-2.1-2.9-3.2L226.7,41.3z"/>
	<path d="M265.9,32.2c0.8,0,1.5,0.1,2,0.3c3.9,1.6,6.2,7.5,6.9,17.5c0.1,1.6,0.2,2.8,0.2,3.7c0,1.4-0.2,2.3-0.5,2.9
		c-0.3,0.6-0.9,1-1.7,1.3c-0.5,0.2-1,0.3-1.3,0.3c-0.8,0-1.5-0.3-2.1-0.9c-0.5-0.4-0.9-1-1-1.7s-0.2-2-0.2-3.9
		c0-3.5-0.3-6.4-0.8-8.7c-0.2-0.8-0.5-1.6-0.8-2.4c-0.3-0.8-0.6-1.2-0.8-1.3h-0.1c-0.3,0-0.6,0.5-0.9,1.6c-0.3,1.1-0.6,2.1-0.7,3.3
		c-0.2,1.5-0.3,2.4-0.4,2.6c-0.2,0.4-0.4,0.9-0.5,1.3c-0.2,0.6-0.6,1-1.3,1.3c-0.8,0.3-1.2,0.4-1.3,0.4s-0.5-0.1-1.3-0.4
		c-0.5-0.2-0.9-0.4-1-0.6c-0.2-0.2-0.3-0.6-0.5-1.2c-0.1-0.3-0.3-1.1-0.6-2.3c-0.1-0.8-0.4-1.7-0.8-2.5c-0.4-0.8-0.8-1.2-1.2-1.2
		c-0.7,0-1.2,2.9-1.6,8.8c-0.2,2.9-0.3,4.7-0.5,5.4c-0.2,0.7-0.7,1.3-1.4,1.8c-0.6,0.4-1.1,0.5-1.6,0.5c-0.5,0-1-0.2-1.6-0.7
		c-1-1-2-3-2.8-6.1c-0.6-1.9-1.1-4.3-1.6-7.3c-0.5-2.9-0.8-5-0.8-6.3c0-0.1,0-0.2,0-0.4c0-0.1,0-0.2,0-0.3c0.2-1.2,1-2,2.3-2.4
		c0.3-0.1,0.6-0.1,0.8-0.1c1.2,0,2.1,0.5,2.8,1.4l0.4,0.7l0.7-0.5c1-0.8,2.3-1.2,3.8-1.2c1.5,0,3.1,0.4,4.7,1.1
		c0.2,0.1,0.6-0.2,1.2-1c1.2-1.5,2.4-2.4,3.7-2.9C264.5,32.3,265.2,32.2,265.9,32.2z"/>
	<path d="M285.5,37.6c1.2,0,2.1,0.5,2.7,1.5c0.3,0.5,0.4,1.1,0.4,1.9c0,0.4-0.2,3.4-0.5,8.8c-0.3,4.1-0.5,6.5-0.7,7.3
		c-0.2,0.8-0.6,1.4-1.2,1.9c-0.4,0.3-1,0.5-1.8,0.5c-1.2,0-2.2-0.6-2.9-1.7c-0.2-0.4-0.4-1-0.4-1.7c0-0.6,0.1-2,0.2-4
		c0-0.6,0.1-2,0.2-4.2c0.1-2.2,0.2-3.7,0.3-4.5c0.2-2.1,0.3-3.4,0.5-4c0.2-0.6,0.7-1,1.4-1.4C284.4,37.7,284.9,37.6,285.5,37.6z
		 M285.5,27.7c0.1,0,0.2,0,0.3,0c1,0,1.8,0.3,2.4,1c0.6,0.7,0.9,1.5,0.9,2.6c0,0.3-0.1,0.8-0.2,1.6c-0.2,0.8-0.7,1.4-1.2,1.9
		c-0.6,0.4-1.2,0.7-2,0.7c-1,0-1.9-0.4-2.6-1.3c-0.5-0.5-0.7-1.2-0.7-2.2c0-1,0.3-1.9,0.8-2.8c0.6-0.8,1.2-1.3,2-1.4
		C285.3,27.7,285.4,27.7,285.5,27.7z"/>
	<path d="M302.1,28.3c1.2,0,2.1,0.5,2.8,1.4c0.4,0.5,0.6,1.7,0.6,3.7l0.1,3l0.8,0.1c0.6,0.1,1.6,0.1,2.8,0.1c2,0,3.3,0.5,4,1.6
		c0.3,0.5,0.5,1.1,0.5,1.7c0,1.3-0.5,2.3-1.6,2.9c-0.4,0.2-1.2,0.4-2.3,0.4h-1.3l-2.8-0.1l0.2,2.2c0.2,2,0.5,4,0.9,6.1
		c0.4,2.1,0.8,3.2,1,3.2c0.4,0,0.8-0.6,1.1-1.7c0.2-0.6,0.2-1.4,0.2-2.4c0-1,0.2-1.8,0.5-2.3c0.7-1,1.6-1.6,2.8-1.6s2.1,0.5,2.8,1.6
		c0.3,0.4,0.5,1.3,0.5,2.7c0,4.5-1.5,7.7-4.6,9.7c-1.4,0.9-2.7,1.3-3.8,1.3c-1.4,0-2.6-0.6-3.5-1.7c-2.2-2.7-3.7-8-4.4-15.8
		l-0.2-1.7h-0.8c-0.5,0-1-0.2-1.5-0.5c-0.5-0.3-0.9-0.7-1.1-1.1c-0.2-0.4-0.3-0.9-0.3-1.4c0-1,0.2-1.8,0.7-2.3
		c0.7-0.8,1.5-1.2,2.2-1.2c0.2,0,0.3-0.1,0.4-0.4c0-0.3,0.1-1,0.1-2.3c0-1.6,0.1-2.6,0.3-3.2s0.6-1.1,1.3-1.5
		C300.9,28.5,301.5,28.3,302.1,28.3z"/>
</g>
</svg>
