<?xml version="1.0" encoding="utf-8"?>
<!-- Generator: Adobe Illustrator 26.4.0, SVG Export Plug-In . SVG Version: 6.00 Build 0)  -->
<svg version="1.1" id="Layer_3" xmlns="http://www.w3.org/2000/svg" xmlns:xlink="http://www.w3.org/1999/xlink" x="0px" y="0px"
	 viewBox="0 0 1556.6 235.1" style="enable-background:new 0 0 1556.6 235.1;" xml:space="preserve">
<style type="text/css">
	.st0{fill-rule:evenodd;clip-rule:evenodd;fill:#FFFFFF;}
	.st1{fill-rule:evenodd;clip-rule:evenodd;fill:#FFFFA6;}
	.st2{fill-rule:evenodd;clip-rule:evenodd;fill:#0EE2F6;}
	.st3{fill-rule:evenodd;clip-rule:evenodd;fill:#FF8E66;}
	.st4{fill-rule:evenodd;clip-rule:evenodd;fill:#0AFEFE;}
	.st5{fill-rule:evenodd;clip-rule:evenodd;fill:#FC4733;}
	.st6{fill-rule:evenodd;clip-rule:evenodd;fill:#0883D6;}
	.st7{fill-rule:evenodd;clip-rule:evenodd;fill:#FDE153;}
	.st8{fill-rule:evenodd;clip-rule:evenodd;}
</style>
<path class="st0" d="M984.9,58.5v0.2l0.9,0.5l0.9,0.5l3.1,0.8l3.1,0.8l1.2,0.6l1.2,0.6l0,0.3l0,0.3l1.3,0.7l1.3,0.7h0.9h0.9l1,0.5
	l1,0.5l1.7,1.6l1.7,1.6l2.2,1.6l2.2,1.6l0.3,0.5l0.3,0.5l0,0.7l0,0.7l1.7,2.5l1.7,2.5V80v0.8l0.8,2l0.8,2l0.1,2.7l0.1,2.7l-0.3,2.2
	l-0.3,2.2l1.1-1.7l1.1-1.7l-0.2-4.3l-0.2-4.3l-0.2-0.6l-0.2-0.6l-0.5-1.7l-0.5-1.7l-1.3-2.5l-1.3-2.5l-1-1.2l-1-1.2l-1.1-1.1
	l-1.1-1.1l-0.7-0.5L1007,67h-0.6h-0.6l-0.8-1l-0.8-1l-1.9-0.9l-1.9-0.9l-1.3-0.9l-1.3-0.9l-1.9-0.8l-1.9-0.8l-2.6-0.6l-2.6-0.6
	l-1.8-0.2l-1.8-0.2V58.5 M1099.5,59.1l-0.3,0.5l1,0.6l1,0.6l2.5,0.3l2.5,0.3l2.9,0.9l2.9,0.9l1.6,1l1.6,1h0.4h0.4l2.6,1.3l2.6,1.3
	l0.6,0.4l0.6,0.4l1.2,0.3l1.2,0.3l0.7,0.8l0.7,0.8l0.8,1.1l0.8,1.1l0.9,0.3l0.9,0.3l2.7,2.8l2.7,2.8l1.1,1.8l1.1,1.8l1.8,1.9
	l1.8,1.9l0.9,1.9l0.9,1.9l0.6,1.3l0.6,1.3l0.6,1.9l0.6,1.9l0.3,2l0.3,2l0.4,0.3l0.4,0.3l-0.1,1.2l-0.1,1.2l0.5,5l0.5,5l-0.7,2.8
	l-0.7,2.8l-0.1,2.7l-0.1,2.7l-0.5,0.7l-0.5,0.7l-0.8,3.2l-0.8,3.2l-0.5,1.1l-0.5,1.1l-1.2,2l-1.2,2l-0.6,0.8l-0.6,0.8l-1.1,1.9
	l-1.1,1.9l-1.2,2.1l-1.2,2.1l-1.3,0.7l-1.3,0.7l-0.9,1.5l-0.9,1.5l-2.2,1.6l-2.2,1.6l-1.6,1.1l-1.6,1.1l-2.6,2.1l-2.6,2.1l-1,0.4
	l-1,0.4v0.4v0.4l1.2-0.6l1.2-0.6l2.6-1.3l2.6-1.3l2.1-1.5l2.1-1.5l1.3-0.7l1.3-0.7l1-1.5l1-1.5l2-1.5l2-1.5v-0.6v-0.6l2.1-1.9
	l2.1-1.9l0.4-1.5l0.4-1.5l1.3-1.4l1.3-1.4l0.6-1.7l0.6-1.7l1-1.4l1-1.4v-1v-1l0.6-1.6l0.6-1.6v-1.3v-1.3l0.6-1.2l0.6-1.2l0.5-3.5
	l0.5-3.5l0.3-2.8l0.3-2.8l-0.5-2.2l-0.5-2.2l-0.1-2.6l-0.1-2.6l-0.9-3.9l-0.9-3.9l-0.5-1.3l-0.5-1.3l-0.6-1.4l-0.6-1.4l-0.4-0.3
	l-0.4-0.3l-1.1-2.1l-1.1-2.1v-0.6v-0.6l-3.5-3.8l-3.5-3.8l-1.7-2.2l-1.7-2.2l-1.9-1.4l-1.9-1.4h-0.8h-0.8l-1.2-1.1l-1.2-1.1l-0.6,0
	l-0.6,0l-1.7-1.1l-1.7-1.1l-0.6,0l-0.6,0l-2.9-1.3l-2.9-1.3l-4.6-0.4l-4.6-0.4l-1.6-0.3l-1.6-0.3L1099.5,59.1 M1343.7,60.6l-4.3,0.3
	l-5.2,0.4l-5.2,0.4l-1.2-0.3l-1.2-0.3l-1.7,0.4l-1.7,0.4l-1.9,0l-1.9,0l-0.9,0.3l-0.9,0.3l-1.1-0.4l-1.1-0.4l-2.3,0.9l-2.3,0.9
	l-2.1-0.5l-2.1-0.5l-1.2,0.5l-1.2,0.5h-1.5h-1.5l0.2,1.3l0.2,1.3l0.3,0.3l0.3,0.3l3.1-0.1l3.1-0.1l0.3-0.2l0.3-0.2l5.2-0.7l5.2-0.7
	l9.3-0.5l9.3-0.5l5.6-0.2l5.6-0.2l4.8-0.3l4.8-0.3l3.5-0.1l3.5-0.1l11.5,0.4l11.5,0.4l2.8,0.1l2.8,0.1l5.4,0.3l5.4,0.3l0.5,0.3
	l0.5,0.3l0.7,2.3l0.7,2.3l0.3,2.2l0.3,2.2l0,4.8l0,4.8l-0.2,4.2l-0.2,4.2l-0.8,1.9l-0.8,1.9l-0.3,1.4l-0.3,1.4l0.4,0.2l0.4,0.2
	l0.9-1.3l0.9-1.3l0.2-1.6l0.2-1.6l0.8-2.6l0.8-2.6l0.2-3.9l0.2-3.9l0.5-2l0.5-2l-0.6-1.7l-0.6-1.7l0.2-2.3l0.2-2.3l-0.8-2.2
	l-0.8-2.2v-0.1v-0.1l-1.2-0.3L1407,63l-3.5-0.4l-3.5-0.4l-3.5-0.5l-3.5-0.5l-4.8-0.2l-4.8-0.2l-4.3,0l-4.3,0l-3.2,0l-3.2,0l-3.7,0
	l-3.7,0l-0.9,0.1l-0.9,0.1l-4.5-0.3l-4.5-0.3l-1.1-0.1l-1.1-0.1L1343.7,60.6 M1188.7,61l-2.2,0.4l-2.6,0.2l-2.6,0.2l-1,0.2l-1,0.2
	v0.3v0.3l6.1,0l6.1,0l4.9,0.3l4.9,0.3l2.3,1.4l2.3,1.4l0,1.1l0,1.1l-0.9,4.1l-0.9,4.1l-0.3,5.4l-0.3,5.4l-0.4,0.6l-0.4,0.6l0.1,9
	l0.1,9l0.4,1.2l0.4,1.2v2.4v2.4l0.5,1.5l0.5,1.5l0.4,1.3l0.4,1.3l0.2,1.3l0.2,1.3l1,1.5l1,1.5v0.6v0.6l3.4,3.3l3.4,3.3l1.6,0.8
	l1.6,0.8l1.8,0.2l1.8,0.2l1-0.7l1-0.7h-1h-1l-2.7-0.7l-2.7-0.7l-1.1-1.2l-1.1-1.2l-1.3-1.5l-1.3-1.5l-0.8-1.8l-0.8-1.8l-1.3-2.2
	l-1.3-2.2l0-1.4l0-1.4l-0.5-1.2l-0.5-1.2l-0.4-3.7l-0.4-3.7l-0.1-3l-0.1-3l0.3-8.7l0.3-8.7l0.4-1.5l0.4-1.5l0.3-3.5l0.3-3.5l1.3-4.2
	l1.3-4.2l-0.5-0.8l-0.5-0.8l-1.3-0.7l-1.3-0.7l-2.7,0l-2.7,0l-0.8-0.4l-0.8-0.4l-3.9-0.2l-3.9-0.2L1188.7,61 M1477.8,60.6l0.2,0.2
	l1.9,1.1l1.9,1.1l1.5,0.8l1.5,0.8l0.6,0.6l0.6,0.6l0.2-0.2l0.2-0.2l-0.5-0.6l-0.5-0.6l-3.5-1.7l-3.5-1.7h-0.5h-0.5L1477.8,60.6
	 M1258.6,62.4l-0.2,0.2l-3,0.2l-3,0.2l-2.5,0.4l-2.5,0.4l-0.7,0.7l-0.7,0.7l0.4,1.2l0.4,1.2l1.6-0.1l1.6-0.1l0.9-0.5l0.9-0.5
	l5.1-0.7l5.1-0.7l0.5,0.3l0.5,0.3l4.4,0.2l4.4,0.2l2,0l2,0l0.4,0.6l0.4,0.6l0.6,2.6l0.6,2.6l0.4,1.4l0.4,1.4l0,3.1l0,3.1l0.6,3.7
	l0.6,3.7l-0.2,8.9l-0.2,8.9l-0.4,5l-0.4,5l-0.7,3l-0.7,3l-0.5,1.9l-0.5,1.9l-0.4,0.4l-0.4,0.4v0.9v0.9l-0.5,1.5l-0.5,1.5l-1.2,3
	l-1.2,3l-1.2,3.3l-1.2,3.3l-1.8,2.4l-1.8,2.4v0.3v0.3l-1.3,1.4l-1.3,1.4l-1.6,2.3l-1.6,2.3l-0.6,0.2l-0.6,0.2v0.4v0.4l2-1.5l2-1.5
	l0.9-1.1l0.9-1.1l0.9-0.3l0.9-0.3l0.6-1.2l0.6-1.2l1.6-1.8l1.6-1.8l1.4-2.4l1.4-2.4l1.8-4l1.8-4l0.9-1.8l0.9-1.8l0.4-2.1l0.4-2.1
	l0.3-1.3l0.3-1.3l0.5-0.6l0.5-0.6l0.1-2.9l0.1-2.9l0.5-0.9l0.5-0.9l-0.2-2.6l-0.2-2.6l0.1-1.1l0.1-1.1l0-8l0-8l-0.2-3.3l-0.2-3.3
	l-0.6-2.1l-0.6-2.1l0.3-0.6l0.3-0.6l-0.2-2.6l-0.2-2.6l-0.4-0.8l-0.4-0.8l-0.2-3.7l-0.2-3.7l-1.2-1l-1.2-1l-1.4,0l-1.4,0L1274,63
	l-0.3-0.5l-6.3,0.1l-6.3,0.1l-1.1-0.3l-1.1-0.3L1258.6,62.4 M885.7,62.8v0.1l0.9,2.8l0.9,2.8l1.1,1.4l1.1,1.4l0.6,1.7l0.6,1.7
	l0.4,0.8l0.4,0.8l1.1,2.2l1.1,2.2v0.6V82l0.7,1.4l0.7,1.4l0.2,1.3l0.2,1.3l0.8,1.1l0.8,1.1l0.9,2.1l0.9,2.1v1.2v1.2l0.7,1.7l0.7,1.7
	l0.8,1.7l0.8,1.7l1,2.8l1,2.8l0.3,1.8l0.3,1.8l0.9,2.3l0.9,2.3l0.5,2.6l0.5,2.6l0.4,2.2l0.4,2.2l0.6,2l0.6,2v1.4v1.4l1,1.8l1,1.8
	l-0.1,1.7l-0.1,1.7l0,0.9l0,0.9l0.7,3.7l0.7,3.7l0,1.3l0,1.3l0.6,3.5l0.6,3.5l-0.7,3.5l-0.7,3.5l-0.1,1.3l-0.1,1.3l1.1,0.1l1.1,0.1
	l0.8-0.8l0.8-0.8l-0.3-5l-0.3-5l-0.1-1.3l-0.1-1.3l-0.3-4.1l-0.3-4.1l-0.4-1.1l-0.4-1.1l-0.4-2.5l-0.4-2.5l-0.2-2.2l-0.2-2.2
	l-0.8-3.2l-0.8-3.2l-0.3-0.4l-0.3-0.4l-0.2-2.4l-0.2-2.4l-0.5-1.2l-0.5-1.2v-2v-2l-0.4-1.3l-0.4-1.3l-1.4-3.9l-1.4-3.9l-0.4-2.2
	l-0.4-2.2l-0.4-2.5l-0.4-2.5l-1.1-2.7l-1.1-2.7l-0.3-0.9l-0.3-0.9l-0.7-1.6l-0.7-1.6v-0.8v-0.8l-0.4-0.2l-0.4-0.2l-0.5-2.1l-0.5-2.1
	l-1.3-2l-1.3-2v-0.5v-0.5l-0.9-2.1l-0.9-2.1l-1.8-2.9l-1.8-2.9l-1.4-0.5l-1.4-0.5v-0.6v-0.6h-0.6h-0.6V62.8 M1491.2,71.2V72l0.7,1
	l0.7,1l0.9,2.2l0.9,2.2l0.3,1.3l0.3,1.3l0.5,0.8l0.5,0.8l-0.3-2.6l-0.3-2.6l-0.8-1.7l-0.8-1.7l-0.5-1.4l-0.5-1.4l-0.8-0.4l-0.8-0.4
	V71.2 M1463.4,78.6l-1.6,0.3l-1.8,1.2l-1.8,1.2l-1.1,1.3l-1.1,1.3v0.5v0.4l1.1-0.7l1.1-0.7h0.4h0.4l2.1-1.3l2.1-1.3l3,0l3,0l1.7,0.8
	l1.7,0.8l1,0.9l1,0.9h0.3h0.3l0.7,0.7l0.7,0.7v3.1V92l-1.2,1.6l-1.2,1.6l-1.8,0.9l-1.8,0.9l-2.2,1.3l-2.2,1.3l-0.9,0l-0.9,0
	l-0.2,0.4l-0.2,0.4l-1.3,0.3l-1.3,0.3l-0.2,0.6l-0.2,0.6l1.1,0.5l1.1,0.5l1.6,0l1.6,0l2.4-1.2l2.4-1.2l1.3-0.8l1.3-0.8l0.5-1.1
	l0.5-1.1l1.2-0.7l1.2-0.7l0.9-2.6l0.9-2.6v-1.6v-1.6l-2.3-3.4l-2.3-3.4l-1.5-0.7l-1.5-0.7l-3.3-0.2l-3.3-0.2L1463.4,78.6 M1496,85.5
	l-0.6,2.2l0.5,0.9l0.5,0.9l-0.5,1.1l-0.5,1.1v3.2v3.2l-0.4,0.2l-0.4,0.2l-0.3,1.4l-0.3,1.4l-0.3,0.7l-0.3,0.7l-1.2,2.4l-1.2,2.4
	l-1.4,1.5l-1.4,1.5l-1,1.6l-1,1.6l-1.8,1.4l-1.8,1.4l-0.9,0.3l-0.9,0.3l-2,0.2l-2,0.2l-1.7,1.1l-1.7,1.1h-0.6h-0.6l-1.4,1.7
	l-1.4,1.7l-0.5,2l-0.5,2v0.9v0.9h0.6h0.6l0.7-1.3l0.7-1.3v-1.1v-1.1l1.2-0.9l1.2-0.9l1.9-1.3l1.9-1.3l0.6,0l0.6,0l1.3-0.9l1.3-0.9
	l0.9,0l0.9,0l2-1.6l2-1.6l1.9-1.5l1.9-1.5l1.3-2.2l1.3-2.2l0.3-1.1l0.3-1.1l0.7-1.5l0.7-1.5l0.6-1.2l0.6-1.2l0.1-1.4l0.1-1.4
	l0.3-5.8l0.3-5.8l-0.4-1l-0.4-1L1496,85.5 M960.7,96l0,3.7l0.6,1.3l0.6,1.3l-0.2-1.1l-0.2-1.1l0-0.9l0-0.9l0.3-1.1l0.3-1.1l-0.7-1.9
	l-0.7-1.9L960.7,96 M856.7,97.6l-1.9,1l-0.5,0.5l-0.5,0.5l-0.7,1.1l-0.7,1.1v1v1l-1.9,2.8l-1.9,2.8l-0.5,1.5l-0.5,1.5l-0.5,1.9
	l-0.5,1.9l-0.2,3l-0.2,3l0.8,1.7l0.8,1.7h0.3h0.3L848,124l-0.4-1.4V121v-1.6l0.7-1.6l0.7-1.6l0.4-2l0.4-2l1.7-3.5l1.7-3.5l0.6-1
	l0.6-1l0.9-1l0.9-1l0.3-1.2l0.3-1.2l1.4-1.3l1.4-1.3l-0.4,0l-0.4,0L856.7,97.6 M1080.9,103.3l-0.7,0.8l-0.7,1.4l-0.7,1.4v1.7v1.7
	l-0.5,0.5l-0.5,0.5l0.1,3.6l0.1,3.6l0.4,0.4l0.4,0.4v1.3v1.3l1.1,2.1l1.1,2.1l1.8,2l1.8,2l2.7,1.4l2.7,1.4l3.3,0.2l3.3,0.2l-0.3-0.4
	l-0.3-0.4l-2-0.5l-2-0.5l-0.8,0l-0.8,0l-1.6-1.2l-1.6-1.2l-0.8-0.6l-0.8-0.6l-1.8-2.6l-1.8-2.6l-1.1-1.1l-1.1-1.1l-0.4-2.5l-0.4-2.5
	l-0.2-1.9l-0.2-1.9l0.5-0.9l0.5-0.9l0.7-1.6l0.7-1.6l0.7-1.6l0.7-1.6l0.2-0.3l0.2-0.3h-0.4h-0.4L1080.9,103.3 M963.4,104.4l1.1,1.5
	l1,0.7l1,0.7h0.3h0.3l-2.2-2.2l-2.2-2.2h-0.3h-0.3L963.4,104.4 M1378.6,110.4l-0.5,1.4l-0.7,1.5l-0.7,1.5l0.1,3.2l0.1,3.2l-0.5,1.5
	l-0.5,1.5l0.5,1.5l0.5,1.5l-0.8,1.8l-0.8,1.8l0.5,1.7l0.5,1.7l-0.2,2.7l-0.2,2.7l-0.2,3.7l-0.2,3.7l-0.4,3.1l-0.4,3.1l-0.4,0.6
	l-0.4,0.6l-0.3,2.4l-0.3,2.4l-0.5,2.8l-0.5,2.8l0.7,0.7l0.7,0.7l1.3-1.5l1.3-1.5v-1.4v-1.4l0.6-1.2l0.6-1.2l0.5-5.1l0.5-5.1l0.1-4.1
	l0.1-4.1l0.5-3l0.5-3l-0.2-2.4l-0.2-2.4l0-1.7l0-1.7l-0.1-3.7l-0.1-3.7l0.1-4.2l0.1-4.2h-0.2h-0.2L1378.6,110.4 M1020.8,121.6l0,0.7
	l0.4,0.4l0.4,0.4l0.6,1.9l0.6,1.9l0.5,1.1l0.5,1.1l0.4,3.9l0.4,3.9l0,2.6l0,2.6l-0.3,1.9l-0.3,1.9l-0.4,0.4l-0.4,0.4v0.8v0.8
	l-0.7,1.4l-0.7,1.4l-0.3,0.2l-0.3,0.2l-0.8,1.2l-0.8,1.2l0.1,0.4l0.1,0.4l1.7-1.7l1.7-1.7l0.5-0.9l0.5-0.9v-0.8v-0.8l0.6-0.5
	l0.6-0.5v-1v-1l0.5-1.2l0.5-1.2l0.1-3.8l0.1-3.8l-0.4-1.4l-0.4-1.4l-0.6-2.3l-0.6-2.3l-1.4-2.3l-1.4-2.3l-0.6-1.1l-0.6-1.1
	L1020.8,121.6 M963.3,130.1l-0.5,2l0.1,5.4l0.1,5.4l0.3,1.7l0.3,1.7l0.7,1.1l0.7,1.1l1.6,1.6l1.6,1.6l1.4,0.3l1.4,0.3h0.8h0.8
	l-0.3-0.4l-0.3-0.4l-1.2,0l-1.2,0l-1-0.5l-1-0.5l-1.1-1.5l-1.1-1.5l0-0.7l0-0.7l-0.6-1.9l-0.6-1.9l-0.2-7l-0.2-7l-0.1-0.1l-0.1-0.1
	L963.3,130.1 M1462.6,151v0.4l1.3,0.9l1.3,0.9l0.7,1.3l0.7,1.3l-0.2,2.5l-0.2,2.5l-0.8,1.6l-0.8,1.6l0.3,0.3l0.3,0.3l1.1-0.6
	l1.1-0.6l0.7-1l0.7-1l0.1-3.1l0.1-3.1l-1-1.2l-1-1.2h-0.4h-0.4l-1.2-1.1l-1.2-1.1h-0.7h-0.7V151 M980.5,151.7l-0.2,0.2l-2.8,0.6
	l-2.8,0.6l2.6,0l2.6,0l1.7-0.8l1.7-0.8l-1.3,0l-1.3,0L980.5,151.7"/>
<path class="st1" d="M362.2,65.1l-2.8,0.4l-7.4,0.2l-7.4,0.2l-1.7,0.2l-1.7,0.2l-3.2,0.1l-3.2,0.1l-0.5,0.5l-0.5,0.5h-2h-2l-0.5-0.5
	l-0.5-0.5l-0.9,0.5l-0.9,0.5h-0.9h-0.9l0.2,1.8l0.2,1.8l0.4,0.5l0.4,0.5h1.8h1.8l1.2-0.6l1.2-0.6l1.5,0l1.5,0l1.7-0.5l1.7-0.5
	l4.3-0.4l4.3-0.4l4.5-0.4l4.5-0.4l1.7-0.2l1.7-0.2l4.1-0.4l4.1-0.4l1.2,0.4l1.2,0.4l2.8-0.5l2.8-0.5l3.6,0.2l3.6,0.2l0.4,0.1
	l0.4,0.1l1.9-0.3l1.9-0.3l1.7,0.5l1.7,0.5l1.7-0.6l1.7-0.6l2.4,0.7l2.4,0.7l2.3-0.4l2.3-0.4l2.8,0.4l2.8,0.4l2.2,0.2l2.2,0.2
	l2.4,0.2l2.4,0.2l3.9,0.6l3.9,0.6l0.3,0.9l0.3,0.9l0,2.7l0,2.7l0.5,0.3l0.5,0.3l-0.3,4.6l-0.3,4.6l-0.2,3.4l-0.2,3.4l-1.1,2.2
	l-1.1,2.2v0.5v0.5l-1.1,1.3l-1.1,1.3l0.4,0.5l0.4,0.5l1.5-0.2l1.5-0.2l0.9-1.2l0.9-1.2v-1.1v-1.1l1.1-3.4l1.1-3.4l0.2-2.6l0.2-2.6
	l0.1-7.1l0.1-7.1l-0.8-2.2l-0.8-2.2v-0.1v-0.1l-3.6-0.5l-3.6-0.5l-1.7-0.2l-1.7-0.2l-2.1-0.2l-2.1-0.2l-0.9-0.3l-0.9-0.3l-4.3,0
	l-4.3,0l-0.5-0.4l-0.5-0.4l-5.1,0.5l-5.1,0.5l-2.9-0.3l-2.9-0.3l-2.7,0.1l-2.7,0.1l-1.7,0l-1.7,0l-7.1-0.2l-7.1-0.2L362.2,65.1
	 M399.2,110.7l-1.7,1.5l-0.3,6l-0.3,6l-0.2,2.8l-0.2,2.8l-0.2,4.5l-0.2,4.5l-0.3,2l-0.3,2l0.4,1.3l0.4,1.3l-0.4,1.7l-0.4,1.7
	l-0.1,3.2l-0.1,3.2l-0.4,4.1l-0.4,4.1l-0.3,1.6l-0.3,1.6l1.6,0.3l1.6,0.3l0.4-0.3l0.4-0.3v-1.4V164l0.7-1.3l0.7-1.3l0.2-3.2l0.2-3.2
	l0.2-5.8l0.2-5.8l0.4-0.4l0.4-0.4l0.1-4.8l0.1-4.8l-0.6-0.9l-0.6-0.9l0.6-1.1l0.6-1.1l-0.3-4.9l-0.3-4.9l0-0.9l0-0.9l0.4-3l0.4-3
	l0.5-0.5l0.5-0.5v-0.6v-0.6h-0.6h-0.6L399.2,110.7"/>
<path class="st2" d="M484.6,59.1l-0.9,0.5l-1.3,0.3l-1.3,0.3l1.3,0l1.3,0l0.5-0.5l0.5-0.5l2.8-0.1l2.8-0.1l-0.5-0.3l-0.5-0.3l-1.9,0
	l-1.9,0L484.6,59.1 M482,62.1l-2.6,0.4l-3.6,1.1l-3.6,1.1l0.2-0.5l0.2-0.5l0.9-0.1l0.9-0.1v-0.4v-0.4l-0.8,0.3l-0.8,0.3l-1.8,1.1
	l-1.8,1.1l0,0.5l0,0.5l-0.7,0.3l-0.7,0.3l0.6-0.8l0.6-0.8l-1.4,1.4l-1.4,1.4h-0.6H465l-0.3,0.7l-0.3,0.7l1-0.3l1-0.3l0.7-0.6
	l0.7-0.6h0.4h0.4l1.1-0.9l1.1-0.9l3.4-1.1l3.4-1.1l3.2-0.6l3.2-0.6l5.5,0.1l5.5,0.1l2.8,0.6l2.8,0.6L504,65l3.3,1.3l3.1,2.2l3.1,2.2
	l0.9,1.4l0.9,1.4l1.5,1l1.5,1l0.5,1.4l0.5,1.4v1v1l1.2,1.9l1.2,1.9l0.9,0.2l0.9,0.2l1-0.1l1-0.1l0.6-0.9l0.6-0.9l-0.9-1.1l-0.9-1.1
	l0.3,0.9l0.3,0.9l0.1,0.4l0.1,0.4l-1.4,0.4l-1.4,0.4l-0.8-1l-0.8-1l-0.4-1.1l-0.4-1.1l-0.3-1.7l-0.3-1.7l-2-2l-2-2l-0.7-1l-0.7-1
	l-3.3-2.3l-3.3-2.3l-2.2-1l-2.2-1l-2.8-0.8l-2.8-0.8l-6.5-0.2l-6.5-0.2L482,62.1 M254.1,63.4l-0.2,0.3l1.1,0.4l1.1,0.4l1.4,0l1.4,0
	l2.6,0.6l2.6,0.6l2.8,0.3l2.8,0.3l1.4,0.8l1.4,0.8l1.7,0.5l1.7,0.5l2.1,0.9l2.1,0.9l1.8,1.6l1.8,1.6l1.9,1.4l1.9,1.4l1,1.5l1,1.5
	h0.4h0.4l2,2.7l2,2.7l1.2,2.4l1.2,2.4l1.9,4.6l1.9,4.6v0.8v0.8l0.8,1.7l0.8,1.7l0.3,4.7l0.3,4.7l0,1.7l0,1.7l-0.3,3.5l-0.3,3.5
	l-0.4,2.2l-0.4,2.2l0.2,0.6l0.2,0.6l-0.9,2.3l-0.9,2.3l-0.6,1.5l-0.6,1.5l-1,3l-1,3l-1,1.5l-1,1.5l-1.7,2.4l-1.7,2.4l-0.9,1.8
	l-0.9,1.8l-1.6,0.9l-1.6,0.9l-1.3,1.9l-1.3,1.9l-0.9,0.2l-0.9,0.2l-2.4,2.1l-2.4,2.1l-0.8,0.6l-0.8,0.6l1.1-0.3l1.1-0.3l0.1-0.4
	l0.1-0.4h0.6h0.6l2.3-1.7l2.3-1.7h0.4h0.4l1.4-1.1l1.4-1.1v-0.6v-0.6l1.5-1.2l1.5-1.2l-0.2-0.4l-0.2-0.4l0.6,0.2l0.6,0.2l0.5-1
	l0.5-1l2.3-2.5l2.3-2.5v-1v-1l0.8-0.7l0.8-0.7l0.8-1l0.8-1l-0.2-0.2l-0.2-0.2l-1.8,2.1l-1.8,2.1v1v1l-2,1.7l-2,1.7l-0.4,1l-0.4,1
	h-0.4h-0.4l0.3-0.8l0.3-0.8l1.8-2.6l1.8-2.6l0.2-0.2l0.2-0.2l1.1-1.5l1.1-1.5l0.3-0.9l0.3-0.9l1.6-4.5l1.6-4.5l0.4-0.8l0.4-0.8
	l0.6-5.1l0.6-5.1l0.2-2.4l0.2-2.4l0-1.3l0-1.3l-0.3-3.2l-0.3-3.2l-0.3-2.4l-0.3-2.4l-0.6-0.9l-0.6-0.9v-1.2v-1.2l-0.8-1.4L300,96
	l-1-2.6l-1-2.6l-1.5-3l-1.5-3l-1.4-1.7l-1.4-1.7l-1.6-1.7l-1.6-1.7v-0.4v-0.3l-2.5-1.8l-2.5-1.8l-2-1.9l-2-1.9h-0.5H279l-2.4-1.1
	l-2.4-1.1h-0.5h-0.5l-1.8-1l-1.8-1l-3.5-0.3l-3.5-0.3l-0.4-0.2l-0.4-0.2l0.6-0.4l0.6-0.4l-3.1,0.3l-3.1,0.3v-0.5v-0.5l2.1,0.3
	l2.1,0.3l-0.3-0.3l-0.3-0.3l-3,0l-3,0L254.1,63.4 M271.5,65.6l1.3,1.1l0.6,0l0.6,0l1.6,0.6l1.6,0.6l0.5,0.5l0.5,0.5h0.7h0.7
	l-0.9-0.6l-0.9-0.6l-2.5-0.9l-2.5-0.9l-1.3-0.7l-1.3-0.7L271.5,65.6 M658.7,65l-0.3,0.3l-4.8,0.3l-4.8,0.3l5.2-0.2l5.2-0.2l3.6-0.2
	l3.6-0.2l0.2-0.2l0.2-0.2H663h-3.9L658.7,65 M673.4,65.1l1.7,0.4l2.7,0l2.7,0l0.2-0.3l0.2-0.3l-4.6-0.1l-4.6-0.1L673.4,65.1
	 M682.5,65.1l0.3,0.4l2-0.1l2-0.1l6.2,0.1l6.2,0.1l0.7-0.4l0.7-0.4l-4.1,0.2l-4.1,0.2l-0.4,0l-0.4,0l-4.7-0.3l-4.7-0.3L682.5,65.1
	 M702.2,65v0.4l1,0.3l1,0.3l3.6-0.4l3.6-0.4l-3.8,0.2l-3.8,0.2l-0.9-0.5l-0.9-0.5V65 M644.2,65.5l-1.1,0.3l-2.2,0.1l-2.2,0.1
	l-0.9,0.4l-0.9,0.4l3-0.2l3-0.2l1.3-0.4l1.3-0.4l1.5,0.2l1.5,0.2l-1.1-0.4l-1.1-0.4h-0.6h-0.6L644.2,65.5 M712.9,65.9l1.4,0.3
	l3.2,0.2l3.2,0.2l-1.5-0.4l-1.5-0.4l-3-0.2l-3-0.2L712.9,65.9 M653,66.7l-0.5,0.3l-8.6,0.1l-8.6,0.1l-0.7,0.4l-0.7,0.4h-0.9H632
	l0.2-0.6l0.2-0.6l-1.2,0.4l-1.2,0.4l-1.8-0.5l-1.8-0.5l-1.3,0.5l-1.3,0.5v0.6v0.6l0.8,0.5l0.8,0.5l2.1-0.5l2.1-0.5l2.3,0.1l2.3,0.1
	l0.6-0.5l0.6-0.5l8.1-0.1l8.1-0.1l2.2-0.4l2.2-0.4l9.6,0.1l9.6,0.1l0.4,0.3l0.4,0.3l2.5,0l2.5,0l4.8-0.1l4.8-0.1l1.9,0.6l1.9,0.6
	l1.9-0.4l1.9-0.4l1.1,0.4l1.1,0.4l3.5,0l3.5,0l5.5,0.2l5.5,0.2l1.1,0.4l1.1,0.4h1.2h1.2l0.7,0.5l0.7,0.5l0.2,1.7l0.2,1.7l0.5,1.9
	l0.5,1.9l-0.3,3.9l-0.3,3.9l0.1,2.8l0.1,2.8l-0.7,2.2l-0.7,2.2l-1,2.7l-1,2.7v0.9v0.9l1.4-0.1l1.4-0.1l-1-0.2l-1-0.2l0-0.7l0-0.7
	l1.6-4.3l1.6-4.3l0.2-4.1l0.2-4.1l0-3.5l0-3.5l-0.6-3.3l-0.6-3.3l-0.8-0.8l-0.8-0.8l-5.1-0.5l-5.1-0.5l-6.5-0.2l-6.5-0.2l-3.2-0.2
	l-3.2-0.2l-6.7-0.4l-6.7-0.4l-1,0l-1,0l-1,0l-1,0l-11.7-0.2l-11.7-0.2L653,66.7 M513.6,67.3l0.9,0.5l3.4,3.5l3.4,3.5v-0.5v-0.5
	l-1.9-1.9l-1.9-1.9l-1.8-1.6l-1.8-1.6l-0.5,0l-0.5,0L513.6,67.3 M625.7,67.5l-0.5,0.2v0.6V69l1.8-0.3l1.8-0.3l0.2-0.2l0.2-0.2
	l-0.2-0.2l-0.2-0.2l-1.3-0.2l-1.3-0.2L625.7,67.5 M285.1,72l1.1,0.9l1.2,0.7l1.2,0.7l0.2,0.7l0.2,0.7l2,2.2l2,2.2l2.4,2.7l2.4,2.7
	l0.2,0.5l0.2,0.5l0.8,1.9l0.8,1.9l0.3-0.3l0.3-0.3l-0.4-0.6l-0.4-0.6l-0.5-1.5l-0.5-1.5l-1-1.1l-1-1.1l-3.8-4.3l-3.8-4.3v-0.3v-0.3
	l-2.1-1.6l-2.1-1.6l-0.4,0l-0.4,0L285.1,72 M729.8,75.8l0.1,4.6l0,0.4l0,0.4l-0.2,3.2l-0.2,3.2l0.4-0.9l0.4-0.9l0.1-1.7l0.1-1.7
	l-0.1-2.2l-0.1-2.2l0-3.3l0-3.3l-0.3-0.2l-0.3-0.2L729.8,75.8 M246.4,98.8l-0.9,0.2l-1.5,1.1l-1.5,1.1l-2.2,2.1l-2.2,2.1l-1.2,0.9
	l-1.2,0.9v0.5v0.5l-0.6,0.7l-0.6,0.7l-1.1,3.2l-1.1,3.2l-0.3,2.2l-0.3,2.2l0.7,2.8l0.7,2.8l1.6,2.3l1.6,2.3l1.7,1.5l1.7,1.5h0.5h0.5
	l1.6,1.2l1.6,1.2l3,0.9l3,0.9l1.7,0.2l1.7,0.2l0.9-0.3l0.9-0.3l-1.2-0.5l-1.2-0.5h-0.4h-0.4l0.3,0.5l0.3,0.5l-0.8-0.3l-0.8-0.3
	l-1.4-0.1l-1.4-0.1l1.5-0.3l1.5-0.3l-1.6-0.3l-1.6-0.3l-0.6,0.2l-0.6,0.2l-1.5-0.5l-1.5-0.5l-2.1-1.3l-2.1-1.3l-2-1.9l-2-1.9
	l-0.5-0.9l-0.5-0.9l-0.5-1.1l-0.5-1.1l-0.4-1.7l-0.4-1.7l0-1.3l0-1.3l0.4-2.2l0.4-2.2l1-2.4l1-2.4l0.7-1.1l0.7-1.1l1.5-1.4l1.5-1.4
	l0.1,0.1l0.1,0.1l-1.6,3.2l-1.6,3.2l-0.4,0.9l-0.4,0.9L236,114l-0.2,1.1l0.7-1.5l0.7-1.5l2.1-4.3l2.1-4.3l1.1-1.2l1.1-1.2h0.9h0.9
	l0.3-0.5l0.3-0.5l-0.6,0.4l-0.6,0.4l0.3-0.5l0.3-0.5l0.6,0.2l0.6,0.2l0.8-0.6L248,99l-0.4-0.2l-0.4-0.2L246.4,98.8 M482.2,100.4v1.1
	l0.6,0.2l0.6,0.2l2.1,2.6l2.1,2.6l0.4,0l0.4,0l0.7,0.6l0.7,0.6l2.6,0.9l2.6,0.9l5.2,0.7l5.2,0.7l0.8,0.4l0.8,0.4h1.5h1.5l0.8,0.9
	l0.8,0.9l1.3,0.7l1.3,0.7l1.1,1.1l1.1,1.1l1.8,0.8l1.8,0.8l1.1,1.9l1.1,1.9l1.5,1.1l1.5,1.1l0.9,2.5l0.9,2.5l0.8,1.5l0.8,1.5
	l0.5,2.9l0.5,2.9l-0.3,2.8l-0.3,2.8l-0.6,0.6l-0.6,0.6l-0.3,1.9l-0.3,1.9l-0.8,1.6l-0.8,1.6v0.8v0.8l-1.5,1.8l-1.5,1.8v0.4v0.4
	l-1.1,1l-1.1,1l0,0.5l0,0.5l0.4,0.2l0.4,0.2l1.1-0.4l1.1-0.4l0.7-0.5l0.7-0.5l1.7-1.7l1.7-1.7l0.7-1.5l0.7-1.5l0.6-1.3l0.6-1.3
	l-0.9,0.8l-0.9,0.8v0.9v0.9l-0.7,1.1l-0.7,1.1l-0.5,0.6l-0.5,0.6l-0.6,0.8l-0.6,0.8l-1.4,0.3l-1.4,0.3l0.3-0.8l0.3-0.8l1.4-1.7
	l1.4-1.7v-0.7V154l1.1-2.1l1.1-2.1l0-1.2l0-1.2l0.9-1.8l0.9-1.8l0.2-2.7l0.2-2.7l-0.7-3.3l-0.7-3.3l-0.4-0.2l-0.4-0.2l-1.1-3l-1.1-3
	l-1.7-1.7l-1.7-1.7l-1-1.7l-1-1.7l-2-1l-2-1l-1.5-1.3l-1.5-1.3h-0.5h-0.5l-1-1.1l-1-1.1l-1.3,0l-1.3,0l-1.1-0.6l-1.1-0.6l-1.3,0
	l-1.3,0l-2.6-0.5l-2.6-0.5l-2.4-0.6l-2.4-0.6l-1.5-0.6l-1.5-0.6l-1.6-0.9l-1.6-0.9l-1-1.4l-1-1.4l0.6,0l0.6,0l-1.2-0.7l-1.2-0.7
	l-0.4-1.1l-0.4-1.1h-0.4h-0.4V100.4 M304.6,102l0,1.2l0.7,1.6l0.7,1.6l-0.2,1.8l-0.2,1.8l0.7,1.9l0.7,1.9l-0.3-1.5l-0.3-1.5
	l-0.1-2.6l-0.1-2.6l-0.7-2.4l-0.7-2.4L304.6,102 M502.8,106.2l0.5,0.5l2.6,0.2l2.6,0.2l1.4,1.5l1.4,1.5l0.2-0.2l0.2-0.2l-1.5-1.6
	l-1.5-1.6l-1,0l-1,0l-1.1-0.1l-1.1-0.1l-1.1-0.3l-1.1-0.3L502.8,106.2 M512.1,110.6v0.5l1.4,0.7l1.4,0.7l1.7,1.1l1.7,1.1l0.6,0
	l0.6,0l-1.9-1l-1.9-1l-1.8-1.2l-1.8-1.2V110.6 M697.1,112l-1.4,0.9l0,1l0,1h-0.4H695l-0.1,2.3l-0.1,2.3l0,1.7l0,1.7l0.2,3.5l0.2,3.5
	l0.5,2.2l0.5,2.2l-0.4,7.8l-0.4,7.8l-0.5,0.8l-0.5,0.9v2.6v2.6l-1.1,2.4l-1.1,2.4v0.8v0.8l-0.6,1.2l-0.6,1.2l0,0.6l0,0.6l1.5,1
	l1.5,1l0.9-0.9l0.9-0.9v-0.5v-0.5l-0.4,0.3l-0.4,0.3v0.7v0.7l-0.8-0.7l-0.8-0.7l-0.8-0.3l-0.8-0.3l0-0.6l0-0.6l0.6-1.1l0.6-1.1
	l0-1.2l0-1.2l0.3-0.1l0.3-0.1l0.8-2.2l0.8-2.2l0-2.8l0-2.8l0.4-0.4l0.4-0.4l0.5-7.8l0.5-7.8l-0.5-1.3l-0.5-1.3l-0.2-3.7l-0.2-3.7
	l-0.1-3.5l-0.1-3.5l0.4-1.7l0.4-1.7l0.7-0.8l0.7-0.8h0.5h0.5l-0.3,2.3l-0.3,2.3l0,2.4l0,2.4l0.3,0.8l0.3,0.8l0-3.9l0-3.9l0.3-2.3
	l0.3-2.3l-0.3,0l-0.3,0L697.1,112 M519.9,114.7l0,0.4l2.5,2.7l2.5,2.7l0.7,0.8l0.7,0.8l1.7,2.7l1.7,2.7h0.2h0.2l-0.9-1.7l-0.9-1.7
	l-1.6-2.1l-1.6-2.1l-1-1.1l-1-1.1l-1.5-1.7l-1.5-1.7L519.9,114.7 M306.3,117.1l-0.1,0.1l-0.5,5l-0.5,5l-0.4,0.9l-0.4,0.9l0.6-0.5
	l0.6-0.5l0.4-2.7l0.4-2.7l0.1-2.7l0.1-2.7h-0.2h-0.2L306.3,117.1 M236.1,121.6l0.2,2.2l0.6,1.1l0.6,1.1l0.7,0.6l0.7,0.6l1.5,2.5
	l1.5,2.5l1.2,0.8l1.2,0.8l-1.3-1.5l-1.3-1.5l-1.5-2.2l-1.5-2.2l-0.8-0.8l-0.8-0.8l-0.3-1.5l-0.3-1.5l-0.4-1.1l-0.4-1.1L236.1,121.6
	 M698.5,125.3l0.1,1.9l-0.3,2.2l-0.3,2.2l0.6,2.2l0.6,2.2l0-1.1l0-1.1l-0.5-1.4l-0.5-1.4l0.4-1.9l0.4-1.9l-0.3-1.9l-0.3-1.9
	L698.5,125.3 M304.2,130l-0.1,1.1l-0.6,1.7l-0.6,1.7l-0.3,1.7l-0.3,1.7l0.4-0.6l0.4-0.6l0-1l0-1l0.7-1.4l0.7-1.4l-0.2-1.4l-0.2-1.4
	L304.2,130 M464.9,141.3l-2.4,0.3l-2.4,0.7l-2.4,0.7l-0.8,0.9l-0.8,0.9l-1.4-0.3l-1.4-0.3v0.7v0.7h1.5h1.5l1.2-1.1l1.2-1.1l1.1-0.2
	l1.1-0.2l1.5-0.4l1.5-0.4l4.4-0.3l4.4-0.3l1.2,0.8l1.2,0.8l1.9-0.3l1.9-0.3l3.1,2.2l3.1,2.2l1.6,0.6l1.6,0.6l4,0.3l4,0.3l1.7-1.6
	l1.7-1.6l0.2-0.8l0.2-0.8l-1.7,1l-1.7,1l0.4,0.3l0.4,0.3l-1,0.7l-1,0.7l-2.4,0l-2.4,0l0.9-0.4l0.9-0.4l-1.6,0l-1.6,0l-0.3-0.4
	l-0.3-0.4h-0.5h-0.5l0.8,0.7l0.8,0.7l-1.3-0.3l-1.3-0.3l-1.8-0.9l-1.8-0.9l-0.8-0.8l-0.8-0.8H481h-0.4l-0.8-0.9l-0.8-0.9l1.1,0.3
	l1.1,0.3l1,0.4l1,0.4v0.4v0.4l1.2,0.8l1.2,0.8l1,0.3l1,0.3v-0.5v-0.5h-1h-1l-1.5-1.4l-1.5-1.4l-1.9-0.7l-1.9-0.7l-0.1,0.4l-0.1,0.4
	l-1.4,0.3l-1.4,0.3l-1-0.6l-1-0.6l-3-0.1l-3-0.1L464.9,141.3 M697.4,150.2l-0.3,0.4l0,5.2l0,5.2l0.4-4.8l0.4-4.8l-0.1-0.9l-0.1-0.9
	L697.4,150.2"/>
<path class="st3" d="M571.9,62.8l-1.9,0.1l-0.4,0.4l-0.4,0.4h-2.9h-2.9l-0.5,0.7l-0.5,0.7l-1.4,0.4l-1.4,0.4l-0.4,2.3l-0.4,2.3
	l0.2,0.2l0.2,0.2l3.2-1.1l3.2-1.1l5.6-0.5l5.6-0.5l1.1,0l1.1,0l3.2,0.3l3.2,0.3l4,0.9l4,0.9l0.7,0.8l0.7,0.8l0.1,4l0.1,4l0,11.7
	l0,11.7l-0.3,2.8l-0.3,2.8l-0.4,0.8l-0.4,0.8l0.5,0.5l0.5,0.5l-0.2,3.8l-0.2,3.8l-0.3,0.5l-0.3,0.5l-0.1,2l-0.1,2l-0.2,2.8l-0.2,2.8
	l-0.4,1.2l-0.4,1.2l0.4,1.1l0.4,1.1l-0.4,1.6l-0.4,1.6l0,1l0,1l-0.3,4.8l-0.3,4.8l-0.5,1.7l-0.5,1.7l-0.1,1.9l-0.1,1.9l-0.3,6.4
	L590,169l0.9,0.5l0.9,0.5l0.7-0.3l0.7-0.3l0.3-0.8l0.3-0.8h0.4h0.4l0.5-2.1l0.5-2.1l0.5-2.8l0.5-2.8l-0.1-1.7l-0.1-1.7l0.5-2.6
	l0.5-2.6l0.5-0.9l0.5-0.9l0.4-4.5l0.4-4.5l0.2-2.8l0.2-2.8l0-1.3l0-1.3l0.4-7.1l0.4-7.1l0.3-13.9l0.3-13.9l0-2.4l0-2.4l0-1.5l0-1.5
	l0-0.9l0-0.9l-0.1-3.7l-0.1-3.7l-0.5-2.3l-0.5-2.3h-0.3h-0.3l-1.1-1l-1.1-1l-1.2-0.3l-1.2-0.3l-3.2-0.4l-3.2-0.4l-1.3-0.4l-1.3-0.4
	l-5.6,0.1l-5.6,0.1L571.9,62.8 M74.9,64.1l-0.3,0.3l-5.1,0.3l-5.1,0.3l-2.4,0.2l-2.4,0.2l-2,0.7l-2,0.7l-1,0.5l-1,0.5l0.3,1.3
	l0.3,1.3l0.6,0.6l0.6,0.6l1-0.5l1-0.5l5.2-1l5.2-1l3.9-0.2l3.9-0.2l1.2,1.5l1.2,1.5v1.3v1.3l0.5,0.3l0.5,0.3l1,2.2l1,2.2l0.2,1.7
	l0.2,1.7l1.1,3.7l1.1,3.7l0.7,2.4l0.7,2.4l0.3,2.4l0.3,2.4l0.5,1.1l0.5,1.1l0.3,1.5l0.3,1.5l0.6,2.6l0.6,2.6l0.7,1.3l0.7,1.3
	l0.6,1.9l0.6,1.9l0.7,0.5l0.7,0.5l0.3-0.3l0.3-0.3l-0.9-1.7l-0.9-1.7l-0.5-1.5l-0.5-1.5l0.4-0.7l0.4-0.7l-0.4-1l-0.4-1l-0.2-2.9
	l-0.2-2.9l-0.2-2.2l-0.2-2.2l-0.9-3.4l-0.9-3.4l-0.7-3.9l-0.7-3.9l-0.3-0.5l-0.3-0.5l-0.2-1.7l-0.2-1.7l-0.7-1.7l-0.7-1.7v-1.2v-1.2
	L82.8,70L82,68.3l0-1.1l0-1.1l-2-1l-2-1L76.5,64l-1.3-0.3L74.9,64.1 M159.3,64.1l-0.2,0.2l-3.5,0.1l-3.5,0.1l-0.5,0.5l-0.5,0.5
	l0.8,0.3l0.8,0.3l1.1,0.4l1.1,0.4l3,0.3l3,0.3l1.5,0.2l1.5,0.2L168,68l3.9,0.3l2.1,0.9l2.1,0.9l0,0.3l0,0.3l0.2,5l0.2,5L177,83
	l0.6,2.2l-0.1,11.7l-0.1,11.7l-0.6,8l-0.6,8l-0.6,1.2L175,127l-0.2,3.3l-0.2,3.3l-0.4,2.5l-0.4,2.5l0.2,0.3l0.2,0.3l-0.7,1.3
	l-0.7,1.3l-0.6,4.8l-0.6,4.8l-0.5,3l-0.5,3l-0.4,1.8l-0.4,1.8l-0.2,1.5l-0.2,1.5l-1.4,2.4l-1.4,2.4v0.9v0.9l1,0l1,0l1.5-0.7l1.5-0.7
	l0.9-2.4l0.9-2.4l0.2-1.2l0.2-1.2l0.4-0.2l0.4-0.2v-2.8v-2.8l0.9-1.3l0.9-1.3l0.1-3.2l0.1-3.2l0.5-0.5l0.5-0.5v-1.8v-1.8l0.4-0.4
	l0.4-0.4l0.5-3.2l0.5-3.2l0.4-4.5l0.4-4.5l0.3-1.8l0.3-1.8l0.1-2.4l0.1-2.4l0.3-1.9l0.3-1.9l0.2-5.2l0.2-5.2l0.2-4.1l0.2-4.1l0-1.7
	l0-1.7l-0.4-6.3l-0.4-6.3l-0.3-0.8l-0.3-0.8l0.6-1.7l0.6-1.7l-0.4-0.6l-0.4-0.6l-0.3-1.5l-0.3-1.5l-0.4-1.1l-0.4-1.1l-0.9-0.4
	l-0.9-0.4l-1.4-0.5l-1.4-0.5l-0.2,0.4l-0.2,0.4l-2.3-0.9l-2.3-0.9l-2.3-0.1l-2.3-0.1l-0.3-0.4l-0.3-0.4l-2.7,0l-2.7,0L159.3,64.1
	 M365.7,64.2l-3.2,0.2l7.5,0.1l7.5,0.1l-0.1-0.1l-0.1-0.1l-4.1-0.2l-4.1-0.2L365.7,64.2 M351.7,65.4l2.7,0.2l2.5-0.2l2.5-0.2l-5.2,0
	l-5.2,0L351.7,65.4 M323.5,67.5l-0.8,0.2l0.3,2.7l0.3,2.7l-0.1,5.4l-0.1,5.4l-0.2,0.3l-0.2,0.3l0.7,1.6l0.7,1.6v1.9v1.9l0.4,0.8
	l0.4,0.8l0.3,2.4l0.3,2.4l1.4,1.9l1.4,1.9l1.9,0.6l1.9,0.6l1.4-0.2l1.4-0.2l2.2,1l2.2,1l6.6,0.1l6.6,0.1l1.1,0.7l1.1,0.7l0.4,1.1
	l0.4,1.1l-0.1,5.2l-0.1,5.2l0.3,4.8l0.3,4.8l0.2,5l0.2,5l0.5,1.5l0.5,1.5l0.1,4.8l0.1,4.8l0.7,2.8l0.7,2.8l0.5,2.3l0.5,2.3l-0.2,0.6
	l-0.2,0.6l0.7,2.6l0.7,2.6l0.9,0.8l0.9,0.8l2.6,1l2.6,1l1.9-0.4l1.9-0.4l2.6,0l2.6,0l1.5,0.1l1.5,0.1l7.4-0.2l7.4-0.2l0.9-0.1
	l0.9-0.1l0.7-1l0.7-1l-3.5-0.1l-3.5-0.1l-8.2-0.3l-8.2-0.3l-1.3-0.4l-1.3-0.4l-2.2-0.3l-2.2-0.3l-1-0.6l-1-0.6l0-1l0-1l-0.9-2.8
	l-0.9-2.8l-0.5-1.7l-0.5-1.7l-0.1-2.1l-0.1-2.1l-0.3-0.5l-0.3-0.5l-0.1-0.7l-0.1-0.7l-0.6-1.9l-0.6-1.9l-0.1-2.8l-0.1-2.8l-0.2-1.1
	l-0.2-1.1L359,133l-0.7-2.5l0.5-2.1l0.5-2.1l-0.4-0.8l-0.4-0.8l0.1-6.3l0.1-6.3l-0.5-1.1l-0.5-1.1l-0.5-2.4l-0.5-2.4l-1.2-1.1
	l-1.2-1.1l-1.3-0.3l-1.3-0.3l-3-0.4l-3-0.4l-0.9-0.1l-0.9-0.1l-4.3-0.8l-4.3-0.8l-1.9-0.7l-1.9-0.7l-0.2-1.5l-0.2-1.5l-0.9-1.7
	l-0.9-1.7l-0.2-1.5l-0.2-1.5l-0.4-2.3l-0.4-2.3l-0.4-1.4l-0.4-1.4l-0.5-4.1l-0.5-4.1l-0.4-0.8l-0.4-0.8v-1.9v-1.9l0.5-0.2l0.5-0.2
	l-0.9,0l-0.9,0L323.5,67.5 M113.6,100l-0.7,0.3l-2,1.4l-2,1.4l-0.3,0.7l-0.3,0.7l1,0.3l1,0.3l1.3-0.7l1.3-0.7l0.6-0.7l0.6-0.7h1.2
	h1.2l1,0.8l1,0.8l1.2,0.6l1.2,0.6l2.4,2.5l2.4,2.5l0,0.5l0,0.5l2.3,2.5l2.3,2.5h0.9h0.9v-0.8v-0.8l-1.1-1l-1.1-1V112v-0.6l-1.1-1.6
	l-1.1-1.6L127,107l-0.9-1.2v-0.4v-0.4l-2.2-1.4l-2.2-1.4l-0.8-1.1l-0.8-1.1l-3-0.2l-3-0.2L113.6,100 M428.4,102.4l-0.6,1l-4.1,0.2
	l-4.1,0.2l3.6,0.1l3.6,0.1l0.8-0.4l0.8-0.4l0.5-0.9l0.5-0.9h-0.2H429L428.4,102.4 M983.1,57.8l0,0.3l-2.5-0.1l-2.5-0.1l2.2,0.4
	l2.2,0.4l1.1,0l1.1,0l0.2-0.6l0.2-0.6h-1.1h-1.1L983.1,57.8 M1468,58.1l0.7,0.7l1.6-0.3l1.6-0.3l-0.6,0.4l-0.6,0.4l2.9,0.9l2.9,0.9
	l0.2-0.2l0.2-0.2l-2.6-0.8l-2.6-0.8l0.8-0.3l0.8-0.3l-1.7-0.3l-1.7-0.3l-1.3-0.2l-1.3-0.2L1468,58.1 M1343.7,60l-3.9,0.3l3.7,0
	l3.7,0l1.1-0.3l1.1-0.3l-0.9,0l-0.9,0L1343.7,60 M1327.2,64.7l2.5,0.2l2.3-0.2l2.3-0.2l-4.8,0l-4.8,0L1327.2,64.7 M960.9,88.4l0.1,5
	l0.5,0.7l0.5,0.7l-0.3-1l-0.3-1v-3.9V85l-0.3-0.8l-0.3-0.8L960.9,88.4 M961,101.8l0.4,0.9l1.1,1.3l1.1,1.3l-0.7-1.1l-0.7-1.1v-0.4
	v-0.4l2,1.9l2,1.9l-2.1-2.4l-2.1-2.4l-0.2-0.2l-0.2-0.2l0.3,0.7l0.3,0.7h-0.3h-0.3l-0.6-0.8l-0.6-0.8L961,101.8 M966.9,106.5
	l0.3,0.7h-0.6h-0.6l1.5,1.1l1.5,1.1l2.4,0l2.4,0l-0.6-0.4l-0.6-0.4l0.8-0.2l0.8-0.2l-1.2-0.1l-1.2-0.1l-1.8-0.5l-1.8-0.5l-0.8-0.7
	l-0.8-0.7L966.9,106.5 M967.9,108.1l1,0.9l1.8,0l1.8,0l-1.5-0.6l-1.5-0.6l-1.3-0.3l-1.3-0.3L967.9,108.1 M1149.7,113.2l-0.3,3.8
	l-0.2,1.3l-0.2,1.3l0.4-0.9l0.4-0.9l0.3-4.2l0.3-4.2h-0.2h-0.2L1149.7,113.2 M854.9,130.2l1.1,0.3l-1.1,0.1l-1.1,0.1l2.4,0.6
	l2.4,0.6l2.1,0.5l2.1,0.5l0.7-0.7l0.7-0.7h-1h-1l0.3,0.5l0.3,0.5l-1-0.3l-1-0.3l-1,0l-1,0l0.2-0.4l0.2-0.4l-0.6-0.2l-0.6-0.2
	l-1.3,0.2l-1.3,0.2l0.8-0.4l0.8-0.4l-1.1-0.3l-1.1-0.3l-0.6,0l-0.6,0L854.9,130.2 M1378.9,139.6l-0.2,0.8l0,4.7l0,4.7l0.2-0.2
	l0.2-0.2l0.1-5.3l0.1-5.3h-0.1l-0.1,0L1378.9,139.6 M971.1,151.3l2.1,0.6l-0.2,0.4l-0.2,0.4l1.2,0.5l1.2,0.5l1.7-0.2l1.7-0.2
	l-1.9-0.1l-1.9-0.1l-0.6-0.4l-0.6-0.4l2.8-0.1l2.8-0.1l-3-0.3l-3-0.3l-1.5-0.5l-1.5-0.5l-0.4,0l-0.4,0L971.1,151.3 M1261.7,154.4
	l-0.9,1.7l-2.1,1.9l-2.1,1.9l0.1,0.3l0.1,0.3l-0.3-0.1l-0.3-0.1l-1.1,0.1l-1.1,0.1l1.1,0.4l1.1,0.4l1.1-0.8l1.1-0.8l-0.2-0.3
	l-0.2-0.3l1.7-1.8l1.7-1.8l0.8-1.2l0.8-1.2l-0.2-0.2l-0.2-0.2L1261.7,154.4"/>
<path class="st4" d="M485.9,59.3l-1.3,0.2l-0.4,0.4l-0.4,0.4h-1.3h-1.3l-2.4,0.9l-2.4,0.9l-1,0.2l-1,0.2v0.4v0.4l-0.9,0.1l-0.9,0.1
	l-0.2,0.5l-0.2,0.5l3.6-1l3.6-1l3.1-0.4l3.1-0.4l6,0.2l6,0.2l2.8,0.8l2.8,0.8l2.2,1l2.2,1l3.3,2.3l3.3,2.3l0.7,1l0.7,1l1.6,1.5
	l1.6,1.5l0.6,1.4l0.6,1.4v1v1l1.2,1.8l1.2,1.8l1.3-0.3l1.3-0.3l0.3-0.2l0.3-0.2l-0.5-1.3l-0.5-1.3h-0.3h-0.3l-0.9-1.8l-0.9-1.8
	l-0.6-1.1l-0.6-1.1l-3.2-3.3l-3.2-3.3l-1.6-0.7l-1.6-0.7l-0.2-0.8l-0.2-0.8l-1.8-0.5l-1.8-0.5l-0.4-0.5l-0.4-0.5l-1.9-0.7l-1.9-0.7
	l-3.5-0.5l-3.5-0.5l-1.3-0.4l-1.3-0.4l-2.8-0.2l-2.8-0.2L485.9,59.3 M262.7,64.1l-0.6,0.4l0.4,0.2l0.4,0.2l3.5,0.3l3.5,0.3l1.8,1
	l1.8,1h0.5h0.5l2.4,1.1l2.4,1.1h0.5h0.5l2,1.9l2,1.9l2.5,1.8l2.5,1.8v0.3v0.4l1.6,1.7l1.6,1.7l1.4,1.7l1.4,1.7l1.5,3l1.5,3l1,2.6
	l1,2.6l0.8,1.4l0.8,1.4v1.2v1.2l0.6,0.9l0.6,0.9l0.3,2.4l0.3,2.4l0.3,3.2l0.3,3.2l0,1.3l0,1.3l-0.2,2.4l-0.2,2.4l-0.6,5.1l-0.6,5.1
	l-0.4,0.8l-0.4,0.8l-1.6,4.5l-1.6,4.5l-0.3,0.9l-0.3,0.9l-1.1,1.5l-1.1,1.5l-0.2,0.2l-0.2,0.2l-1.8,2.6l-1.8,2.6l-0.3,0.8l-0.3,0.8
	h0.4h0.4l0.4-1l0.4-1l2-1.7l2-1.7v-1v-1l1.9-2.2l1.9-2.2l0.3-1.6l0.3-1.6l0.8-0.6l0.8-0.6l0.7-3l0.7-3l0.4-1.8l0.4-1.8l0.4-0.8
	l0.4-0.8l0.3-4.7l0.3-4.7l0.4-0.2l0.4-0.2l0-1.4l0-1.4l-0.7-2.2l-0.7-2.2l0.3-1.8l0.3-1.8l-0.7-1.6l-0.7-1.6v-1.5v-1.5l-0.4-0.3
	l-0.4-0.3v-1.2v-1.2l-0.6-1.2l-0.6-1.2l0-0.7l0-0.7l-0.9-0.8l-0.9-0.8l-0.7-1.3l-0.7-1.3l-0.7-1.8l-0.7-1.8l-2.4-2.7l-2.4-2.7
	l-2-2.2l-2-2.2l-0.2-0.6l-0.2-0.6l-2.3-1.6l-2.3-1.6h-0.7h-0.7L281,70l-1.4-1.1H279h-0.6l-0.5-0.5l-0.5-0.5l-1.6-0.6l-1.6-0.6
	l-0.6,0l-0.6,0l-1.4-1l-1.4-1l-2.6-0.2l-2.6-0.2l-0.9-0.3l-0.9-0.3L262.7,64.1 M666.6,64.9l-0.3,0.3l-3.8,0.2l-3.8,0.2l-6.8,0.1
	l-6.8,0.1l-1.1,0.3l-1.1,0.3l-5.1,0.3l-5.1,0.3l-0.4,0.2l-0.4,0.2v0.4v0.4h0.9h0.9l0.7-0.4l0.7-0.4l8.9-0.3l8.9-0.3l11.9,0l11.9,0
	l1,0l1,0l1,0l1,0l6.7,0.4l6.7,0.4l3.2,0.2l3.2,0.2l6.5,0.2l6.5,0.2l5.1,0.5l5.1,0.5l0.8,0.8l0.8,0.8l0.6,3.3l0.6,3.3l0,3.5l0,3.5
	l-0.2,4.1l-0.2,4.1l-1.6,4.3l-1.6,4.3l0,0.8l0,0.8l1.2-0.1l1.2-0.1l0.9-1.4l0.9-1.4l0.3-2.4l0.3-2.4l0.4-0.7l0.4-0.7l0.5-1.1
	l0.5-1.1l0.2-5.2l0.2-5.2l0-0.4l0-0.4l-0.2-4.8l-0.2-4.8l-0.5-0.8l-0.5-0.8l-0.2-0.7l-0.2-0.7l-2.5-0.2l-2.5-0.2l-5.4-0.7l-5.4-0.7
	l-4.9,0l-4.9,0l-0.4-0.6l-0.4-0.6l-1.5,0.5l-1.5,0.5l-6-0.1l-6-0.1l-1.9,0.1l-1.9,0.1l-0.6-0.5l-0.6-0.5l-1.1,0.6l-1.1,0.6l-3.8-0.3
	l-3.8-0.3l-2.6-0.2l-2.6-0.2L666.6,64.9 M625.7,67.5l-0.5,0.2v0.6V69l1.8-0.3l1.8-0.3l0.2-0.2l0.2-0.2l-0.2-0.2l-0.2-0.2l-1.3-0.2
	l-1.3-0.2L625.7,67.5 M486.1,104.1l1,1.4l1.6,0.9l1.6,0.9l1.5,0.6l1.5,0.6l2.4,0.6l2.4,0.6l2.6,0.5l2.6,0.5l1.3,0l1.3,0l1.1,0.6
	l1.1,0.6l1.3,0l1.3,0l1,1.1l1,1.1h0.5h0.5l1.5,1.3l1.5,1.3l2,1l2,1l1,1.7l1,1.7l1.7,1.7l1.7,1.7l1.1,3l1.1,3l0.4,0.2l0.4,0.2
	l0.7,3.3l0.7,3.3l-0.2,2.7l-0.2,2.7l-0.9,1.8l-0.9,1.8l0,1.2l0,1.2l-1.1,2.1l-1.1,2.1v0.7v0.7l-1.4,1.7l-1.4,1.7l-0.3,0.8l-0.3,0.8
	l1.4-0.3l1.4-0.3l0.6-0.8l0.6-0.8l0.5-0.6l0.5-0.6l0.7-1.1l0.7-1.1v-0.9v-0.9l0.9-1l0.9-1l0.4-1.9l0.4-1.9l0.2-1.4l0.2-1.4l0.4-0.2
	l0.4-0.2v-2.1v-2.1l-0.5-0.5l-0.5-0.5l0.5-0.9l0.5-0.9v-1.2v-1.2L532,134l-0.8-1.2l-0.3-1.7l-0.3-1.7l-0.8-1.5l-0.8-1.5l-1.4-2.2
	l-1.4-2.2l-0.7-0.8l-0.7-0.8l-2.5-2.7l-2.5-2.7l0-0.3l0-0.3l-0.8,0l-0.8,0l-1.7-1.1l-1.7-1.1l-1.4-0.7l-1.4-0.7v-0.5v-0.5h-0.4h-0.4
	l-1.4-1.5l-1.4-1.5l-2.5-0.2l-2.5-0.2l-0.5-0.4l-0.5-0.4l-3.5,0l-3.5,0l-3.3-1.1l-3.3-1.1h-0.7h-0.7v-0.4v-0.4h-1.1h-1.1
	L486.1,104.1 M238.3,105.9l-1.5,1.4l-0.7,1.1l-0.7,1.1l-1,2.4l-1,2.4l-0.4,2.2l-0.4,2.2l0,1.3l0,1.3l0.4,1.7l0.4,1.7l0.5,1.1
	l0.5,1.1l0.5,0.9l0.5,0.9l2,1.9l2,1.9l2.1,1.3l2.1,1.3l1.5,0.6l1.5,0.6l0.1,0l0.1,0l-0.9-0.9l-0.9-0.9h-0.4h-0.4V134v-0.4l-1.2-0.6
	l-1.2-0.6l-1.9-2.8l-1.9-2.8l-0.9-1.1l-0.9-1.1l-0.6-3.8l-0.6-3.8l0.5-2.2l0.5-2.2l0.3-0.6l0.3-0.6l1.6-3.2l1.6-3.2l-0.1-0.1
	l-0.1-0.1L238.3,105.9 M696.9,113l-0.7,0.8l-0.4,1.7l-0.4,1.7l0.1,3.5l0.1,3.5l0.2,3.7l0.2,3.7l0.5,1.3l0.5,1.3l-0.5,7.8l-0.5,7.8
	l-0.4,0.4l-0.4,0.4l0,2.8l0,2.8l-0.8,2.2l-0.8,2.2l-0.3,0.1l-0.3,0.1v1.1v1.1l-0.7,1.3l-0.7,1.3l0.2,0.6l0.2,0.6h0.6h0.6l0.5,0.7
	l0.5,0.7l0.6-1.1l0.6-1.1l0-1.2l0-1.2l0.7-1.4l0.7-1.3l0.1-5.1l0.1-5.1l0.2-0.4l0.2-0.4l0.1-2.6l0.1-2.6l0.6-4.7l0.6-4.7l-0.5-2.1
	l-0.5-2.1l0.3-1.7l0.3-1.7l-0.1-2.4l-0.1-2.4l-0.2-2.4l-0.2-2.4l0.4-2.9l0.4-2.9h-0.5h-0.5L696.9,113 M465.6,139l-0.3,0.3l-0.5,0.1
	l-0.5,0.1l-2.8,0.3l-2.8,0.3l-1.2,0.5l-1.2,0.5l-0.2,0.7l-0.2,0.7l-1.4,0.3l-1.4,0.3v0.6v0.6l1.3,0.3l1.3,0.3l1-0.9l1-0.9l3-0.8
	l3-0.8l4.3-0.2l4.3-0.2l1.6,0.7l1.6,0.7l1.4-0.3l1.4-0.3v-0.3v-0.3l-1.6-0.6l-1.6-0.6l-3-0.4l-3-0.4l-1.5-0.3l-1.5-0.3L465.6,139
	 M479.8,142.6l0.8,0.9h0.4h0.4l0.8,0.8l0.8,0.8l1.8,0.9l1.8,0.9l1.3,0.3l1.3,0.3L489,147l-0.3-0.5l-1.8-0.5l-1.8-0.5l-1.4-1.4
	l-1.4-1.4l-1.5-0.5l-1.5-0.5h-0.2H479L479.8,142.6 M493.9,146.7l-1.9,0.5l-0.6,0.3l-0.6,0.3l2.4,0l2.4,0l1-0.9l1-0.9l-0.9,0l-0.9,0
	L493.9,146.7"/>
<path class="st5" d="M571.4,62.5l-1.9,0.3l-1.3,0.4l-1.3,0.4l1.1,0l1.1,0l0.4-0.4l0.4-0.4l7.6-0.2l7.6-0.2l1.3,0.4l1.3,0.4l3.2,0.4
	l3.2,0.4l1.2,0.3l1.2,0.3l1.1,1l1.1,1h0.3h0.3l0.3,1.8l0.3,1.8l0.3-0.3l0.3-0.3l-0.3-1.5l-0.3-1.5l-1.8-1.4l-1.8-1.4l-1.6-0.4
	l-1.6-0.4l-3.5-0.4l-3.5-0.4l-6.5-0.1l-6.5-0.1L571.4,62.5 M155.8,63.8l-3.9,0.3l-1,0.3l-1,0.3l-0.6,0.8l-0.6,0.8l-0.4,0.9l-0.4,0.9
	l-0.5,1.5l-0.5,1.5v1.2v1.2l-0.8,2.5l-0.8,2.5l-0.2,2.6l-0.2,2.6l-0.5,1.9l-0.5,1.9l-0.4,3.2l-0.4,3.2l-0.4,3l-0.4,3l-0.5,3.2
	l-0.5,3.2l-0.3,3.5l-0.3,3.5l-0.8,1.6l-0.8,1.6l-0.9,0.6l-0.9,0.6h-1.1H135l-1-0.7l-1-0.7v-0.8v-0.8l-1.2-1.4l-1.2-1.4l-1.2-2.3
	l-1.2-2.3l-0.6-0.8l-0.6-0.8l-1.2-1.2l-1.2-1.2l-2.1-1.8l-2.1-1.8l-1.7-0.3l-1.7-0.3l-1.1,0l-1.1,0l-1.3,0.7l-1.3,0.7l-1,0.5l-1,0.5
	l-2.8,2.9l-2.8,2.9l-1.3,2.6l-1.3,2.6l-2,2.5l-2,2.5h-1.3h-1.3l-1.6-1.7L92,114l-0.5-1.8l-0.5-1.8l0.1-0.4l0.1-0.4l0-0.7l0-0.7
	l-0.3-3.1l-0.3-3.1l-0.6-1.6l-0.6-1.6l0.3,1.3l0.3,1.3l0.2,2.7l0.2,2.7l0.4,1l0.4,1l-0.4,0.7l-0.4,0.7l0.5,1.5l0.5,1.5l0.9,1.7
	l0.9,1.7l-0.3,0.3l-0.3,0.3l-0.7-0.5l-0.7-0.5l-0.6-1.9l-0.6-1.9l-0.7-1.3l-0.7-1.3l-0.6-2.6l-0.6-2.6l-0.3-1.5l-0.3-1.5l-0.5-1.1
	l-0.5-1.1l-0.3-2.4l-0.3-2.4l-0.7-2.4l-0.7-2.4l-1.1-3.7l-1.1-3.7l-0.2-1.7l-0.2-1.7l-1-2.2l-1-2.2L78.5,74l-0.5-0.3v-1.3v-1.3
	l-1.2-1.5L75.8,68l-3.9,0.2l-3.9,0.2l-5.2,1l-5.2,1l-1,0.5l-1,0.5l-0.6-0.6l-0.6-0.6l-0.3-1.3l-0.3-1.3l1-0.5l1-0.5l2-0.7l2-0.7
	l2.4-0.2l2.4-0.2l5.1-0.3l5.1-0.3l0.3-0.3l0.3-0.3L70.5,64l-4.7,0.2l-1.5,0.5l-1.5,0.5l-1-0.3l-1-0.3l-2.1,0.7L56.6,66l-3.1,1.6
	l-3.1,1.6l0,1.6l0,1.6l-0.3,12.6l-0.3,12.6l0.1,0.6l0.1,0.6l0.2,2.6l0.2,2.6l-0.1,2.8l-0.1,2.8l0,2.2l0,2.2l0.4,0.8l0.4,0.8
	l-0.1,1.4l-0.1,1.4l0.5,2.7l0.5,2.7l0.1,3.1l0.1,3.1l0.7,1.9l0.7,1.9l0,1.7l0,1.7l0.5,2.8l0.5,2.8l-0.1,1l-0.1,1l0.6,1l0.6,1
	l0.2,3.2l0.2,3.2l0.4,1.7l0.4,1.7l0.5,1.9l0.5,1.9l0.3,0.4l0.3,0.4l0.5,1.9l0.5,1.9l1.5,3.1l1.5,3.1l2.3,0.6l2.3,0.6l2.6,0.1
	l2.6,0.1l8.6,0l8.6,0l0.5-0.3l0.5-0.3l2.6-0.1l2.6-0.1l2.8-0.7l2.8-0.7l0.6-0.5l0.6-0.5l2-2.6l2-2.6l1.4-2.2l1.4-2.2l1.4-0.9
	l1.4-0.9l1.3-0.9l1.3-0.9l0.5-0.7l0.5-0.7l1.6,0.1l1.6,0.1l1.3,0.5l1.3,0.5l1.1,1.7l1.1,1.7l2.4,2.6l2.4,2.6l1,1.3l1,1.3v0.4v0.4
	l2.1,2l2.1,2h1h1l0.3,0.3l0.3,0.3l2.5,0.6l2.5,0.6l0.6,0l0.6,0l5.4-0.2l5.4-0.2l2-0.5l2-0.5l2.8-0.1l2.8-0.1l2.2-0.4l2.2-0.4l2-0.9
	l2-0.9l0-0.6l0-0.6l0.6-1.6l0.6-1.6l0.3-0.3l0.3-0.3v-1.1v-1.1l0.5-0.5l0.5-0.5l0.1-2.8l0.1-2.8l0.8-1.2l0.8-1.2l0.4-3.4l0.4-3.4
	l0.4-1.9l0.4-1.9l0.9-4.8l0.9-4.8l0.3-4.5l0.3-4.5l-0.3,0.2l-0.3,0.2l-0.5,5.4l-0.5,5.4l-0.4,2.8l-0.4,2.8l-0.4,0.8l-0.4,0.8v1.7
	v1.7l-0.5,0.5l-0.5,0.5l-0.1,3.2l-0.1,3.2l-0.9,1.3l-0.9,1.3v2.8v2.8l-0.4,0.2l-0.4,0.2l-0.2,1.2l-0.2,1.2l-0.9,2.4l-0.9,2.4
	l-1.5,0.7l-1.5,0.7l-1,0l-1,0v-0.9v-0.9l1.4-2.4l1.4-2.4l0.2-1.5l0.2-1.5l0.4-1.8l0.4-1.8l0.5-3l0.5-3l0.6-4.8l0.6-4.8l0.7-1.3
	l0.7-1.3l-0.2-0.3l-0.2-0.3l0.4-2.5l0.4-2.5l0.2-3.3l0.2-3.3l0.6-1.2l0.6-1.2l0.6-8l0.6-8l0.1-11.7l0.1-11.7L177,83l-0.6-2.2l-0.2-5
	l-0.2-5l0-0.3l0-0.3l-2.1-0.9l-2.1-0.9L168,68l-3.9-0.3l-1.5-0.2l-1.5-0.2l-3-0.3l-3-0.3l-1.1-0.4l-1.1-0.4l-0.8-0.3l-0.8-0.3
	l0.5-0.5l0.5-0.5l3.6-0.2l3.6-0.2l1.8,0l1.8,0l1-0.4l1-0.4l-2.6,0l-2.6,0L155.8,63.8 M77.2,64.1l1.1,0.3l1.8,0.9l1.8,0.9l0,1.1
	l0,1.1l0.9,1.7l0.9,1.7v1.2v1.2l0.7,1.7l0.7,1.7l0.2,1.7l0.2,1.7l0.3,0.5l0.3,0.5l0.7,3.9l0.7,3.9l0.9,3.2l0.9,3.2l0.2,1.1l0.2,1.1
	l0.1-1.2l0.1-1.2l-0.7-2.7l-0.7-2.7L88,89.5l-0.4-0.9L87,84.8l-0.7-3.9l-0.4-2l-0.4-2L85,75.9l-0.5-0.9l0-1.2l0-1.2l-0.9-1.9
	l-0.9-1.9l-0.3-1.5l-0.3-1.5l-1.9-1l-1.9-1l-1.1,0l-1.1,0L77.2,64.1 M165.1,64.3v0.3l0.5,0l0.5,0l1.9,0.1l1.9,0.1l2.2,0.9l2.2,0.9
	l0.2-0.2l0.2-0.2l-2.5-0.8l-2.5-0.8l-2.5-0.3l-2.5-0.3V64.3 M561.9,64.2l-0.6,0.4l-1.5,0.6l-1.5,0.6l-1.1,0.2l-1.1,0.2l-0.9,0.6
	l-0.9,0.6l0.1,3.6l0.1,3.6l-0.5,4.1l-0.5,4.1l-0.2,5.1l-0.2,5.1l0,6.3l0,6.3l0.3,4.8l0.3,4.8l0.7,4.8l0.7,4.8l-0.1,0.5l-0.1,0.5
	l0,1.6l0,1.6l0.4,3.7l0.4,3.7l0.6,1l0.6,1l-0.2,1.1l-0.2,1.1l0.7,2.3l0.7,2.3l-0.2,1.5l-0.2,1.5l0.4,2.9l0.4,2.9l0.8,1.9l0.8,1.9
	l-0.2,0.4l-0.2,0.4l0.7,1.9l0.7,1.9l-0.2,1.1l-0.2,1.1l1.1,1.9l1.1,1.9v0.9v0.9l1.5,1.5l1.5,1.5l1.2,0l1.2,0l0.6,0.1l0.6,0.1
	l3.7,0.5l3.7,0.5l6.8-0.2l6.8-0.2l1.1-0.7l1.1-0.7v-0.6v-0.6l1.5-2.4l1.5-2.4l0-1.1l0-1.1l-0.4,1.5l-0.4,1.5l-0.6,0.6l-0.6,0.6v0.4
	v0.4l-0.7,0.3l-0.7,0.3l-0.9-0.5L590,169l0.3-6.4l0.3-6.4l0.1-1.9l0.1-1.9l0.5-1.7l0.5-1.7l0.3-4.8l0.3-4.8l0-1l0-1l0.4-1.6l0.4-1.6
	l-0.4-1.1l-0.4-1.1l0.4-1.2l0.4-1.2l0.2-2.8l0.2-2.8l0.1-2l0.1-2l0.3-0.5l0.3-0.5l0.2-3.8l0.2-3.8l-0.5-0.5l-0.5-0.5l0.4-0.8
	l0.4-0.8l0.3-2.8l0.3-2.8l0-11.7l0-11.7l-0.1-4l-0.1-4l-0.7-0.8l-0.7-0.8l-4-0.9l-4-0.9l-3.2-0.3l-3.2-0.3l-1.1,0l-1.1,0l-5.6,0.5
	l-5.6,0.5l-3.2,1.1l-3.2,1.1l-0.2-0.2l-0.2-0.2l0.4-2.3l0.4-2.3l1.4-0.4l1.4-0.4l0.5-0.7l0.5-0.7l-0.4,0l-0.4,0L561.9,64.2
	 M176,66.3l0.6,0.5l0.9,0l0.9,0l0.7,0.5l0.7,0.5l0.4,0.9l0.4,0.9l0.3,1.7l0.3,1.7l0.5,0.6l0.5,0.6l-0.5,1.6l-0.5,1.6l0.5,1.7
	l0.5,1.7l0.1,4.3l0.1,4.3l0.3,1.3l0.3,1.3l-0.2-5.8l-0.2-5.8l-0.4-1.4l-0.4-1.4l0.5-1.8l0.5-1.8l-0.5-1l-0.5-1l-0.6-2.1l-0.6-2.1
	l-1.1-0.8l-1.1-0.8l-1.5-0.3l-1.5-0.3L176,66.3 M600.4,77.9l0,4.3l0.1,0.9l0.1,0.9l0,3.7l0,3.7l0.4-1.3l0.4-1.3l-0.2-7.3l-0.2-7.3
	l-0.2-0.2l-0.2-0.2L600.4,77.9 M600.3,97.8l0.1,5.9l0.3,0.3l0.3,0.3l-0.1-3l-0.1-3l0.3-2l0.3-2l-0.6-1.1l-0.6-1.1L600.3,97.8
	 M182.5,95.1l-0.5,1.8l0.1,2.8l0.1,2.8l-0.3,5.6l-0.3,5.6l-0.3,1.9l-0.3,1.9l-0.2,3.2l-0.2,3.2l0.4-1l0.4-1l-0.1-2l-0.1-2l0.3-0.6
	l0.3-0.6l0.1-5l0.1-5l0.2-5.4l0.2-5.4l0.3-1.4l0.3-1.4h-0.2h-0.2L182.5,95.1 M113.6,100l-0.7,0.3l-2,1.4l-2,1.4l-0.3,0.7l-0.3,0.7
	l1,0.3l1,0.3l1.3-0.7l1.3-0.7l0.6-0.7l0.6-0.7h1.2h1.2l1,0.8l1,0.8l1.2,0.6l1.2,0.6l2.4,2.5l2.4,2.5l0,0.5l0,0.5l2.3,2.5l2.3,2.5
	h0.9h0.9v-0.8v-0.8l-1.1-1l-1.1-1V112v-0.6l-1.1-1.6l-1.1-1.6L127,107l-0.9-1.2v-0.4v-0.4l-2.2-1.4l-2.2-1.4l-0.8-1.1l-0.8-1.1
	l-3-0.2l-3-0.2L113.6,100 M600.1,112.3l0,3.7l-0.4,7.1l-0.4,7.1l0,1.3l0,1.3l-0.2,2.8l-0.2,2.8l-0.4,4.5l-0.4,4.5l-0.5,0.9l-0.5,0.9
	l-0.5,2.6l-0.5,2.6l0,1.9l0,1.9l-0.5,2.3l-0.5,2.3v0.4v0.4l0.3-0.3l0.3-0.3l0.4-2.1l0.4-2.1l0.4-4.5l0.4-4.5l0.7-1.9l0.7-1.9l0-1.3
	l0-1.3l0.4-3.7l0.4-3.7l0.2-4.5l0.2-4.5l0.3-6.3l0.3-6.3l-0.3-3l-0.3-3L600.1,112.3"/>
<path class="st6" d="M488.3,58.6l1.9,0.4l2.1,0.2l2.1,0.2l2,0.4l2,0.4l1.9,0.3l1.9,0.3l1.5,0.5l1.5,0.5l1.6,1l1.6,1h0.8h0.8l1.2,1.5
	l1.2,1.5h0.7h0.7l1.5,1.4l1.5,1.4l0.9,0.8l0.9,0.8h0.3h0.3l-2.4-2.2l-2.4-2.2l-1.3-0.6l-1.3-0.6l-0.7-1.1l-0.7-1.1l-1.4-0.3
	l-1.4-0.3l-1.2-0.8l-1.2-0.8l-2.3-0.7l-2.3-0.7l-0.9,0l-0.9,0l-3-0.6l-3-0.6l-3.2-0.2l-3.2-0.2L488.3,58.6 M482.8,59.2l-1.7,0.6
	l-1.2,0l-1.2,0l-0.8,0.4l-0.8,0.4l-2.1,0.9l-2.1,0.9l0.2,0.2l0.2,0.2l2.6-1.2l2.6-1.2l0.2-0.1l0.2-0.1l2.2-0.3l2.2-0.3l1.1-0.6
	l1.1-0.6l-0.4,0l-0.4,0L482.8,59.2 M252.2,63l-1.9,0.3l-2.8,0.5l-2.8,0.5l-0.7,0.3l-0.7,0.3l-1.5,0.3l-1.5,0.3l-3.4,1.5l-3.4,1.5
	l-2.7,2.3l-2.7,2.3l-1.2,0.6l-1.2,0.6l-1.9,1.8l-1.9,1.8l-1.4,1.1l-1.4,1.1v0.8v0.8l-1.7,1.4l-1.7,1.4l-0.4,1.3l-0.4,1.3l-1.3,1.7
	l-1.3,1.7v0.7V92l-0.9,1.1l-0.9,1.1v0.7v0.7l-1.1,1.2l-1.1,1.2l-0.2,2.1l-0.2,2.1l-0.6,0.7l-0.6,0.7l-0.1,1.7l-0.1,1.7l-0.3,1.7
	l-0.3,1.7l-0.4,0.5l-0.4,0.5l0,2.1l0,2.1l0,2.2l0,2.2l0.2,2.8l0.2,2.8l0.4,3.5l0.4,3.5l1.1,2.7l1.1,2.7v1.6v1.6l0.8,1.1l0.8,1.1
	l0.8,1.7l0.8,1.7l1.2,1.8l1.2,1.8l0.6,0.3l0.6,0.3l1.7,2.2l1.7,2.2l3.8,3.8l3.8,3.8l2,0.9l2,0.9l1.1,1l1.1,1l2.8,0.9l2.8,0.9h0.5
	h0.5l1.1,0.9l1.1,0.9h1.2h1.2l3.5,0.7l3.5,0.7l2.4,0l2.4,0l3.5-0.3l3.5-0.3l3.2-0.9l3.2-0.9l0.4,0.4l0.4,0.4l2.9-1.5l2.9-1.5
	l2.8-1.4l2.8-1.4l1.6-1.2l1.6-1.2h0.3h0.3l1.9-1.3l1.9-1.3v-0.6v-0.6l1.8-1.6l1.8-1.6l0.3,0l0.3,0v-0.6V154l2.6-2.6l2.6-2.6v-0.9
	v-0.9l1.5-1.8l1.5-1.8l0.4-1.6l0.4-1.6l0.8-1.1l0.8-1.1l0.5-2.1l0.5-2.1l0.4-0.8l0.4-0.8l0-1.4l0-1.4l0.6-1.1l0.6-1.1l0-1.9l0-1.9
	l0.4-0.8l0.4-0.8l0.1-4.7l0.1-4.7l-0.6-1.6l-0.6-1.6l0.5-1l0.5-1l-0.8-2.3l-0.8-2.3l-0.4-2.6l-0.4-2.6l-0.5-1.3l-0.5-1.3l-0.2,0.2
	l-0.2,0.2l0.5,1.3l0.5,1.3l0.9,3.8l0.9,3.8l0.2,3l0.2,3l0,5.4l0,5.4l-0.4,2.7l-0.4,2.7l-0.5,0.5l-0.5,0.5v1.6v1.6l-0.6,1.2l-0.6,1.2
	l0,1.1l0,1.1l-1,1.5l-1,1.5l-0.6,1.7l-0.6,1.7l-0.6,0.8l-0.6,0.8l-0.8,0.7l-0.8,0.7v1v1l-2.6,2.8l-2.6,2.8v0.4v0.4l-2.2,1.7
	l-2.2,1.7v0.6v0.6l-1.4,1.1l-1.4,1.1h-0.4h-0.4l-2.3,1.7l-2.3,1.7h-0.6h-0.6l-0.1,0.4l-0.1,0.4l-1.1,0.3l-1.1,0.3l0.8-0.6l0.8-0.6
	l2.4-2.1l2.4-2.1l0.9-0.2l0.9-0.2l1.3-1.9l1.3-1.9l1.6-0.9l1.6-0.9l0.9-1.8l0.9-1.8l1.7-2.4l1.7-2.4l1-1.5l1-1.5l1-3l1-3l0.6-1.5
	l0.6-1.5l0.9-2.3l0.9-2.3l-0.2-0.6l-0.2-0.6l0.4-2.2l0.4-2.2l0.3-3.5l0.3-3.5l0-1.7l0-1.7l-0.3-4.7l-0.3-4.7l-0.8-1.7l-0.8-1.7v-0.8
	v-0.8l-1.9-4.6l-1.9-4.6l-1.2-2.4l-1.2-2.4l-2-2.7l-2-2.7h-0.4h-0.4l-1-1.5l-1-1.5l-1.9-1.4l-1.9-1.4l-1.8-1.6l-1.8-1.6l-2.1-0.9
	l-2.1-0.9l-1.7-0.5l-1.7-0.5l-1.4-0.8l-1.4-0.8l-2.4-0.3l-2.4-0.3l-3.9-0.7l-3.9-0.7l-1.4-0.3l-1.4-0.3l-0.1-0.4l-0.1-0.4l2.6,0
	l2.6,0l5.1,0.4l5.1,0.4l1.6,0.9l1.6,0.9l2.4,0.9l2.4,0.9l2.2,1.2l2.2,1.2l0.7,0.6l0.7,0.6h0.8h0.8l2.1,1.6l2.1,1.6v0.3v0.3l3.8,4.3
	l3.8,4.3l0.8,0.9l0.8,0.9l0.6,1.5l0.6,1.5l0.5,1.1l0.5,1.1l0.9,1l0.9,1l0.6,1.2l0.6,1.2l-0.3-1.1l-0.3-1.1l-1-1.1l-1-1.1l-1-2.5
	l-1-2.5l-1.6-1.7l-1.6-1.7l-3.7-4.4l-3.7-4.4l-1.6-1.1l-1.6-1.1l-1.2-0.3l-1.2-0.3l-0.7-0.8l-0.7-0.8h-0.5h-0.5l-2-1.1l-2-1.1
	l-0.6,0l-0.6,0l-2.5-1.3l-2.5-1.3l-3.8-0.5l-3.8-0.5l-4.1-0.1l-4.1-0.1L252.2,63 M480.5,63.1l-2.8,0.6l-3.4,1.1l-3.4,1.1l-1.1,0.9
	l-1.1,0.9h-0.4h-0.4l-0.7,0.6l-0.7,0.6l-1,0.3l-1,0.3l0.3-0.7l0.3-0.7h0.6h0.6l0.9-1.1l0.9-1.1l2.3-1.3l2.3-1.3l-0.2-0.2l-0.2-0.2
	l-1.7,1.1l-1.7,1.1h-0.5h-0.5l-0.5,0.8l-0.5,0.8l-1.2,0.6l-1.2,0.6l-0.5,1l-0.5,1l-1.8,1.6l-1.8,1.6l-1.6,3l-1.6,3l-0.6,0.6
	l-0.6,0.6l-0.3,1.3l-0.3,1.3l-0.6,0.6l-0.6,0.6l-0.5,2.6l-0.5,2.6l-0.4,3.9l-0.4,3.9l-0.1,1.9l-0.1,1.9l0.2,1.5l0.2,1.5l0.8,2.6
	l0.8,2.6l0.7,1.7l0.7,1.7l1.6,3.1l1.6,3.1l2.5,1.6l2.5,1.6l1.1,1l1.1,1l1.8,0.7l1.8,0.7h1.1h1.1l2.7,1.2l2.7,1.2l2.4,0.7l2.4,0.7
	h1.2h1.2l1.5,0.5l1.5,0.5l1.2,0.6l1.2,0.6h1.1h1.1l1.5,0.5l1.5,0.5l2.3,1.7l2.3,1.7l0,0.3l0,0.3l0.2,1.3l0.2,1.3l-0.2,1.7l-0.2,1.7
	l-1.8,1.4l-1.8,1.4l-1.6,0.3l-1.6,0.3l-1.5,0.3l-1.5,0.3l-1.4-0.7l-1.4-0.7v0.3v0.3l1.3,0.6l1.3,0.6l1.4-0.2l1.4-0.2l2-0.4l2-0.4
	l1.6-1l1.6-1l-0.2,0.9l-0.2,0.9l-1.7,1.6l-1.7,1.6l-4-0.3l-4-0.3l-1.6-0.6l-1.6-0.6l-3.1-2.2l-3.1-2.2l-1.9,0.3l-1.9,0.3l-1.2-0.8
	l-1.2-0.8l-4.4,0.3l-4.4,0.3l-1.5,0.4l-1.5,0.4l-1.1,0.2l-1.1,0.2l-1.2,1.1l-1.2,1.1h-1.5h-1.5l0.1-1.4l0.1-1.4l0.9-0.5l0.9-0.5
	l1.5-1.1l1.5-1.1l4.2-0.6l4.2-0.6l3.8,0.2l3.8,0.2l-1.9-0.4l-1.9-0.4l-2.8,0l-2.8,0l-3.5,0.5l-3.5,0.5l-1.4,1.1l-1.4,1.1l-1.3,1.2
	l-1.3,1.2l0,1v1l0.8,2.2l0.8,2.2l1.5,3l1.5,3l1.7,2.4l1.7,2.4l0.4,0.2l0.4,0.2l2,1.7l2,1.7l0.9,0.8l0.9,0.8l1.6,1.4l1.6,1.4l2.1,0.7
	l2.1,0.7l2.6,1.3l2.6,1.3l2.2,0.4l2.2,0.4l5.4,0.2l5.4,0.2l4.1-0.5l4.1-0.5l1.3-0.6l1.3-0.6l1.7-0.2l1.7-0.2l2.4-1l2.4-1l0.8-0.8
	l0.8-0.8l1-0.4l1-0.4l2-1.2l2-1.2l1.8-1.7l1.8-1.7l2.3-2.7l2.3-2.7v-0.5v-0.5l-2,2.6l-2,2.6l-0.8,0.3l-0.8,0.3v0.4v0.4l-1.3,0.5
	l-1.3,0.5l-0.4-0.2l-0.4-0.2l0-0.5l0-0.5l1.1-1l1.1-1v-0.4v-0.4l1.5-1.8l1.5-1.8v-0.8V153l0.8-1.6l0.8-1.6l0.3-1.9l0.3-1.9l0.6-0.6
	l0.6-0.6l0.3-2.8l0.3-2.8l-0.5-2.9l-0.5-2.9l-0.8-1.5l-0.8-1.5l-0.9-2.5l-0.9-2.5l-1.5-1.1L522,123l-1.1-1.9l-1.1-1.9l-1.8-0.8
	l-1.8-0.8l-1.1-1.1l-1.1-1.1l-1.3-0.7l-1.3-0.7l-0.8-0.9l-0.8-0.9h-1.5h-1.5l-0.8-0.4l-0.8-0.4l-5.2-0.7l-5.2-0.7l-2.6-0.9l-2.6-0.9
	l-0.7-0.6l-0.7-0.6l-0.4,0l-0.4,0l-2.1-2.6l-2.1-2.6l-0.6-0.2l-0.6-0.2v-1.1v-1.1h0.4h0.4l0.4,1.1l0.4,1.1l1.9,0.9l1.9,0.9l1.9,0.4
	l1.9,0.4l2.5,0.9l2.5,0.9l3.1,0l3.1,0l1.2,0.5l1.2,0.5l0.5,0l0.5,0l-2.2-0.8l-2.2-0.8l-2.3,0.2l-2.3,0.2l-2.6-0.7l-2.6-0.7l-0.2-0.4
	l-0.2-0.4h-1.2h-1.2l-2.1-0.9l-2.1-0.9l-2.1-2.3l-2.1-2.3l0-1.1l0-1.1l0.1-1.3l0.1-1.3l0.5-0.9l0.5-0.9l2.4-2l2.4-2h1.6h1.6l1.2-0.5
	l1.2-0.5l2.9,0.9l2.9,0.9l1,1.1l1,1.1l1.4,2.1l1.4,2.1l1.3-0.1l1.3-0.1l4.1-0.9l4.1-0.9l0.5-0.4l0.5-0.4l2.5-0.8l2.5-0.8l1.4-0.3
	l1.4-0.3l0.9-1.3l0.9-1.3h0.5h0.5l0.5-1l0.5-1l0.2-0.7l0.2-0.7l-1.3-1.8l-1.3-1.8v-0.3v-0.3l-1.5-2.4l-1.5-2.4v0.6v0.6l1,1.5l1,1.5
	l1.6,2.4l1.6,2.4l-0.6,0.9l-0.6,0.9l-1.4,0l-1.4,0l-0.5-0.3l-0.5-0.3l-1.2-1.7l-1.2-1.7v-1.1v-1.1l-0.5-1.4l-0.5-1.4l-1.5-1l-1.5-1
	l-0.9-1.4l-0.9-1.4l-3.1-2.2l-3.1-2.2L504,65l-3.3-1.3l-2.8-0.6l-2.8-0.6l-5.9,0l-5.9,0L480.5,63.1 M662.2,64.3l-4.8,0.4l-5.9,0.1
	l-5.9,0.1l1,0.4l1,0.4l4.9,0l4.9,0l1.1-0.4l1.1-0.4l6.6,0l6.6,0l9.5,0.2l9.5,0.2l0.4,0l0.4,0l4.8-0.3l4.8-0.3l0.9,0.5l0.9,0.5
	l3.5-0.3l3.6-0.3l-1.5-0.3l-1.5-0.3l-1,0.4l-1,0.4h-1.2h-1.2l-0.5-0.5l-0.5-0.5l-4.7,0.1l-4.7,0.1l-1.9,0l-1.9,0l-4.5,0l-4.5,0
	l-2.8,0l-2.8,0l-3.9-0.1l-3.9-0.1L662.2,64.3 M638.9,65.6l-1.5,0.4l-1.5-0.2l-1.5-0.2l-2.3,0.9l-2.3,0.9l-1.6-0.5l-1.6-0.5l-2.2,0.5
	l-2.2,0.5l-0.9,0.1l-0.9,0.1l0.2,1.1l0.2,1.1l0.1,8.3l0.1,8.3l0.5,0.9l0.5,0.9v1.6v1.6l0.7,3.3l0.7,3.3l1.3,2.1l1.3,2.1l2.1,0.5
	l2.1,0.5l1.2-0.2l1.2-0.2l2.1,1l2.1,1l6.3,0.1l6.3,0.1l0.7,0l0.7,0l1.2,1.1l1.2,1.1l0.1,7.6l0.1,7.6l0.2,3.2l0.2,3.2l0.3,5.3
	l0.3,5.3l0.5,0.9l0.5,0.9l0.1,4.8l0.1,4.8l0.5,2.4l0.5,2.4l0.5,1.6l0.5,1.6l0.1,2.7l0.1,2.7l0.4,1.6l0.4,1.6l0.7,0.7l0.7,0.7
	l2.9,1.2l2.9,1.2l1.9-0.4l1.9-0.4l2.6,0l2.6,0l1.5,0.1l1.5,0.1l7.5,0l7.5,0l1-0.4l1-0.4l0.9-1.7l0.9-1.7l0-1l0-1l0.6-1.8l0.6-1.8
	l0.3-5.1l0.3-5.1l-0.1-2.7l-0.1-2.7l0.7-2.4l0.7-2.4l-0.3-4l-0.3-4l0.1-1.9l0.1-1.9v-3v-3l-0.3-1.9l-0.3-1.9l0.6-3.7l0.6-3.7l1-1.5
	l1-1.5l2.2-1.2l2.2-1.2l4.8,0l4.8,0l0.9-0.5l0.9-0.5h3.5h3.5l0.8-0.4l0.8-0.4l0.9-1.7l0.9-1.7l0-1.4l0-1.4l-0.3,1.6l-0.3,1.6
	l-0.8,1.5l-0.8,1.5l-0.9,0.2l-0.9,0.2l-1,0l-1,0v-0.9v-0.9l1-2.7l1-2.7l0.7-2.2l0.7-2.2l-0.1-2.8l-0.1-2.8l0.3-3.9l0.3-3.9l-0.5-1.9
	l-0.5-1.9l-0.2-1.7l-0.2-1.7l-0.7-0.5l-0.7-0.5h-1.2h-1.2l-1.1-0.4l-1.1-0.4l-5.5-0.2l-5.5-0.2l-3.5,0l-3.5,0l-1.1-0.4l-1.1-0.4
	l-1.9,0.4l-1.9,0.4l-1.9-0.6l-1.9-0.6l-4.8,0.1l-4.8,0.1l-2.5,0l-2.5,0l-0.4-0.3l-0.4-0.3l-9.6-0.1l-9.6-0.1l-2.2,0.4l-2.2,0.4
	l-8.1,0.1l-8.1,0.1l-0.6,0.5l-0.6,0.5l-2.3-0.1l-2.3-0.1l-2.1,0.5l-2.1,0.5l-0.8-0.5l-0.8-0.5v-0.6v-0.6l1.3-0.5l1.3-0.5l1.8,0.5
	l1.8,0.5l2.4-0.9l2.4-0.9l1,0.4l1,0.4l0.9-0.3l0.9-0.3l2.2-0.1l2.2-0.1l1.1-0.3l1.1-0.3l-2.4,0.1l-2.4,0.1L638.9,65.6 M713.5,65.5
	l2.4,0.4l3.2,0.4l3.2,0.4L725,67l2.6,0.3l-0.6-0.4l-0.6-0.4l-1.9,0l-1.9,0l-4.3-0.6l-4.3-0.6l-1.3,0l-1.3,0L713.5,65.5 M730,75.6
	l-0.1,1.2l0.5,1.9l0.5,1.9l-0.4,1.7l-0.4,1.7l0.3,0.9l0.3,0.9l0.1-1.3l0.1-1.3v-2.4v-2.4l-0.4-1.9l-0.4-1.9L730,75.6 M730,86.7
	l-0.1,0.6l-0.1,2.4l-0.1,2.4l-0.7,2.1l-0.7,2.1l0.2,0.2l0.2,0.2l0.2-0.6l0.2-0.6l0.7-2.2l0.7-2.2l-0.2-2.5l-0.2-2.5L730,86.7
	 M251.5,98l-2.2,0.8l-1.7,1.1l-1.7,1.1l-1.4,0.5l-1.4,0.5l-1.3,1.8l-1.3,1.8l-1.2,2.6l-1.2,2.6l-0.4,0.9l-0.4,0.9l-0.7,1.8l-0.7,1.8
	l0.2,2.5l0.2,2.5l-0.4-0.9l-0.4-0.9l0-2l0-2l1.9-4.4l1.9-4.4l1.1-1.9l1.1-1.9l0.9-1l0.9-1h0.7h0.7l1.5-0.9l1.5-0.9l-0.2-0.3
	l-0.2-0.3l-1,0.2l-1,0.2l-1.5,1.1l-1.5,1.1l-2.2,2.1l-2.2,2.1l-1.2,0.9l-1.2,0.9v0.5v0.5l-0.6,0.7l-0.6,0.7l-1.1,3.2l-1.1,3.2
	l-0.3,2.2l-0.3,2.2l0.7,2.8l0.7,2.8l1.6,2.3l1.6,2.3l1.7,1.5l1.7,1.5h0.5h0.5l1.6,1.2l1.6,1.2l3,0.9l3,0.9l1.7,0.2l1.7,0.2l0.8-0.3
	l0.8-0.3l-0.4-0.2l-0.4-0.2l-2.7-0.7l-2.7-0.7l-0.7,0l-0.7,0l-2.4-1.8l-2.4-1.8l-1.6-2.4l-1.6-2.4l-0.7-0.8l-0.7-0.8l-0.6-1.1
	l-0.6-1.1l0-0.9l0-0.9l0.5,1.5l0.5,1.5l1.8,2.3l1.8,2.3l0.3,0.8l0.3,0.8l2.6,2.1l2.6,2.1l4.8,1l4.8,1l0.4-0.2l0.4-0.2l2.5-0.4
	l2.5-0.4l1.9-0.8l1.9-0.8l1.1-1.1l1.1-1.1l1.4-0.6l1.4-0.6l2.2-2.9l2.2-2.9l0.7-1.4l0.7-1.4l-0.2-4.2l-0.2-4.2l-0.5-0.5l-0.5-0.5
	v-0.9v-0.9l-1.1-1.6l-1.1-1.6v-1v-1l-0.9-1.1l-0.9-1.1h-0.5h-0.5l-1.3-1.4l-1.3-1.4l-1.7-0.7l-1.7-0.7l-2.4-0.9l-2.4-0.9l-3,0.1
	l-3,0.1L251.5,98 M507.6,106.6l1.4,0.3l1.4,1.5l1.4,1.5l2.4,1.5l2.4,1.5l1.8,0.8l1.8,0.8l1.4,1.7l1.4,1.7l1.5,1.6l1.5,1.6l1.7,2.6
	l1.7,2.6v-0.6v-0.6l-2.1-2.9l-2.1-2.9l-2.6-2.8l-2.6-2.8l-1.7-0.7l-1.7-0.7l-1.5-0.9l-1.5-0.9l-2.5-2.3l-2.5-2.3l-1.2,0l-1.2,0
	L507.6,106.6 M697.1,112l-1.4,0.9l0,1l0,1h-0.4H695l-0.1,2.3l-0.1,2.3l0,1.7l0,1.7l0.2,3.5l0.2,3.5l0.5,2.2l0.5,2.2l-0.4,7.8
	l-0.4,7.8l-0.5,0.8l-0.5,0.9v2.6v2.6l-1.1,2.4l-1.1,2.4v0.8v0.8l-0.6,1.2l-0.6,1.2l0,0.6l0,0.6l1.5,1l1.5,1l0.9-0.9l0.9-0.9v-1.4
	v-1.4l0.7-1.5l0.7-1.5l0.4-5l0.4-5l0.2-4.1l0.2-4.1l0.5-3l0.5-3l-0.2-2.6l-0.2-2.6l0-1.5l0-1.5l0-3.9l0-3.9l0-2.4l0-2.4l0.3-2.7
	l0.3-2.7l-0.3,0l-0.3,0L697.1,112 M531.6,132.1v0.3l0.6,0.9l0.6,0.9l0.1,5.6l0.1,5.6l0.3-0.8l0.3-0.8l-0.2-4.5l-0.2-4.5l-0.7-1.4
	l-0.7-1.4h-0.2h-0.2V132.1 M475.4,139.6l1.2,0.4l0.5,0.4l0.5,0.4l2.4,0.8l2.4,0.8l1.5,1.5l1.5,1.5l0.8,0l0.8,0l-1-0.4l-1-0.4
	l-1.7-1.5l-1.7-1.5h-0.6h-0.6l-1.5-0.7l-1.5-0.7l-0.8-0.4l-0.8-0.4l-1,0l-1,0L475.4,139.6 M532.4,146l-0.1,0.3l-0.1,0.4l-0.1,0.4
	l-0.4,1.7l-0.4,1.7l-1,1.5l-1,1.5v0.4v0.4l1.3-2l1.3-2l0.2-1.4l0.2-1.4l0.1-1l0.1-1h-0.2h-0.2L532.4,146 M1361.2,63.4l3.1,0.1
	l3.1-0.1l3.1-0.1h-6.3h-6.3L1361.2,63.4 M960,91.6l-0.3,7.7l0.3,0.9l0.3,0.9l0.1-8.6l0.1-8.6h-0.2h-0.2L960,91.6 M1205.5,94.7v5.8
	l0.2-2.9l0.2-2.9l-0.2-2.9l-0.2-2.9V94.7 M1016.1,113.7v0.4l0.3,0.3l0.3,0.3l0.5,1.4l0.5,1.4l0-0.8l0-0.8l1.4,1.3l1.4,1.3l-1.8-2.1
	l-1.8-2.1v-0.4v-0.4h-0.4h-0.4V113.7"/>
<path class="st7" d="M390.7,65.2l2.7,0.4l4.4-0.4l4.4-0.4l-7.1,0l-7.1,0L390.7,65.2 M364.6,67.7l-3.9,0.4l-1.7,0.2l-1.7,0.2
	l-4.5,0.4l-4.5,0.4l-4.3,0.4l-4.3,0.4l-1.7,0.5l-1.7,0.5l-1.5,0l-1.5,0l-1.2,0.6l-1.2,0.6h-1.8h-1.8l-0.5-0.5l-0.5-0.5l0-1.3l0-1.3
	l-0.4-0.6l-0.4-0.6l0,2.1l0,2.1l0.4,0.8l0.4,0.8l0.5,4.1l0.5,4.1l0.4,1.4l0.4,1.4l0.4,2.3l0.4,2.3l0.2,1.5l0.2,1.5l0.9,1.7l0.9,1.7
	l0.2,1.5l0.2,1.5l1.9,0.7l1.9,0.7l4.3,0.8l4.3,0.8l0.9,0.1l0.9,0.1l3,0.4l3,0.4l1.3,0.3l1.3,0.3l1.2,1.1l1.2,1.1l0.5,2.4l0.5,2.4
	l0.5,1.1l0.5,1.1l-0.1,6.3l-0.1,6.3l0.4,0.8l0.4,0.8l-0.5,2.1l-0.5,2.1l0.7,2.5l0.7,2.5l0.2,1.1l0.2,1.1l0.1,2.8l0.1,2.8l0.6,1.9
	l0.6,1.9l0.1,0.7l0.1,0.7l0.3,0.5l0.3,0.5l0.1,2.1l0.1,2.1l0.5,1.7l0.5,1.7l0.9,2.8l0.9,2.8l0,1l0,1l1,0.6l1,0.6l2.2,0.3l2.2,0.3
	l1.3,0.4l1.3,0.4l8,0.2l8,0.2l3.3,0.2l3.3,0.2l0.7-0.7l0.7-0.7v-1.2v-1.2l0.3-0.8l0.3-0.8l-0.5,0.3l-0.5,0.3v1.7v1.7l-0.4,0.3
	l-0.4,0.3l-1.6-0.3l-1.6-0.3l0.3-1.6l0.3-1.6l0.4-4.1l0.4-4.1l0.1-3.2l0.1-3.2l0.4-1.7l0.4-1.7l-0.4-1.3l-0.4-1.3l0.3-2l0.3-2
	l0.2-4.5l0.2-4.5l0.2-2.8l0.2-2.8l0.3-6l0.3-6l1.7-1.5l1.7-1.5h0.5h0.5l0.2,0.5l0.2,0.5l0.5-1.1l0.5-1.1l1.5-1.2l1.5-1.2l1.6-0.4
	l1.6-0.4l1.9-0.2l1.9-0.2l1.1,0.4l1.1,0.4l2.3-0.8l2.3-0.8h2.2h2.2l-0.5-0.6l-0.5-0.6l1.1-1.3l1.1-1.3v-0.5v-0.5l1.1-2.2l1.1-2.2
	l0.2-3.4l0.2-3.4l0.3-4.6l0.3-4.6l-0.5-0.3l-0.5-0.3l0-2.7l0-2.7l-0.3-0.9l-0.3-0.9l-3.9-0.6l-3.9-0.6l-2.4-0.2l-2.4-0.2l-2.2-0.2
	l-2.2-0.2l-2.8-0.4l-2.8-0.4l-2.3,0.4l-2.3,0.4l-2.4-0.7l-2.4-0.7l-1.7,0.6l-1.7,0.6l-1.9-0.5l-1.9-0.5l-1.7,0.4l-1.7,0.4l-1.1-0.3
	l-1.1-0.3l-4.7,0.2l-4.7,0.2l-1.5,0.1l-1.5,0.1l-0.9-0.2l-0.9-0.2L364.6,67.7 M432.1,79.1l0,6l0.4-1.9l0.4-1.9l-0.4-4.1l-0.4-4.1
	L432.1,79.1 M400.1,130.2l-0.4,0.8l0.6,0.9l0.6,0.9l-0.1,4.3l-0.1,4.3l0.2-0.2l0.2-0.2l0.1-4.1l0.1-4.1l-0.4-1.7l-0.4-1.7
	L400.1,130.2 M399.5,154.6l0,0.8l-0.2,2.6l-0.2,2.6l-0.3,1l-0.3,1l0.5-0.8l0.5-0.8l0.3-3.7l0.3-3.7h-0.3h-0.3L399.5,154.6"/>
<path class="st8" d="M484,50.4l-3.2,0.4l-1.6,0.8l-1.6,0.8l-1.7,0.3l-1.7,0.3l-1.3,0.8l-1.3,0.8l-2.1,0.7l-2.1,0.7l-2.6,2l-2.6,2
	l-1.6,0.7l-1.6,0.7v0.3v0.3l-2.1,2.3l-2.1,2.3l-0.7,1.4l-0.7,1.4l-1,0.6l-1,0.6l-0.8,1.6l-0.8,1.6l-2.2,3.7l-2.2,3.7l-0.5,2.6
	l-0.5,2.6l-0.4,1.3l-0.4,1.3v2.1v2.1l-0.5,1.7l-0.5,1.7l0.5,0.8l0.5,0.8l-0.2,2.3l-0.2,2.3l0.6,0.9l0.6,0.9l0.3,2.4l0.3,2.4l0.4,1.5
	l0.4,1.5l0.6,1l0.6,1h0.3h0.3l0.3,1.8l0.3,1.8l0.9,1.2l0.9,1.2v0.5v0.5l2.5,2.6l2.5,2.6l1.5,1.1l1.5,1.1l0.9,0.3l0.9,0.3l-0.8,0.6
	l-0.8,0.6h-0.8h-0.8l-0.8,0.4l-0.8,0.4l-1.7,0.8l-1.7,0.8l-2.5,1.9l-2.5,1.9l-0.8,1.6l-0.8,1.6l-0.3,1.8l-0.3,1.8l-0.1,1.1l-0.1,1.1
	l0.7,1.5l0.7,1.5l0.3,2.1l0.3,2.1l0.3,0.2l0.3,0.2l0.3,1.8l0.3,1.8l1.2,1.4l1.2,1.4l0.3,0.9l0.3,0.9l6,6.1l6,6.1h0.5h0.5l2.1,1.3
	l2.1,1.3h0.7h0.7l2.2,1.5l2.2,1.5h0.8h0.8l1.6,0.8l1.6,0.8l3.2,0.7l3.2,0.7l5.2,0.2l5.2,0.2l2.8-0.4l2.8-0.4l3.2-0.2l3.2-0.2
	l2.6-0.7l2.6-0.7l0.9-0.7l0.9-0.7l1.5-0.7l1.5-0.7l1.6-0.7l1.6-0.7l0.2-0.3l0.2-0.3l1.8-0.6l1.8-0.6l1.4-1.5l1.4-1.5l0.8-1l0.8-1
	h0.3h0.3l1.7-1.3l1.7-1.3v-0.6v-0.6l2.2-2.3l2.2-2.3l1-1.5l1-1.5l0.5-2l0.5-2l1-2.2l1-2.2l-0.1-0.7l-0.1-0.7l0.7-1.6l0.7-1.6l0-4.4
	l0-4.4l0-0.9l0-0.9l-1.3-3l-1.3-3l0.2-1.1l0.2-1.1l-0.7-1.6l-0.7-1.6l-0.9-0.5l-0.9-0.5v-1v-1h-0.4h-0.4v-0.6v-0.6l-1.1-1l-1.1-1
	v-0.5V116l-3.1-3.6l-3.1-3.6l-0.8-0.3l-0.8-0.3l-1.2-1.4l-1.2-1.4l-0.7,0l-0.7,0l-1.3-1.1l-1.3-1.1l-0.5-0.4l-0.5-0.4h-0.2h-0.2
	l-1.3-1.2l-1.3-1.2l1.5-0.8l1.5-0.8h0.7h0.7l1.6-0.8l1.6-0.8l2.5-1.3l2.5-1.3l1.6-1.9l1.6-1.9l1-0.9l1-0.9l0.3-1.3l0.3-1.3l-0.1-0.4
	l-0.1-0.4l0.1-2.6l0.1-2.6l-0.5-1.8l-0.5-1.8l-1.8-2.2l-1.8-2.2l-0.9-1.8l-0.9-1.8l-2.4-2.5l-2.4-2.5l-1.9-1.5l-1.9-1.5l-0.5-0.5
	l-0.5-0.5v-0.3v-0.3l-0.8-0.6l-0.8-0.6l-2.4-1.2l-2.4-1.2l-1.4-0.3l-1.4-0.3l-0.2-0.4l-0.2-0.4h-0.8h-0.8l-2.4-1.1l-2.4-1.1H501
	h-1.5l-2-0.6l-2-0.6l-4.1-0.2l-4.1-0.2L484,50.4 M254.8,52.9l-0.6,0.4l-3.8,0.3l-3.8,0.3l-0.8,0.4l-0.8,0.4l-0.6-0.4l-0.6-0.4
	l-0.4,0.4l-0.4,0.4l-2.4,0.8l-2.4,0.8l-1,0.8l-1,0.8l-1.3,0.3l-1.3,0.3l-0.2,0.4l-0.2,0.4h-0.8h-0.8l-2.1,1l-2.1,1l-1.2,1.1
	l-1.2,1.1h-0.4H224v0.3V64l-2.3,1.2l-2.3,1.2l-2.9,2.8l-2.9,2.8v0.5v0.5h-0.4h-0.4l-3,3l-3,3L206,81l-0.8,2.1l-0.6,0.3l-0.6,0.3v0.6
	V85l-1.3,2l-1.3,2l-0.3,1.4l-0.3,1.4l-1,1.1l-1,1.1l-0.5,1.2l-0.5,1.2l-0.4,1l-0.4,1l-0.6,2.8l-0.6,2.8l-0.3,2.6l-0.3,2.6l-0.4,1.1
	l-0.4,1.1l0.1,7.4l0.1,7.4l0.2,2l0.2,2l0.7,3.4l0.7,3.4l0.6,1.6l0.6,1.6l0.2,1.1l0.2,1.1l0.7,1.2l0.7,1.2l0.6,1.3l0.6,1.3l0.7,1.5
	l0.7,1.5l0.5,0.9l0.5,0.9l1.2,1.8l1.2,1.8l0.6,0.6l0.6,0.6l0.8,1.6l0.8,1.6l1.4,0.6l1.4,0.6l1.7,2.7l1.7,2.7l2,1.3l2,1.3l1.1,0.7
	l1.1,0.7l0.5,0.3l0.5,0.3l2,1.8l2,1.8h0.9h0.9l0.2,0.6l0.2,0.6l3.1,0.3l3.1,0.3l0.2,0.4l0.2,0.4l1.9,0.9l1.9,0.9h1.9h1.9l0.3,0.5
	l0.3,0.5l0.9-0.2l0.9-0.2l2.3,0.7l2.3,0.7l6.8-0.1l6.8-0.1l1.2-0.8l1.2-0.8l2.1,0l2.1,0l1.8-0.9l1.8-0.9l1.9-1.3l1.9-1.3l2.3-1
	l2.3-1h0.8h0.8V172v-0.4h0.4h0.4l1.7-1.1l1.7-1.1h0.6h0.6l1.5-1.5l1.5-1.5h0.5h0.5l2.3-2.4l2.3-2.4h0.5h0.5l0.9-1.1l0.9-1.1v-0.6
	v-0.6l2.8-3l2.8-3l0.4-1.5l0.4-1.5l0.8-1.2l0.8-1.2l0.6-1.3l0.6-1.3l1.2-1.7l1.2-1.7v-0.9V139l0.8-2.4l0.8-2.4l0.7-2.5l0.7-2.5
	l-0.2-1.3l-0.2-1.3l0.6-2.4l0.6-2.4l0.5-1.9l0.5-1.9l-0.3-0.7l-0.3-0.7l-0.2-6.2l-0.2-6.2l-0.7-1l-0.7-1l-0.4-3l-0.4-3l-0.5-1.1
	l-0.5-1.1l-1-2.1l-1-2.1v-0.7v-0.7l-0.5-1l-0.5-1l-0.4-0.6l-0.4-0.6l-0.3-0.6l-0.3-0.6l-0.9-2.1l-0.9-2.1h-0.3h-0.3l-2.5-3.3
	l-2.5-3.3l-0.4-0.7l-0.4-0.7l-1.7-1.6l-1.7-1.6h-0.4h-0.4V68v-0.5l-0.9-0.8l-0.9-0.8h-0.6h-0.6l-0.9-1.2l-0.9-1.2l-1-0.6l-1-0.6
	l-0.6-0.3l-0.6-0.3l-0.9-0.7l-0.9-0.7l-1.3-0.7l-1.3-0.7l-1.6-0.7l-1.6-0.7v-0.3V57l-2.3,0l-2.3,0l-1.6-0.9l-1.6-0.9l-2.3-0.3
	l-2.3-0.3l-0.9-0.5l-0.9-0.5l-3.4-0.1l-3.4-0.1l-0.4-0.3l-0.4-0.3l-1.3-0.1l-1.3-0.1L254.8,52.9 M572.1,53l-0.8,0.5l-3.7,0.2
	l-3.7,0.2l-2.3,0.8l-2.3,0.8l-0.3-0.2l-0.3-0.2l-1.5,0.4l-1.5,0.4l-0.8,0.9l-0.8,0.9l-0.9,0l-0.9,0l-1.7,1l-1.7,1l-1.4,2.1l-1.4,2.1
	v1.1V66l-0.7,1.3l-0.7,1.3l0.3,2.1l0.3,2.1l-0.6,1.5l-0.6,1.5l0.3,0.9l0.3,0.9l0,1.3l0,1.3l-0.4,0.4l-0.4,0.4l-0.3,6.7l-0.3,6.7
	l0,1.1l0,1.1l0.2,9.9l0.2,9.9l0.3,0.5l0.3,0.5l0.1,2l0.1,2l0.2,5.8l0.2,5.8l0.4,0.5l0.4,0.5l-0.1,1.5l-0.1,1.5l0.4,1.1l0.4,1.1
	l0.3,1.9l0.3,1.9l0.4,4.3l0.4,4.3l0.7,1.7l0.7,1.7l0,3.1l0,3.2l0.4,0.5l0.4,0.5l0.3,1.1l0.3,1.1l1.6,4.1l1.6,4.1l1.4,2.3l1.4,2.3
	l1,0.6l1,0.6l1.2,0.3l1.2,0.3v0.3v0.3l1.8,0.7l1.8,0.7l4.3,0.6l4.3,0.6l4.5,0.5l4.5,0.5l2.4,0.1l2.4,0.1l1.4-0.7l1.4-0.7h1.8h1.8
	l1.5-0.6l1.5-0.6l0.9-1l0.9-1l1.2-1.5l1.2-1.5l0.8-1.2l0.8-1.2l-0.4-0.4l-0.4-0.4l1.5-2.8l1.5-2.8v-1v-1l0.4-0.2l0.4-0.2l0-2.1
	l0-2.1l0.7-1.4l0.7-1.4l-0.3-1.5l-0.3-1.5l0.8-2.4l0.8-2.4l-0.5-0.6l-0.5-0.6l0.4-0.6l0.4-0.6l0.3-3.7l0.3-3.7l0.3-2.2l0.3-2.2
	l0.2-3l0.2-3l0.5-1.2l0.5-1.2l-0.1-1.6l-0.1-1.6l0.1-4.8l0.1-4.8l0.4-0.8l0.4-0.8l-0.6-2.3l-0.6-2.3l0.7-2.3l0.7-2.3l-0.5-0.7
	l-0.5-0.7l0.3-0.6l0.3-0.6l0.2-4.2l0.2-4.2l-0.6-1.1l-0.6-1.1l0.4-0.7l0.4-0.7l-0.2-5.3l-0.2-5.3H610h-0.1l-0.2-5.5l-0.2-5.5
	l-0.6-1.2l-0.6-1.2l0-1.8l0-1.8l-1-0.9l-1-0.9l-1.2-1.3l-1.2-1.3l-1.4-0.3l-1.4-0.3l-1.6-0.8l-1.6-0.8h-1h-1l-0.4-0.4l-0.4-0.4
	l-2.2-0.1l-2.2-0.1l-1.7-0.5l-1.7-0.5l-7.1,0l-7.1,0L572.1,53 M158.2,54.2l-3.7,0.3l-2.4,0.5l-2.4,0.5l-2.3,1.1l-2.3,1.1l-2.4,2.7
	l-2.4,2.7l-0.4,2.4l-0.4,2.4l-0.5,0.9l-0.5,0.9l-0.5,2.3l-0.5,2.3l-0.6,0.9l-0.6,0.9l-0.2,3l-0.2,3l-0.5,1.3l-0.5,1.3l-0.3,5.2
	l-0.3,5.2l-0.5,1l-0.5,1l0.2,1l0.2,1l-0.3,0.5l-0.3,0.5l-2.8-2.7l-2.8-2.7l-1.4-0.9l-1.4-0.9l-0.9-0.5l-0.9-0.5l-1.1-0.5l-1.1-0.5
	l-1.9-0.4l-1.9-0.4l-1.8-0.2l-1.8-0.2l-1.5,0.9l-1.5,0.9l-0.7,0l-0.7,0l-0.5,0.6l-0.5,0.6h-0.7h-0.7l-1.9,1.6l-1.9,1.6l-1.6,1.7
	l-1.6,1.7l-0.5-0.5l-0.5-0.5l-0.1-3l-0.1-3l-0.7-1.2L96.8,90l-0.7-2.6l-0.7-2.6l0-1.7l0-1.7l-0.9-2.7l-0.9-2.7l-0.3-2l-0.3-2
	l-0.8-1.6l-0.8-1.6l0-0.9l0-0.9l-0.8-2.2L90,62.6l-0.9-1.4l-0.9-1.4l-2.8-2.2l-2.8-2.2L80,54.9l-2.7-0.6l-0.8,0.2l-0.8,0.2l-6.1,0.2
	L63.6,55l-1.3,0.4L61,55.8l-1.7-0.1l-1.7-0.1l-4.4,1.8l-4.4,1.8l-0.6,0.5l-0.6,0.5l-1.9,0.6l-1.9,0.6l-1,1l-1,1l-0.3,2.5l-0.3,2.5
	l-0.4,0.5l-0.4,0.5l-0.3,7.3l-0.3,7.3l0,1.1l0,1.1l0.2,5.3l0.2,5.3L40,97.5l-0.5,0.9l0.5,3.1l0.5,3.1l0.4,0.5l0.4,0.5l-0.4,0.6
	l-0.4,0.6l0,0.2l0,0.2l-0.3,0.8l-0.3,0.8l0.3,2.4l0.3,2.4l0.4,0.2l0.4,0.2l-0.4,1.2l-0.4,1.2l0.4,0.9l0.4,0.9l0.2,3.2l0.2,3.2
	l0.4,3.2l0.4,3.2l0.5,0.9l0.5,0.9l0.3,5.2l0.3,5.2l0.4,1.7l0.4,1.7l0.1,0.4l0.1,0.4l0.3,0.6l0.3,0.6l0.5,3.2l0.5,3.2l1.5,5l1.5,5
	l0.6,1.3l0.6,1.3l0.7,2.8l0.7,2.8l0.5,1.1l0.5,1.1l0.9,0.9l0.9,0.9l1,0.6l1,0.6l2.6,1.3l2.6,1.3l3.1,0l3.1,0l0.6,0.4l0.6,0.4
	l5.9-0.1l5.9-0.1l0.6,0.5l0.6,0.5l2.5-0.6l2.5-0.6l1.1,0.2l1.1,0.2l3-0.5l3-0.5l1.9-0.5l1.9-0.5l1.5-0.2l1.5-0.2l0.5-0.4l0.5-0.4
	l1.9-0.7l1.9-0.7l1.4-1.1l1.4-1.1l0.3-0.9l0.3-0.9l2-2l2-2l1.2-1.4l1.2-1.4l0.1-0.4l0.1-0.4l2.4,2.3l2.4,2.3l0.7,1.8l0.7,1.8
	l2.1,1.4l2.1,1.4l0.8,1.3l0.8,1.3l1.5,0.6l1.5,0.6l0.9,0l0.9,0l1.2,0.6l1.2,0.6l2.1,0.4l2.1,0.4l2.9,0.1l2.9,0.1l0.5-0.3l0.5-0.3
	l5.4-0.1l5.4-0.1l3.9-0.2l3.9-0.2l1.7-0.3l1.7-0.3l1.2-0.7l1.2-0.7v-0.3V179l1.6-0.3l1.6-0.3l0.7-0.2l0.7-0.2l1.7-1.3l1.7-1.3
	l0.6-0.6l0.6-0.6l0.6-1.7l0.6-1.7l0-1.8l0-1.8l0.4-0.4l0.4-0.4l1-5.2l1-5.2l0.5-1.5l0.5-1.5v-1.3v-1.3l0.8-2.2l0.8-2.2l-0.2-0.2
	l-0.2-0.2l0.5-0.6l0.5-0.6l0-1.1l0-1.1l0.5-2.4l0.5-2.4l0.1-3.6l0.1-3.6l0.5-0.5l0.5-0.5l0-2.6l0-2.6l0.4-1.7l0.4-1.7l0.2-7.5
	l0.2-7.5l0.5-0.6l0.5-0.6l-0.4-0.5l-0.4-0.5l0.1-3.9l0.1-3.9l0.1-1.9l0.1-1.9l-0.7-6.3l-0.7-6.3l0-0.6l0-0.6l0.4-1.5l0.4-1.5
	l-0.6-1.9l-0.6-1.9l0-1.1l0-1.1l-1.1-2.4l-1.1-2.4l-1-1.3l-1-1.3l-1.1-1.2l-1.1-1.2h-0.6h-0.6l-0.5-0.5L182,58l-2-0.1l-2-0.1
	l-1.7-0.7l-1.7-0.7h-1.1h-1.1l-1.6-0.4l-1.6-0.4l-2.8-0.7l-2.8-0.7l-0.9-0.1l-0.9-0.1L158.2,54.2 M362,55.3l-1.3,0.6l-3.9-0.3
	l-3.9-0.3l-0.8,0.4l-0.8,0.4l-1-0.3l-1-0.3l-4,0.4l-4,0.4l-2.8,0.2l-2.8,0.2l-3.9,0.3l-3.9,0.3l-0.6,0.5l-0.6,0.5l-2.7,0.3l-2.7,0.3
	l-1.2,0.6l-1.2,0.6l-1.4,1.6l-1.4,1.6v0.5v0.5l-0.6,0.7l-0.6,0.7l-0.5,2.8l-0.5,2.8l0,1.5l0,1.5l0.1,2.9l0.1,2.9l-0.5,0.9l-0.5,0.9
	l0.3,1.2l0.3,1.2l0.4,0.9l0.4,0.9l0.5,2.8l0.5,2.8l0,2l0,2l0.9,1.2l0.9,1.2l0.3,1.4l0.3,1.4l1.7,3.4l1.7,3.4l1.2,1.1l1.2,1.1l1,0.3
	l1,0.3v0.4v0.4l1.5,0.6l1.5,0.6l1.9,0.2l1.9,0.2l0.7,0.3l0.7,0.3l0.4-0.3l0.4-0.3l2.3,0.7l2.3,0.7l1.7,0l1.7,0l2.1,0.2l2.1,0.2
	l-0.2,4l-0.2,4l0.4,0.7l0.4,0.7l0.3,6.7l0.3,6.7l0.2,1.3l0.2,1.3l0.1,1.9l0.1,1.9l0.4,4.1l0.4,4.1l0.3,1.5l0.3,1.5l0.4,0.5l0.4,0.5
	l-0.2,0.9l-0.2,0.9l0.6,3.3l0.6,3.3l0.7,3.2l0.7,3.2l0.4,0.4l0.4,0.4v0.7v0.7l2,1.7l2,1.7l1.6,0.7l1.6,0.7l2.2,0.3l2.2,0.3l0.9,0.5
	l0.9,0.5l1.7,0l1.7,0l1.5-0.4l1.5-0.4l1,0.4l1,0.4l8,0l8,0l0.5-0.4l0.5-0.4l3-0.1l3-0.1l1.5-0.5l1.5-0.5l1.2-1.4l1.2-1.4l0-0.5
	l0-0.5l0.6-0.3l0.6-0.3l0.9-2.1l0.9-2.1v-1.2V167l0.6-0.8l0.6-0.8l0-3.5l0-3.5l0.5-0.5l0.5-0.5l0.1-5.5l0.1-5.5l0.4-3.9l0.4-3.9
	l0-12.3l0-12.3l2.3,0.3l2.3,0.3l1.2-0.6l1.2-0.6l2.6,0.1l2.6,0.1l3-0.8l3-0.8l2.1-0.5l2.1-0.5l1.1-0.5l1.1-0.5l1.1-1.2l1.1-1.2v-0.4
	v-0.4l0.6-0.2l0.6-0.2v-1v-1l0.9-1.6l0.9-1.6v-0.8v-0.8l0.4-0.3l0.4-0.3l0-1.6l0-1.6l0.7-1.4l0.7-1.4v-2.8v-2.8l0.5-0.5l0.5-0.5
	l-0.6-1.1l-0.6-1.1l0.5-0.8l0.5-0.8v-1.1v-1.1l-0.5-0.8l-0.5-0.8l0.5-1.1l0.5-1.1V75v-1.2l-0.5-0.2l-0.5-0.2l0.5-0.6l0.5-0.6v-1v-1
	l-0.3-0.1l-0.3-0.1l-0.7-1.3l-0.7-1.3l0.3-2.1l0.3-2.1l-2.1-2.2l-2.1-2.2l-1.3-0.3l-1.3-0.3l-1.3-0.4l-1.3-0.4l-2.6,0l-2.6,0
	l-3.9-0.5l-3.9-0.5l-3.9-0.4l-3.9-0.4l-4.5-0.2l-4.5-0.2l-7.3-0.1l-7.3-0.1l-2.7,0.5l-2.7,0.5l-1-0.4l-1-0.4l-3,0.1l-3,0.1l-3.5,0
	l-3.5,0l-1.5-0.2l-1.5-0.2L362,55.3 M660,55.3l-1.3,0.6l-4.1-0.3l-4.1-0.3l-0.5,0.4l-0.5,0.4l-1.3-0.3l-1.3-0.3l-4,0.4l-4,0.4
	l-3,0.2l-3,0.2l-3.5,0.2l-3.5,0.2l-0.7,0.6l-0.7,0.6l-2.7,0.3l-2.7,0.3l-1.2,0.6l-1.2,0.6l-1.1,1.2l-1.1,1.2l-1,1.7l-1,1.7l-0.4,2.4
	l-0.4,2.4l0.1,4.3l0.1,4.3l-0.5,1.2l-0.5,1.2l0.5,1.8l0.5,1.8l0.6,3.2l0.6,3.2l-0.2,1.7l-0.2,1.7l0.9,0.9l0.9,0.9l0.3,1.3l0.3,1.3
	l2,4l2,4l1.4,1l1.4,1h0.7h0.7v0.6v0.6l1.6,0.4l1.6,0.4l2.3,0.5l2.3,0.5l0.6-0.2l0.6-0.2l2.3,0.7l2.3,0.7h1.8h1.8l2,0.3l2,0.3l0,4.4
	l0,4.4l0.3,2.4l0.3,2.4l0.3,4.3l0.3,4.3l0.2,3.3l0.2,3.3l0.4,0.8l0.4,0.8l0,3.8l0,3.8l0.4,0.8l0.4,0.8l0.3,1.3l0.3,1.3l-0.1,0.8
	l-0.1,0.8l0.5,1.4l0.5,1.4l0.2,2.2l0.2,2.2l0.7,2.1l0.7,2.1l0.5,1.8l0.5,1.8l1.5,1.6l1.5,1.6l2.4,1.1l2.4,1.1h1.5h1.5l1.3,0.7
	l1.3,0.7l4-0.1l4-0.1l8.2,0.1l8.2,0.1l0.5-0.4l0.5-0.4l3.2-0.1l3.2-0.1l1.4-0.6l1.4-0.6l1.7-2.3l1.7-2.3l0.7-1.3l0.7-1.3l0.3-2
	l0.3-2l0.6-0.5l0.6-0.5V162v-3.4l0.5-0.9l0.5-0.9l0.1-7.1l0.1-7.1l0.3-0.4l0.3-0.4l0.2-5.8l0.2-5.8l-0.5-0.3l-0.5-0.3l0.4-0.5
	l0.4-0.5l-0.1-7.2l-0.1-7.2l2.3,0.3l2.3,0.3l1-0.6l1-0.6l2.3,0.1l2.3,0.1l5.4-1.3l5.4-1.3l1.4-0.7l1.4-0.7l1-1.3l1-1.3l0.6-0.3
	l0.6-0.3l0-1.2l0-1.2l0.8-1.3l0.8-1.3l0.4-1.7l0.4-1.7l-0.1-0.4l-0.1-0.4l0.5-1.7l0.5-1.7l0.4-0.4l0.4-0.4l0-2.6l0-2.6l0.4-0.6
	l0.4-0.6l-0.4-0.8l-0.4-0.8l0.5-2l0.5-2l-0.5-0.5l-0.5-0.5v-0.9v-0.9l0.5-1.5l0.5-1.5l-0.5-0.8l-0.5-0.8l0.4-1l0.4-1l-1-2l-1-2
	l0.2-2.1l0.2-2.1l-2.2-2.3l-2.2-2.3l-1.2-0.3l-1.2-0.3l-1.3-0.4l-1.3-0.4l-2.9,0l-2.9,0.1l-3.4-0.5l-3.4-0.5l-4.1-0.4l-4.1-0.4
	l-4.5-0.3l-4.5-0.3l-7.1-0.1l-7.1-0.1l-2.9,0.5l-2.9,0.5l-1-0.4l-1-0.4l-3,0.1l-3,0.1l-3.5,0l-3.5,0l-1.5-0.3l-1.5-0.3L660,55.3
	 M483.7,59l-3,0.8l-1,0l-1,0l-0.8,0.4l-0.8,0.4l-2.8,1.3l-2.8,1.3l-1.9,1.1l-1.9,1.1l-0.5,0.7l-0.5,0.7l-1.1,0.5l-1.1,0.5l-0.5,1
	l-0.5,1l-1.8,1.6l-1.8,1.6l-1.6,3l-1.6,3l-0.6,0.6l-0.6,0.6l-0.3,1.3l-0.3,1.3l-0.6,0.6l-0.6,0.6l-0.5,2.6l-0.5,2.6l-0.4,3.9
	l-0.4,3.9l-0.1,1.9l-0.1,1.9l0.2,1.5l0.2,1.5l0.8,2.6l0.8,2.6l0.7,1.7l0.7,1.7l1.6,3.1l1.6,3.1l2.5,1.6l2.5,1.6l1.1,1l1.1,1l1.8,0.7
	l1.8,0.7h1.1h1.1l2.7,1.2l2.7,1.2l2.4,0.7l2.4,0.7h1.2h1.2l1.5,0.5l1.5,0.5l1.2,0.6l1.2,0.6h1.1h1.1l1.5,0.5l1.5,0.5l2.3,1.7
	l2.3,1.7l0,0.3l0,0.3l0.2,1.3l0.2,1.3l-0.2,1.7l-0.2,1.7l-1.8,1.4l-1.8,1.4l-1.5,0.2l-1.5,0.2l-1.4,0.3l-1.4,0.3l-2.7-1.2l-2.7-1.2
	l-1.6-1.5l-1.6-1.5h-0.6h-0.6l-1.5-0.7l-1.5-0.7l-0.7-0.4l-0.7-0.4l-4.3-0.5l-4.3-0.5l-4.9,0.6l-4.9,0.6l-1.4,1.1l-1.4,1.1l-1.3,1.2
	l-1.3,1.2l0,1v1l0.8,2.2l0.8,2.2l1.5,3l1.5,3l1.7,2.4l1.7,2.4l0.4,0.2l0.4,0.2l2,1.7l2,1.7l0.9,0.8l0.9,0.8l1.6,1.4l1.6,1.4l2.1,0.7
	l2.1,0.7l2.6,1.3l2.6,1.3l2.2,0.4l2.2,0.4l5.4,0.2l5.4,0.2l4.1-0.5l4.1-0.5l1.3-0.6l1.3-0.6l1.7-0.2l1.7-0.2l2.4-1l2.4-1l0.8-0.8
	l0.8-0.8l1-0.4l1-0.4l2.1-1.2l2.1-1.2l3.8-4l3.8-4l0.4-1.5l0.4-1.5l1.1-1.6l1.1-1.6l0.2-1.5l0.2-1.5l0.1-0.9l0.1-0.9l0.4-1.1
	l0.4-1.1l-0.2-4.7l-0.2-4.7l-0.8-1.5l-0.8-1.5v-1v-1l-0.8-1.3l-0.8-1.3l-0.3,0l-0.3,0v-0.7v-0.7l-2.1-2.9l-2.1-2.9l-2.6-2.8
	l-2.6-2.8l-1.7-0.7l-1.7-0.7l-1.5-0.9l-1.5-0.9l-2.5-2.3l-2.5-2.3h-1.7h-1.7l-1.7-0.6l-1.7-0.6l-2.3,0.2l-2.3,0.2l-2.6-0.7l-2.6-0.7
	l-0.2-0.4l-0.2-0.4h-1.2h-1.2l-2.1-0.9l-2.1-0.9l-2.1-2.3l-2.1-2.3l0-1.1l0-1.1l0.1-1.3l0.1-1.3l0.5-0.9l0.5-0.9l2.4-2l2.4-2h1.6
	h1.6l1.2-0.5l1.2-0.5l2.9,0.9l2.9,0.9l1,1.1l1,1.1l1.4,2.1l1.4,2.1l1.3-0.1l1.3-0.1l4.1-0.9l4.1-0.9l0.5-0.4l0.5-0.4l2.5-0.8
	l2.5-0.8l1.4-0.3l1.4-0.3l0.9-1.3l0.9-1.3h0.5h0.5l0.5-1l0.5-1l0.1-0.7l0.1-0.7l-1.1-1.7l-1.1-1.7l-0.8-1.5l-0.8-1.5l-1-1.5l-1-1.5
	l-3.2-3.2l-3.2-3.2l-1.4-0.6l-1.4-0.6l-0.7-1.1l-0.7-1.1l-1.4-0.3l-1.4-0.3l-1.2-0.8l-1.2-0.8l-2.3-0.7l-2.3-0.7l-0.9,0l-0.9,0
	l-3-0.6l-3-0.6l-3-0.2l-3-0.2L483.7,59 M571.4,62.5l-1.9,0.3l-1.4,0.5l-1.4,0.5l-1.2-0.2l-1.2-0.2l-2.1,0.9l-2.1,0.9l-0.9,0.4
	l-0.9,0.4l-1.1,0.2l-1.1,0.2l-0.9,0.6l-0.9,0.6l0.1,3.6l0.1,3.6l-0.5,4.1l-0.5,4.1l-0.2,5.1l-0.2,5.1l0,6.3l0,6.3l0.3,4.8l0.3,4.8
	l0.7,4.8l0.7,4.8l-0.1,0.5l-0.1,0.5l0,1.6l0,1.6l0.4,3.7l0.4,3.7l0.6,1l0.6,1l-0.2,1.1l-0.2,1.1l0.7,2.3l0.7,2.3l-0.2,1.5l-0.2,1.5
	l0.4,2.9l0.4,2.9l0.8,1.9l0.8,1.9l-0.2,0.4l-0.2,0.4l0.7,1.9l0.7,1.9l-0.2,1.1l-0.2,1.1l1.1,1.9l1.1,1.9v0.9v0.9l1.5,1.5l1.5,1.5
	l1.2,0l1.2,0l0.6,0.1l0.6,0.1l3.7,0.5l3.7,0.5l6.8-0.2l6.8-0.2l1.1-0.7l1.1-0.7v-0.6v-0.6l1.4-2.1l1.4-2.1l0.4-1.8l0.4-1.8l0.4-2.1
	l0.4-2.1l0.4-4.5l0.4-4.5l0.7-1.9l0.7-1.9l0.2-3.1l0.2-3.1l0.4-4.3l0.4-4.3l-0.2-1.6l-0.2-1.6l0.5-1.2l0.5-1.2l0.3-14.5l0.3-14.5
	l0-1.8l0-1.8l0-1.4l0-1.4l0-7.8l0-7.8l-0.2-2.6l-0.2-2.6l-0.2-1.3l-0.2-1.3l-1.8-1.4l-1.8-1.4l-1.6-0.4l-1.6-0.4l-3.5-0.4l-3.5-0.4
	l-6.5-0.1l-6.5-0.1L571.4,62.5 M252.2,63l-1.9,0.3l-2.8,0.5l-2.8,0.5l-0.7,0.3l-0.7,0.3l-1.5,0.3l-1.5,0.3l-3.4,1.5l-3.4,1.5
	l-2.7,2.3l-2.7,2.3l-1.2,0.6l-1.2,0.6l-1.9,1.8l-1.9,1.8l-1.4,1.1l-1.4,1.1v0.8v0.8l-1.7,1.4l-1.7,1.4l-0.4,1.3l-0.4,1.3l-1.3,1.7
	l-1.3,1.7v0.7V92l-0.9,1.1l-0.9,1.1v0.7v0.7l-1.1,1.2l-1.1,1.2l-0.2,2.1l-0.2,2.1l-0.6,0.7l-0.6,0.7l-0.1,1.7l-0.1,1.7l-0.3,1.7
	l-0.3,1.7l-0.4,0.5l-0.4,0.5l0,2.1l0,2.1l0,2.2l0,2.2l0.2,2.8l0.2,2.8l0.4,3.5l0.4,3.5l1.1,2.7l1.1,2.7v1.6v1.6l0.8,1.1l0.8,1.1
	l0.8,1.7l0.8,1.7l1.2,1.8l1.2,1.8l0.6,0.3l0.6,0.3l1.7,2.2l1.7,2.2l3.8,3.8l3.8,3.8l2,0.9l2,0.9l1.1,1l1.1,1l2.8,0.9l2.8,0.9h0.5
	h0.5l1.1,0.9l1.1,0.9h1.2h1.2l3.5,0.7l3.5,0.7l2.4,0l2.4,0l3.5-0.3l3.5-0.3l3.2-0.9l3.2-0.9l0.4,0.4l0.4,0.4l2.9-1.5l2.9-1.5
	l2.8-1.4l2.8-1.4l1.6-1.2l1.6-1.2h0.3h0.3l1.9-1.3l1.9-1.3v-0.6v-0.6l1.8-1.6l1.8-1.6l0.3,0l0.3,0v-0.6V154l2.6-2.6l2.6-2.6v-0.9
	v-0.9l1.5-1.8l1.5-1.8l0.4-1.6l0.4-1.6l0.8-1.1l0.8-1.1l0.5-2.1l0.5-2.1l0.4-0.8l0.4-0.8l0-1.4l0-1.4l0.6-1.1l0.6-1.1l0-1.9l0-1.9
	l0.4-0.8l0.4-0.8l0.1-4.7l0.1-4.7l-0.6-1.6l-0.6-1.6l0.5-1l0.5-1l-0.8-2.3l-0.8-2.3l-0.5-2.7l-0.5-2.7l-0.9-2l-0.9-2v-0.4v-0.4
	l-0.8-0.8l-0.8-0.8l-1.2-2.9l-1.2-2.9l-1.6-1.7l-1.6-1.7l-3.7-4.4l-3.7-4.4l-1.6-1.1l-1.6-1.1l-1.2-0.3l-1.2-0.3l-0.7-0.8l-0.7-0.8
	h-0.5h-0.5l-2-1.1l-2-1.1l-0.6,0l-0.6,0l-2.5-1.3l-2.5-1.3l-3.8-0.5l-3.8-0.5l-4.1-0.1l-4.1-0.1L252.2,63 M155.8,63.8l-3.9,0.3
	l-1,0.3l-1,0.3l-0.6,0.8l-0.6,0.8l-0.4,0.9l-0.4,0.9l-0.5,1.5l-0.5,1.5v1.2v1.2l-0.8,2.5l-0.8,2.5l-0.2,2.6l-0.2,2.6l-0.5,1.9
	l-0.5,1.9l-0.4,3.2l-0.4,3.2l-0.4,3l-0.4,3l-0.5,3.2l-0.5,3.2l-0.3,3.5l-0.3,3.5l-0.8,1.6l-0.8,1.6l-0.9,0.6l-0.9,0.6h-1.1H135
	l-1-0.7l-1-0.7v-0.8v-0.8l-1.2-1.4l-1.2-1.4l-1.2-2.3l-1.2-2.3l-0.6-0.8l-0.6-0.8l-1.2-1.2l-1.2-1.2l-2.1-1.8l-2.1-1.8l-1.7-0.3
	l-1.7-0.3l-1.1,0l-1.1,0l-1.3,0.7l-1.3,0.7l-1,0.5l-1,0.5l-2.8,2.9l-2.8,2.9l-1.3,2.6l-1.3,2.6l-2,2.5l-2,2.5h-1.3h-1.3l-1.6-1.7
	L92,114l-0.5-1.8l-0.5-1.8l0.1-0.4l0.1-0.4l0-0.7l0-0.7l-0.3-3.2l-0.3-3.2l-0.4-0.7l-0.4-0.7V98v-2.2l-0.7-2.7l-0.7-2.7L88,89.5
	l-0.4-0.9L87,84.8l-0.7-3.9l-0.4-2l-0.4-2L85,75.9l-0.5-0.9l0-1.2l0-1.2l-0.9-1.9l-0.9-1.9l-0.3-1.5l-0.3-1.5l-1.9-1l-1.9-1L72,64
	l-6.3,0.2l-1.4,0.5l-1.4,0.5l-1.1-0.3l-1.1-0.3l-2.1,0.7L56.6,66l-3.1,1.6l-3.1,1.6l0,1.6l0,1.6l-0.3,12.6l-0.3,12.6l0.1,0.6
	l0.1,0.6l0.2,2.6l0.2,2.6l-0.1,2.8l-0.1,2.8l0,2.2l0,2.2l0.4,0.8l0.4,0.8l-0.1,1.4l-0.1,1.4l0.5,2.7l0.5,2.7l0.1,3.1l0.1,3.1
	l0.7,1.9l0.7,1.9l0,1.7l0,1.7l0.5,2.8l0.5,2.8l-0.1,1l-0.1,1l0.6,1l0.6,1l0.2,3.2l0.2,3.2l0.4,1.7l0.4,1.7l0.5,1.9l0.5,1.9l0.3,0.4
	l0.3,0.4l0.5,1.9l0.5,1.9l1.5,3.1l1.5,3.1l2.3,0.6l2.3,0.6l2.6,0.1l2.6,0.1l8.6,0l8.6,0l0.5-0.3l0.5-0.3l2.6-0.1l2.6-0.1l2.8-0.7
	l2.8-0.7l0.6-0.5l0.6-0.5l2-2.6l2-2.6l1.4-2.2l1.4-2.2l1.4-0.9l1.4-0.9l1.3-0.9l1.3-0.9l0.5-0.7l0.5-0.7l1.6,0.1l1.6,0.1l1.3,0.5
	l1.3,0.5l1.1,1.7l1.1,1.7l2.4,2.6l2.4,2.6l1,1.3l1,1.3v0.4v0.4l2.1,2l2.1,2h1h1l0.3,0.3l0.3,0.3l2.5,0.6l2.5,0.6l0.6,0l0.6,0
	l5.4-0.2l5.4-0.2l2-0.5l2-0.5l2.8-0.1l2.8-0.1l2.2-0.4l2.2-0.4l2-0.9l2-0.9l0-0.6l0-0.6l0.6-1.6l0.6-1.6l0.3-0.3l0.3-0.3v-1.1v-1.1
	l0.5-0.5l0.5-0.5l0.1-2.8l0.1-2.8l0.8-1.2l0.8-1.2l0.4-3.4l0.4-3.4l0.4-1.9l0.4-1.9l0.9-4.8l0.9-4.8l0.5-5.2l0.5-5.2l0.1-2.3
	l0.1-2.3l0.3-0.7l0.3-0.7l0.1-5l0.1-5l0.3-5.8l0.3-5.8l0-1.1l0-1.1l-0.3-6.3l-0.3-6.3l-0.4-1.4l-0.4-1.4l0.5-1.8l0.5-1.8l-0.5-1
	l-0.5-1l-0.6-2.1l-0.6-2.1l-1.1-0.8l-1.1-0.8l-2.8-0.4l-2.8-0.4l-1.3-0.5l-1.3-0.5l-2.6-0.4l-2.6-0.4l-2.6-0.1l-2.6-0.1L155.8,63.8
	 M364.2,64.3l-4.8,0.3l-6.3,0.2l-6.3,0.2l-3,0.3l-3,0.3l-2.6,0.1l-2.6,0.1l-1.8,0.7l-1.8,0.7l-1.3-0.7l-1.3-0.7l-2,0.6l-2,0.6
	l-1.3,0.1l-1.3,0.1l0.2,1.5l0.2,1.5l0.1,7.8l0.1,7.8l0.5,1.5l0.5,1.5l0.4,3.5l0.4,3.5l1,2l1,2l0.9,1.1l0.9,1.1l1.2,0l1.2,0l0.6,0.4
	l0.6,0.4l1-0.4l1-0.4l2.3,0.9l2.3,0.9l3.7,0.2l3.7,0.2l3.1,0l3.1,0l1.4,1.3l1.4,1.3l0.1,8.4l0.1,8.4l0.2,2.8l0.2,2.8l0.3,4.9
	l0.3,4.9l0.5,1.2l0.5,1.2l0,4.3l0,4.3l0.6,2.4l0.6,2.4l0.5,2.1l0.5,2.1v2.2v2.2l0.7,2.1l0.7,2.1l0.7,0.6l0.7,0.6l3,1.2l3,1.2
	l2.8-0.7l2.8-0.7l3.2,0.5l3.2,0.5l0.6-0.5l0.6-0.5l1.9,0.5l1.9,0.5l4.9-0.3l4.9-0.3l0.9-0.3l0.9-0.3l0.9-1.5l0.9-1.5v-0.9v-0.9
	l0.8-2.5l0.8-2.5l0.1-7.3l0.1-7.3l0.6-1.8l0.6-1.8l-0.1-14.4l-0.1-14.4l1.3-2.4l1.3-2.4l2.6-1.3l2.6-1.3l3.8,0.1l3.8,0.1l2.2-0.7
	l2.2-0.7l3.1,0l3.1,0l0.6-0.5l0.6-0.5l0.8-1.4l0.8-1.4v-0.9v-0.9l1.1-3.2l1.1-3.2v-1.6v-1.6l0.5-4.6l0.5-4.6l-0.5-2l-0.5-2l0.3-1.2
	l0.3-1.2l-0.9-2.7l-0.9-2.7l-1.5-0.6l-1.5-0.6h-1.7H425l-7.3-1.1l-7.3-1.1l-1.6,0.5l-1.6,0.5l-2.1-0.6l-2.1-0.6l-4.8,0.3l-4.8,0.3
	l-4.8-0.3l-4.8-0.3l-1.3,0.4l-1.3,0.4l-1.9-0.2l-1.9-0.2l-4.3-0.1l-4.3-0.1L364.2,64.3 M662.2,64.3l-4.8,0.4l-6.1,0.2l-6.1,0.2
	l-2.8,0.3l-2.8,0.3l-3,0.1l-3,0.1l-1.8,0.7l-1.8,0.7l-1.6-0.5l-1.6-0.5l-2.2,0.5l-2.2,0.5l-0.9,0.1l-0.9,0.1l0.2,1.1l0.2,1.1
	l0.1,8.3l0.1,8.3l0.5,0.9l0.5,0.9v1.6v1.6l0.7,3.3l0.7,3.3l1.3,2.1l1.3,2.1l2.1,0.5l2.1,0.5l1.2-0.2l1.2-0.2l2.1,1l2.1,1l6.3,0.1
	l6.3,0.1l0.7,0l0.7,0l1.2,1.1l1.2,1.1l0.1,7.6l0.1,7.6l0.2,3.2l0.2,3.2l0.3,5.3l0.3,5.3l0.5,0.9l0.5,0.9l0.1,4.8l0.1,4.8l0.5,2.4
	l0.5,2.4l0.5,1.6l0.5,1.6l0.1,2.7l0.1,2.7l0.4,1.6l0.4,1.6l0.7,0.7l0.7,0.7l2.9,1.2l2.9,1.2l1.9-0.4l1.9-0.4l2.6,0l2.6,0l1.5,0.1
	l1.5,0.1l7.5,0l7.5,0l1-0.4l1-0.4l0.9-1.7l0.9-1.7l0-1l0-1l0.6-1.8l0.6-1.8l0.3-5.1l0.3-5.1l-0.1-2.7l-0.1-2.7l0.7-2.4l0.7-2.4
	l-0.3-4l-0.3-4l0.1-1.9l0.1-1.9v-3v-3l-0.3-1.9l-0.3-1.9l0.6-3.7l0.6-3.7l1-1.5l1-1.5l2.2-1.2l2.2-1.2l4.8,0l4.8,0l0.9-0.5l0.9-0.5
	h3.5h3.5l0.8-0.4l0.8-0.4l0.9-1.7l0.9-1.7v-1.4v-1.4l0.4-0.4l0.4-0.4l0.7-2.6l0.7-2.6l0.3-4.1l0.3-4.1l-0.1-2.4l-0.1-2.4l-0.2-3.2
	l-0.2-3.2l-0.6-1.9l-0.6-1.9l-1.7-0.6l-1.7-0.6l-1.4,0l-1.4,0l-7.1-0.9l-7.1-0.9l-0.6,0l-0.6,0l-1.8,0.3l-1.8,0.3l-0.6-0.5l-0.6-0.5
	l-4.7,0.1l-4.7,0.1l-1.9,0l-1.9,0l-4.5,0l-4.5,0l-2.8,0l-2.8,0l-3.9-0.1l-3.9-0.1L662.2,64.3 M251.5,98l-2.2,0.8l-1.7,1.1l-1.7,1.1
	l-1.4,0.5l-1.4,0.5l-1.3,1.8l-1.3,1.8l-1.2,2.6l-1.2,2.6l-0.4,0.9l-0.4,0.9l-0.7,1.8l-0.7,1.8l0.2,2.3l0.2,2.3l0.5,1.9l0.5,1.9
	l1.8,2.2l1.8,2.2l0.3,0.8l0.3,0.8l2.6,2.1l2.6,2.1l4.8,1l4.8,1l0.4-0.2l0.4-0.2l2.5-0.4l2.5-0.4l1.9-0.8l1.9-0.8l1.1-1.1l1.1-1.1
	l1.4-0.6l1.4-0.6l2.2-2.9l2.2-2.9l0.7-1.4l0.7-1.4l-0.2-4.2l-0.2-4.2l-0.5-0.5l-0.5-0.5v-0.9v-0.9l-1.1-1.6l-1.1-1.6v-1v-1l-0.9-1.1
	l-0.9-1.1h-0.5h-0.5l-1.3-1.4l-1.3-1.4l-1.7-0.7l-1.7-0.7l-2.4-0.9l-2.4-0.9l-3,0.1l-3,0.1L251.5,98 M251.3,107.8l-1.1,0.7l-1.6,1.5
	l-1.6,1.5v0.6v0.6l-0.7,1l-0.7,1l0.1,1.7l0.1,1.7l-0.3,0.5l-0.3,0.5l0.5,1.5l0.5,1.5l1.6,2.1l1.6,2.1l1.5,0.7l1.5,0.7l1.5-0.3
	l1.5-0.3l1.4,0.2l1.4,0.2l3-1.8l3-1.8l1.2-1.1l1.2-1.1l0.1-3.6l0.1-3.6l-0.7-1l-0.7-1l-1.6-1.8l-1.6-1.8v-0.5V108l-2.5-0.2l-2.5-0.2
	l-2.4-0.2l-2.4-0.2L251.3,107.8 M971,47.9l-0.6,0.4l-2.5,0l-2.5,0l-4.9,0.7l-4.9,0.7l-1,0.4l-1,0.4l-3,0.6l-3,0.6l-2.7,1.3l-2.7,1.3
	l-1.7,1.1l-1.7,1.1l-1,0.4l-1,0.4l-1.3,1.4l-1.3,1.4l-0.8,1.5l-0.8,1.5l-0.2,1.3l-0.2,1.3l-0.4,1.1l-0.4,1.1l0.2,1.8l0.2,1.8
	l-0.7,1.8l-0.7,1.8l0,3.8l0,3.8l-0.7,1.9l-0.7,1.9l-0.2,4.3l-0.2,4.3l-0.3,0.9l-0.3,0.9l-0.1,5l-0.1,5l0,0.9l0,0.9l0.3,2.9l0.3,2.9
	l-0.7,1.7l-0.7,1.7l0.2,0.2l0.2,0.2l0.1,2.4l0.1,2.4l0.4,0.8l0.4,0.8l-0.3,0.7l-0.3,0.7l-0.1,2.2l-0.1,2.2l0.5,1.1l0.5,1.1l-0.2,1.8
	l-0.2,1.8l0.7,1.4l0.7,1.4l0,2.2l0,2.3l0.4,2.2l0.4,2.2l0.4,3.9l0.4,3.9l0,0.9l0,0.9l0.9,2.5l0.9,2.5l-0.2,0.6l-0.2,0.6l1,1.4l1,1.4
	l0.5,1.1l0.5,1.1l-0.3,0.5l-0.3,0.5l0.6,1.7l0.6,1.7l0.5,0.9l0.5,0.9h0.4h0.4l1.1,0.9l1.1,0.9l0.7,0l0.7,0l1.1,0.6l1.1,0.6l3.2,0.3
	l3.2,0.3l0.5,0.4l0.5,0.4l4.7,0.2l4.7,0.2l1.1,0.3l1.1,0.3l2.7-0.4l2.7-0.4l2.3,0.9l2.3,0.9l3.5-0.7l3.5-0.7l1.7,0.1l1.7,0.1
	l4.9-0.5l4.9-0.5l2.2-0.5l2.2-0.5l1.4-0.6l1.4-0.6h0.6h0.6l1.5-0.5l1.5-0.5l1.5-0.7l1.5-0.7l1.4-0.7l1.4-0.7l0.7,0l0.7,0l0.3-0.4
	l0.3-0.4l3.1-1.6l3.1-1.6l1.2-1.3l1.2-1.3h0.3h0.3l1.6-1.5l1.6-1.5h0.4h0.4l1.5-1.8l1.5-1.8V159v-0.5l0.9-0.8l0.9-0.8l0.6-1.3
	l0.6-1.3l0.8-1.3l0.8-1.3l0.7-0.8l0.7-0.8l0.7-3.1l0.6-3.1l0.3-1.3l0.3-1.3l0-2.8l0-2.8l-0.5-1.9l-0.5-1.9l-0.9-2.4l-0.9-2.4
	l-0.5-2.1l-0.5-2.1l-0.6-1.4l-0.6-1.4l-0.7-1.6l-0.7-1.6l-1.5-2.2l-1.5-2.2l-0.4-0.1l-0.4-0.1v-0.6v-0.6h-0.6h-0.6l-0.9-1.6
	l-0.9-1.6l-0.7-1.1l-0.7-1.1l1.3-1.8l1.3-1.8l0.2-2.6l0.2-2.6l0.7-1.3l0.7-1.3v-1.7v-1.7l0.5-0.5l0.5-0.5l-0.2-2.1l-0.2-2.1
	l-0.4-3.2l-0.4-3.2l-0.5-1.2l-0.5-1.2v-1v-1l-0.9-1.6l-0.9-1.6l-1-1.4l-1-1.4v-0.7V67l-1.6-1.6l-1.6-1.6l-2-1.8l-2-1.8h-0.4h-0.4
	l-1.6-1.5l-1.6-1.5h-0.6h-0.6v-0.4v-0.4l-1-0.3l-1-0.3l-1.2-0.5l-1.2-0.5v-0.3v-0.3l-2.1-0.8l-2.1-0.8l-0.5-0.4l-0.5-0.4l-3.1-0.4
	l-3.1-0.4l-0.9-0.6l-0.9-0.6l-2.6-0.2l-2.6-0.2l-1.3-0.6l-1.3-0.6l-1.1-0.1l-1.1-0.1l-4.5-0.2l-4.5-0.2L971,47.9 M1097.5,48.7
	l-0.6,0.4l-3.9,0.3l-3.9,0.3l-0.6,0.5l-0.6,0.5l-0.6-0.5l-0.6-0.5l-0.5,0.4l-0.5,0.4l-2.4,0.8l-2.4,0.8l-1,0.7l-1,0.7l-1.3,0.3
	l-1.3,0.3l-0.2,0.4l-0.2,0.4h-0.8h-0.8L1072,56l-2.2,1.1l-1.6,1.5l-1.6,1.5l-1.9,0.9l-1.9,0.9l-1.8,1.6l-1.8,1.6l-1.4,1.4l-1.4,1.4
	v0.4v0.4h-0.6h-0.6v0.6v0.6l-0.9,0.3l-0.9,0.3v0.4v0.4l-1.6,1.5l-1.6,1.5l-1.1,2.3l-1.1,2.3l-0.5,0.3l-0.5,0.3v0.8v0.8l-1.1,1.6
	l-1.1,1.6l-0.5,1.7l-0.5,1.7l-1,1l-1,1l-0.5,1.4l-0.5,1.4l-0.4,1.7l-0.4,1.7l-0.7,2.4l-0.7,2.4l0.3,1.8l0.3,1.8h-0.4h-0.4l-0.6,1.8
	l-0.6,1.8l0.4,0.4l0.4,0.4l-0.3,0.9l-0.3,0.9l-0.1,5.1l-0.1,5.1l0.4,0.5l0.4,0.5l0.2,2.4l0.2,2.4l0.6,2.6l0.6,2.6l0.8,2l0.8,2v1.1
	v1.1l1,1.5l1,1.5l0.3,1l0.3,1l0.8,1.3l0.8,1.3l0.6,1.4l0.6,1.4l1.5,1.8l1.5,1.8l0.9,1.7l0.9,1.7l1.4,0.7l1.4,0.7l1.1,2l1.1,2
	l0.8,0.9l0.8,0.9h0.5h0.5l1,1.1l1,1.1h0.4h0.4l1.4,1.1l1.4,1.1h0.3h0.3l1.3,1.5l1.3,1.5h1.1h1.1l0.2,0.6l0.2,0.6l3,0.3l3,0.3
	l0.2,0.4l0.2,0.4l1.9,0.9l1.9,0.9h1.9h1.9l0.3,0.5l0.3,0.5l1-0.2l1-0.2l2.1,0.6l2.1,0.6l6,0l6,0l1.9-0.5l1.9-0.5v-0.4v-0.4l2.1,0
	l2.1,0l2.2-0.7l2.2-0.7l1.7-0.9l1.7-0.9l1.5-1l1.5-1h0.8h0.8l0.5-0.6l0.5-0.6h0.8h0.8l0.3-0.4l0.3-0.4l1.4-0.7l1.4-0.7l0.9-0.5
	l0.9-0.5l2.8-2.3l2.8-2.3l1.1-1.3l1.1-1.3l1.1-0.5l1.1-0.5l1.1-2.1l1.1-2.1l1.3-1.1l1.3-1.2l1.2-1.6l1.2-1.6v-0.7v-0.7l1.1-1.4
	l1.1-1.4v-0.4v-0.4l0.5-1.2l0.5-1.2l0.3,0l0.3,0l1-1.8l1-1.8l0.3-1.5l0.3-1.5l0.5-1.9l0.5-1.9l0.4-0.8l0.4-0.8l0.4-4.5l0.4-4.5
	l0.7-1.7l0.7-1.7l-0.3-2.5l-0.3-2.5l-0.2-5.1l-0.2-5.1l-0.7-1l-0.7-1l0-1.7l0-1.7l-0.5-1.5l-0.5-1.5l-0.3-0.4l-0.3-0.4v-0.9v-0.9
	l-1-1.5l-1-1.5l-0.6-2.2l-0.6-2.2l-0.4-0.2l-0.4-0.2l-1-2.4l-1-2.4l-1-0.9l-1-0.9V74v-0.5l-0.6-0.2L1146,73l-0.9-1.5l-0.9-1.5
	l-0.6-0.7l-0.6-0.7l-3.4-3.5l-3.4-3.5l-0.7-0.1l-0.7-0.1l-0.9-1.1l-0.9-1.1h-0.4h-0.4l-1.6-1.3l-1.6-1.3l-1.5-0.6l-1.5-0.6l-0.6-0.7
	l-0.6-0.7h-0.8h-0.8l-0.5-0.6l-0.5-0.6l-2.4,0l-2.4,0l-0.7-0.6l-0.7-0.6l-1.5-0.5l-1.5-0.5h-1.5h-1.5l-1-0.6l-1-0.6l-3.4-0.1
	l-3.4-0.1l-0.4-0.2l-0.4-0.2l-1.4-0.2l-1.4-0.2L1097.5,48.7 M1464.6,49.2l-1.3,0.3l-3.7,0.1l-3.7,0.1l-0.3,0.3l-0.3,0.3l-2,0.8
	l-2,0.8l-1.4,0l-1.4,0l-0.3,0.4l-0.3,0.4h-1.3h-1.3l-2.4,1.1l-2.4,1.1l-1.5,0.7l-1.5,0.7l-0.5,0.7l-0.5,0.7l-1.7,1.3l-1.7,1.3
	l-0.9,1l-0.9,1l-0.4,0l-0.4,0l-2.1,1.8l-2.1,1.8v0.6v0.6l-1.2,2.1l-1.2,2.1l-0.9,1.3l-0.9,1.3l-0.6,1.2l-0.6,1.2l-0.4-0.3l-0.4-0.3
	l0.3-1.6l0.3-1.6l0-1.3l0-1.3l0-1.6l0-1.6l-0.9-1.7l-0.9-1.7l0.2-2.1l0.2-2.1l-2.2-2.3l-2.2-2.3l-1.2-0.3l-1.2-0.3l-1.3-0.4
	l-1.3-0.4h-3h-3l-3.5-0.4l-3.5-0.4l-3.9-0.4l-3.9-0.4l-4.3-0.2l-4.3-0.2l-7.4-0.2l-7.4-0.2l-2.9,0.5l-2.9,0.5l-1-0.4l-1-0.4l-3,0
	l-3,0l-1.7,0.3l-1.7,0.3l-3.2-0.5l-3.2-0.5l-1.4,0.6l-1.4,0.6l-4.1-0.3l-4.1-0.3l-0.5,0.4l-0.5,0.4l-1.3-0.3l-1.3-0.3l-4,0.4l-4,0.4
	l-3,0.2l-3,0.2l-3.5,0.2l-3.5,0.2l-0.7,0.6l-0.7,0.6l-2.7,0.3l-2.7,0.3l-1,0.5l-1,0.5l-1.6,1.5l-1.6,1.5v0.5V60l-0.7,0.7l-0.7,0.7
	l-0.4,2.7l-0.4,2.7l-0.2,5.2l-0.2,5.2l0,1.9l0,1.9l0.4,0.5l0.4,0.5l0.3,2.8l0.3,2.8l-0.1,2l-0.1,2l0.9,0.8l0.9,0.8l0.3,1.4l0.3,1.4
	l1.9,4l1.9,4l1.4,1.1l1.4,1.1h0.7h0.7v0.6v0.6l1.6,0.4l1.6,0.4l2.3,0.5l2.3,0.5l0.6-0.2l0.6-0.2l2.3,0.7l2.3,0.7l2.4,0.1l2.4,0.1
	l1.3,0.3l1.3,0.3l0.1,4.5l0.1,4.5l0.2,2.2l0.2,2.2l0.3,4.3l0.3,4.3l0.1,3.3l0.1,3.3l0.4,0.8l0.4,0.8l0,3.8l0,3.8l0.4,0.5l0.4,0.5
	l0.3,2.4l0.3,2.4l0.4,1.3l0.4,1.3l0.2,2.4l0.2,2.4l1.1,3.5l1.1,3.5l0.9,1.1l0.9,1.1l1,0.8l1,0.8l2.1,0.9l2.1,0.9h1.5h1.5l1.3,0.7
	l1.3,0.7l2.6-0.2l2.6-0.2l0.2-0.2l0.2-0.2l1.4,0.4l1.4,0.4l8,0l8,0l0.5-0.4l0.5-0.4l3.2-0.1l3.2-0.1l1.5-0.6l1.5-0.6l1.7-2.3
	l1.7-2.3l0.7-1.7l0.7-1.7l0.3-1.5l0.3-1.5l0.6-1l0.6-1v-3.1v-3.1l0.5-0.9l0.5-0.9l0.1-6.5l0.1-6.5l0.2-1.9l0.2-1.9l0.2-4.7l0.2-4.7
	l-0.4-0.5l-0.4-0.5l0.4-0.3l0.4-0.3l-0.1-7.4l-0.1-7.4l2.4,0.3l2.4,0.3l1-0.6l1-0.6l2.3,0.1l2.3,0.1l5.4-1.3l5.4-1.3l1.4-0.7
	l1.4-0.7l1-1.3l1-1.3l0.6-0.3l0.6-0.3v-1.3v-1.3l0.9-1.5l0.9-1.5l0.2-2.3l0.2-2.3l0.3-0.9l0.3-0.9l0.5-1.1l0.5-1.1l0.2-5l0.2-5
	l0.3-0.9l0.3-0.9l0.6,3.2l0.6,3.2l0.6,2l0.6,2l0.6,0.7l0.6,0.7l2,1.3l2,1.3l1.2,1.2l1.2,1.2h0.7h0.7l0.7,0.9l0.7,0.9l1.7,0.2
	l1.7,0.2l1.7,0.8l1.7,0.8l2.4,0.7l2.4,0.7l1,0.1l1,0.1l0.2,0.5l0.2,0.5l-1.8,1.7l-1.8,1.7l-0.5,0.9l-0.5,0.9l-0.3,1.9l-0.3,1.9
	l-0.7,3.5l-0.7,3.5l-0.2,7.7l-0.2,7.7l0.2,1l0.2,1l1.3,1.4l1.3,1.4v0.6v0.6l1.3,0.9l1.3,0.9h0.4h0.4l1.3,0.7l1.3,0.7l6.6-0.2
	l6.6-0.2l0.4-0.4l0.4-0.4l2.4,0l2.4,0l2.5-0.6l2.5-0.6l2.2-2.3l2.2-2.3l0.7-1.8l0.7-1.8l1.1-0.2l1.1-0.2l1.1-1l1.1-1l2-0.4l2-0.4
	l1.2-1.3l1.2-1.3h0.5h0.5l1.8-1.8l1.8-1.8l1.1-0.6l1.1-0.6l1.4-1.9l1.4-1.9v-0.6v-0.6l1-0.9l1-0.9l0.7-1.4l0.7-1.4l1.1-4.1l1.1-4.1
	l0.4-3.7l0.4-3.7l-0.3-4.5l-0.3-4.5l-0.2-2.6l-0.2-2.6l-0.3-0.4l-0.3-0.4l-0.3-1.7l-0.3-1.7l-1-2.4l-1-2.4l-0.5-0.9l-0.5-0.9
	l-1.7-2.1l-1.7-2.1l-1.8-2.2l-1.8-2.2l-2.1-2.1l-2.1-2.1h-0.9h-0.9l-2.2-1.6l-2.2-1.6l-3.3-1l-3.3-1l-3.2-0.4l-3.2-0.4l-1.4,0.3
	l-1.4,0.3l-0.7-0.7l-0.7-0.7l-0.6,0.1l-0.6,0.1L1464.6,49.2 M1189.3,51.2l-1.9,0.6l-2.7,0l-2.7,0l-0.3,0.4l-0.3,0.4l-2,0l-2,0
	l-1.9,0.7l-1.9,0.7l-1.1,0.5l-1.1,0.5l-0.9,0.9l-0.9,0.9l-0.3,0.6l-0.3,0.6l-0.9,1.5l-0.9,1.5l-0.9,1.9l-0.9,1.9l-0.1,5.3l-0.1,5.3
	l-0.6,0.7l-0.6,0.7l-0.1,1.9l-0.1,1.9l-0.4,1.2l-0.4,1.2h-0.5h-0.5l0.5,0.5l0.5,0.5v1.8v1.8l-0.5,0.5l-0.5,0.5l0.5,0.8l0.5,0.8v1.2
	v1.2l-0.5,0.5l-0.5,0.5l0.5,0.3l0.5,0.3v1v1l-0.4,0.3l-0.4,0.3v0.8v0.8l0.5,0.2l0.5,0.2l-0.5,1l-0.5,1l0.1,2.6l0.1,2.6l0.3,0.4
	l0.3,0.4l0.1,2.8l0.1,2.8l-0.5,0.6l-0.5,0.6l0.4,0.5l0.4,0.5l0.3,3.5l0.3,3.5l0,0.6l0,0.6l0.6,3.5l0.6,3.5l0.3,1.2l0.3,1.2l-0.6,0.4
	l-0.6,0.4l0.4,0.6l0.4,0.6l0.8,2.4l0.8,2.4l0.8,1.4l0.8,1.4v1v1l0.5,1.1l0.5,1.1h0.3h0.3l1,1.9l1,1.9h0.4h0.4v0.7v0.7l2,2.9l2,2.9
	l1.6,1.7l1.6,1.7l2.3,2.3l2.3,2.3h0.8h0.8l1.3,1.5l1.3,1.5h0.4h0.4l1.9,1.5l1.8,1.5h0.5h0.5l2.2,0.8l2.2,0.8l0.2,0.2l0.2,0.2
	l1.6,0.8l1.6,0.8l0.4-0.2l0.4-0.2l2.1,1l2.1,1l5.1,0.7l5.1,0.7l0.9,0.4l0.9,0.4l0.9-0.5l0.9-0.5l0.6,0.5l0.6,0.5l5.2,0l5.2,0
	l1.1-0.1l1.1-0.1l0.5-0.4l0.5-0.5l1.7,0.3l1.7,0.3l2.9-1.1l2.9-1.1l2.5-0.8l2.5-0.8h0.6h0.6l1.4-1l1.4-1l0.2-0.3l0.2-0.3l1.5-0.3
	l1.5-0.3l2-0.9l2-0.9l1.7-1.7l1.7-1.7l2.2-1.4l2.2-1.4l2.1-2.1l2.1-2.1l1.1-1.5l1.1-1.5l0.7-0.7l0.7-0.7l1.8-2.4l1.8-2.4l0.7-1.9
	l0.7-1.9l0.6-0.7l0.6-0.7l1.8-3.7l1.8-3.7l0.7-3.5l0.7-3.5l0.6-2.4l0.6-2.4l0.4-1l0.4-1v-1.3v-1.3l0.4-0.8l0.4-0.8l0.3-5.6l0.3-5.6
	l0-5.4l0-5.4l-0.2-5l-0.2-5l-0.2-1.5l-0.2-1.5l-0.2-3l-0.2-3l-0.7-3l-0.7-3l-0.1-4.2l-0.1-4.2l-1.4-2.9l-1.4-2.9l-1.2-0.6l-1.2-0.6
	l-0.9-0.5l-0.9-0.5l-2.4-1.1L1277,54l-13.3-0.1l-13.3-0.1l-0.5,0.5l-0.5,0.5l-1.1,0l-1.1,0l-1.7,0.5l-1.7,0.5l-1.6,1.1l-1.6,1.1
	l-0.2,0.7l-0.2,0.7l-0.8,0.9l-0.8,0.9l-0.9,1.3l-0.9,1.3l0.1,1.9l0.1,1.9l0.5,0.9l0.5,0.9v2v2l-0.4,0.3L1237,74l0,0.9l0,0.9l0.6,1.7
	l0.6,1.7l-0.1,3l-0.1,3l-0.3,1.5l-0.3,1.5l0.5,2.6l0.5,2.6l-0.7,1.9l-0.7,1.9l0,1.4l0,1.4l-0.4,0.3l-0.4,0.3v3.8v3.8l-0.6,0.5
	l-0.6,0.5v1v1l-1,1.5l-1,1.5l-0.8,2.5l-0.8,2.5l-0.8,0.3l-0.8,0.3l-0.2,0.7l-0.2,0.7l-1.1,1.2l-1.1,1.2l-2.1,0.1l-2.1,0.1l-1.1-0.7
	l-1.1-0.7l-1.4-1.3l-1.4-1.3l-0.5-1.5l-0.5-1.5l-0.9-1.3l-0.9-1.3l0.5-1.3l0.5-1.3l-0.4-0.1l-0.4-0.1v-1.7v-1.7l-0.6-0.2l-0.6-0.2
	l0.1-10.9l0.1-10.9l0.6-2.2l0.6-2.2l0-2.3l0-2.3l0.5-0.6l0.5-0.6L1216,75l-0.3-0.7l0.5-1.2l0.5-1.2l0.3-1.5l0.3-1.5l0-1.3l0-1.3
	l-0.1-3.6l-0.1-3.6l-1.3-1.5l-1.3-1.5h-0.6h-0.6l0-0.3l0-0.3l-2.1-1.1l-2.1-1.1l-1.9-0.5l-1.9-0.5l-1.7-0.1l-1.7-0.1l-4.5-0.3
	l-4.5-0.3l-0.2-0.4l-0.2-0.4l-0.5,0l-0.5,0L1189.3,51.2 M860.6,51.4l-3.2,0.3l-1.7,0.5l-1.7,0.5l-2.6,0l-2.6,0l-1.7,0.6l-1.7,0.6
	l-1.7,0.5l-1.7,0.5l-1.8,0.8l-1.8,0.8l-0.5,1.5l-0.5,1.5l-1.5,1.5l-1.5,1.5l0,0.5l0,0.5l-1.1,1l-1.1,1v1.4v1.4l-0.9,0.8l-0.9,0.8
	l0,0.7l0,0.7l-1.2,2.4l-1.2,2.4l-0.5,1.7l-0.5,1.7l-1.1,2l-1,2v0.9v0.9l-0.4,0.2l-0.4,0.2l-0.3,1.8l-0.3,1.8l-0.5,0.9l-0.5,0.9
	l-0.5,0.6l-0.5,0.6l-0.5,2l-0.5,2v1.8v1.8l-0.9,0.9l-0.9,0.9l0,1.6l0,1.6l-0.6,1.2l-0.6,1.2v0.8v0.8l-0.6,1l-0.6,1l-0.2,3.2
	l-0.2,3.2l-0.8,3.7l-0.8,3.7l-0.5,0.9l-0.5,0.9l-0.2,2.5l-0.2,2.5l-0.3,1.3l-0.3,1.3l-0.6,1.6l-0.6,1.6v2v2l-0.4,0.7L810,143l-0.3,5
	l-0.3,5l-0.5,2.6l-0.5,2.6l0,3.9l0,3.9l0.2,2.6l0.2,2.6l0.4,0.4l0.4,0.4v0.7v0.7l1.3,1.1l1.3,1.1h0.6h0.6l2.5,1.6l2.5,1.6l3,0l3,0
	l2.4,0.6l2.4,0.6l1.9-0.2l1.9-0.2l1.6-0.2l1.6-0.2l2,0.5l2,0.5l0.3-0.4l0.3-0.4l1-0.5l1-0.5l0.6,0.2l0.6,0.2l1.3-1.4l1.3-1.4l0-0.3
	l0-0.3l1.6-2.3l1.6-2.3l0.8-0.6l0.8-0.6l-0.2-0.6l-0.2-0.6l0.8-0.8l0.8-0.8l0.6-1.3l0.6-1.3v-0.8v-0.8l1.1-1.3l1.1-1.3l0.3-1.3
	l0.3-1.3l0.6-1.2l0.6-1.2l1.4-0.3l1.4-0.3l5.3,0l5.3,0l1.8,0.3l1.8,0.3l0.8,2.5l0.8,2.5l1,1.2l1,1.2v0.8v0.8l0.6,1.3l0.6,1.3
	l0.8,0.8l0.8,0.8l-0.2,0.6l-0.2,0.6l0.8,0.6l0.8,0.6l1.6,2.3l1.6,2.3v0.4v0.4l0.9,0.5l0.9,0.5v0.5v0.5l0.5,0.1l0.5,0.1l0.5-0.1
	l0.5-0.1l1,0.5l1,0.5l0.3,0.4l0.3,0.4l2-0.5l2-0.5l1.6,0.2l1.6,0.2l1.9,0.2l1.9,0.2l2.6-0.6l2.6-0.6l2.8,0l2.8,0l2.6-1.6l2.6-1.6
	h0.5h0.5l1.3-1.1l1.3-1.1v-0.7V172l0.4-0.4l0.4-0.4l0.2-2.6l0.2-2.6l0-3.9l0-3.9l-0.5-2.6l-0.5-2.6l-0.3-5l-0.3-5l-0.2-0.4l-0.2-0.4
	l-0.4-3.2l-0.4-3.2l-0.4-0.5l-0.4-0.5L921,133l-0.3-1.7l-0.2-2.3l-0.2-2.3l-0.6-1.2l-0.6-1.2l-0.8-3.8l-0.8-3.8l0.2-1.1l0.2-1.1
	l-0.4-0.2l-0.4-0.2v-1.6v-1.6l-0.6-0.8l-0.6-0.8l0-0.9l0-0.9l-0.6-1.2l-0.6-1.2l0-1.6l0-1.6l-0.9-0.9l-0.9-0.9v-1.8v-1.8l-0.5-2
	l-0.5-2l-0.5-0.6L911,91l-0.5-0.9l-0.5-0.9l-0.3-1.8l-0.3-1.8l-0.4-0.2l-0.4-0.2v-1.1V83l-1-1.6l-1-1.6l-0.6-1.9l-0.6-1.9l-1.3-2.4
	l-1.3-2.4l0-0.7l0-0.7l-0.9-0.8l-0.9-0.8v-1.4v-1.4l-1.1-1l-1.1-1l0-0.5l0-0.5l-1.1-1l-1.1-1l-1-2l-1-2l-1.7-0.7l-1.7-0.7l-1.7-0.5
	l-1.7-0.5l-1.7-0.6l-1.7-0.6h-2.4h-2.4l-2.7-0.6l-2.7-0.6l-5.2-0.1l-5.2-0.1L860.6,51.4 M972.8,56.6l0.2,0.6l1,0.1l1,0.1l2.6,0.6
	l2.6,0.6h1.9h1.9l0.7,0.7l0.7,0.7l2.3,0.7l2.3,0.7l1.3,0.2l1.3,0.2l1.9,1.5l1.9,1.5l1.6,0.3l1.6,0.3l1.1,0.7l1.1,0.7l1.3,1.2
	l1.3,1.2l2.2,1.7l2.2,1.7l0.3,1.4l0.3,1.4l1.3,1.7l1.3,1.7l0.5,1.4l0.5,1.4l0.4,1.1l0.4,1.1l0.3,0.6l0.3,0.6l-0.1,3l-0.1,3l-0.3,2.2
	l-0.3,2.2l0.3,1.5l0.3,1.5l0.6-0.2l0.6-0.2v-1.4v-1.4l1.1-2.8l1.1-2.8l-0.3-2l-0.3-2l0.1-1.7l0.1-1.7l-0.9-2.8l-0.9-2.8l-0.9-1.8
	l-0.9-1.8l-1.8-2.4l-1.8-2.4l-0.6-0.5l-0.6-0.5l-1.8-0.9l-1.8-0.9v-0.4v-0.4l-2.9-1.4l-2.9-1.4l-1.4-0.9l-1.4-0.9l-4.9-1.3l-4.9-1.3
	l-5-0.5l-5-0.5l-2.1-0.2l-2.1-0.2L972.8,56.6 M1462.7,57.6l-1.8,0.4v0.6v0.6l0.7,0.3l0.7,0.3l3.7-0.5l3.7-0.5l1.5,0.5l1.5,0.5
	l1.4,0.6l1.4,0.6h0.5h0.5l2.9,1.6l2.9,1.6l0.9,0.5l0.9,0.5l1.4,0.9l1.4,0.9l1.9,2.3l1.9,2.3v0.8v0.8l0.6,0.5l0.6,0.5l0.6,2.2
	l0.6,2.2l0.3,0.2l0.3,0.2v1v1l0.8,1.4l0.8,1.4l-0.2,3.5l-0.2,3.5l-0.2,3.4l-0.2,3.4l-0.9,2.7l-0.9,2.7l-1.3,2.4l-1.3,2.4l-1.1,1.1
	l-1.1,1.1l-1.4,2.1l-1.4,2.1l-1.8,1.2l-1.8,1.2l-3,0.4l-3,0.4l-0.7,0.6l-0.7,0.6l-2.1,1l-2.1,1l-0.6,1l-0.6,1l-0.9,2.3l-0.9,2.3
	l0.2,1.4l0.2,1.4l0.5,0.3l0.5,0.3l1.1-1.4l1.1-1.4l0.6-2l0.6-2l1.7-1l1.7-1l2.7-1.3l2.7-1.3l1.5-0.5l1.5-0.5l1.2-1.3l1.2-1.3l0.5,0
	l0.5,0l1.8-1.7l1.8-1.7l1.5-2.4l1.5-2.4v-0.7v-0.7l0.6-1.1l0.6-1.1l0.8-1.9l0.8-1.9l0.4-4.3l0.4-4.3l-0.4-3.9l-0.4-3.9l-0.4-2.3
	l-0.4-2.3l-0.5-1.6l-0.5-1.6l-0.6-0.9l-0.6-0.9v-0.8v-0.8l-1.5-1.4l-1.5-1.4l-0.3-1l-0.3-1l-1.4-0.9l-1.4-0.9l-1.3-1.2l-1.3-1.2
	l-3.8-2l-3.8-2l-3.6-0.9l-3.6-0.9l-3-0.1l-3-0.1L1462.7,57.6 M1099.3,58.2l-1,0.2v0.8V60l1,0.6l1,0.6l2.9,0.3l2.9,0.3l1.2,0.6
	l1.2,0.6l0.7,0l0.7,0l2.4,1.3l2.4,1.3h0.4h0.4l3.1,1.8l3.1,1.8l1.6,0.5l1.6,0.5l1,1.5l1,1.5l1.3,0.6l1.3,0.6l1.1,1.3l1.1,1.3
	l1.3,1.3l1.3,1.3l0.8,1.3l0.8,1.3l2.3,2.9l2.3,2.9l1.5,3.7l1.5,3.7l0.4,2.4l0.4,2.4l0.3,0.5l0.3,0.5l0.1,1.5l0.1,1.5l0.5,4.1
	l0.5,4.1l0,0.6l0,0.6l-0.5,2.4l-0.5,2.4l-0.1,2.6l-0.1,2.6l-0.7,1.1l-0.7,1.1l-0.7,3.2l-0.7,3.2l-1.4,2.4l-1.4,2.4l-1.2,1.6
	l-1.2,1.6l-0.6,1.5l-0.6,1.5l-0.5,0.3l-0.5,0.3l-0.6,1.4l-0.6,1.4l-1.8,1.2l-1.8,1.2l-0.8,1.5l-0.8,1.5l-1.8,1.4l-1.8,1.4l-1.6,1.1
	l-1.6,1.1l-3.1,2.4l-3.1,2.4l-1.2,0.9l-1.2,0.9v0.6v0.6h0.3h0.3l2.4-1.1l2.4-1.1l2.2-1.1l2.2-1.1l2-1.4l2-1.4l0.8-0.3l0.8-0.3
	l1.2-1.1l1.2-1.1V155v-0.4l1.7-1.6l1.7-1.6h0.4h0.4l0.5-1.2l0.5-1.2l2.1-1.9l2.1-1.9v-0.9v-0.9l1.7-2.1l1.7-2.1l0.5-1.6l0.5-1.6
	l0.8-1l0.8-1l0.7-3.5l0.7-3.5l0.8-2.2l0.8-2.2l0.4-4.5l0.4-4.5l0.2-1.5l0.2-1.5l-0.5-1.7l-0.5-1.7l-0.1-3l-0.1-3l-0.5-1.3l-0.5-1.3
	l-0.5-2.6l-0.5-2.6l-0.6-1.4l-0.6-1.4V90v-0.4l-1.4-2.1l-1.4-2.1l-0.8-2.1l-0.8-2.1l-3.2-3.7l-3.2-3.7l-1.1-1.3l-1.1-1.3l-2.4-2.3
	l-2.4-2.3l-1.6-0.4l-1.6-0.4l-0.2-0.4l-0.2-0.4l-2.7-1.3l-2.7-1.3l-2.2-0.8l-2.2-0.8l-0.7-0.6l-0.7-0.6l-3.6-0.4l-3.6-0.4l-1.9-0.2
	l-1.9-0.2l-1.1-0.2l-1.1-0.2L1099.3,58.2 M1189.3,60.1l-1.9,0.3l-3.7,0.5l-3.7,0.5l-1,0.2l-1,0.2v0.6v0.6l1,0.2l1,0.2l7.6,0.2
	l7.6,0.2l3.3,0.3l3.3,0.3l0.7,0.8l0.7,0.8h0.5h0.5l0.4,0.5l0.4,0.5l-0.8,4.3l-0.8,4.3l-0.4,5.4l-0.4,5.4l-0.4,1.6l-0.4,1.6v5v5
	l0.4,5.6l0.4,5.6l0.2,1.7l0.2,1.7l0.5,2.3l0.5,2.3l0.4,0.2l0.4,0.2v1v1l1.8,3.4l1.8,3.4l1.1,0.8l1.1,0.8l1.9,2l1.9,2l1.7,0.7
	l1.7,0.7h2.3h2.3l0.7-0.8l0.7-0.8l-0.4-0.3l-0.4-0.3l-2.1-0.5l-2.1-0.5l-1.3-0.3l-1.3-0.3l-2.3-2.4l-2.3-2.4l-0.8-1.7l-0.8-1.7
	l-1.5-2.8l-1.5-2.8v-1.4v-1.4l-0.4-1.1l-0.4-1.1l-0.5-4.1l-0.5-4.1l0.1-1.5l0.1-1.5l0.4-9.5l0.4-9.5l0.7-3.5l0.7-3.5l0-1.5l0-1.5
	l1.3-4l1.3-4l-0.7-1.1l-0.7-1.1l-1.2-0.6l-1.2-0.6l-3.3-0.2l-3.3-0.2l-0.5-0.4l-0.5-0.4l-3.7-0.2l-3.7-0.2L1189.3,60.1 M1342,60.1
	l-4.8,0.4l-8.2,0.2l-8.2,0.2l-1.5,0.4l-1.5,0.4l-1.1-0.3l-1.1-0.3l-2.6,0.8l-2.6,0.8l-1.3-0.5l-1.3-0.5l-3.7,0.7l-3.7,0.7l0.2,0.9
	l0.2,0.9l0,0.9l0,0.9l1.2,0.4l1.2,0.4l1.1-0.3l1.1-0.3l1.8,0l1.8,0l3.8-0.6l3.8-0.6l4.3-0.2l4.3-0.2l3.2-0.2l3.2-0.2l8-0.2l8-0.2
	l1.5-0.2l1.5-0.2l11.5,0l11.5,0l7.4,0.3l7.4,0.3l3.2,0.2l3.2,0.2l4.5,0.2l4.5,0.2l0.8,0.2l0.8,0.2l0.8,2.9l0.8,2.9l-0.1,8l-0.1,8
	l-0.3,2.6l-0.3,2.6l-0.8,1.6L1405,96v1.7v1.7l0.4,0.2l0.4,0.2l0.7-0.3l0.7-0.3l0.8-1.7l0.8-1.7V95v-1.1l1.1-3l1.1-3l0-1.9l0-1.9
	l0.5-4.2l0.5-4.2l-0.5-2.3l-0.5-2.3l0.3-1.1l0.3-1.1l-0.9-2.8L1410,63l-1.5-0.4l-1.5-0.4l-4.1-0.5l-4.1-0.5l-3.2-0.4l-3.2-0.4
	l-4.5-0.2l-4.5-0.2l-1.5,0l-1.5,0l-6.3,0l-6.3,0l-3.4,0l-3.4,0l-1.2,0.1l-1.2,0.1l-5.8-0.2l-5.8-0.2L1342,60.1 M1259.4,61.6
	l-0.2,0.2l-3.6,0.2l-3.6,0.2l-0.8,0.4l-0.8,0.4l-1.7,0l-1.7,0l-1,0.9l-1,0.9l0.6,1.7l0.6,1.7l1.4,0.3l1.4,0.3l1.2-0.6l1.2-0.6
	l1.7-0.3l1.7-0.3l1.5-0.2l1.5-0.2l3,0l3,0l1.2,0l1.2,0l1.6,0l1.6,0l2.9,0.1l2.9,0.1l0.1,0.2l0.1,0.2l0.6,1.9l0.6,1.9l0.4,1.9
	l0.4,1.9l0.1,4.1l0.1,4.1l0.5,1.9l0.5,1.9l0.2,5l0.2,5l-0.4,0.5l-0.4,0.5l0.5,2.3l0.5,2.3l-0.5,2.4l-0.5,2.4l-0.1,2l-0.1,2l-0.3,3.7
	l-0.3,3.7l-0.6,1.2l-0.6,1.2v1.1v1.1l-0.7,2.4l-0.7,2.4l-0.4,0.8l-0.4,0.8v0.8v0.8l-1.1,2.5l-1.1,2.5l-0.4,0.9l-0.4,0.9l-0.9,2.4
	l-0.9,2.4v0.7v0.7l-0.8,0.6l-0.8,0.6l-2,3l-2,3l-1.3,1.2l-1.3,1.2v0.6v0.6l-2.6,2.4l-2.6,2.4l-1.3,0.3l-1.3,0.3l-0.3,0.7l-0.3,0.7
	l-0.7,0.5l-0.7,0.5l0.3,0.3l0.3,0.3l0.7-0.5l0.7-0.5l1.8-0.8l1.8-0.8l2.3-1.7l2.3-1.7l1.3-1.2l1.3-1.2l1.4-1l1.4-1l0.6-1.2l0.6-1.2
	l1.5-1.5l1.5-1.5l1.2-2.2l1.2-2.2l1.3-2.6l1.3-2.6l0.6-1.3l0.6-1.3l1.1-2.4l1.1-2.4l0.5-3l0.5-3l0.5-0.9l0.5-0.9l0.4-3.2l0.4-3.2
	l0.2-4.5l0.2-4.5l0-2.8l0-2.8l-0.1-6.9l-0.1-6.9l-0.6-2.8l-0.6-2.8l0.1-2l0.1-2l-0.3-2.3l-0.3-2.3l-0.2-0.4l-0.2-0.4l-0.2-3.2
	l-0.2-3.2l-0.4-1.1l-0.4-1.1l-1.2-0.8l-1.2-0.8l-2.9-0.5l-2.9-0.5l-4.5,0.3l-4.5,0.3l-1.3-0.5l-1.3-0.5L1259.4,61.6 M885,62.8l0.3,1
	l0.3,1.6l0.3,1.6l1.5,2.5L889,72l1.3,2.8l1.3,2.8l0.8,1.3l0.8,1.3l0,0.8l0,0.8l0.7,1.3l0.7,1.3l0.2,1.5l0.2,1.5l0.9,1.2l0.9,1.2
	l0.9,2.1l0.9,2.1l-0.1,0.9l-0.1,0.9l0.4,1.1l0.4,1.1l0.8,1.7l0.8,1.7l1.5,4.1l1.5,4.1l0.1,1.5l0.1,1.5l1.1,2.4l1.1,2.4l0.3,1.5
	l0.3,1.5l0.2,1.5l0.2,1.5l0.4,1.7l0.4,1.7l0.5,2.6l0.5,2.6l0.9,2.2l0.9,2.2l0.1,3.5l0.1,3.5l0.5,2.4l0.5,2.4l0.1,2.6l0.1,2.6
	l0.5,1.9l0.5,1.9l-0.2,2.9l-0.2,2.9l-0.7,1.9l-0.7,1.9l0,0.9l0,0.9l0.5,0.5l0.5,0.5h1.4h1.4l0.8-1.2l0.8-1.2l0-2.9l0-2.9l-0.6-5.4
	l-0.6-5.4l0-1.5l0-1.5l-0.6-2.2l-0.6-2.2l-0.3-3l-0.3-3l-0.8-4l-0.8-4l-0.5-1.2l-0.5-1.2l-0.4-2.6l-0.4-2.6l-0.4-3l-0.4-3l-0.5-0.9
	l-0.5-0.9v-1.1v-1.1l-0.9-2.1l-0.9-2.1l-0.6-1.9l-0.6-1.9l0-1.2l0-1.2l-0.6-2.4l-0.6-2.4l-1.6-4.3l-1.6-4.3l-0.4-0.9l-0.4-0.9
	l-1.1-3.4l-1.1-3.4l-1.1-2l-1.1-2l-1.3-2.9l-1.3-2.9l-1.8-2.8l-1.8-2.8l-1.2-0.5l-1.2-0.5l-0.2-0.6l-0.2-0.6h-1.1h-1.1L885,62.8
	 M1463.9,77.9l-2.4,0.4l-1.6,1.1l-1.6,1.1l-1,0.9l-1,0.9l-0.8,1l-0.8,1l0.5,1l0.5,1h0.4h0.4l0.2-0.6l0.2-0.6l3.3-1.8l3.3-1.8l3.3,0
	l3.3,0l2.9,2.2l2.9,2.2v2.7v2.7l-1,1.5l-1,1.5l-2.3,1.2l-2.3,1.2l-1.6,0.8l-1.6,0.8l-0.6,0l-0.6,0l-2.5,1.2l-2.5,1.2v0.5v0.5
	l1.3,0.9l1.3,0.9h1.7h1.7l4-2l4-2l0.5-0.9l0.5-0.9l1.6-1.5l1.6-1.5l0.3-1.3l0.3-1.3l0.7-0.8l0.7-0.8l-0.3-2.2l-0.3-2.2l-1.5-2.1
	l-1.5-2.1l-0.7-1.3l-0.7-1.3l-1.3-0.7l-1.3-0.7l-1.8-0.2l-1.8-0.2l-1.3-0.2l-1.3-0.2L1463.9,77.9 M960.5,83.9l-0.2,1l-0.3,7.2
	l-0.3,7.2l0.7,1.8l0.7,1.8h0.4h0.4v0.4v0.4l1.2,1.4l1.2,1.4l2.5,1.6l2.5,1.6l3.2-0.1l3.2-0.1l1.3-0.3l1.3-0.3l1.3-1.1l1.3-1.1
	l-1.5,0.3l-1.5,0.3l-2.6,0.3l-2.6,0.3l-2.4-0.6l-2.4-0.6L965,104l-2.8-2.8l0.2-2.7l0.2-2.7l-0.6-1.5l-0.6-1.5l0.1-4.5l0.1-4.5
	l-0.5-0.5l-0.5-0.5L960.5,83.9 M975.1,83.8l-1.3,0.3l-1.4-0.2l-1.4-0.2l0,2.5l0,2.5l0,3.5l0,3.5l0.5,0.9l0.5,0.9v0.9v0.9h1.3h1.3
	l0,0.5l0,0.5l0.6-0.8l0.6-0.8l0.6,0l0.6,0l1.7-0.6l1.7-0.6l1.1-1.3l1.1-1.3l1.4-0.8l1.4-0.8l0.2-1l0.2-1l-0.3-1.6l-0.3-1.6l-0.5-0.8
	l-0.5-0.8h-0.5h-0.5v-0.4v-0.4l-0.9-1l-0.9-1l-0.4,0.2l-0.4,0.2l-0.5-0.6l-0.5-0.6l-1.6,0.1l-1.6,0.1L975.1,83.8 M856.3,97.1l-1.9,1
	l-1,1.2l-1,1.2l-0.7,1.9l-0.7,1.9l-1.8,2.8l-1.8,2.8l-0.4,2.4l-0.4,2.4l-0.5,0.6l-0.5,0.6l0,3.5l0,3.5l0.7,1.4l0.7,1.4l1.3,1.1
	l1.3,1.1v0.4v0.4l1.1,0.8l1.1,0.8l2.1,0.5l2.1,0.5l1.9,0.6l1.9,0.6l1.7,0l1.7,0l0.8-0.6l0.8-0.6l-1.4-0.3l-1.4-0.3H861h-1.2
	l-3.2-1.1l-3.2-1.1l-1.2-0.2l-1.2-0.2l-0.8-1.1l-0.8-1.1l-0.5-1.5l-0.5-1.5v-2.5v-2.5l0.4-0.2l0.4-0.2l0.8-3.1l0.8-3.1l1.5-2.9
	l1.5-2.9l1.4-2l1.4-2l0.7-1.6l0.7-1.6l1.1-0.7l1.1-0.7v-0.6V96l-1,0l-1,0L856.3,97.1 M1081,102.2l-1.1,1l-0.8,1.5l-0.8,1.5l-0.4,2.4
	l-0.4,2.4l-0.2,3l-0.2,3l0.6,1.8l0.6,1.8l0.2,1.7l0.2,1.7l1.7,2.3l1.7,2.3l1.1,1.1l1.1,1.1l2.9,1.5l2.9,1.5l3.4,0.1l3.4,0.1l1.2-0.6
	l1.2-0.6l-0.5-0.3l-0.5-0.3l-1.2,0l-1.2,0l-2.7-0.7l-2.7-0.7l-2.7-1.9l-2.7-1.9v-0.4v-0.4l-2.2-2.9l-2.2-2.9l-0.6-2.6l-0.6-2.6
	l0-1.7l0-1.7l1.6-4l1.6-4l0.4-0.4l0.4-0.4V102v-0.8l-0.5,0l-0.5,0L1081,102.2 M1094.3,103.6l-1.3,0.7l-1.7,1.5l-1.7,1.5v0.7v0.7
	l-0.5,0.5l-0.5,0.5l-0.1,2.2l-0.1,2.2l-0.3,0.5l-0.3,0.5l0.6,1.5l0.6,1.5l1.6,2.2l1.6,2.2l1.3,0.4l1.3,0.4l3.2-0.2l3.2-0.2l1-0.3
	l1-0.3V122v-0.3l1.6-0.9l1.6-0.9l1.1-1.1l1.1-1.1l0.5-0.9l0.5-0.9v-1.2v-1.2l-0.5-0.5l-0.5-0.5l0.5-0.9l0.5-0.9l-1.1-1.2l-1.1-1.2
	V108v-0.3l-1.5-1.5l-1.5-1.5v-0.5v-0.5l-2.5-0.2l-2.5-0.2l-2.2-0.2l-2.2-0.2L1094.3,103.6 M864.1,104.5l-0.8,1.2l-1.2,1.3l-1.2,1.3
	l-0.2,1l-0.2,1h-0.4h-0.4l0,0.5l0,0.5l-0.8,1.1l-0.8,1.1l0,2.2l0,2.2l-0.6,0.5l-0.6,0.5v0.5v0.5l1.9,0.9l1.9,0.9l1.5-0.3l1.5-0.3
	l0.6,0.5l0.6,0.5l2.1,0.2l2.1,0.2l1.6,0.3l1.6,0.3l1.7-0.5l1.7-0.5l0.3-0.4l0.3-0.4l-1-1.8l-1-1.8l-0.9-1.5l-0.9-1.5l0-0.8l0-0.8
	l-1-1.6l-1-1.6l-0.4-0.7l-0.4-0.7l-1.4-2.1l-1.4-2.1l-0.9-0.5l-0.9-0.5L864.1,104.5 M1379.3,107.4l-1.1,1.1l-0.3,1.2l-0.3,1.2
	l-0.9,1.8l-0.9,1.8l-0.2,6.8l-0.2,6.8l-0.3,1.8l-0.3,1.8l0.4,1.2l0.4,1.2l-0.6,8.2l-0.6,8.2l-0.8,2.8l-0.8,2.8l0,0.6l0,0.6l-0.6,3.2
	l-0.6,3.2l0.5,0.9l0.5,0.9l1,0.1l1,0.1l1.2-1.8l1.2-1.8V161v-1.6l0.4-0.4l0.4-0.4l0.4-2.2l0.4-2.2l0.3-7.4l0.3-7.4l0.4-1.4l0.4-1.4
	l-0.2-11.8l-0.2-11.8l0.3-3.2l0.3-3.2l-0.1-0.1l-0.1-0.1L1379.3,107.4 M1016.1,113.7v0.3l0.4,0.4l0.4,0.4l0.8,2.2l0.8,2.2l0.8,0.9
	l0.8,0.9v0.7v0.7l0.4,0.2l0.4,0.2l0.7,2.5l0.7,2.5l0.4,1.1l0.4,1.1l0.2,3.3l0.2,3.3l0.4,1.1l0.4,1.1l-0.4,2.1l-0.4,2.1l0,1l0,1
	l-0.6,0.9l-0.6,0.9v1.1v1.1l-2.2,3.2l-2.2,3.2v0.4v0.4l-3.4,2.2l-3.4,2.2l-0.1,0.1l-0.1,0.1l-0.4,1.4l-0.4,1.4h0.5h0.5l1.5-1.4
	l1.5-1.4l2.3-1.5l2.3-1.5l0.5-1l0.5-1l2.3-2.2l2.3-2.2l0.3-1.3l0.3-1.3l0.6-0.9l0.6-0.9l0.7-2.8l0.7-2.8l0-3.7l0-3.7l-0.8-2.6
	l-0.8-2.6l-0.6-1.7l-0.6-1.7l-1.2-1.8l-1.2-1.8l-1-2.2l-1-2.2l-1.7-1.9l-1.7-1.9v-0.4v-0.4h-0.4h-0.4V113.7 M963.2,127.9l-0.9,2.9
	l-0.2,4.8l-0.2,4.8l-0.1,0.4l-0.1,0.4l0.3,0.9l0.3,0.9l0.4,0.7l0.4,0.7l-0.2,0.9l-0.2,0.9l0.9,1.5l0.9,1.5h0.3h0.3l0.5,1l0.5,1
	l1.4,0.8l1.4,0.8l3.3,0.4l3.3,0.4l3,0l3,0l1.1-0.8l1.1-0.8l0.1-0.7l0.1-0.7h-0.8h-0.8l-2.5,0.6l-2.5,0.6h-1.9h-1.9l-0.2-0.4
	l-0.2-0.4l-2.2-0.5l-2.2-0.5l-1-1.4l-1-1.4l-0.5-1.5l-0.5-1.5l-0.3-1.5l-0.3-1.5l-0.1-1.9l-0.1-1.9l-0.1-6.2L965,125h-0.4h-0.4
	L963.2,127.9 M976.2,126.2l-1.1,0.2l-1,0.8l-1,0.8l0,5.6l0,5.6l0.5,1.9l0.5,1.9l0.6,0.2l0.6,0.2l4.2-0.7l4.2-0.7l0.9-0.3l0.9-0.3
	l1.7-1.6l1.7-1.6l-0.3-2.4l-0.3-2.4l-0.5-0.8l-0.5-0.8H987h-0.3l-2.2-2.2l-2.2-2.2h-1.6h-1.6l-0.5-0.6l-0.5-0.6l-0.3,0.1l-0.3,0.1
	L976.2,126.2 M1460.7,141.5l-2.2,0.4l-2.5,0.5l-2.5,0.5v0.4v0.4h-1h-1l-1.3,1.2l-1.3,1.2l-1.1,2.1l-1.1,2.1v0.7v0.7l-0.7,1l-0.7,1
	l-0.2,4.2l-0.2,4.2l1.3,1.7l1.3,1.7l1.4,2.7l1.4,2.7l3.6,1.8l3.6,1.8l2-0.5l2-0.5l0.8,0.4l0.8,0.4l1.7,0l1.7,0l1.3-0.8l1.3-0.8
	l1.4-0.6l1.4-0.6v-0.5v-0.5l1.2-0.4l1.2-0.4l2.1-4.3l2.1-4.3v-2.4v-2.4l-0.5-1.6l-0.5-1.6l-0.4-0.8l-0.4-0.8v-0.5v-0.5l-1.4-2
	l-1.4-2l-1.5-1.4l-1.5-1.4l-2.2-1.1l-2.2-1.1l-1.7-0.2l-1.7-0.2L1460.7,141.5 M1461.8,150.1v0.4l0.5,1.1l0.5,1.1l1.1,0.6l1.1,0.6
	l0.6,1.5l0.6,1.5l-0.5,2.7l-0.5,2.7l-0.4,0.2l-0.4,0.2v1.1v1.1l0.7,0.3l0.7,0.3l1.6-1.3l1.6-1.3l0.5-1.5l0.5-1.5l0-2.5l0-2.5
	l-1.5-1.4l-1.5-1.4l-1.5-1.2l-1.5-1.2h-1.1h-1.1V150.1"/>
</svg>
